<mxfile host="65bd71144e">
    <diagram id="DqvB1b_ml_UBgAkNDYVj" name="Page-1">
        <mxGraphModel dx="1574" dy="2078" grid="1" gridSize="10" guides="1" tooltips="1" connect="1" arrows="1" fold="1" page="1" pageScale="1" pageWidth="850" pageHeight="1100" math="0" shadow="0">
            <root>
                <mxCell id="0"/>
                <mxCell id="1" parent="0"/>
                <mxCell id="34" style="edgeStyle=orthogonalEdgeStyle;html=1;entryX=0.5;entryY=0;entryDx=0;entryDy=0;" parent="1" source="2" target="3" edge="1">
                    <mxGeometry relative="1" as="geometry"/>
                </mxCell>
                <mxCell id="2" value="START" style="ellipse;whiteSpace=wrap;html=1;" parent="1" vertex="1">
                    <mxGeometry x="80" y="40" width="120" height="80" as="geometry"/>
                </mxCell>
                <mxCell id="5" value="" style="edgeStyle=none;html=1;" parent="1" source="3" target="4" edge="1">
                    <mxGeometry relative="1" as="geometry"/>
                </mxCell>
                <mxCell id="3" value="ADD MOVIE&lt;br&gt;Click" style="rounded=0;whiteSpace=wrap;html=1;" parent="1" vertex="1">
                    <mxGeometry x="80" y="170" width="120" height="60" as="geometry"/>
                </mxCell>
                <mxCell id="7" value="" style="edgeStyle=orthogonalEdgeStyle;html=1;" parent="1" source="4" target="6" edge="1">
                    <mxGeometry relative="1" as="geometry"/>
                </mxCell>
                <mxCell id="4" value="SHOW FORM" style="rounded=0;whiteSpace=wrap;html=1;" parent="1" vertex="1">
                    <mxGeometry x="80" y="310" width="120" height="60" as="geometry"/>
                </mxCell>
                <mxCell id="9" value="" style="edgeStyle=orthogonalEdgeStyle;html=1;" parent="1" source="6" target="8" edge="1">
                    <mxGeometry relative="1" as="geometry"/>
                </mxCell>
                <mxCell id="6" value="USER supildo form" style="rounded=0;whiteSpace=wrap;html=1;" parent="1" vertex="1">
                    <mxGeometry x="260" y="50" width="120" height="60" as="geometry"/>
                </mxCell>
                <mxCell id="8" value="sukuria&amp;nbsp;" style="rounded=0;whiteSpace=wrap;html=1;" parent="1" vertex="1">
                    <mxGeometry x="460" y="50" width="160" height="30" as="geometry"/>
                </mxCell>
                <mxCell id="12" value="" style="edgeStyle=orthogonalEdgeStyle;html=1;" parent="1" source="10" target="11" edge="1">
                    <mxGeometry relative="1" as="geometry"/>
                </mxCell>
                <mxCell id="10" value="&lt;div style=&quot;color: rgb(255 , 255 , 255) ; background-color: rgb(25 , 53 , 73) ; font-family: &amp;#34;cascadia code&amp;#34; , &amp;#34;menlo&amp;#34; , &amp;#34;monaco&amp;#34; , &amp;#34;courier new&amp;#34; , monospace , &amp;#34;consolas&amp;#34; , &amp;#34;courier new&amp;#34; , monospace ; font-size: 16px ; line-height: 22px&quot;&gt;newMovieDetails&lt;/div&gt;" style="rounded=0;whiteSpace=wrap;html=1;" parent="1" vertex="1">
                    <mxGeometry x="460" y="80" width="160" height="30" as="geometry"/>
                </mxCell>
                <mxCell id="14" style="edgeStyle=orthogonalEdgeStyle;html=1;entryX=0.5;entryY=0;entryDx=0;entryDy=0;" parent="1" source="11" target="13" edge="1">
                    <mxGeometry relative="1" as="geometry"/>
                </mxCell>
                <mxCell id="11" value="&lt;div style=&quot;line-height: 22px&quot;&gt;&lt;span style=&quot;background-color: rgb(42 , 42 , 42)&quot;&gt;mini validacija&lt;/span&gt;&lt;/div&gt;&lt;div style=&quot;line-height: 22px&quot;&gt;&lt;span style=&quot;background-color: rgb(42 , 42 , 42)&quot;&gt;ar yra tusiu lauku?&lt;/span&gt;&lt;/div&gt;" style="rounded=0;whiteSpace=wrap;html=1;" parent="1" vertex="1">
                    <mxGeometry x="460" y="190" width="160" height="50" as="geometry"/>
                </mxCell>
                <mxCell id="15" style="edgeStyle=orthogonalEdgeStyle;html=1;entryX=0.351;entryY=-0.03;entryDx=0;entryDy=0;entryPerimeter=0;" parent="1" source="13" target="21" edge="1">
                    <mxGeometry relative="1" as="geometry">
                        <mxPoint x="540" y="440" as="targetPoint"/>
                    </mxGeometry>
                </mxCell>
                <mxCell id="18" value="NE" style="edgeLabel;html=1;align=center;verticalAlign=middle;resizable=0;points=[];" parent="15" vertex="1" connectable="0">
                    <mxGeometry x="-0.2517" y="1" relative="1" as="geometry">
                        <mxPoint as="offset"/>
                    </mxGeometry>
                </mxCell>
                <mxCell id="16" style="edgeStyle=orthogonalEdgeStyle;html=1;" parent="1" source="13" edge="1">
                    <mxGeometry relative="1" as="geometry">
                        <mxPoint x="660" y="340" as="targetPoint"/>
                    </mxGeometry>
                </mxCell>
                <mxCell id="17" value="TAIP" style="edgeLabel;html=1;align=center;verticalAlign=middle;resizable=0;points=[];" parent="16" vertex="1" connectable="0">
                    <mxGeometry x="-0.1249" relative="1" as="geometry">
                        <mxPoint as="offset"/>
                    </mxGeometry>
                </mxCell>
                <mxCell id="13" value="" style="rhombus;whiteSpace=wrap;html=1;" parent="1" vertex="1">
                    <mxGeometry x="500" y="300" width="80" height="80" as="geometry"/>
                </mxCell>
                <mxCell id="19" value="&lt;div style=&quot;line-height: 22px&quot;&gt;return&lt;/div&gt;&lt;div style=&quot;line-height: 22px&quot;&gt;nutraukiam pridejima&lt;/div&gt;" style="rounded=0;whiteSpace=wrap;html=1;" parent="1" vertex="1">
                    <mxGeometry x="660" y="315" width="160" height="50" as="geometry"/>
                </mxCell>
                <mxCell id="27" style="edgeStyle=orthogonalEdgeStyle;html=1;entryX=0.5;entryY=0;entryDx=0;entryDy=0;" parent="1" source="21" target="24" edge="1">
                    <mxGeometry relative="1" as="geometry"/>
                </mxCell>
                <mxCell id="21" value="&lt;div style=&quot;color: rgb(255 , 255 , 255) ; background-color: rgb(25 , 53 , 73) ; font-family: &amp;#34;cascadia code&amp;#34; , &amp;#34;menlo&amp;#34; , &amp;#34;monaco&amp;#34; , &amp;#34;courier new&amp;#34; , monospace , &amp;#34;consolas&amp;#34; , &amp;#34;courier new&amp;#34; , monospace ; font-size: 16px ; line-height: 22px&quot;&gt;&lt;div style=&quot;font-family: &amp;#34;cascadia code&amp;#34; , &amp;#34;menlo&amp;#34; , &amp;#34;monaco&amp;#34; , &amp;#34;courier new&amp;#34; , monospace , &amp;#34;consolas&amp;#34; , &amp;#34;courier new&amp;#34; , monospace ; line-height: 22px&quot;&gt;&lt;span style=&quot;color: #ffc600&quot;&gt;addNewMovieHandler&lt;/span&gt;&lt;span style=&quot;color: #e1efff&quot;&gt;(&lt;/span&gt;newMovieDetails&lt;span style=&quot;color: #e1efff&quot;&gt;)&lt;/span&gt;&lt;/div&gt;&lt;/div&gt;" style="rounded=0;whiteSpace=wrap;html=1;" parent="1" vertex="1">
                    <mxGeometry x="390" y="450" width="430" height="50" as="geometry"/>
                </mxCell>
                <mxCell id="22" value="&lt;div style=&quot;color: rgb(255 , 255 , 255) ; background-color: rgb(25 , 53 , 73) ; font-family: &amp;#34;cascadia code&amp;#34; , &amp;#34;menlo&amp;#34; , &amp;#34;monaco&amp;#34; , &amp;#34;courier new&amp;#34; , monospace , &amp;#34;consolas&amp;#34; , &amp;#34;courier new&amp;#34; , monospace ; font-size: 16px ; line-height: 22px&quot;&gt;mainMoviesArr&lt;/div&gt;" style="shape=cylinder3;whiteSpace=wrap;html=1;boundedLbl=1;backgroundOutline=1;size=15;" parent="1" vertex="1">
                    <mxGeometry x="790" y="570" width="160" height="130" as="geometry"/>
                </mxCell>
                <mxCell id="25" style="edgeStyle=orthogonalEdgeStyle;html=1;entryX=0.007;entryY=0.643;entryDx=0;entryDy=0;entryPerimeter=0;" parent="1" source="24" target="22" edge="1">
                    <mxGeometry relative="1" as="geometry"/>
                </mxCell>
                <mxCell id="26" value="PUSH" style="edgeLabel;html=1;align=center;verticalAlign=middle;resizable=0;points=[];" parent="25" vertex="1" connectable="0">
                    <mxGeometry x="-0.3303" y="2" relative="1" as="geometry">
                        <mxPoint as="offset"/>
                    </mxGeometry>
                </mxCell>
                <mxCell id="31" style="edgeStyle=orthogonalEdgeStyle;html=1;entryX=0.431;entryY=0.012;entryDx=0;entryDy=0;entryPerimeter=0;" parent="1" source="24" target="37" edge="1">
                    <mxGeometry relative="1" as="geometry"/>
                </mxCell>
                <mxCell id="24" value="&lt;div style=&quot;color: rgb(255 , 255 , 255) ; background-color: rgb(25 , 53 , 73) ; font-family: &amp;#34;cascadia code&amp;#34; , &amp;#34;menlo&amp;#34; , &amp;#34;monaco&amp;#34; , &amp;#34;courier new&amp;#34; , monospace , &amp;#34;consolas&amp;#34; , &amp;#34;courier new&amp;#34; , monospace ; font-size: 16px ; line-height: 22px&quot;&gt;newMovieDetails&lt;/div&gt;" style="rounded=0;whiteSpace=wrap;html=1;" parent="1" vertex="1">
                    <mxGeometry x="525" y="540" width="160" height="30" as="geometry"/>
                </mxCell>
                <mxCell id="32" style="edgeStyle=orthogonalEdgeStyle;html=1;entryX=0;entryY=1;entryDx=0;entryDy=-15;entryPerimeter=0;" parent="1" source="28" target="22" edge="1">
                    <mxGeometry relative="1" as="geometry"/>
                </mxCell>
                <mxCell id="28" value="CIKLAS per mainMoviesArr" style="rounded=0;whiteSpace=wrap;html=1;" parent="1" vertex="1">
                    <mxGeometry x="510" y="790" width="120" height="60" as="geometry"/>
                </mxCell>
                <mxCell id="29" value="Sugeneruojam ir atvaizduojam tiek elementu kiek yra mainMoviesArr" style="rounded=0;whiteSpace=wrap;html=1;" parent="1" vertex="1">
                    <mxGeometry x="510" y="850" width="120" height="60" as="geometry"/>
                </mxCell>
                <mxCell id="36" style="edgeStyle=orthogonalEdgeStyle;html=1;entryX=0.5;entryY=0;entryDx=0;entryDy=0;" parent="1" source="33" target="35" edge="1">
                    <mxGeometry relative="1" as="geometry"/>
                </mxCell>
                <mxCell id="33" value="&lt;div style=&quot;color: rgb(255 , 255 , 255) ; background-color: rgb(25 , 53 , 73) ; font-family: &amp;#34;cascadia code&amp;#34; , &amp;#34;menlo&amp;#34; , &amp;#34;monaco&amp;#34; , &amp;#34;courier new&amp;#34; , monospace , &amp;#34;consolas&amp;#34; , &amp;#34;courier new&amp;#34; , monospace ; font-size: 16px ; line-height: 22px&quot;&gt;&lt;div style=&quot;font-family: &amp;#34;cascadia code&amp;#34; , &amp;#34;menlo&amp;#34; , &amp;#34;monaco&amp;#34; , &amp;#34;courier new&amp;#34; , monospace , &amp;#34;consolas&amp;#34; , &amp;#34;courier new&amp;#34; , monospace ; line-height: 22px&quot;&gt;&lt;div style=&quot;font-family: &amp;#34;cascadia code&amp;#34; , &amp;#34;menlo&amp;#34; , &amp;#34;monaco&amp;#34; , &amp;#34;courier new&amp;#34; , monospace , &amp;#34;consolas&amp;#34; , &amp;#34;courier new&amp;#34; , monospace ; line-height: 22px&quot;&gt;els&lt;span style=&quot;color: #e1efff&quot;&gt;.&lt;/span&gt;&lt;span style=&quot;color: #9effff&quot;&gt;moviesContainer&lt;/span&gt;&lt;span style=&quot;color: #e1efff&quot;&gt;.&lt;/span&gt;&lt;span style=&quot;color: #ffc600&quot;&gt;append&lt;/span&gt;&lt;span style=&quot;color: #e1efff&quot;&gt;(&lt;/span&gt;newMovieHtmlEl&lt;span style=&quot;color: #e1efff&quot;&gt;)&lt;/span&gt;&lt;/div&gt;&lt;/div&gt;&lt;/div&gt;" style="rounded=0;whiteSpace=wrap;html=1;" parent="1" vertex="1">
                    <mxGeometry x="365" y="910" width="410" height="30" as="geometry"/>
                </mxCell>
                <mxCell id="35" value="END" style="ellipse;whiteSpace=wrap;html=1;" parent="1" vertex="1">
                    <mxGeometry x="510" y="1060" width="120" height="80" as="geometry"/>
                </mxCell>
                <mxCell id="37" value="&lt;div style=&quot;color: rgb(255 , 255 , 255) ; background-color: rgb(25 , 53 , 73) ; font-family: &amp;#34;cascadia code&amp;#34; , &amp;#34;menlo&amp;#34; , &amp;#34;monaco&amp;#34; , &amp;#34;courier new&amp;#34; , monospace , &amp;#34;consolas&amp;#34; , &amp;#34;courier new&amp;#34; , monospace ; font-size: 16px ; line-height: 22px&quot;&gt;&lt;div style=&quot;font-family: &amp;#34;cascadia code&amp;#34; , &amp;#34;menlo&amp;#34; , &amp;#34;monaco&amp;#34; , &amp;#34;courier new&amp;#34; , monospace , &amp;#34;consolas&amp;#34; , &amp;#34;courier new&amp;#34; , monospace ; line-height: 22px&quot;&gt;&lt;div style=&quot;font-family: &amp;#34;cascadia code&amp;#34; , &amp;#34;menlo&amp;#34; , &amp;#34;monaco&amp;#34; , &amp;#34;courier new&amp;#34; , monospace , &amp;#34;consolas&amp;#34; , &amp;#34;courier new&amp;#34; , monospace ; line-height: 22px&quot;&gt;&lt;div style=&quot;font-family: &amp;#34;cascadia code&amp;#34; , &amp;#34;menlo&amp;#34; , &amp;#34;monaco&amp;#34; , &amp;#34;courier new&amp;#34; , monospace , &amp;#34;consolas&amp;#34; , &amp;#34;courier new&amp;#34; , monospace ; line-height: 22px&quot;&gt;&lt;span style=&quot;color: #ffc600&quot;&gt;renderMovies()&lt;/span&gt;&lt;/div&gt;&lt;/div&gt;&lt;/div&gt;&lt;/div&gt;" style="rounded=0;whiteSpace=wrap;html=1;" vertex="1" parent="1">
                    <mxGeometry x="460" y="760" width="220" height="30" as="geometry"/>
                </mxCell>
                <mxCell id="50" style="edgeStyle=orthogonalEdgeStyle;html=1;entryX=0.5;entryY=0;entryDx=0;entryDy=0;" edge="1" parent="1" source="38" target="41">
                    <mxGeometry relative="1" as="geometry"/>
                </mxCell>
                <mxCell id="38" value="&lt;div style=&quot;line-height: 22px&quot;&gt;Paspausta delete&lt;br&gt;ant kazkurio movie&lt;/div&gt;" style="rounded=0;whiteSpace=wrap;html=1;" vertex="1" parent="1">
                    <mxGeometry x="1020" y="190" width="160" height="50" as="geometry"/>
                </mxCell>
                <mxCell id="49" style="edgeStyle=orthogonalEdgeStyle;html=1;entryX=0.5;entryY=0;entryDx=0;entryDy=0;" edge="1" parent="1" source="39" target="38">
                    <mxGeometry relative="1" as="geometry"/>
                </mxCell>
                <mxCell id="39" value="START" style="ellipse;whiteSpace=wrap;html=1;" vertex="1" parent="1">
                    <mxGeometry x="1040" y="55" width="120" height="80" as="geometry"/>
                </mxCell>
                <mxCell id="40" value="" style="shape=image;verticalLabelPosition=bottom;labelBackgroundColor=#ffffff;verticalAlign=top;aspect=fixed;imageAspect=0;image=data:image/png,iVBORw0KGgoAAAANSUhEUgAAAUgAAAIICAYAAAAMpHfCAAAAAXNSR0IArs4c6QAAIABJREFUeF7snQeYHVX9/j9T7p3bt2R7Se8NQuih9yZiAZXiX1EUQRAQkfoDRAUpKtJBQIqAEEIxhRIgIXQICSG9J5vdbG+3Tv8/Z+4uLCFAmlFg5nluNrs7Z8o7Z959v/VI7Hafi7/5CPgI/JcR8F/DbX8A0rYP/YKRkk+Q/zFs/QP7CHwBApuQouuT5FZPGWlTctyxZOkT5FY/EX+Aj8D2IvBZxLg5gvRJ82O0P4cMP0GUO44kfYLc3rnuj/cR2CoEegjvI7UovnfB+94nyM+H8jMI0iPHns9HRLljSNInyK2a3P7OPgLbi4AgQ3EM8Y/TQ4x9vnqHdz55kq+7iPwU121KiHKeIKXer70Dtp8kfYLc3vnuj/cR2GIE+qpHQYr5T3kwyZkD5jEk0om0WRW5xSf4Wu1ouTJvdNRwz/pdQFYAeYeTpE+QX6sp5d/sfxeBXlO6hxxxmBBvYMrEpykNZpGlr7tU3PqnozsKK9OFHP/ed9hoFPQhSUGW4njbpyJ9gtz6Z+KP8BHYBgR61aMwnx1wHCq1LqZMfIpdEi3bcDx/SC8Cjitx67oJXLzkoLySlHrV5Pab2j5B+vPMR2CnINCHIF0bXItjSlfy6ISpBORNfI475Xq+WidpN0PUzDwzT46Smje1PZ/k9qlInyC/WvPEv5v/WQT6mtc2OBbfrVzCg7s+9z97xV+mCxN/fqLTzwVZkKP4CBUpAje9AZ1tuxufILcNN3+Uj8BWItCXIC2PIE+sWMIDE57fyuP4u38WApHpvwQ52KMi+5rZ2+6H3CkEOXb0aH5yXAJxyZvblsxdwR0vtf2PPHmNE789mv2HanStX8EVj/Vclyyz6z5D2Du4gjtf2fZL3evosZwyLpY/gGPxzj8X8/DGTM8BVY79xmiOHBXJf29bPPDUUuauTm37CTcdWVXIZd8dTnnI5cMHFnJPU3bHHds/0ucg0EOQwrxGKEizhyBf8FHbQQhEpp8NcgCkAAi28czsL4GC/MYxRzP5mgqCnwHEjMdmccwNa3YQTNt7mBi3/vlozj4wRv17s6j5ubiuCOdddQi/O7aUBY/fz343bPs5fnzVcdz3jdKeA7gsfmYGY37XlP8+UcgDtx/FD0eF898bOj+48AUee71120+46chxNSy65RBGxx2ePmUq31raueOO7R9pCwlSKEhBkEt5YMI2EKR48YNRcA1vjny0afFNgrYO5NL5XwuzU+uZV70DnE3G9/5cDYGqgpHxgkkfbUKdBYOf/LkaAbVH+rgW6OIPrgJaBGwdLOOTmARj+esmAK6Z/734mbypyrMh1ysctmxiRaadBYpQkF9SgnS7O/jb5JW0JD95w6uX1PHku11bhsJ/fK8Ahx08mAm1AZKNddz5griuYayYux9Dgdcf25EECUb9OsYc/zIrgdIhpcy8+xjGF/Y4l/8TBFkS5/TD+tMv6LJi6iqebu/zgv3Hsf06n6CvgrTANjmxctsIUio4luBZv0e23ke/6yc43XlcgxeuRG75N9aaxd738p4/hDmXYrw7ByqOQPv532DpTdj14rfVKLuNwHr+T9hL5n/ywRx0E+HDDsZ67XrM5x7r+V0E5eAbCByyB+YDJ2OvXIk0+HDUwy5EapmM0xZAHngQ7obJWC+/inzmswRyz5N78MqPSTYxnOCZk5EW3YSd+D5K9hmMp+9EPuNVAtIMrKV9hIDdiv36U1uVFeoRpCBxoSK/jAoy17CWPX/6Cst6BNOmr4ukhfjpWZO46Xv9iYs/MI5L/bI6zrvkZabUadz12A84YxikPlhE/9PfocP7yxjnkae+yw9qwVm2EOXkdz3n7MAxg7nn6j05cECIgAzNqzfys3NnMbUxh+3C4HHVvHzb4QxQslw2K8klR5QTcyyeuG8ezSNGfaQgJ17VxpzHvsOwHqvYu+b2ZqTDpyHLEnufchD/+kktNXEFPZVl9vT3Oe3GFTSLk2xm66sgG9uyVPRzufq0f3HVYpgw4SBm3TOISFcOtzBEoC9BShLFYwbw0KV7ccyIiDfp2ja2ccZlr/DMh2kcinlmxvEcXybR/PZbVJ61JF+PIZXw76eO4rjaAM1vvUX5ncnNKEiJmsE13PunSRwxOOwde/2S9Xz/ijd4a53uTdJgPMxFFx3Mbw4vJyGejWWxbN4ajv/l66yw/Py9L6b+XoK0QJjZQkFuK0Ge8hKaXQdjJ2A+cjL24kV5gvz1Cnj71xivPfvR5WgXv4p985FYRft7BOk8MxLz/Z5f73YdocOi6Hedi9vV5xkKgjzkEDDWYfzhBO99oXAIwe/fhlxdnCfIjRmCv5gMs/fFEK+ct+2BdsXD2C/+AuvtQwj9bn+s3x2KZVp5wh57CtoPfo15326w54w+BDkLtf4M9OkrvhjGz9njK0+QJ517NPefVoHV2Mx9r7ax78HD2bNcoX3teo464yXaJh7M/D8OJGymOPVHz/Cv5QZFuw1n1T2TKHIMHj77MU57x2avI/fmX5eNYEC0N8zfg2ouy91/nc0FT2ykvJcgwyAEf1BIfCvHXy96icA3D/xCgpSPmsEZ5x3KbSfXoG7y0Oa9uID9r3iftPlp4uhLkMs+2MjAXSqZ/o/n+PYtGznzlpO4fd8QH7zUxshDywh9RJAd7P/NPXny4pGUbuKnMJIpHrxhNmdMa2bX04/hjbPLCRtJvn/SZP5VBzV7DeG9v+xPuZTjj794lsvs4k8RZO3uY3n+TxMZ1atce+FqaePci2dwz3yFi28+nmsmRWlZvJaH30ox5qChHDUkRGrdOo4462Xebtyuuf01GLw5ghRBmhe38t7Hol3+T+ynT4d9b0ep+wP6jDwhbo4g1eOnoxZdS+7F8KcJ0lOdb8NDJ2E0rfv4Og66idDeu+BaKu67Z2LMXopU8UOC4w5EOmCcR5BO6/9D+5FJ7q+/++T1j32A0KQ3yN11N4Gz30DZeB65KW97+yjHPEFg0DPotz2M8oP/BEH+AmTty6sgxbu9aUen1LKlJE55ExjIO68ezB5Ri7//30OcMQ0G7X0YC26rRcumOeVXjzN9eYgXn/g++/RzufuPL/PzpzZw6v87mIfOHUBqwwbKvjuTbEk18x4/lF0jMqS6+fUlL/F0qpyH/7Qn+5SppBsb2fOnM8mVlOUVZFSCVCfn/PZ5bns7g+t+2gcpScNY/l7exH5DmNg3Qihcy3vTD2N03OWd5+axz+UL+MmvDuWOU2tR7Ax/OHwKl3ebn5r8HxOkyYxH32GP70wi8/5SDjl7LQ+9fBT7hDq5/afdnPZQf+I9BPnM0hxP3X8CR1YHyLS08puLZzEzWMOzN+zNiBg4dhcnfmsKU+ormf/yUexSANdf/zy//VcDJ373SP55SRXdq9ey609ns6F/1SYE6XDXHUfxsz2jGM1N/OiCWbxb0J8p1+3DuDisff1D9j63m9fmTmIoFs/cOJUTHu0gnhjAu88ewoiowyXXvMB1z27cyhf967b7DiLIPX9L+Kj9Me46Dif7V0LnVpH9/UmfSZDKvn8nMHYeuakrNkuQys+eR3325+iNaz9JkHsksOttlHAj+r1XIf3gKaS5SwmcdmieIAddizbkCXJ3Pv7JBxm4ntD5JeSuPx1l73MIHrk3+tWneNZM8MLX4c5jMVKdqJ8gyNcJDin/RK8Ot+FhcrdctVWTJDLtK0CQm96xIMj4yYIg81u0KM4+40sYWhlh6LgRnHNUAVIPQT4xP8BF/3cMfzqumNWvzWPoBQv4299P4pfjw7z6+Jscdv1Sxh42ktf+sA8RJ8t1Zz7FJfPzPrax+4zm5Zv2pFQ1uPWUqfwlFO8hSJe5973E7rdt6LmCzQVpPu2DjB96OBuvryHiWkyesoAPhIIKFXDujwZTpsD7/3yUiX/+tH+vL0HeeudMJp10BCOcdr7xeCdPnzWMwJqVHPJ/QZ7vQ5Bz1tYy98ldKcXk0otn8KdZ+ch6ZOQEVty/K1UBl0uunsF1/27iouu+xXWHF7L4uffZ68ol/O2hEzl9eJDn//Um375xKZkxmwRpckFm3XkEB5YqrJq5gvuX5Z36FfuP5BfjI6TrGzj2tHlcMfkYjiiWvL9w7S3dzFvczJx3mnnpnbW8tmYTR/xWTeuvy847gCADpQROfgylrBnrvTlIgSjKvifj/HMCxorNK0hlv38SGPMGuX9vniDVs2ehPPmjzRKk8eIKgsdMwHhqGoFjjsa8ZzrB3/wqT5Chy9D2m7F5gjzHJPfny6D0CEK/vA172lGYnb8mdLyMfuu5uDljE4LcUSb2l5wg9Y3r2P+s2Szv64N0XbJGPlJ28KkH8M8zBlIallFkKR+hB8xegpwLI78xgSVX7Yqb7uSUQxdx9cuTGBaBiy55khte6OaI48fy7BV7oKU7qfnWNOo78i+vNL6WxbccwsiYzdM/+De/1mI9BGkz/eczOPa9XgfxFhLkj4+m5ZcVaJ/xfi+f8QgjLv98grz2N9MY9MOj+P5IeH49HDlE44NnXuCUyaN4sw9BvrF+LAueHkS0B4fH5+ZPGgoHeXvaKYxPuFx1/Utc/Xgdk44dz8tXTSTQ2UrJWU3Me2QM/WWbyy94iD/MdmHTKLat8cYdR7BP0aaOgvw50m0tHP+zqawo2503/zyW6nCfaKPrYug5zvzNNO5/Y5PI29eF97b4PrefIKXCQQTP/gfO9UeSt03CqEfeg9p/Lrnbr928if3DGSgbvo++dK/NKkjt17MwH/g+TmsfH4kwsfdIYNzzCwI/eR0n3Y6ceQ79wVZC1/QQZOsJaD/fjdyfTv4kAt95jlBiMrn7/+7VRas/eQu14S6cIecgrfoz+owHvf0/qSB9gvTSfD43SLP7eBpum0il6rD4zVU89nYbbakarru8hlAfgqSonFlPHMOBRRZzZ3Yz7rBigu317PGNF3gvB3scMZrZv9+LsJ3h6jOe5qqFeZIatfdIZt20N2UBgztPmcoNvQoyZHDHz57jrPntW6cgv30kGy+rIuLo/PTMydw3d8tU1McKMsVFRz2Ffc5R3HRsqUh5RJEMbvvl8/ytawivPTiaUief5jNn7UDmThlHqWtw0W+nc9NsLzxFZOh4lj04kZqgy6W/e45rn22EqhrmP3wou8QtXnjP5Ig9o2TWr2S3b81hmRi0KUEaGnPuOIL9SiRevn4mh/6r4TNf+aLqIr59QH8mjihijzGljB0QI6S4fPD0m+x6jXd0f/tMBHYAQe5xJ9qkhk/4/aRdz0H77qmY9x+LcsKbnwjSiKBI8LBDMG47E6f04E0IshzlhFtR+83F+Od1uLk+F/4RQZ6BfPxs1BEJnAcmYCw/5SOCtNc3oZ54F4ozFWPGI7idKvKgXxI89ZuYD56BvU7kZYjtKEIXXQmFKtate2D1TC+fIPvg3ZsH+bkEeeok3POHg97F+Qc+xV9NlyE/P5bFPyv72MT2lJNE+aXfpPE7RZ4/U6jMBf96iF2vt7xoqzK0P4sfOJjhIRmzrY3zL5/F1FQZ9/5hTw7pr5FtbmLfn7xIsl+PD3IrCXLhv5/juw/o1LWVsnDGvgwKwYq5Kznx53Pod8okHjt9ACo6D/3iWX617PN8kEl+NXEyd56yP/oFwrsJVirJcWc9xxprzCcIctoyg+kPnsB+5QqdGxr59WVzmB2s4rFr92FiiYxrd/O9705h8nqBgMSpN36Xhw6O9eBjM+svT3Lwwz35cJsS5HJ48N6jOG18GDub5NqrXubva6L87dpJ7F+q0LhgBcdMNXj/0jFAjnt+9SSXLJTR4iF+/5dvcMEuEZa9+BYjL17ik+PnIrD9BBn8zWKkV85Bf++lj88k7492xd9xnz8X9rsdpSCDa+XnnaS1YV59HJauQ1U+zUeWMl4Q3UuDaX2C3N3Xg7nJH/c+BEnB7wj+YBC5604D+hDkypWghpAOfQht3yHgSJCci367MKE/mb+o/ngWauhpcnf89aPr/pQPckAM1/QurGfLYD+xH2Y+Y2mLti+9D/JzCXLXsWy4bQ+qQy4r3l3JkysVfvTtwVRoIt9U58cXTuWhN/IJX+HIAN6bfjCj4xJOsoNjD36a5z4KGCsc8J19efT8IVT1NQfFQD3L3X+ewwWT6z+OYm8RQdbw1quHs1e05znp3fzqgKeRrziSvxxX/qmHt3j2Yva8+B3SxudFsfME+bf4SJa/sA/DgtCxro7Dfz6T7qJdmfPABMrpSRR/s5PDf7AXj50znGKR4tVnM1Np7rt5FmdOaf74pwNGsurRfRisgdHWwiEnPc/rnT1kvZlE8XEHT+DfV++SD1j12fTOTn576TRufjvKVTcfwiWTEhhNLdz21DrM0hJ+fHR/KgM6f7z4Ra6Y/b9SCbVF79J/YaftJ8j/wkV/qU75FU/zUZhw+O48cdlIhsRlMt0Zps5cQmz3cRxTqzDjllkc88D6/AMLqFxz87e4fK8Yq+bMZdh5CzZJKJUZu8dwbr1kApNqQ6gyNK1u4IJL32DK6iQ5u08e5BYRpMzQEycx8+zBDIjL5Npb+dXh/+YfoQCHnHYA955aTVVMwTYslr72ISf+34cszdqbTXL9yMTOtHLi/v9mMjKPTTmN7w2QWTFnEQef/w6BwWXM/sex9Ff7VNKoCgMnDubuC3bj8KH5PMj2hhbO+8PrPPZOV49Pqnc+S9xw/0lcOD7Ckhfmse8V8+nMp6J92sT2KmlkRowdyO1X78l+/cMEZWjb0MSvr3qDh+d1isI45GiEn56xD3/8dg39orKnTpvqmrnpupe45b0cet8//l+q12pnXWwfghSIbkei+M664i/beb60BPllA9q/Xh+BHY/AJpU021NquOMv7itxRJ8gvxKP0b+JrycCPkH+p5/7l7ZZxX8aGP/4PgL/+wj0EqRIacu3O/tuxRIe9Nud7ZBHl+8HKdqdiW4+vf0gvyTdfHYIAv5BfAS+1Ahs2jDX5NjSlTyy23S/o/gOeK4dhkb1zJ9tQpB+w9wdAK1/CB+BnYFA75ILYrkFsWiXRVWwkym7P8v4xA5sZ7czbuV/7BxiTZo71o3nN2JNml716C294C+58D/2qPzL8RH4LAT6rkkjCDK/Ls1ehRv4127TKfFXNdymqSNWNVyVLuCE977Jhlxhz5IL/qJd2wSmP8hH4L+HwObWxM6vTVMZ6ubcgfMYGu1E9pLD/PZxX/icJAnTkZnTXs1ta3ftUY59F+sSClIcZduXW8iP3u0+/2l84dPwd/AR2BEI9F36Vfgke81tkUT68VrZeX7s+1r6r+gniO6jZRSEj7F3ca6+5NgbnPEJckfMWv8YPgI7EYHeYE2PUvT8kT1rZXu9ADejIL/u/LhZEdiz1oxHlkItCrIUPscev+N2rkXTOyF8BbkTXw3/VD4CHynDvmT4CWL8urPh1syRXpLsDcb0JcftV4++ib01z8Lf10dghyHQhwQ/Isc+ZvWmXaV32Hm/KgcSavFjjZf/X29Kz6Y/37579hXk9uHnj/YR2A4ENlGLPjFuPZa9TWM/Grl9QZlNL8AnyK1/JP4IH4EdiIBvUu8YMHcsMfo+yB3zVPyj+Aj4CHyFEfAV5Ff44fq35iPgI7B9CPgEuX34+aN9BHwEvsIISK7re4a/ws/XvzUfAR+B7UDAJ8jtAM8f6iPgI/DVRsAnyK/28/XvzkfAR2A7EPAJcjvA84f6CPgIfLUR8Anyq/18/bvzEfAR2A4EfILcDvD8oT4CPgJfbQR2KEH6AfGv9mTx785H4MuIgPSpcsQtv4vtIsi+hPhZ/9/yS/H39BHwEfAR2DEIbEqKvd9vLVluM0H2EqL42vsRt+aryB3zgP2j+Aj4CGwfApuSoizn26FtDUluNUFujhgdx/mIJPuSZe/t+aS5fQ/aH+0j4CPwxQj0Jb7e/wtSFP/v/fQlyS0hyq0iyF6i6yVE8bXvR/y+L1lueks+UX7xQ/b38BHwEdhyBD6L5PoSo/i/+CiK4hHlpqT5eWfbaoLsS462beN9zCSG3owrS0TCcXQzTcfG+QS1YspqJiJLQdRABNs2MIwk4XARpp2hu6MOVQ0RChUjSTJGtp2G1TOxs+tJpR1qx36HsvKhpDrXsX7FDGrHnkBBrJbGhkVkutej2d1YThBN1mlpXo9kd1C3ZimmmSEQVL371g0DJaAga0WUVoykubUdx41SO3QSbS0bwc3StP5tjHSGcKwaRXGxXZeCyokMGjqMVesWsXz+22SyOrlMGssNECssJRyJoakSxQUx1qxaQ1dXFygupuOQCAeQZYn6piTYJildwrBdcoaFjcyQ8gS6K2G6EFCgM2mRzWSQAxpaQEUNuJhZE8OWSXV3UVpZghYwOeEH3+M7R5y75bPH39NH4GuMgBBkgp9M0/S+CnJUVdUjyC0lyS0myF7TuVcxWpaF+LjGRrRoARm9A8d0iMYSZFIttLdvoKxsOIl4Da7H2hqO47Ku6XWSLQspTQwgFIwSLhhJKFblPUbTTrN86RRSG+ajqAGCheMZOeYwMplm6pbPJBiJMXjMd5Aci86N88jmushmdJKti1HkINFoMQE1iplsZuH86eT0ToKREIZloSoBTNcmHClGCiSordmVlavfpLu5nuaGNrREENcOkTZcagfvQi5lUlzSn4KKOB0NLTS0dJLLpr11lnK6jqlnCCcKKCgbhWt3M6i2nLWrl+FmuunULRwUujo7KEokaG1PU1hYQCqdoSWt07+8nM6sTpGm0K7LdCSzJDtbiIWCaJEgMU2hszVJ3cYuXFyqKvtRXFpAUUkRN143+Ws85f1b9xHYNgQEV6XTaU9FBgJCwORJspcoP+uoW0SQfU1rwcTiZIKVu9tXECsqJKxF6Uw2EgrGiIQS6LlukqkNaFoRoVDcU2Rgs3rFGxipjYwYfQyhaBnp7g2EYtWEo5VIyOT0dlYsm0pX3bsEI6UMGn00BcWDcG0d17VYsmAyBYn+yKEYjmliWCZG1wb0ZDumkUKRAmixEtRwAsk1WLHgdRRZp7N9tQeMUJKWK+HiUBAfQCq9ns62ThxXJRwuRlELcBwdwgkSxRMoKCgiSz8KiwMk6xbQ3tFOXX0jmYyOK5keoWUoJFpYTFVFIQEr4+3T0NSB6wQJB0ALqeg5i6LK4aSaFrJo6TqikRBSwEXR4gRcnUzOpqVdx5FMSkuLwbFparfoaG1D0VTKy4swjSxapJhH/vHcts0Qf5SPwNccAcFbmUzG4wKhJMXXvkpyc/BsMUH2+hd7yVHXs6xbNoURuxyCLGls2LiE0n41xCPVuJJLe/syUt1r6GhppaJiJAWJSho3zieZamLg8EOIx2vJJJtwlDCFsUosxyWZ3cC6FbNJNn5IpN8oBo84hHhBBfVrZwEWphWkX8kwbBskqwPdNEg3LyfZuZFkex2aEiSnBEnEK1G1CJlMiqKakZj1K3n33cmoYYdQJIJp5ggFC8hmOsnmMnR3ZyktGUY0WkE4HmPFhqXsfugFpNs7kKMVpJrnoUQN+sejrFhST2NbG/F+JUhGlnc/WEykXy0jd9mFkJGmq3EFjS3NxLWwZy7XdSfZZdAw7EAhG1a/T0uqm8pYBEVVWVzXQmdG8ha1Ey6GQMClNBFGkWWaukw2NnYRKAgxfGAVNf0KyHZ1cvX1U77m09y/fR+BbUdAEKTgMEGQfZXkZ/kyt5gghWndqx4Nw2Dx3Ecx7DYGjzqQTKadTHcjyCFKygcTDsdYt/wDZCzGjj+KoFaE7eRo3vgBa1e8TFHlLtT0n4hhJrFMg+J+I5Bcjc7kGhpWzcHNpTHVCFUDd/HM5nRHHWtXvczgMScQi1QSCiU889nQO2lZ+y7JjEF38xokSUVWoLCkBsvS6c6k6Fc6FC0aRzGzNK56nZam1SiqiW1ZpLJJstk0hiHjOiHkcAAlEKW7u5HK4UfT1dROZe1I6pu6yLSto7j/aCpLanCsOhIFcWRXZsrTU7BcmfKKaoqLishkLWw9TSrZ6qnmdCpNdUWZ9zUovtcNTNchrUvUN3aS1l0kRfLM6MryfuTS3ZimQSqp09WdQwoF2GPCGPaadBDZ5vUc862Ltn12+CN9BL7mCAjLN5lMEgwGPYL8IhW5RQTZG5gRBxfsm8vleObe0+g/aCQVtYOorN0NpCC2axKLV3kmM65OzmhHUTQCagzd6KC5cQkNq99AVmIMG3cMqmwT1EoIRSu89WwtI8mihVPQXIW2zjYShQV0ddUTCSSIxwsprpxAUb9ByHIUy+kil2mjreFDFKUIPdnMhjXzKKioQQsnSCfbcR2ZIWOPIhwtxMg00d3dCW4QJRbFaVjGqy/fRibbRnt7GstWkaMiT8qmqzOHJUlku2X69x/NsH1O4q3nHkTVAjR1NDNg+J6UVvUnrqZZsXQh69Y00q+kjKr+ldTU1PD2OwvQAjJdrfWeGhw+ZCCqKtOZNFi/Zh1tGQskjVxOR7cd4ppMvLiQPSeOItmZYt7iZbQ3tmPYDolokKqqUvY//ChiisQ3vnn+13yK+7fvI7DtCAhLuK2tzSNHQZK9pnZvGtCmR/5CguwbnBHkKNSjIMi3Zv6RiZO+SyhWTCxRhiKpmHoKNRRHkaM4VpJ0qhFVjRAIhMhk2+loXU13ZyMDh+5LOFRCKtWArGjEE7XIcoB0qoG6Fc+RSqbo6GjCMHRikQiJkkEUFldTUNCfopJBuMgYRifprhbMbAsqMhvqV6CpGk4wQixRTCLeD8uRWbJoDqPGHkRACxPSivKLi8sadqqNN6beQElNMetWvsuyZStw5QA508aRHHRHJ9XlMmy37xA0WgjEB7Jy1Xs0rV9Jd7fOKWdegeuEeem5J7DNLhKJIlLZHLJrEw1rxBIFILlYuTYsS0bXdbSgipkxSBlgODIZy8GxLAqjNgWlpZSXVWMbBvMXr6C1vpXOjEU4EqCkNMquYwcTixXx6wvu2PbZ4Y/0EfARoLm52SPHvgT5WcGaLSbIvubfxtQ4AAAgAElEQVR1Nptlybx7KexXSlFhP6RAGCSFomg5gVAhUiBEums9up4hGCxEC8ex7RyZ7gYIBCkpHUtA1sjoLTSsX0AkWkRRURXr180l19lEa/Nab311hwBl/SqxZcszn2OxBP3670E0nKC1cQVGspXC4nKM7i4WvD+VSKQYrbiGyiF7UVo2EFeo3WwOrSBGR1sDRYVDCGlx3LzTj0zjGjJSlmTXfB659SqMjIkV1NANl4yRRZLDRMPF6K7BujUbicaimFaOIf3HMXjcfphKAWN22Zuuhg9ZufxNzHSOVCqFDZSUxEnmoLtxDbmcg2E5WLZNKgsZG0LhEJZjEpJBU6CsooCMgWeKt7WL42RIpnVU1aW6uogxY4dSWlrGeWf/zZ/iPgI+AtuBQGNjo0eOmqZ9yszeZgXZm08klJBQkFMePIPa6moqqgbgOiLHyGTIqCMIhwsxjAzZrkaaWpZTXDIYiQBySEPPpMjlUvQrH0Y0UkI220pb8ypyqRSRSIzWxuVo4Qjr61ZTXj6CSHENVeXDUBWX1uaFSI6BZUEkUoht6bQ2LCNRVEE8Ucyid2Z4ZqstwcjdT6KwSuQ0hpBkldb2VeQyEpFoCbXVo5FcB9s1PPO6o3Mja1fNJaKFSSTKyLQ1MOe1qSz84AMCQQ01FqGrtRXXlrBFjqTpcNDh36e0ejD1dV0MHj6StGFhtb/NurpW1q5eh+mq2FaG/pWlrKlvRE9mkQMifUfDdF3SWQvLdj1/aSSqkQgF6MoJn2gGx3Jo785hGw6u43p5mbGIwqQDJ1BVXsPPzrh+O6aGP9RHwEegoaHBI8deguzNjdxcoGaLFGRv7qPwQQqCFAry0btOpbRIqMMAJSXVBKUAhcVFhBN58jJSHdiuQlDrhyXM7WwGZBVFCyO7LkWlNV7VjaoVUhArRw1G6GxewtJlb5Hqaqd2yG7IchglVMyQYaNpqZuHnRUpOTKOI+HYOlYugxaOeuZ5x8blpNsbIBSlkyjV/ccwuGYIS1e8w/DxR1NY1B/Z6+qh4LiCoDI0Nq0kl+ogGCpEkRUUVFpa17ByyXs0r1vBhws+BFUhoSm0ZrMkUwYKGkefcDJrl7/DuL1PoaGlhQFDxtLRsprn/30DRx25L83rFBasrMMyTM8PGpRMTJEsL8vEw7KnMOtaMtiOSSQkUow0IrEEqiLR0tRK3cYOUdROUOSCBkUqgkMwrFJVXc29d073Z7iPgI/AdiAgCLJXQfaa2b0VNtukIDdHkE/d+yOCAZkhQ8ZQPWAk4XCC7lQzQUnGynZ5FSz5/EmDdM4gGCpBkmVs1yIQ0IgmirAtk6LSERT1q/bM3lXLX2XR/FkQjFNTPZyho/f1os71y17FMm36lVVQXb0LEgqWmcTUs6S6mnGwyXa109nW4EWA4wPGEVAj6NksBYWFJGqGU1o6xIt+p1NtXqWPyDXUsxk62hsYOHRPIpEikt2tNG5Yyoa6VSAZFCgqCz6Yz7q61TRsbMeVbSLBKAQ0ggr0HzKR1sZG+o8azaIli+hsWUVzUwtHHrELTq6Axeu6yKQcZNXxgjR6zsaVQZElcrrhVdaIHJ9wKMC43UYwfMhgUh3tvPjq+3S0d4HtENA0b1xQk6gsr+CxR1/cjqnhD/UR8BEQBCmCNKFQ6CM/5A4hSBGgER+hIKf9/TSKiooYOX5vEoXVmHYKVdYIhUrI5ZpJd7WRy2VRAwEvxy9aVImup8ikUxT1608kkiCV7iKcKCMeKyaX6+TDBdNYu3I9oWicwYNGUFY2lHS6jVyqmbaOViLxavr3r0GTNbI9qUXdnZ3EIsWkk83Ur19IOF5FsKCUWEEpjhcbV2hsb0ENh6iqHERYBGuiMRw3QDRagq2n0GKFyEqYoCqzds0iVCVIPBLzKm9yRpJsexNL35vNU9NfoigaoLCkxCPYsrJaKgaMI51J8fz0pymuGoiqZOlobUUKBKgsDdLcVkrSSmPYNrIlEVAV+hVASpjUaZdMzsBBoqp/EQdO2gPXzPD8zLdpaU2BK0qjApiGgyTbDOhfyWOPvOTPcB8BH4HtQOA/SpC9JvaTt59MZVk/QrG4R2jxRILKmlFEEjWeutOTTXR3toKkegEXQUrtHc2EwxESxf0pLKrFtE0kV5CGSjK9kbnvzqC1Ne0FUIaPGEVN9TBMw6SluY721haUUAHFJRW4ZppUZx2KpNCvqNIjQsvQWbvsHcoHjied7CZYWEIiXuRV6HRnuikoqkULhrx8zK5MJ+FIEbXVI8DOkcqlUdQQmhagvWkdFdVjvYh4Wk/R1rqGUCDE3667HAlRXqnQ0Z3xiK28IE55zQCGjZ1Ec90y3n1/HpXV5YQiYcZNOIDnXr6VCUOHsWBeE01GmGwmhyzJaKrj1Wz3S0TpyhgURDQM0yJSoGEZNvWN3eQyQoGLEk0JJMczuYcPH8jDD76w5VPDaGH+eyvIbGbEsAn7Uhre8kNt+Z4my+a9S1u2kon7DkLbzMDG1R+wujHNpteQ62pk0aLVlIzakwFF+Vr6L9Vmmt5zIhj8Ul321+1i6+vrPeUoFKRQkuKzwxRkL0FOvvunVBUnQA0gqmpiiRgjx+1LUdkoTKOLXLKRdWsWEosWoWohr2FFJtONaekUFBTTr3wAQS2OJAIhtktb+2pWLF5AfWubF/Sprq6mumoQihT0lGb9mqVec4hAtBjbShPUokSjMVQ5SCBSQCwcYe2y96gYPI6ulgYkLUogKFNYUI3hOpSWD0XXc4hMx2XL5ooaQCrKy8HWSSXTnvkvOyatqXYGDZlIYaKcjtY11C96FamghoVvv0lTWyt77rMvc159l8VLlhAKBnBtm1EjhhFUVAYMGkZbyvbqu9s7G2lobaeurY1BA8s448QT+NO9M5Fcm4goUcyZ6JZJKKhS1i9OSAvQ0NRNVheRd1HOaXo+Wll2RdkQ0UiA0cOGcsfdW+GDbH2OU75xNas38waMOewH/PG3Z1MWU3bw+9HGJd87jlnrT2LKm+dTuZmjT/nT/+OGp5dzxaNvcszAj3d4/i/f4Q+PN3Dijc9xzqSCHXxd/+HDCWK84QaorITTTsufrLERdB0GDPgPn9w//NYgsFMIcuWbt6IFZSwr5zWMQHapqB1BvKAa0+z28gGbNq5FDkaJFZSQKKigo6OZtpbVhEMxiovLCQQUHMnFzmXIJNtp7+iiqUP4CKEgkaCkXwm2ZeO4Lqn2Bsoqh3mmsGGkkSSbiBbCdWWvJru4VPgxDTY21RMLRQlHCnBE1bUrfH4ykSJR812ALKkogRCObZNJddDevBYrl6Q5ncTNZWlu2kCstILakloMO8OaubPJEMJWw7S3dlAxcCCDh49jVGWCCy++mnRXirCmkIjHCEgOe+46AVdRaWpsYNWGZho6Ml5k3TA2cOC+BzFvaTu27WAYJjnTRJUlggGVwqIIyWSOTFbkmdpCdCNLrhfBFypa0xRGjhjC3dtCkKVDmdi/l3BcOtcvZlVLnF/dfiffn5BvFLLjti8myE3PZaTbmffUnznvtrz74OQvK0H+8pcwZAhccEH+Fq+4Ap55BhYs2HHw+kfabgR2CkE2fPggsXicVLKTQCBMTs9SWFRMIBT3zGYX20tlCWhx1IBGOFxAMiX8hEsJBoIUFBR6bcnSyQ40WfbSf1o7U7Qn0+iWjYRESXGR1w5N+OEKYoWUVw3FcUT7ohx6phPTVryAR3dXC66IkLsmQiOWlpQRUqKedb96zTICgSDRonIKS/p7+ZHhUJxIOIZlWnR3bUTPdjF/4RyUbIasaWEHg4yoGkLGyLB23WqWLF6IZdmEo3EKCwrZde99iagh5s9/h9dfeYq6OoNoSKM4FqSsuhpH1xlYU0E2Z1HafxgLVizi/fcXYdHFWaefwX1PzMaxbAzT/qhPnebJfJusrmMYFi4KARUEknrOxLQdamqqmDL5lS2fIL0K8ts38OZv9usZ57Dh2Ss58dqZHHXpP7jyGyO8ny975T5uefL9nn125dJbf4qgzkz7Cm6/6WZSB5zHARueZcq81VC5J9dedhptrz/GjY++DgzlwlvPIy8GPybIG/5Yy5NPzsIsHsbFv/0FNdG86Tnnsev412sbOO3yW9mrooHbT7+Qx5evQRfh/S8bQQrlaBh5s3pTguzowGscIHzWYksmIR7f8ufn7/kfQWCnEOSGJY8TDGrEYoWEIgm6k20YuXYvZScYihONlWKawrcXJJls8hK02zvrqVu7nNKSCs+ETWe6aGvZgKY4XgCnLZkllRF9EEV2TYBwSPMUovBblpaUMmDwWDKZTiwjh6VnME3RydyiVQRFpCCWa6OFYqiaLJySpLNZjGySjevXUjZoDLvvewxF/SqJR0q9/UVXH9dKkU63sHjFfDauXUp3Kkl7ZxvjRo71lOva9RtYvmw5hmFTWVFCUSRMYXk5iaJyFi1awJtvLaJfIEtrp4UiuUSCJlogRHV5CSUFCQqqBqPrFqGBu9LS2sae++/PdRedTzqX9npDIksegYeDqmeui9ZsIgPAwUFTA15QJ5XKeWqzvLyCqc+8uuWTppcgD/wld58yvmdciuev/ANTu4v53d9v5oCBCdY99Se+/5eZDBo8iKhssXbNasKVR3LbPZdRmJzPeWecxeKOADWDhpJQM6xeug5z1BiGdWUJFIepW72Ibv0oHnvlSmoDvQQJxdVDqC6O0LjmQ1pSB3DfzD8yKqrwSRN7FVcf/mvWnfRrzi54nl/+5aUvh4IUZPfWWzB5cp4Yx479NEEuWeL50xk5Mo/9738Pwq1z3HFQUZH/nb/tdAR2CkF21U0nEAzRr99AL7dxQ908mjasYdTofdBCcQJagqwoB0y2YiZbUQIROpPtdHZ1UFs9hEg4QTLZSlPzRm+e6NkkyUzOS452XAnbkZAUNZ8WJIUoLEpQUlaL64hGDp0oosekopDLZrBzaSxZxbFdT7Vm9SROTicWL2LVqvcJBuMMGrUv43bbl3hBP7Rg1OtN6TXgIEdTy3oWvD2LzqYmOtNJWlvaicZEaWKU7qQgJ4eOrgwFiRCDayuwDIP2zvz1NrVnvEh43aoNWK7CwIooqqahWDkqSksZPGw4JYWFrF+3nsjg3em/y8GsXvQh9cvf4K3Xn2FY/4EsawJVBZX89Tui0kdWvGBOSJVp79LJmRYlpeXMmDpnyyfU5/ggJ3zvMm465zjCisXGDxeyxpAZM2YMCbOR8391Nos64vz5jnsZyCKPINdL+3PzP/7AEGUDvz39ZN5vj3PVHZM5eKjGDRd8h6fndvL7h17ikMGpHh/kCP746K0cPDDG7L9fypX3vsIxlz3IhccN4+lP+CAz1C1qo2J0LQueuPx/nyBFpcK0afDnP8Puu8Opp8Lo0ZtXkJdckleMl16af2br1sGUKfDyyzBpEpx+OpSVbfnz9PfcIQjsFIJsWve8VyJXVFThNb5t3LiI1qYNDBk6gWi8zMs11HNJ1m9YTCwQIxgO09y8kZRhUVVRRSQUp729npzopO24ZHQTwxEGpYFuWCSTWS/dRrQtEz5FVTJQRMmiZWLZBoqiElJkTMv2fHSWY+MqQQxdJxwK41oZZJG2s3whQ0ePY9T4A4gXlHilgsKA70y2YZoiob2L9uaNNNXX09bW6pnFwhcoiFr0jhTljqL2WxddiR3ReFchGg57kXPdcEim8/u6rk17UytYutclXPg9ywqjDB8+gEFDxtO+fjn9Boxh9jvvM+HA43n1lWdZunAOv/jBRKa9aVHf3IbtRUEl1IDoVSd7gRlhrqfTOmnD9hpivDBDmLRbuPUSZGE1I8pjHw2yk02sbHD55tW3cPERw0DvYNnaZqCBO390KW8BsYqhnyDIFu0XPDD5h8RSzVxx1jd5p+lw/v7U7xgcMrn9d2fy8IvLuPL+FzhyeDZPkG2n8szMsxGvf93b/+Qnv72V8Yddwx8vP4ypnxGkmfv4/zBBimDLa6/Bww9DKgWXXQa77vrxgxCm9qYm9qYE2bt3ayvcfDPMng0/+hEcf/zHZvgWPlp/t21HYKcQ5GvTr6G6qpaBg8eg5zI01C1CsmyqKgejiqYMtk5za7On8AJKgGhBnKamJlo6UhQWJLyora4baKpCUAmQymbJmA6qJHnmZDKdxXUVVFGiF4oSVCUkWSGVTnlJ5ZLoDOytUuYQDYXJiLZlQnniEolEvXJCy8jSsG4xYyfsS7/SKi8XctmKRXR2daK4MpFwlM7OLpLJDoy06BYuiNogpwsPqIQuGmyKHETR4MIRyym4XtVOICDUquyRumh+EVIlL33Hch0GldisXNNGW3vSK4ssLdLYZ889wNCJCJdB4WDi0RCzZ05j2bomTNnlwEmDWbgsTWNzpxecEQQpUg9EriWumW8QolvU1gzgmadf3vKZsVkfJJgts/n58RezZK+zefnGb/DKjVdyzTNvw/hvcu23R/CP+/5OvVG8fQSZ/BH/nv5zhPet/p1HOf2ivzHuy0yQ774LhxwCTzwBBx8M2iYJTFtDkL1PcOFCOPpoOOIIuPtuUHZ0RsGWT5Wv0547hSBffOxiL/exsLSScEjByiS9AIqIvMqKim6IFmKKRzpifRhBms2tbWR1h8KCAsKhiPfiiw43AcmkvbubVNYkoAbRDZv2rgyySOEJqkQ0zYv2isoc0xSNK4T5LXv5lWJKmbaNg+GZpq4iiFTGNGzvWMnOJtREguEjR7Ji8WLSHV0UxBJU9x9MUA2SzWRZtmY5hlCyCB+gTTrnen5D0dknncmJSAmqpHjRaVHmGI1ouJbjkamkBiiMhjzFGFIUurp1JMli/pIVyLZLVFMpLdAYOqgaVYtSViRyMx20UIRXZs2mKaewvr6VocP709qhezck1LFtCf+UAWLFSKGOHYeq2iqeenL2ls/lXoI87EIeOX23j8etmcrJlz1CaK+zmHLp7lxw1q9ojw3n1ltuodJaw/nnnsfSVMH2EeT68fz16b+xV7nG2w//gYtvm8qhF93Lpd8avYmJ/fFl/U8rSBGIeeQRuPFG+MlP4KST8v5E4RsR29YQZHs7vPgi3HUX7LILXHghVFdv+XP199wuBHYKQb425Yp8nXAwRCQSQXYNCgtEFU2aVDrtqSAZCcPIeb5CUWrXnsxiOVAQjyMrQTLZLJGgguTk6EgmvdxAYVrqOYmOtDCjg14KjBYMeGWNghhtS1SVKMiuSNt2vHQdUSNuOBaGZSCr+dQeQZoBSUIR5KYqdGfSSI5CRAsSjUQpL6vyVKwo91u0ZGl+0SxBSSL9Rhc15zaGSC/K6F4nHlVWPZ+oSG2KB4P5zjyCRA2boniQaCjkBVq6sg6plKiSyaAqOTY2NHt+xPEjqglGoijpDE447KUGKW6AjC0z67UPGTJmGIMGjeDVN17BFb01HYdUMutFsUUupKJI1FZVMnnKNhDkZqdTP358wy38dFeVa878JS81muy++0TUbAPvvbMYs2QQ1996D2O15Z4PcqtN7PVQM3ovRtUUsGLuC6xt253bp/+FCUXqJkGaLwlB9l5mSwtMnw4zZwr/Epx1Vj4IsyUEKaLagmSffz7vvzzxRBg+3FeO20V3Wz945xDkk78lFAp7tcL58AKEQqIJrIgeJ73ONYKYRBK5Krr3qgGPUMTqfvFo1IsQe4voSK635kxHJkNQEscR3bZlb50W0UItqKpEI2FCAQlX9Jy0DFSJnrVlJBxHmKA6uumQMw1vZUHHNrCxvR6VQn0K5hPlenE1SDwc8daEsVAJRyK0trZQV9+E3RMcMows6WzOS9YW5rNpi6iyjelIXmRdBJSCqiAt1TunaTkEFYmiuEYkGKI7naNLF8rT8IJAppEj29GG4hqEFYk99ppIIqTSleymomYkCS1AMlTMM08/SShSyMDaIt5bKNq9yflotm0KeYKmqVSVl/LkU1sRpGl/lfPPuJn1m5lDe59zC785qCcHsus9Ljn9WpYDA0b+lDMPmcslt6/h1N9eyRGDklxz6f/RHjyFG2/7NpFMG3++4mcsaN2Pa+86n9qgxcO3XM7Tr63iV9c/xP6Dctxwzk94q+FYzv2xxJ33T8UoHcuNN1zKoHjeLH3+rgu5+4U1nHPzkxxU8/HFLZx2E1fe9wbHX/oP/t/E//F0GOE/EWR3zTXw+ON5f+QX+SBFUKawMK8Yq3Z0/unWE8XXdcROIcipD11AQTTkkYwk5Zc5FcHXnGGSyWUIBxSvlEeYh7IqEQrFSOq2pxILo1Fsx/ZqtW1XR3YcujPZj6LQuiOaWihemzSh8kSqS0BxQRaJ6abnD7Qd8UWY28IKFevViI+NJeXNfNMRjSAkr5muJIuSPYWSSJyCcNRTqd3pDIZtYpkm6VTG6xLUnc2S1U2vuYbjQGVJsUfg7V3dNHekvD8ElteAQ/GOIY4pPuIYomNPcSLmBXnaUmK5B2Fqi/7kLpKpk+zqZu/xQ1m6ZC3RYIBxI2sZOG5PFr/7CqN32w8nVsP0yQ8zdOJedKYt3n9rDo4tYdmmFwAKh1Sqq6qYPHkrfJBf1zdgZ953W1s+gh2LfTFB1tfnK20837m//bcQ2CkE+cT9F1IUFwnXwv8mEVAsbFsiY9okxRrTqkJItDQXk0EWa0A7ZA1RHqJ6+X1CQYrOOy6mV0IokqZFtFYkiXvkqORzIFVVEK/oiCMi1kJNidiFjSo5OK7tkYeo4vF8dV56er5zjmkLP7qGo1towaBHnpoaJBYQilL2gj3CB6pKIjCT8whNVNmYtjiGCNG4jB02AKwc9Y2tLN/Qjm2JMwgVmw8SaeFQPgKfy3klhLGQ4pniyZxDZyqTr/HE8YI9RWGVDRuaCItjmzbDqqNYqsYh3/gei954gYHDx6GUDubWW/7K4LFDUaVCli5e7EXnhW9X4FBVVcW/nxELmPmbj4CPwLYisHMI8p7zCIh6aNEySLUJBVTPDSMiva5o62CLtBjXU28iIVqoPF13vKRoUbcs1r3WDdNTnorseMEXEdXOmJa3CJZodOs4sqcGxVjREt0W5qabP6b4udBnQrYKMrM8ghT/F80vAp4PT6jPoKx6TW7FqolC+QUUFUkSTWvF6ma21+Qik9VxZZFzGPRUbM4V3k0YNaiacEBlbX0Di1a2eaQouYpX6aKoEvFEgXd88Qcha5oeGYpottFzPnGNoaBMOmt6yto0dNxs0lt9cXB5nKZOnaLyWlItdVSVFVBQWExDeysbkxb9KobQ1biGuqaUV5qIbFNZVcWMaVthYm/rDPLH+Qh8hRHYKQT53EMXYYrmhq5OaXGRp6oCikI8FvfIpzOVJp3VPQJUJRVd2Juu4hFpSNOQVJlM2vCCKSIC7HUst0xMy8WWZK/UTpTXSU7exBRC1LIMr4msiCqLRG9RRSMUqmdmC3L0vg94JBcIyF5wRySUm4abV6hZg2AggBbA+3lUmPqmQUcq5fVnFMEbUc1S19qC4biMHVTBkLIqWro7eend5R7xC3LP5gx0y6WoIOFF49MiVzGre+Tt3YNu95j1kmeKC7Us8iWFOsVII1sukiVUdoiOriSRoEpJvwRtqTS1/cKs3mhghsMc990f8facF1m9YY0XlKqqqGTatK2opPkKT3L/1nwEthWBnUKQbz9zjVc3nDFyKMGot9phRKzOF4mTzKa9rjRC+eS83GebrOl6HX1EMCOqCd+d6GgjWo2Znp9QF6k6ukXWtVAUYYIL0hSKMP/JLx5t5Bfd8uLNEpIrUopE7qSNqqgEhbIUuWTi50IwCrWJ6L2YX6pBKMaQFiEREevbRIhGI9662O2dXeQsk4Jw3DPS1zc209ydY+KoWiaMnIgSCnLvI094a9UUxETduUVzt+GRs8jxzDkiICR7aUjCbLeFmS6uQYaguB4ZcjmxIqTrRdr1VFoY6qIFBprseGtj77XLIA/PZSsbCUdkdt/3ECxZY31DG4FIlHlzX6eysoJnfRN7W98Lf5yPgIfATiHI16Zc5fn10kbWWxpBLMvq6EkMIRRtvHWnRe+BpGjrJczmnsYShbEQRYlIPtE6m/WUX0yLYLs2LR1dJHNCiYlGsSJKbHnLJORzIAVBqsiSSNwWXW5EEMdFlUwvWi6St0VakfBXCsUp8hUV0/A6kWeFD09RPXUZFm3QQoqXmiTM5M5M1usiJCi3qiRBVs+woamN+vY0IwaUMaiqkta2Dj5YVk/acilJxBHteTpSutfDUYTv04Ywr/HcB0IRC6IUlTeqIhMMiECRii6S0HO6l5IkFKWdy5Lt6qY8oXlLOQysSDB2lzGksx2s/HAdlQPLGDV+P95c1MDSD9+iauhIUt1dTJu2FWk+/gvhI+Aj8CkEdgpBznrid173Gd3SPbM4KFYIU1x0S0SyHS9FRdi+uigh9BSVaHEepCgW8lJvhEmuGzrxaNjr0i38enWNzWzsyHgqUBaJ2eR9kOLjRbKD+Yi26CErmsi6losiiwXD8v5JseCVZ5bLMorjoDmm59MUdd2KqnpVOWLJV0G+WijgmfaZdIbuTNKLghfExHUJou6mK+MwqKqYmvJikskUS9Y205UWTXITKGIhsGTGa9Qi2rHlLC9W7flJhR/Wsi1PQYolXbWgQiQUIGuYdHfnvER0sWnCxdDVhZHTKYyEcTxChd1GDyBrGdQ1tICj4GoxSgePQpZMVq2u47nntqLU0H85fAR8BP5bBPl/HiGIAIogKJFgrTuGVwGStUwvWCFyBQ0viVvyVJPw/xVHowSDIbKG5QVm4okYZXFh6uZYt7GB1u6UV7UiTHCxTEFAlcXy0sRCqjdOCwU9/56oo3ZsxyNGL/NGBIiE/0+0EBPq0jKJIK7FRnEUMpKFpAZRpEBPsnjAU6Giq45h6xie31B0FRIBIxfdURk9pIJEKExHdycfrKr3qmT6xcLeNeUMiZa0yFPM12F7jTUEY4rKHqESvZZtQuGKyh6hkx3SOYdsVvcS2UXpZDQYRCwZISgnSZcAACAASURBVPIuawvjtHYmvXsaXBmHUIBcRqc761CUKKH/iGpaulzuf/Apf8r7CPgIbAcCO0VBvjblSq+aRDSPEOatYDFDkKMpcghdQgEZRQ7Q7ZnYDjnL8szQRDhCSAuTzelerbUWDnsdtgVBNrc0Y4oIsSJcjQq6qGARgZGAMInFOjFhTx2KlmA50fJMpN2IlRFVUa5oeX7HjFiC1QbD1L1FrxRXLFkgGk646MgEZCiOaMSjAWRVxXQFmQu/pUg1skjpplcF4yoBxgyopKgg7jWxnbtoFXUt3cRDmmc6p0yb7rTjqVDJFteseONzIrnbMREJPmIT5rYki7ODIfI907anrsU9akq+fDLZnSEku2gSJEWCuguFMZUjj5rEkqWrWLOmjsJ4hJphY/jrXVO2Y2r4Q30EfAR2CkG+/MhFOJKoUNG9tJpAMOgRTn79bMtb80Gk6rSn8uWFXamsF22OhzVCgbBXxyw2OaChBcKkczpt7e3krAyxQABbEJYgX9EMQgsQD4t1q0U+o1B5phdcEQEgUzSrCKoERWMLWTScFSWHrldVI8zeqKRief5KhbQNYRWKwhKFBSE0L91IVADFPVXX3NlNS1c3OT3ntR0b0b+MXUaOpFuY2CvqWF7XTs4UEXEHS7K8yh+vbZpnNovkdoeujCB+C03OK0eRWK5iY7qSl5upmxK5bM5Tmd7fFUkiHo+S7s6QS3UTUoJkjRyaolBcWsYBB+3F6kXvU1fXQkHp/2fvPeDtrOv78fezz7x73ywSRlgCilAEZCObMFWkVkGlWldVbKn7Z9Xqv1irVmsr2oqUArKXjLCVvcLKImTdjJs7zj372f/X+/N9Tu7FakkguSXkPH2lweTcc57z5Dzv8xnvMYDLr29usZu3ePMKvJErMC0AufCKLyhun+8JIdogv5GKgigUDiIMzvssjJZc+JGJar2GXIrzR4JVhEqVUVIaYp2PMwTYaHEWBy40Cqi5EQ5DAbEMlyqOg1zWlla9WuXc0BM5HrfPFou1KJCZnzwneeNkSWoaMoYJXzKvLdQZ7xL7yGd0zOxoRXdbi8xO6R5ETuZ4qSJSST4/Z5G9XTnMnTEgMbUbR8t4btl6jBQq4leZSTPvmqdJaSTDvCg7BCZqvix/UgYdeQCbNhqhj0LFF45o1Q2ljZbKkjob2qoJGTyC4ZPWxD9j6elzAot99t4du8wbxLJlS1CvxrjilkffyGej+bPNK7DTX4FpAcg7fvVZqbqIhayc6gHA2ACDWmi203YaYWSh5AJBZErrnU+lkE/pCHySs2uybBHOY6yhXHNRqfqSPW2SykN3bbbP0JHLMIGMhhBM/2P0LOWArmphowA08qfpBNtttuCiqInU8/J/R7YjQKvx3Lw6UmkDszvb0N/ZKXzMkUIR5QpNKjzYti46adKWutrzmNnbAcuxMTwygSUrJ7B+jHNCUppMtGdZDRsYr9RlCVOq+KgEJIvTzzFGR4uN3gx5oDqWDBWxrlgTtZFQlIjpUSBAyV9hGMAigFZqiHy13KH2PHZDzJ3TgRkze5Dv7MPXv3f5G/6ARyseQfDUDYhXPYGoNKIoVG+xQ7PS0HrnwZh/LMx3/TlgWG+xd9h8O6/3CkwLQN5z5eelynJ9ztQi4TnmKTukOzjjXA1LAraKLqumGAEMZB0drSkaFkSo1pRCJCZARpHEI1RrtBajRFFZmdXqpM/EEr3gWEr/TFakKHQiLn002DrBha21jzBQBHI30gS0o9hAEPtIWQnAOoaY0kaxh96OPGb0dMkiad3ouKhdSAniAoiKHs4Z8ykT/T15pB0HExNVvLRqE1atHxXKDl2GZrSm0N3eipGSK9vydZuKKNU9oSalbWB2VwYH7NqJOAjx3MoRPL+mioqbqIvofh6Q2K5mldy+893FnGHWafprSyXM80obEXbbpRdHnHg6Pvjxr76uz0VcKyJ6/nYED1+BaP1Lb0lQ/JMXxk7D3O80GId8APrA3q/r+jV/6K1zBaYFIBde/mlxB+dRrZPzaCNLlYuliSO4Qc6KZsANKbULBEBaMxnRb2uaIQa5ZbcufEkmIFbqdQEDLlGogiHI1JjixJwXyxZ9NeWCXHZkaIRhW8jaymCUQMNYhKqnqrGAqYHUS8ek/dBCTQFaJk3zXeXdmM2Y6M5zYZTC0OiYPJ4beIItzSdYDfd1ZdGRZ+Z3RhY3zy5eiWWrR1GseEg5JvryFnq7OkV/znNdMzKBkYmaKH1ytoa+dgPv2KWDAkQsHRrHc2srqLhqMUPTDZkI0ALDMGThxW+FlAlUSyW4FU9mk6zurJBb7whzZg/gp9f+/nV9Ut3/vAjRknuVCe9OedCGKQ377O/CeNtJO+UVaL5pdQWmBSDvu/KzGCkqF2435FTRFG9Hw7JE1kdlNFvLWLMEfAp1H47hoKO1BZpmijSvHlLhQjJhJKoauohTTkgaDTXTrKpomGvrOkwWlTp9JU3xV2TlRRDl/JCcw1haV/piEGy4HCEWULroIgw98VRkq97T2QrHTInpbc4xYRk2Jtw66vUAgU/4pYVaKHLE1pSOro5WdHZ0iXzyxRXrsGjxEAolF7atodUG2vM5GQXwHa8bq2G87Iv0kEualrSBntY0dEPDhvEaRkuBgDznjQRIjgFE9WMYSavN9lzNLdxiRTTk5GbSSLi/K4t5c2bhn351x1Z9zuPSMLyrvoBoeZM/yQunZdphnfUdGHsft1XXsfng/4MrIOYOSRUhL68hifp8QyczLQD5u2s/i7FiAK/mgcwU6upacllZUNDQoea50gZHGrXLsYAGbdGo1WZby00398wG9csh53dVlEoVlNleWrq4fYOWYpqOtG0gTV21oYjYckShtLp09uEfkmpEnbbgSxihHLgqerZOvTerSCCX1tHZ1op8NifPRRNaLno88h5dMhVjceNhMBhBLJfS0NvTIe+LSqCXVqzFC0s2oOi5MDQDGUuDo5EDqSPQIkxUIpTrAao1RY7XKYG0daQ0kpVIjA9Q50qfCyRu+wnqMc1wDVk+8TWpEuKXRsaIMTFaQoaOQLYhPND2rgFcedPWufl4138F4WNXKkPX5qGugJWG89HLoc86oHlF3qxXYOx54J8vpUxtyhlqQNfhwGcvAlKv/8SnBSAX/vqTqLqaqGgCzRCqTUtbShnZ0sRC3LkD1Gqkvngo1zyJJMhkckphI0RqSE4LW+HxiSI2jJfguYojyO0yXX04l8unlJSQ23JWkwzPCglqJIkLyDI6VbmOEwdc30Ot4ik3/DiEG4Wi/yY5O08NNvmUmi6mE4VSTVmchTp0Esn1WF7D0iKEkY98NoPWXA6RYWLN8ChWDxVQr1EpQ3MgTSSKtEwjab5O+WTVEy6kkMZFjx3AIZVIVEAm1heopuG8lK+ptOK6fBHQazJALBvuSBY4cD2EjJgAvyRMDA4O4OrbtrzFjtYsgvuz90oE7hYfehr6u78N+6iD4P/yAwhXrkx+1IRx7D/C2leD+09fgvXXT8Lo8Cgbanxjwb/tswge3woaUtt8WOd8F/j96fBf2OIz3CYPNPY8GvZ5PwKsN3CnbZMzaT7J/7gCfgH48ReBVzzl1t6wzwxdYOnTwD4XAx85VArK13NMC0DefNnH4ceW2Jax7W3N28hlHNFS0wbNIdHbDzG0fgzFcoBiTZnottBYFOrvWLGlLAuWrqFYKcuGOPRDGGzVmSuT5M9kRUXjKPAi75v8S/GNZNVNiR/tfAiSpszyuI02SN42WZ0pEwmLumgzQmtrDhknJT9XKtexfmwCpaovOToEdnFFo5g8CoWSRIeiXCYr73Gi5mL9aFm27eQ1UiVEQGa7TzJ7zYuFVM5/OTUqYCaPh3xWRwujJTQdq8dInCfVh84/gaL3kKcpJhx8cVaRhEQa/2ooT5QRRwYcI8a8ubPxXzduud2Z+6PTEA1tHfJo3UfA/uhPoDsFeFMB0uyEdf410Mtfg/sbHc7X/w3xvV+B/+xDk5/R2hhit77Fn1ltztFwPnwpwqsPmHaAhJNB6lM3Q+uas8Xn23zgNF2BtU8Bl34V2Pdi4C8OnwTCqAb84mvAkirwN/8M9Lw+ZsK0AOQ1P7sIukHZoIW2tiy622xxr9lUKMKy88jaKQGwoQ0FbBydQLFcR1vOQk6qtxRKNU+kgVJZ6RHK1Qo2TSh1DAnUpA+RZ8kvCQIvDSkcxqGyh2Y7Sk6jziWNWsrwv6ncocMPHXI0Bl6RZ6gbwmKxRcMdwklpaM22yuMrFQ/rxwuyMBLaDZU4LoErkkrOIp/RNJBLO2K6y1HCaLGOWi2QqpNGuJJ9oxNINZFPloQoLv5DYiQspHGTSxtLSOMTVfJEqQBSAEnCOKtP8cUUWSL9MWmrpiGIQ2XTxgjcIMDA4EzcfPeW8SCj9Yvh/vRswKtt+afaGoB53q9g5AGtO/3qCjI/COfjv0Z05VHw7QuQuvBzCP77PASLFr3m82vd+0HvmyHGyQgqiIaeRFxohXH0B2AddT6iR76A4L7fI3JD6DMPhMYsaf6DhDXEa59EVCgAnXvC6B9AXA+hZbOIx55BNGJAnz0fmkP+bYC4sBjRmkbF+5qnBfOYT8E67rOv/cDmI7bvFXj2FuCOh1V9wKO6DhhaD/TuD7T8QdJjYQUwUgYG9gAySbIkudQnfgTYZ8uCz6YFIO/69V/BjVPSYc3qb0d7hi7ePoZGJgAjDdty5NdooYaRQhXVcgU97SnxTyTReqzsSnKgHsfIWbQkq2FkoiqyRJ2r7FgX4COrMe3YUlXSXkwcytm6Ekzo3MN0Q41kIG6D6edDoAnF4ZuRDAz+Ut6RMUL6SXJWSUI7Q7g0ZsNU4PolWeQEfoBChTNRxV3MpNOwdZr8kmJkgSmv46Uq4tiUxRMBL2Y5KwaVIarVmti3EWhNzkOJBwEJTkRzOg3piDTl9sPz53PQHo0HK13qtvl2JM7B1ETR4/tsuYG4Wkc+34l7H35miz6s4XO3wbvyrwU4tvTQj7wU9iG7wX90EawjjnoVQGrtn4Vz4X5w//HDwEEXI3X6BYhWPw5kugF3FNFDX4C/aMMfealT4Xzxa9CClYgnImiz9gKGrof769thvu9imPPmI165EMEN30W01xdgH304sPElxH4K2uDewPD1cH9yCeKDL0H69A8BpbWI1m9E9NwtwP4fg9EHxGtXAL37Qk978K48B+HSdVv0lvWZb4PzV01t+xZdrO35oKeuBv7rJmCCnNytfCE9DbR0Aud9BXj77C364WkByN/95tOohinUfNqV0QiXd3GIUtVDzdNgORlknDTKtRCj4xXhOna0pJDPOLKsKNYDSe1jUZEmGHgeRktUsHBuF0n+NB/H1jOVMqV65AyPlRZh0DRog6bDo3KHmnDqrtnSsj1W9aCUoWJcIS7fdPWJpErTWU3qtE7T4NbrqNYZv+CKKzlNKMJItdZ0GuJih3hN8GT3XAsMVMXrUnk+cpJKIPclu9qTv2O1y9GDweoVVNPQL5LAG4vyhyDO1/K8UACU50u3IZ4b3dX5Q3xu/h1BlACpRyE6cy2466Gnt+hDEDx8OfybvrHly5nuY+B85NuIH/w8vPFDkDp3wasAUl9wCyzn3+FedQvMY78H6+j3IHrhWoSrNkCf/x4Y83aBf/nZCF5c9urzO+RfkTpmAN5Pz0M0Woa258dg7dMN//YfAl3vfFWLbZ50KbTKVfDvf0yeQ5v3aTgXnIvwS4fBJ0Ce9n4EV14I//nHgezZSH357xHe9tfwH7wdaD0I1qkfRvzEvyFYvGXXSGOb/Y3ntuh6Nh+0va/ACHDx+cD4Vr7OnLOAL390q35oWgDywWs+g1qkY7wUCW/QNButLStJAgRJ4zqqPrBptCK8QnIP21oy8ngubWqU5TGWVYcQvScqpORw9hYkZhWs/HRkUwwAI1ncVMYUrCKlcCPn0hXw4v/0xQuSc0E6eRsi1WPLyqUIwYkhWARRAiYXOJosREKUqzUxkCCtiKwC3aDjj4NZAx0Y7MxLNbpm/SYUSj4mqgEYuMgWme7jpIJWRKqo2m2eE1+b2dYEQlaRzNwhQCrAU+oZAjNt2CinJN2H58UvCy6s+Pc0BuaMk/jJcQO/GAZ6unDbHVNmfv/LxyJ46Bfwb/nWFn9wzA/cBTP133D/4zLE8y/+A4CcBfvzNyNe+An4zzwMrWU2tJyNeGQ5Yo8C933gfO5GaKu+g/oVP391FZD7OFIXfxooLUe8/gWEz/0awaLnFQD+kRmk1r0XjN2Pg9Y/C3rvHtBntCG4JAHIk0+H959nIHx5PaDvA+fia6DbI4jWL0O0/CYE992wdQUIGRLf+QNA3+Ir1nzgtr0CUwAyPQD8+SeB4gPAf/8W+MCPgMpvgJufAc79NNC2Afj5v9OIAXizAuRdv/4UXDgYm6DBrbIas4ykQtNttLd2CP2lWK1j01hN2uF8hhZjDN+idpkLClaLbJWZP13HRKWuiOA2Z4g6Krz5Yh2OYwhvMWWlkioxFi9KAoc4CoUatCCAyyyZJBOHcQtiQxbpCBALz5HtMJc/3IqRmxgTWHWVhUMDX1aZBEnTtKW93n+3fvT2tAsQLl25DhuolKkFqLhhUgEquzPauRHY5bmFXKRCyYRGJK6WCigtGZlSBeSJw89YmRtvX23QNUPMLZTZr1rUBD6XPaSJhrBsHQN9g7j11nu36HMZPn4VvOu+vEWKGe0d34JzxgkIb/8eok3rgdnnwHr3IQju/C6iZQ8gik9E6hMXwv/lmQhXbqKbJbSsibhS2Xwu5kXPwnQuQ/1HP/wfbZK2+wdhHfxuaD17QG/vQ7zpbni/uBhx50FTKkgbxpHfh3XkIUBhFeLiKGJfg777fIRfSQDypOPh/fIohI0xo3UgzJM/CGPG7tA6B6HZZQTX/RX8J5/aomuktXQj9XePbNFjmw/a3ldgCkC27A5c/B2gdCfwvZ8BF/8WmPg58Iv7gE9+D+gbBr7xtwDH629WgLz+F38Jy8qjUPalmhOj2ChA4NZh6Sa6u7vgpNKYKKkZJC19Uhbn9KwKSWPxocW68AnJZWTkaqFMFUokBrpsTwsVT9xzmAnNRQldgLhcUf6PoZhRUDrICSSt0+S/xOyBTuQETlZrlB0SwDkC4OKFVagCTy5WCIoETi5DaFgh9mmWLRXpbrt0YvdZ/bL4WbN+DCvWbBRqE2NdOSslQEslpOliMsHZIYGQXEduqknfaQR5kWLUInQlShhZFUYYGa9h7RirV/HrEHoT35yMDGRmyhkmp7AR0ikdg/2DuP7GLQTIpQ/A+9VFW0Tx0Q/+HKy995u8A+xe6DMHEa1dhGjRjxDap8F5ew/cH34EUZyHeeL3YfSshnfZN5OKbR7sv/kt9KF/QP2Ky14FkMYx/wCjfQn8m34JpGZBazkX9kUfQPTjBfDT86YA5Klw/t93gfsugffoPYirJWh9X4bzyRMmW+ypALnrGXCOWIBg4SUIN/rQWufB/tAV0NZ/F/Vf/dsWzbL0PY+F8xc/2953fvP5t+gKvMUA8tqfXoDurj649Vj4ioblgLRD1y2hHnhwMlnoBs0lgPFiVZyzGdXKqRzBKQhJxtaQdVKyxS1UKmoDbpnoyFmyGKHScHy8LlK8fC4teTK0LaPFIxc9bEmlLRXjXrqLUwXDzbALr15BnJCuCVZcyLADJmgRwAmenHXS1iwkB1HMdxV3kXcXW/KWrI49ZnXIwiYINAyPjmO06GLdBBUxBD9yMlUVTGVMUpwKSZy+lDxvzjltC8g5GnKODnoZdXdYaM3qKJV9PLa0gIkKwZQxE9Slq1acM8rAVy0/Z5r5tIn+vn5cfd3CLfq4xcWNcH9wEuJqYYse/6oH7T2lxV5dgvXeK2DgMtSvvEaqR1Z69nHvQnDr5xEsXwt9n/NhH7sAwdUfhv/Mk69+vf2+jfSCdyO46mIEY6PQuj8I+9yjEf74bASZPeBc8ANEd50N/9F5sC/5PvD8N+H/7gnAmgHz7Eth9IYILnsn/M5LkJ4KkG3HwPnMj4Hnfwj/obsAY1dYF/4YePGrcK/7r9cGSP67nPuPMA5YsPXXp/kT2+EKvMUA8vaffQhzZ8xDzB1DTAJ2C9KZDCZqVQyNjKEW6kin0jIfFGfsalW2siySuKmtBa60qlzaZGwL5UoN6woTMnvrypEUTsPcGPVajLTN5Q4Nc7OS+yK8QZ1KFlsI4IqiozbVda8qnMuJIs0wKOejkQbnfFzbkE6j4hzq9RocVm2MZzAsxFSziB0ZVT3UTNMMN0RfewotaQttGRuVSh2jNRcvb6DnpQJmvneqXxg6xqgFsS4LuYRhDIOqCC0zQsbWJXqBBPG+Hgd9LdSjR3hpdRkbx2naK4NGAWfxmKR8MYmQINBSRz6jfxBX/ebOLf5w+jd+HVzWbPUxFSBHY9gXXQ7cfhy8F5SDEjIDMI76KqwDDoJ8AOIxhAv/FsFTz9Cl7Q+ONhjv+RasQw4DfBea7iF45J/g33sjkNoV9l/8AkaPhvDuCxCUzoV9+llAWAX8EUQv3ARt/08hfmQBvNK5rwZIWinPOQ/2OZ+G5vBDaCJedxP8a3+IaOK1vxS0jplw/vIqaC29W315mj+wPa7AWwwgb/mX87Dn7D1g6w4ylon29laYho3RWg1Lh8ZQdiO0ZVKis+accLRURsVTMQkEpirtwVzOLalwYTsZibabSwv6PpLD6PmKAN6azaM9n0F/Sw7tUkna0tYyglVmiVSCGzrqvotimZrnEsYrVdQ9F6ZOGZ+i4tS9UJ4foY4o8GEbETpbsyIv5PKnVg9QqLvYMF5EsU41TCDyxbacjfYsjW9JwQowXIgFdH1iGueaHDEgFlf0sswnOSNlR6826RwHkAfOHBwLDsx0hJ4cLdGAodEQG8Yq0MidjJSbujT48n547ZSMwEmZmDEwgGuv3XKAhF9D/dLjEBfWb49P9A79nOYRH4N1wsVJSuYO/VZ2nJMnpa1eB+gFy+F6sUi5nfqzl54A7vw1kGkFWvfY8WeQv/z7M7HPLrsgn8ohQxBpUy49G4o1rJ+oSRZ23qE6RS00hosTGKtx40zZHa28NDGnoBSPShqCKN24PSFoU0VDo13OFA0xhGjPOZjdmcNAR1502awYIo28Ql5jH5pGBx96SroolMgf9KSK0wjAliM3AqvDiUoV1Qo33RFaHAPtrRnJpWZlya0xeYxjxaqca0302YqXaJNbydiGIELNU4obPtYPPdGKO4Yum/gCc2c8buJD2ExfZC53EApnUjMt2E5KqlmaXXAuWay4qFZZkbLaVQDpMM/HMsQZnTNIwi/9IQcJkNfftVU3RPD0DfCvvWSLZpFb9cQ78IP1uX8G+/wfi3FF89gOV4BFyL33AsPDwAsvAOUy8MorChj5i8DIFmx0VIGj6wIXngdgNRA4wFthSfPPXz0Fe82Yg7TTBi0MYdsmQl1HqU4H7RitKQuUCJL6whnleKWCNSMFWcxQN61aYnoAEUwYk8qMF4KEBssmyTuS/Gk/ZOSCiZxjo7c9jdmdrRK9SkClgUTV91AqFYWmQ7K3HDFpRrQ74+rYgq5RDmlIGBcrSwJg3XWRdRgillYZOJxusvIDUPN9DJeqmHAjeDJj1CH0RNqoeR5MS0Og6SjVfAFFx9LEgo2RCnz/zLURI18jlPNmfC0X8pFmSPAYfSoptNTiQJZEDT6kOLHHmsg0dUv8xuWc2WLnLAP9/QO48rqtc/Ph5Qju/Sn8+34KuJNb5+1wW+wQT6nPejvsD/07tEzbDnG+O+xJHnYY8LstcJCi9PhznwO+dBHwpQsUD/KtAJA//vpZmNc3gJSVQaXqwXVD1NhOiwFFCl0tlCGS0hOiVKuh4vpYO1qCEeswybzmkNykA08sMQuMKqhxrhdDjHXZPtejEBNlgh434Ba6W3KY0Z5GJ9fAsY6S50vWdKVaR7lKhQsrLTW/pO6btZdPV26dCxIaURgYmSBQTwi4MTQrl7akRSatJm0aSBumaMQZ6zpc9WWRxP+TeWJIvqewK4W7WKctGbfgMSWNZA+ZYqJRcsmp5J8HyPOLA8rUg60+t+iRrjTjXMaIq49YnxEcmXGjgsDI0xQFTcyRhIHWtIG+nn788pqtaLGn3F3hs7fAv/VbiIvDO+w994ZO3LBg7H8arGM/A619yyRpb+j1dvYffuYZ4MADJRngTx4zZgD/8i/ASScBZmGSKP5WAMiffONM9LZ2wDYyGC/VERAcyEFktQWgNWOL9RkrIAIJFSaFSl0UKNwKs43O02HHiMU4t0CLMJ+jNwMdOeq61ZyvUHZljEcyeVc2jf4WBx3ZFLw4xEi5jhLtxep18X1MGxZy6cT1hzGsYKXGlt5B2uLOOcamYg1rRwvi/O0YlgA0wZMzQ1aZTCMkLYgUownXR0CA5AAx4rKF521IBg4BlSPSqutKtciOIaCtWUxHchcVL5AqmBtuqn4oyVTcSF4d1aITIBlTS14o2ZMEXsmq0bjR5vXkdt5HxjTRToPfrm78x7VbtsX+ox9Kvwb/ju8jfOFOtd3261slRdyh7nn5B7Wh2VlwIWMe99cwdjtMOZ00j+13BThb3LgRuP564EtfUu30Hx5cRu6yC3DttcB+DXrZlCWN3Q2c80lg7LfA7Q8DC74JVG4BFj4HnPBxoGM1QEYFb+43Kw/y2xefiO5cK2yrRRYTTDCkMQSrMf6i/RmrrrLroeQqAjdnb6TVcHlBIjdvetK4a76L8TIJ2KyyIqQoldaVYw+zbkjlMWJIq93ChEObABNjQhIM6QAeyuNNzhUzjtp0MzGLdJ4oEps1iTMAQ7XqGCtXxAGc52OZdCw3JLqB6hc+njxGbrH5O0norOi4DGKOdZrpjarfFlUMpY7kXlZpYBFzjaPLwongXk8iHHg9ZKRAYpDwklTMLF9LyOlEV5BkrxzTCZB8jOT9MKtG18SMeGBgAFddf/cbbmXMggAAIABJREFU/nDHpU2IR1cjLo8okHwrHiSWpvPQWgeg98xrLmO2978xK8WbbwYuvxx4/HFgzZo//YrvfS/w/e8DAwNTHlMA/uZ9wOhWnuiu5wJ/e8FW/dC0SA0//7Hj0ZLNIWXnANNCJpUWxxyaNtCJhoDF5UypWlcxAwQSMW8gwTqS9rota0A31FxvokIJny56Zq5G+DiSrGOQlqOypcWgIlamwuQykjPIdloIPBqpMTSsIC4aMK2UKG+4GSbRmy7htCAj4DAigTEQLtt9LRa3naz4qCl9tetpqPqRVJKk5bDFpr9FRy4rxhkRXcpjD3ociaOP6+uIA10296ygKY/khpuOReRiihu6OBCZss2mCTD/g5UpZ6esOPn3pqakivIgVr9C9VGxE2zN+3r7cOtt92zVh6H54OYV2G5XgNXi2Bhw993Al7+sFjGNg5/jjg5gYkJtrHmk08DHPw5897ts1/7naf3qM8CDS16bw7r5NSzg5L8FFhy6VW9xWgDyrz9ysiwPNCuFTMpGaz6H1nRGKDcOWxsCjU8DiopUmKJT5pE46xDISPdhIxxqITxPEzuxitBrKM9T1SQ3u6LUkdqMyhtNtNgOtcsGFzg2TLrtEJD5D6FSE1QlaikQ5TkpgKSsz0cxYHXKVzCEvM4NdC7FWSSBTVV1dcoXJcuauTYklQOtaebhqOo2m4oQMYvGj1GsMwzMQJWbGG7WWRdzYcMgMSpzRGFDGo/SWPO82UKL+ifwUavVk9mjeiwJ74ycqIcBPJdWbjTmAPr7BnDjzW+gxd6qj1Hzwc0r8CeuQGNLfcUVwAMPKGBsONYTGN/1LuC884BjjgH+7u+A664DWlrUvPF97/vj4MiXmhgCKBNNXPdf8/o7bcABhwAtpAVu+TEtAPm1T54pIVn1IEQ67aC9NY2OljakaWyr6bJ8KFZrMncsctlBLqBAkgIvzu0489OFac4tL6sxXagtBDkCGo9a4oatRyR5sxpTIMnf7ZSNlG3CMWldlkQZ0LCCWmYxiNBk86z02fSNVDO/WkjVTVoqUq6nHTNCNu3A1Fi18d9Hhycb9FjaaNKF/IB0HoKpL9k2aVaxBlDzDAxPhPCZoOhL5yxteZ1+kdRZEyD5bSCccc4k1X83DC24vOFGPRYaEWAbOlrTOlptHUUvxkiFum1qtYG+3n5cd30TILf8Vmg+cptdAbZnnCc++CBwySWKvtM4WDFwG3344cA3vwkcMCXK4uWXgZNPBm66Cdh99212Om/kiaYFIP/xi+9HqR6i7DIj2pEKMpdNyfyPvS5bZTpws81spBOyJeU8TjwS6XsoNz6BLRA3HFaQUgTS3ktaZlaQpPywoqQFmdI6E0HFGkzSD9lyq2gG8YRksJeE+6gqk2DNWFq22hG12wKArAJJMuecz4dtUpdNwrol22YuR3g+/EUnIMnaFnALkU8rd2+2+XQlCmITfmAKqbtSV16PsuHmckoqVr6Ych2Xv+N7E/WOCUtiFviefTD2i+MDPq4zR46mBjc0saEYIuJ4QdfR292Ha6974zPIN/Lhav7sTnYFeEM+/DDwm98At98OLPtDO7tDgDPPBI47Dthnn8RQ4A+u0fr1QH//m+bCTQtA/tv/u1DaUMoBdc7yUhb0SBPyNreyrkvStatMYWkrFgWK4sK4U1Go0LTBlj9jdVZxPQHbRiopW0pioaQACkAq1x+O55Q5rgJKWXoIMBJ0mHpowDFVm5rOpMQ+zPMYmMWNdCzEcbEkE9228pI0daV84WwwpKIl1IW+w7EA/56zQtlGE3QNTZ6fBHEaBNMBneDNlrlU4yghUpvpUJOWW1mgsWJV3pBRxNaenbbaVCvKEB18Eo1eHKMlraMlrfLEC1W22LRtM6SCvP6GJkC+ae60t+qJsEKp1YCFC1VFyKVL4+CNkkoBe+0F/OAHAPmOO9gxLQB51T99BmU/TDwcNdjishNJ+8pUPlZXJH8znKtKGosATVI9xjFStoG2jIXWXEb+jiqaQsI7ZFkoM0gBMLX9loP7C4l2pQGEAjXO9rijJjgSbEWqJ8a5XLJwAcO2PZTNslSC4nWmKkIujli9EbAIUtRkk5JDkBbPxoAVoRqAilMPDSUIwrLB5rmxulTnydEA55psoWmfxtkkUxd5wmyzuejhfJEATDK82mir2STPI6KIWSpIHSlGPVg0zNDlHFT2jo6e3n7cfHNzSbOD3Y871uk+9pii39x5J/Dcc5M8RrbRpOQ0qsWDD96x3teUs50WgLzux5/HRD3ASKEo/EWHhGwtkJaR1mGS7BdpUonxl8wVCVoESkrnTKArl0Zn2oGvxSh7EYo1KksimeM1vMTqLueXdNxRC15WeTK/o85ELMsMkTrqjFKgNlu5ziqQZlVGXqFwISlvjBDFFkKCo5wQ6Ud8nMqJ4fKEW2ouZ9gac74qYCnUG6Vo4e/E68hXtBwB8Zi0IJ57rCpeBnKFysDXNDVVAYsRBccKJjyaWTBOQoBauQeBG2zhWjJaQlWp3OKz+pZtdmygs6sXt99+/w77wWye+JvwCohPYQA89RTwV38FPPkHbkzcNu+9t6okSegWT74d+5gWgPyvf/yUkKnXF0oqUZCVlWEIAMoyJIAYQxAIWG1FAYnQiQOOGADFSFsx2tI2bMsW6o0AJBE2mceRB8nnIMBIwCrNdZPIBWHCRIHENRAg2Tr7TOeS1yD4sXijKoVhX6IlVCa0sgiidptLHIItfSAjAUk+Lp2yZLFTdVkVRqj7gWyUWX2SCkTbMmIwdeKUUPJ5aIpBN/TxoitRtMoFnBWuLka39Jvk+RO8ZQ6auISr8DH1S5IMdVXxynvg9TFZbcYyyuCXTVd3L+747dblYu/YH+Xm2W+3K8DRDyvEG24Afvtb4IknXq16mTcPOPdc4MQTAVaL5Lm9RY5pAciffO0j2EQlS4UqkFjmabQHI+GaJWCNCwsol+6AfEGfJraqrYyTmR6zbKhwISeSS45CzZPFCJcsrPbIoyR4NA4h/8ShiidgZKzJmaCqKKPYgxso7iArxrRlIu04gE6nb7X4YWVHZQxBjCZplEKKAQUrvyAAw/ForUZqULFGNYwvChnTMJN0wwhtWUVPCnXOHNm2m6jX6qi6EDeiatVHjbJCofQAlk17NrbWJNBTlZMsiqRvVo4/MpskD9JUaYYNNQ0BU+XXKKDs6+vDbbc1K8i3yH36f/c2li8HPvlJ4K67NndqybcyMGeOInEveOv6ZE4LQH7nCx9EoeIq3iLbU82AZRuw9Fh4ig3lDJcUYsiwWZNJEwaV3teSspFxiF4Rqp7aAnNuSAcctuMSybC5pGe0QaQWNbKk4ZxOl8qVLSrpOMKUlLwZtts6bOZrm0KKTKhFSskTMO1Q5HzkOrJa9OG5oZhQMOaVPMYylTER5HkJonlHRzatIWVHaiMNuu1oorZh9VmrBqjQyYfSR1HgqNgEi85DNNyNlMJI/B5JQBeNd6J84ykmMQvCexeqvKooJXuMQm/EmDHYjxtvfuD/7sZqvvKOewWWLFFKlxtvVFvpqRppVovHHw+ccQZwxBFvqWrxj/2DTQtAfv6iMyQDOmKUgqMCulgdErj435wjcpstSxZJ/mPbTT5hKBkxtkWHGkc2w3EQoMrQLF+DrwNpWaYQYPi7qjr5PAGtMLixoZ6b1B6JNFCHrbNas2QrzGUNZ3nsuEXV14hoYIa1YQr3URx64gBhHKLmUs1CCo7iLLIiVfNTLprYpjMugbQhLmaIziZ8X73fileX3z0vEB4kyfEVPwT30wRSnqMX6HB53looixqlw5ahgYAyK0bZBcUE6AhpRxfuayUARkvkUqovoP7+ftx2+4M77k3aPPPpvwKLFytNNMGxwaFrnMXgIPAP/wCcdZbaTO8kOvVpAciPnn+SzOjYfrZnsmhJMzcmBcNWMQTUJtP2i3ZgBB5WSNzucglDPmOKRhWWNNPKtIFzP1/xBG0xeFBVky95Mmq2KK0nt80EN26AyX1MMqaZeEjQ5fmQT8h/ayFp0zC3sfTRYsnF0XRLVWyxJ4sUgi/BWcKx2OaarBxDlGh35qvtdz5tw7EAX+aVqqpjdUwAV+FgXMxQEcSZpYb2HI04IlQ8HSO1WGzQyAN1LDW3FApRpL5QCPayqIm5nY8wu11HZwsJ6D6WD5NHqmaY/QODuOuuZgU5/Sizg70ilS3cQl99tbIco99i45g5Ezj2WOC009R8kWOoneyYFoA8/9xjpc20LAdd+TR6sin0d+bQks+Jk81IsYpCsYZyzUXV9xFz4eIHsgHO2Dby6Qwch5sTgidnli6KNVZfyrmbW26CTy1Qkaqc1EnLqikaD2ePrLga8zrH4bLHkggAtqacI0qpJhCs+EGy4GHeNOeVBL4kP9tOAJM+lvRwVGqYSADSlwpSh27qQiQnlMkWXJbOEUJWssk8kSWrqUdoTQE9uVC+AIbGPKwuxJigJ0SyCJKZaajBk8GoChIT/0qQk6mhpzVCT9bEhlKEFRt9aeV5qgP9g7hn4ZbFvu5kn/nm2+UVWLcO+OIX1eKFRrRT2+jeXvV3F12kqsW3wDb69f6jTwtAfuT8ExFEBrzYEOfwgdYc5va1oK01L5SX4UIFxTJlhjVU6q4AgQrF0pDJpJBPO7AJkJLipzTYE1Vfttmc1dGNW/Jk6JgjyYPKCo1LDNpJcvbIeaOEdZkmUqkUMhZnm+Q8kr6jgFcAlFUl+YZxLO7jns+FTiD6ZkoVWXlySUL1C511uEQiwLJyVRWi4iEKwZxgRn9Ktv1MVmQdK1GtnIDGyDqQeWXGJDE9wnAJooYp1oUchBSdg0iYj3V4nBZENNrgWEBFvrKaJfizCq0GMUpVbtxV1dnX149779kCE9LX+8lp/tyOdQX4wVy7FrjnHjVbpMXY1KOrSylcTjkFOPVUIJ/fsd7fdjrbaQHIr35qAUarBgr1ACzSe3IpzOjpQCZtyaiD1WPF88TNp+aqOZ1ooim1s03kbQMpR22rmStdqoSoMeaU5GsBSLW4cMlTTLiAbKptciA1LlnU/JERrqZlCVWIwVgMf6UBhMz1YrUoMSxbKkLOCEnxUQAaigabgMdz82lQESjqDnNzhLcocRFq+014ayhaaD9mySIlRmdriJktGuo+8NKGUJQ2opDRfHFEL9b5mlwEMeecC6gIaYuWaYraxGqU5SGllZKpTe24zCuF7KRGCDwXDejp7sF99z68nT42zafdoa4A4wy+8hVlBDE+/upqkRXiV78KfPSjQGuruOo3j8krMC0A+Z0vvBdjZQ3FKhcfOno60uhtywlYFcsuap4CCJpVECB5/xMcpT2lv6FFf0W2yTSkIGcyhu9B2k5Dj2QOycqKxGvOKD1qoalGEaOKSFp20+IyRv3jq/kjNyhUwnA5xDZYbcV1g+Rt9VoEXYl6YJXG6AeCUsR4VYKmgYBxsjLfVM05TSvEOEMoSuRDKpUP558EtP3mRMjoqjVeW8li/ah6Tbbq5GkS6yr1WKg/EzW1qGHrzdkoN/vkRCp9EIQMr4jj6k8aFKcGoZx2Z/fe+/vmZ31nvQI0oqV7DkHx1luBUmnySnR2Kr4iuYvnnANkMjvrVXrN9z0tAHnJx8/CuMtW0UA2ZWOwPYUsiYSGhnKN/EGqaQKMlqrius0+WpGn1VKCpGzOGblmZoVFsrbKr6FskYCnKDtssanVFq9HbqcFvGJENLwQ7TWNKpR5BRcsrPLor1iTrbinqr+kCiPgUsOtLMWYr63iFVQ7rWSFwtEUs1oVpcD30VgE0WBCqkhZOrFKBbpzdew9M405AxZeXsuljInVY8ypMeH5rlSrxZqGig/JvyYnNEXup0XNOoQmxOfhdZHnljhEBZIcoSqTDJ6TJnZndy9sbrFf8w54qz2Anor0UPzlL5X/IpMAG0dbG/CpTwEf+pAyoGX12Dz+1yswLQD53nMXKJlfOiUu3l1Z+jIqvh+BkZUT533lah1Vxr1ytsfqkDxFi0sJSupURRkGavMtSw/GubLFtpR/Yo3zQprokh9pcRFjwmD7HIbKV5HyQipidFay6mcItK5HnbULXxIPFUGbj7MspacmuBIM1ZxSRdOytZXacEql2QAq9RqquuQyRhnxcgmooTMfYq9BaqojlKsmVo0AkW7LgmqUxHFGwUpWtjIRztgRcrYhGTxFj0ohfq/wvSgjDQFkqbZV1jeBk239zP5B3HZ3c4u9U9z/TPx75BHlosNfTAZsHJwlvvOdwOmnA+9/P9DdvVNckm31JqcFIM8+4ySp6NLptCxpWtI2IkMTYGJHyoqO3Ee66HDxQTdvMlkotzNMG4FM2JTmmoRsAlXDrIEtOFUy/BnSbWqeKwYThk2XcEPSB33PFbCybebJsO2mzRmpM6EYzTKvQrF72HYrN3JWjbRjbJhcsHoNmZEd+2KuwYNVJFtuAqa0uhLNrezJCMwESZpU8GC2jmNF6G010N0SQbcirNsYw40caLaF4bESxsqUK6rwL5k3UrLoxMizggyBUUa+BjTKIO3JElUNgZYAyWqTlTP3QwwTm7vLDFx/a1NJs61ulDfl8xQKwI9/DPzqV2oBQ1edxkFH7o99DPjsZxUoZrNvyrfwZj+paQHIM099j0Qb0NHbsXU4OgnYnPWJ+ENudraiMj+kGiVxxZHoAS1ONNZqIUFn7SSNRZnD6uQismoy4AaUHzLigJkxys6MKMLWlZQdtsuinEniHiTjRYjXNNbVwQklzXSlYkw4lCrVgK+pMquV27gKvyHPUkjp/HN6RhKYBSmTrBgBXc5DKThQzjttWQs5h6BKJY2Gjra0bOKHJzws2VhGscb1jLJs496bo4U0vwBCDaW6MvLle3Zse7OCSNGX2OormlEmpWPXgQFc0ySKv9nvv60/P7bQNIvgbJHAODXoitXi/vsro4gLLgB6erb++Zs/8aorMC0AedbpJ0q1Q/BQESsEMPIUmelMp28LkUSbqlkd53qiKw4BL3KF2kMQEkK34tEIGVoce6jGMQ0BVWVJRrPbUCo2ahSFwkMTCaHwsGWnmS712Xx+bp5VuqIZK0kjtTziLs7liaken7FM1CJDMmFq9ZoANStOPlbl5vA5LKW8IbxJ6JY6BCCZjWNpcBxDJTjyyyDmHDXCrn2tci6kOi3dVMdEVUUqiCIoaemVsxBpPmpGSh4TjX/FCSNZaMk1YR6NbSGlx5jZPwM3/LZZQb5l7ndWiz//OfAf/wGsXAlUpuSWc/P853+uMlzoxM3IguaxTa7AtADkuWefprJiqDtObMOY9scEQSeTkZaXrjjcDtNH0TZslVLoE8ACkQFKNAK9wDen/kkRiphgmwCaanM19Pf24Mh3H4uhoVV47IlHRJ7IOaSa0ZH3yrhXU0CUm2bpsQlAHIaKjRgdh9S2myYWl/zDZfjPH30dT72wGLW6Bzf0ILEOJK7HyjWI/pBsubkUkgAvArYsT2jfFgnliJxFx1Z6cNqr0chioC0t7kIbClWMTPjim0kgVFRKLqXYVqs2XuajyReDfDmIBZp6zyyKOWogkZxVZntXP+5e2ORBbpO75P/qSQiCzz6rpH+/+AVAuk7j4IKF1mKsFknophSweWzzKzAtAPmB884VvbQehaI/ZpUXx7QfMyWHWniPlAnSpCHhEHIeKdZnDQ/E5K0r13ACkwI1pX3h/1e/E+7Of+9ZmD17b4yvXYtyuYA99n0bfvCDv0fZr6PCGFlYyDiWALRUsqw0yZ9MBDUtaQMZx4Sj6fjwRz+CR59ejWefegCrNmwUOWQ18EXBQ7MKLn8IjC7PSypflqFcACnOogAkQmQMS8BRTDH0AG0pfmH4qHo6qiEzs+kobqIauFI5ywZds1CXJETGMZDjmGywEx2sWigpkGxJ0SSDYA0UqzFauwdxzz1Nms82v2Om6wl/+lPgsssAuumwrZ4KjDSiJSgSIEnZaR7b7QpMC0Ce/4H3Sm/NOR/BzfPqCAMPjqYiXclPpJci+Y0qi4WyPZWPrSolms8qGou4c8eqGmxQaridUJWUqqpYpP3d33wJQ8uHYIpUMISRbUVLqo77n34KLy56ThQzDoO9GIsgXENu1SnBMdCe0dGetnHYQQfDM9vw8up1SDkxbr3rXpmHemGAlmxGZpB8PUoRKx5liazyeK4sc5WzeDZjw/c8IXw7lsq6ntWhQQuqkqe9scyfJ2WIXpHkQKq4BwkdgwmXr0fWesJ/3Lw0Sj4SiuWjIW3T61J5Z9KhvKdvZhMgt9ttsx2emNXi0qWqWvzJTwDyGBsH/RV33XWyWuR/N49puQLTApDvfd9ZCaGaFRdNYEnOdqHRycZQtBo6i9POQcK3kq1wQxkinL/EgIJgId6PUqFJxlViONHw6lHXrb+7G5+86DMYWbkcK59/HGOVOk756N9i6MUHkbdd/OK/fwMmrzqmhlxKw+cu/AB+9J83CYl9v/lz0ds7G2s3FXH7vffhHQcciKGN6/Dsi4ulDWc1l8+lJTebqFyuK6qQH9PoN6ljNVaBBtryWW6J4NA9iH6T0NDbFiMM6AupY6QMOLYjlWDNC1Gq11X8QqNilipazSQFeIm9Sa4EL4Eis0s4hJo58Dddx6yZs3FPU2o4LTfRG3oRbp6ph/73fwcWLQJI2Zl6sFqkezdzXaiR3klcdN7QNd2GPzwtAHn2WaeJPlqcc3jy3E7Ljc0KTHmMcW7W4PHxfzeMJTif5DJCNtrUI8tihdxJCYMRQCI4cPPMZ+ffi5WaBZxyzCno6ehFZdVirFj6LI7+8N+gVFiLh+++DieddCzWv/IKXlm9FvNndaJcrqJl92NQLRfwzgP2Qml8DE8+/giWvvwyenp6sHG8gMUrVkulKueSzALJxeQCScYBBM+k1hPZomlKq85RAl1/MlaAXAoo1yOUPaBQc+EYFtoyaYF6ciAn6p7YuYkaOzH0VYR5U4FjkhVOkG6AoyhqkiweXhd+Cc2ZNQv33f/INvyoNJ9qm10B0sTYOt9yC/Cv/wqsWPHqanHWLOW1+IUvAPPnb7OXbT7R1l+B6QHIM09NdMQMv1JAKUTwhITN0xZNtGxv1X64QV0hH1HMI2SKycqLM0jSbVSmNZ9QwIiPS/KkScvh9nn+3Lk44+T3YmTNMmxc9jR65r8Lc/beF7dcfiki3cFB++0JrzqGodWrEVntgGFi5dpVmDV7T+w2fy+k/BE89dTj2GX33XHVbfeLEYY6N+UexHmfuFHGKleGPo7870mXbw1py0DWskTyOKvdgKn5KHkxFm90UaOdm2lIu86FEeNvSx6XU8Hk88jrJACZVNHCgpLNvvpSkddLjDIELLUYM2YM4MEHHtv6T0TzJ7bfFWBnRKOIn/1MVYsbNky+Fr/gjzxSuXe/4x3AjBnNanH7/Uts8TNPC0CecdoJ5OPIkkHyr5IWUQjPDMjiGoNaY59b7ElXbEEiQ8kI2WYbzIb26UrOFp0kSra7KmxLOIjJVleSDsmDtAy877QFaM10YOUjd6NzcDbmHnoC8hkGbmVxx8+/BtNIYc3oKFK5PF5ewyWMB91OYf6e++HQw48UOs6yRb/HPb97TIBHGujE7Zv/y5IlCQOzILQdmq3x7QmXkXxFIW4z60ZDf5uBKPBQqAZYPkpiO1tvG2nbkhAxbvEnar4ALUG/4RwuXwASApYEkdEjMkrMKmTUoEji6uCcE+gfGMAD9zXNKrb4TtheD2S1uGaNiiz41rfUf089Zs9WSpdLLgEOOKAJitvr3+F1Pu+0AOTppxwnLjmWxTCfWOSAjbbYMKkIYWVIOowQYyS7RVQim0dxurSrBEkCDJUxrB6likxac9EgqzVvQiRX0pZcJoOPffCDmFg/gu6OLuR6Z6DuFvHcg7eiMr4Bu+29H15a9AwKtbrwHNeNVwVcWZ3tsdveOP2cs/Gj739P6EQaIxYS8BIKopSSSWSEWLHF8KOGTlvFPZB8rlSBrIDJzwRqboCKp7bmVPtkHW7yNdTdOopuDE+26aqFFmJP40siyemhxlwCypJ2m+T1zTNZyfy20N8/gHsWNqWGr/O+eOM/xs8zA65I5qYMcGhoMtOF33SHHqocdA4/HNhllzf+es1n2C5XYFoA8rSTj4VlOjAdR4BNAE6tnFWONBP8EsUJ3yXlhQQF/hk33qyKWEFRAhhHgThxN1pLtcnmLwWQaj7YcLlRWuqMbeD9ZyxAZ0e/pA0uXvQc1ix7HLPn74+ewdlY/OSDKJXHsWJoBOMEqCBENp3CQHc39t7vACx69jGURzfgmCMPw633Pcr8Q2RTFphAw9waVRCr+afQkBI+poBWpGSSNDzjfDBQNkVqUklyOi3PbJUVztetegRIRWJvzBi5wCGAqlwatdRSrXwSMCZAqa6JZH5bNvr7B3H3Xc1Uw+1y1/ypJ2VXw7aZztzf/rbiMDYOftYp+TvsMODznwcOOWRaT635Yq/vCkwLQJ5+0rGwUhk4qQw8mlFI1cdMa7rjECgoI2Q8gqr+CJAq64VGE2ohQ3AgIVwMK0RyqHiGPFjNSRuuODCKVJ5svqU1ZZvrmGCtetD+b8Nh7z4OD9z0a6TbBpCZ9Xak6xsQjr+CdcMjeHrpKmhWCm69hj1nD+KAw0/Asw/fiZUb1sliRqUtasg6SlpI49yKx6pRqX0klkGGhGq7zI07fwlwSyyt4m42zh0k89BrUrbUzKmhwkbF4Da2+SrmNYlbbDTSci1Uma0WWMpSjY+jNdvAAAGyWUG+vttiK3+K1eKDDyoHnd//Hnj55Vc/wUEHKQedd79bKV2anotbeYH/7x4+TQB5DEwnA9tJSytNo1tWVsQRMSAjkDB/WjG/xUtRaC3U/rEik3ZaGUkQNBr8SHXZuKBR7jtcZjSgh/9b0YREjyjekIxg6Mg7OP7oIxEVC1i0bA0WPvkUDth9V+zV14aC62LDyCaMlJmJU8ZAVztWj9Sx7259eGX1kEhUgT74AAAgAElEQVQFuVVPORY6sszI0eHSkQgmDCeFet3HprFxhIxeMHTU667kb/N8G22w2KRFBEO1dkLMNEXFn+QFkffH5yWdqaH+SWaQUkEnhE/WkzTKaFTSCnZVJU1bt6aj+Ha+qfiFNDICPPQQcOmlChgbB7/p2tsVkfub31Qb6eaxQ16B6QHIU44DdBOmwYWMAgt+hkjObrTFnPkJqDW0zGLAkFSIxMlk5qghMauQ/rIReUqgJdl60kRW6D8yjyPQWlKJsgLlNuOcM45Ha6Yb1ZqHx5Ysw2A+j+5sjBdffF5iFUriJh6iu6sTK9dugO+WUHU9WDYJ2RZa0hacrIPDjz8RRTdCtqULVT2PsVIF9WIBe8zswsP33onxkRGsWL1+87kT/OJI7Cw2xzoob0flBiT52DFDGmjQwS8SVUU2ljR8TGND3rg28jOJm3jjefmlMDAwgPuahrnb56Z87DE1W1y4EFi2bNKhm5+vffcFPvxhBYpve9tOneeyfS7+9D7rtADkgtNPTECCjt1qluaYtrTD4tTdWLg0zF83k8UVQXrqvNHQGTU4BTDZfipY3UyNYQVK124eDS/HRs4Mfz/zPUeDqbAdvbOQbeuAO7xGwsPuvONa7LbLLLSkUqjDwXChiBWvLBHaDR2HDD1Gay6Lw094F+bu9Q5smvBx0BHH4qWHn0Hvbnui7oYCSmteWYWLPrRAWvMbr71aMsHZfodBBN1QVd9msIO1+YugMXPkFwhzvf1Q5eU0CPOTAElGgLoujT9LdJfK6EMjQPbj/uYWe9vcTawW6ZrzxBPAl78MPProq6tFuujssYeKNTjhhGYLvW2u+pviWaYFIM9YcHJCDlfkbkKXTs9E4UGqZYzaCCt6TGODuxkEZMaWeEIm4VuNaolVpARySZKhqswaCxvVgHOhoeZzbGPZph57+Nsx0DcXhp3H6iXPwkRNsqd9r4yenl4UJ8ZhpzsQp1vw+CN3o1CuS9s6Z24XTj7ldOQH5iM0WvHooqWYO7MPK4cLyDgdQOjDCqpo7ZmBdatXoLBqEWbN6MZN11+OsYIy8k0o5jI/VDJzxZ0UmG/ETNDDMuI8M0BIYbZUnKIZSmavQuZRI4VkBtnI1FELHV0A8sEHptzIb4qP2w52EgTGp58GrrpK0XTIXZzkUwHz5gHnn68kgPvtt1PGou5g/6JbfbrTApCnn3qC2kA3CN6ybWV6oLqZuX8gEHC5IrnYoqjjhlc9RpMEv1AceQTqkghXaaH5WPo30ibNUNk01HwrMrXa9IrMhOPNpKqcP6cHhx16IpzOQWxa+gKqpSGsWbkU3Z3dsNNtKNZq2Dg6irkzd8OLKxbDiitiT//ZSz6BvrkH4+obHkS1pqNQGMbESAHv3GdXbBrdJLPT3oHZCIujWP7yK1j1/KNoHZiHj19wJr769b/DxvGiUg7J4kYtqGjAy5ZYcd7VmEDkltzgS16O2mbLjDIhwiuyutpmNypjydtOqsdGi/3Qg02i+FbfEfwB6qLZOn/uc8D997+ankMXHQIjq0VmujSPt/QVmBaAPPmEo4RbuHnJkMzSTIP6ZJXCJ+FZlOs1KDrJ5pYgKfQZKm1kY60svwRCRYDMylBtsGmIq4jcqrIS2V1DhccZJ70jEWOXWT34s3ceCqd3TwSlUVRH1kCLfXj1GvY46Chc+esrse9+e6GnfzZeWfI0Tjr5MGT69sBTixZj6cphpNI54Td2ZFK4/7c3iDVbZ3sLhobW4LwPXoi1K1eJDZqhhVi3bggHH34Mnnv8Ftzzu8cRhIyAVX6Sk6TzhB9MrqSAvzL5pdu5+FsKQCqC+iQ3VBl0qKpSqY8kJCy5boMDg3iwCZBbd/M+/zxwzTXAHXeodnpqVvTcucAZZ6hI1D/7s2a1uHVXdod99LQA5InvOWIzcPEmbgCYxBokJgxsgwOR8iWLliTbmo8lSASyxaZTjymyQgEEGl8km16lpCEIq38LxavkVrdB6FYtOJvctB7gg+f+OSb0FtjZFtTHhrBuydPo6ZmBvr0PxsqVq/HfV/wMbV2d+OGlP8HaNYvx6LOLMbSxgK6eAWxc8gRSsYu29las2VTAQHsHNhTK0CIfOcfArvP3gp3uhJdpx66zBnD/Tb9GqEVYuWYlXtkwrs5NAN2UmSQrXqEwCfhr8H11LWohN9mNWNpJkUUDJNUMUkEt6IQugV26bNoH+gZw30PNFvt/vTN5/RhqtWSJ4i2ylZ560EWH3MXvfAd43/uas8UdFuZe/4lPC0CecuLRiq4j1d5kaziV38eWcjM4SoU4mVW9eYOt00txktLTeLwiUE86/rBqpF2YUGnEylxVZfKIWEPaCHD2qWejZ/47US9uwOjaFRgZ2Yi+ufujZ87eePLua/HcUw+hf7Af55x/ARY99hgOOGB/vLRkKdxSAXHoYtXKVdhtt3lYt34jdDMNW/ORyncj1doJt1ZCym6B092Llx67DzP6e/Hi4hew2659uObOR6VKlGqWiYmJh6WiKal0QgaJESTF2k2+ANTYYTOFKVEY0f1I1dCqslZhYSROaRjo78fd9zelhv/rrXHvvcA3vqGWLnUKEpKDOmi66HDhQn00812ax055BaYPIBu3d2KsIBzH5FAJgUnofcOQIQmkmgRNRrnasixp/JkoRxK+I2McxIosiOg5ActMqTa74cSts91WLWjouVhw/MmYs++70N7bi5GhxXjh/hswUZpAR/sumLHr7nCHX4LZvTs6u2fhyUd/j7VrX0DkxzDSrXjP4YfipZeewMurhrDPXntiw5rlkiTo5LuRTeXR3TcTo9U6nn32GQx05RAaKdQrBex32In43cKbsHrDcGLKocrdSTpTkpooBPkQbpJ5IzNXrt0TzihBMIpYHytuaOPYbIlGu7f+AdyxsGmY+yfvan5jMreFEQY8qAft6gK+9CXgL/+yWS3ulHD4P9/0tAGkzMeSG1zMJWiZnRwNukoDKPjHogyZ4owjC53EsGGqzZdMHZWARlFpaLJL0KF+OeFCkito6Yq8zVaWlJ0L3/8XqJs5zN777YjqRQw9fS9GR9eLtNH3Ahx9+Nvxte/9EG7NRUsXN9sT6GxpQWdbCzJt/Ui1tMOojqI4tlas0AYG5qFn9h54/on7oZsm9t1zX5SrVcyZfyAe//1CTEyMIp1rw9r161D1fAFqnrRU1GqNlOTcJLNF0WMnevPGF0kio+R7pAZckc0TWaVwRtUvVpx9fX24Y2Gzgvxf7/Orr1Z2Y1y6nHwycNRRQGtrExqaV2DzFZg+gBS+4pSKqZEbPYX8/CrATGR0m0FziglFozIU0jS13Ek1KtJEsQtSAV1C9xEidgzaZLDy4in0t7fgqCNOgd3Rh9aBmWIgUVq/GLFbx9LnnhQPx7XDm7DklZVC4n73wUfi/ocfhW3GaG9JwwhD9Pb1AJEHR9cxPDQEJ9+OFZvG0JlNIZtvR6Tnscduu+GVlasBvYpVK9ci4+ioaQY2jhZfPWqAim0VG7gE7GXxngwbyYeUWArJdaWTj3Kd3Bw1kSyluILin5MS1dPbg7vubfpBvua9niiTXvNxzQfslFdgWgDy1JOPUa404neWcBWT5czkVnYq6VmBQ6OFboBk488azjWy7JhCJG9UY4aW0GL0WOzIGkYPSqcNzB7oxeHHLZDcls6B2fCKI9j48iLUChvh12vQNB/jxTHcef9jyjgjDoS3yIgFm6mBTgqB62L+brujXNiA3oF5GN20Hm69LGBNLXbfjPlw3TqsXBvKE2NCI2rt6ESxNIGNE7XNdCQJISNRXjiSqvoVuWWj2iZ40g1D5qnJFwB13wlEinY9cR+iCketoUL09vY3AXKnvKWbb3pbXoFpAcgFpx6/ud1tOM4oHbaqKBtmCzKJFMqK/Cm0RG7Y8EKMIpVvLQsL/h09EbnmkEoyEksy/p/NSooWY5tpQYm3okSpxjjh6MMw2NaB9j0ORefM2SiNbkR53XKsXv4Cspk0SiNDKNbqePiZ5zFRdtGaNVH3ItgIBCCZksgutzWbwrzZg3j6hSUio0zbinuZzmaR65uLVi1CNbTgxg5qhVXQdAteUMWG8bK4GREOJ40m1HuWr4lkOy2uPQJ3kvmqAroSi7NAi2XBo8JnJ79QFA0qRndvP+68p1lBbsubpflcO98VmBaAPPP0E16VG9PItxYHmwQPGhVUI+eZjyFnkcRqqQDZfzY23czHJmBweSHba6XLFopPg+ZDyweSqZO2tVG58nVOOe5oeOUK9j36XKRzLRhdvxqF1S9CC+vwaiV45U3wzQzuevARVGt1ASzbiJFLO8jn8khnWzA6shG2HqOzpQ01z8PQSAEzB3uxaWQM3R3dsFJZvLJyBfbc+x3oHdwFq5Y/jZCuP5aOV1avVq1wY+ooeupJelMDIBVkqrCyhj+mqqKBKInF5pdD8uPJJltNNLt6+nHb3c0lzc53Szff8ba8AtMCkGefcRKihATemAsKWTpZUPDPJueP7CZVxKlF3bYQGSerzAaQKJmeIojHmpIScqPN32lhIZQizidpyZikHfJnOZ87/dgjMTY6jiPP+hg2bdyEqFbA8MoXYVg6zKiI5S+9hO4583DVjXerrbmmS6b17Jn9mBgdRa1WQV9HCyzDgu/V0T9rd2waXoPRQkmsymybbkQG+ns6YWZ7sO87DsPI8CsYW7cB5VoFS1euEFBT1eIUg1+Zh6kRhDKhSCrDKdxOWcIw9TAJO9ts7yYKIlVR8ujs7sVNdz60LT8rzedqXoGd7gpMC0Cee8bJAkzk9ymuHqWBiveoDHtUTIAp/pCK7sOqkWa3bEODmK0l5XeetNUNSYl04wmQEBtlH6xQJ5nlKf6jUtuobTFb0PPOPAW+F6Ft1wPhlmtYv2IRLFODVx2HWduEuh+hGui4/6lFcGtVtGSy6O/tg9PSBrdUxOjIOmiBi8G+HmRSObi1MkrVKroHZmP50mXIZlLIZfOouzXsvucBOPjE92Hpc49h3StLsOzlFzFedhPQVwRv8Y/cXAUnVbUyQ5O3w7fYGEcIgKrIsM0O6lQM8X3yegmxPgzR0d2NG3/bBMid7o5uvuFtegWmBSDPPv3EzU7fUi1OsTIz6AaeBHUlgakJQNLX0JBWWlV+KqSLLXJDLcPnYTYL4VDMdhuGFlO4hZMUIq49FLae8p6j0dY+ALt7NsojwwjdimTGbFq7DIV1y5Hr6MDYWBn3PPE8Uo6JeTMHUS1VsO87D0ek+Xji4fvgVuowEGBGXzchHI6TxkihhnwmhVq1hs6Odqma3/7u4zFj/+OxfNGDeOT2K1DwYnENb5j6Ti6aJpUyDaVRg7Kjqm0lo1RuSMkXgPqKkS8f0WYnhsP8kuns7sN1t9+/TT8szSdrXoGd7QpMD0AuOFFKIWl7GXRFDiSlhVEkRrYqMkHxWwigYdJScsaolDMqo4Utcyi/q+Q+tqEeIw+kwuLGerJynFz1qO2v7IVFvqjj9JOOwex9jkC9RndzglWAoDSC0fVLsWHVUmTzeSx7eTU2jIxBsxxkTMVSZOpg3+AsvLziFczfZY783Jp1a9HVmkU214Hh0Y3QEaI9ayOX70HHjF0xd+8DETt5vLzo91i99BmUvQCbCpXNFB6lI5/c7G/+MkiI8pM8xyTxTHKvE+11MnBVSiOZBKi2PIrR1dOH39zWBMid7YZuvt9tewWmBSC5pOF2V+aESdSrqakEQAnvSmaHigZETTKXMIoMbVFjbCTeh6S3SL62Aj2PvomeqjDp1egklB5p0VVnrapPQcvEZk0DvvzFz6GSmovx0Q3wxsfheRVsWrMEelBErr0bq15ZgTioY+3LyzBU8tHb2Y46CeShhnwui0qlinzaxszBeRjbuAJjpRIyXGEbOnbp7cXu+xwIzU6jZXB3bFq1HLm+eXjo5stw/KkLcOWVV2GsXN0MkA1AVJv6xDFc2uqGH1qiK9/s/5iYUiRE+MbblDacs8skxKynrx9X3dzMpNm2t0vz2Xa2KzAtAMlUQ1Y5KnhL3zwrMxEmCxRlUxNLMJWOIFJbah66pkjRapGjQARCfIkR+Mx8oYQwhM0lhanML+TnRI+tLM5k6SFPo9r5z3ziEwj7DkC9MILRdUPwSiNwS8NA4CLd2oWxTWswtmYZwto41oyWkMnk4YURxko1ya+mwoXPvfvMPmltGfjVmnFQ9zV0dbSjtWtQKsl0ph1m50wYtoMVz9yHA449HVf/6t8wOjY+adIxhRAuDfNmJ6JknNAA++TvlJfmJKd0qgqp8d+81j19fbjyxnt3ts9z8/02r8A2vQLTApCnnHisUE8IXlwkCNhpDOlKgrZ48+saLIKjxnwakqOVUaxpKDszWd40WDxJFIMsekSSqNQ0rESFB9hQlkjvqgK91HZbw1HvejuOP+F0jGR2QXnjOqxfsxLV0SFx4XFLY6h7vmyuN618EbZWw/DYOCpujCDWsHZ4HG2tbcilbFRKJcwY7MXsGQOoTJRQr01ANzh/LGK3PfYRkng1MNE3/0BYXhWrN25AKmPjnrvvUKTz5D0oRWVCihdfSyU1VLQeVUUqgw+1nFLhZAR/ZZjLEYHYuk15z/y5vv5BXHHD3dv0w9J8suYV2NmuwLQA5MknHJ2Y2U7K/2jzxbgFMbJNbu4G8TmgC5UfyJ9bJHyzCuTjQrXZlQpRtN00nKVLudq+KJJ0os1uECKTxwsg6RrmzujB2ed/AsbAnhhZswrFkfVwJ4aRhYsJtty+L3pstvZU1oxPjKJQ8VEqVaBZFqrVOtpb82jJtWJsYhS7DAyiUiuiJZNCpeqhvTWHttZuVGlskW1BLU5j7XP3YPYeb0ecdvDMM4skF9zzPVmucJSgQshUtG2DuCkmRHRbZyWdzFwbbj4Nsr1p8v1rkhS5OXhCDDoi9PbNwNW33LOzfZ6b77d5BbbpFZgWgKTdGTfSrPDE4oxUHzOJeG1sYRHDpGs2CdCJzI7VlKo21fyQBWODGK7MY9VyR/Qzwg1UOdvSrk9pVzf7hGnAvDlzceChx2H2O45CeXQEwysXS262CR9+nY7fJsY3rUPadrBx9YsYXrcavmagt3cA69evx5qNG5GxHQz2dSOol+GYbHcN5Nr60ZbPietOrqUNfpxCqnsGFj9xP0Y2rsQBh5wIM9uKUqmKwtgI1gwtQ6EwAdtOwfcD1Os12A7zeWKprHP5DNJOVqJii8UJRPSPNE1R8rj1OrLZDNra2uTDsHHTOtRrdfHH9INYzDb6+gfwq2vu2qYfluaTNa/AznYFpgUgLzjvFCF9Z9M2DMtCvR6g7gXidyi66ohzNVU/Wlw+2KqyJDim9Bg110s4MDF0tbJWbahsJnQYli0msazAfDqH64oL6DiOcC5rtZryVIxCAepz3nchsrP3Q61SwMTyxQgNHe74GpRG1qFtYCa6ewaghS5efOJBlDatg6/pGOwbxMj4GDYMb4Druujr6kKlUsa+++6NVCqLIAxgmw5cP4CVakGczmF86BX41RG09M7G3L0OQj1OY8PQGhTGNqBWqWJseLWcH98G56esqKvVovzvzu4ZsE0d9VIBruch396LKPKRTjmwHBvlUpErL6QzeaxZ8zJqlTF0tOdRdgM5h8GBAfx/P/kDA9id7dPdfL/NK/AGr8C0AOQv/v6TsCIfvTPnSgU4umlYQHJkfAKB7yKsF9HW0S+LFct2YGda4XtVMXZoybfCSmcxUSyiMDEMWzORyWQlc5rJf6GpI+VkkbXs/5+994CTq6z3/9/T++zszGwv2ZreA2kQOoIRwYuCYsWCVxH86/Xq9Vq5Xgs/vV5FLIiKXBVBECwgIITeAwnpyWazvc/u9N7/r+c5c3YnETAQby5lTl7JZGfnnPOcZ8957+dbH6q8DcQSKYL+Kdnfz1PtkbCMRiPEolEJTKPZRGf3QhafcgEjw8MM73kWh9VCZHoIq0HUaheweZrwuKvY9eyjRHwjWK1mcrkiTm8t+/ftx243Mq+pWS6LUFvbgKtxHtGwn0w8KWvDMwUt2dgkEf8UTreXmtZl1HcuJhpNMjU1Id0HRp2R0d7tMhHd7a3HZLXKgE88FpLjtNu9ZAoZQhMjMn/HXd9KMh6WS0/U1jUxNTnM9PQENpcLneh9mU1SyGZI5ArYLVY83jq+9O0fHOPtUdm9MgNv7Bk4LoB84ubvoS0UMRpMMlKdTkXI5A3ksxn0WiPpXBq9wUo2lSIZj5LX6gnHIvQN9LO0swtvczdJsT5LsUC1s440eTLJFIVsGqPBRjw6Q3h6HJPNiUavJ19qvy3MUJEyFAjFZBdwsaY1Gj0uTxXrzzmfUV+cqb5DkI9RzMSUZPaMOLoGi9nKzFgfk+OHSCfjTM0EsVdVIyoPLRYLbncNjS1d6HVZEoEZjCYLmTzYHdU0L+rkuXtuJpHI4Kltw9XcTeuCldx9+41YjFbcNa2gNzDStweTRVTd2LE6amXn6mQwQC4dQWd2kEolCM9MynmyuauxGqyyAbDZZCGXS5EKz5A3GahyN4pFfYjHk6QzWRKhMalIr7vtgTf23V25+soMHOMMHBdAPnXzNdJcFPCzOtxUe+rJGUykMmli0z6SqRy2qmoC/kmS4Qi6Ioz4xuRKgd0d86lp7SKXTuFweihoteSyebRGC/lcBE06z8T4EIEZn1wFUFjsOpMZg9aM3SEaS9gYGR1DZ7TgNmuxG7No7DW86cL3MJXUEZ6eJhKcIB4JSRO9f+dDBP0B5i9ayehQH/l0iEg0ovhPtQWSWQ3FbFb2ely5/jR8M1P4hnrJpOI4PA2ccs5mrE479970E6bGJ9EaTHSvOgtbTS0/v+Z7ZIoZ7FYrbfWNWK0WTFaHvB4B1lQ+j29qhLraBtyeWsYnDpGIJmTE2mi2YDYa5cqFeoMJXSZJODRD0WSV8Xm93kYyk5LzHA+MUV1Xw//72R+P8fao7F6ZgTf2DBwXQO6772bisRjZQgGHw41FkwGhhgwWfL0H6Bvsp3PpKowWC/F4FKNWSywcJBZPYLK5yOeKUi2KJhH5XJqcRoensUMuehXwjeL3T0tfprW6BqvdwUTvbiLBALVNrVS764nEQ6TzeYy5BE6TBW1VLRZnFcvWnkpCYyWdimJAR9Q3xOjex2UUO+T3UcwVCYT8eL0eTEYzBY2B4dEBzBqoq/HS1L6QPHlmRkfQGDVc8M73gtEhfYT3/OY6fJPj6A1mute+mangFA/99R5SWbFOVA6HzUBbUwNeVw3hcEjWmWfyWSgYsNtsuGtqsTrdhGemyeeyGEwWGQASlUUCktHgDMmoH6PFhkmnI5oVKyAWaPB60OULGK02vnDtL9/Yd3fl6iszcIwzcFwAuffuX5KIJ8kWdRT1ViK+frwuB6mCgUA4Rig0Q019By6Ph1xWBCIs+CYGSMbi6ItaUukUyVyGYjaDs7qGWCqF3mQmFouQSqRloMbtqUNjMGK1V5GaGiQc8mOo8mCxOiXcxPcMZgt6vZlcIYveZKW1o4OCo45UyC+76kwdeIZ8IkDYP0Y8GqSYLzA+NYneYKGxpZP69kVkogEy4QnZsUdjcDKvrYE9+wfxeqqk369t0QJs1V7+etN1TE+MyyViQwUbJpOGzPQEGY2WrM6JxWqRpYpms5VENCrXx25qaiMaDjPlG6OlczGu2hZmhvtIx8PUNDZT0BQJTo5LUz+diJDJJKR/0mayYbQ6SCRiFDJJMrks6XSSa2/56zHeHpXdKzPwxp6B4wLIu3/8Jfy+SUxGK7bqFhK5DDaLBYPBQo4c8VhEFFljtViJJMKYrHZSgRlsFifJyAwOTx1aq4tYYAJNLiu7accTeeLJGOlMnlwxx8Kla2RD2kQ8RD6VwtPUKjtx+8YGKeQyeJs6ZNJ4OBImn8lS19opiw+9XWuYHDiAzWolHxwmMjNIIuTHYjQTT0WZ8gdIF/R43E70Ogcmo4Z0cBiH3Y6nfRV5nQFPfQeh6THq6qoldAWw7//9jSQD0xiMFhZuOI++nVupKoRIFXRo6+aTCM8QCQepbV5EOpUAbYGORcuJTo0QD4ewVNfLYM94706CM2PUNjSTSUXoGx6guqqOKk+t8l4sTDoexR8Ji0V50IqUJYOFdDrO92+84419d1euvjIDxzgDxwWQt37zSsYjCfLZgqxEKerNaESwwaCUCh44NIDZaMbtslA/bxFavZHevdtx2qzUN7ZhdQllmWFmYphUPIrZZicSCqAr6khq9aKtLu0iShwJoMnniCYimG1Ocpk0keCMrIxp71yGPzDN6OgQLqdLmqxGs47FG/+J/c8/TiERxGTQkgoconPxavbt3oPD6SRvtONweLA4bOx/5mE0uRQ6bU7mc3esOJWBoRFWLFoOJjPz2pspZGJ4Wtq465YbSPknqWpsp3nRRvyD+0lGgoj1ZSx2D2NjQ4yPj9DdvZCW7tVKH0gRkdfrySTixAOTsqu53mghGouSL+QwUiQQmCGfS6G1OrA53NjNZkLBaQ729WA3mhF9QEQzEKvTwTW/uusYb4/K7pUZeGPPwHEB5NWXX4irphltMSObKeS1FrTFAq0tbWgNBgYHesgX9ZitLnS6IrHAFDmNnlAkQltrG/UtXeh0BiJBP+ND+9GLRhVFDbVNzeQ0BjTpDM4qB/pUlJlokMlwhGpHFXqtRq5GGEnE8Na3y3zCWCyG2+0mm8tiIo+reTFFg5G0r4dkxIfJpONt7/oQ+3bsZHh0gqLWRGRmjJblm5jY9yTZZIRoeBq9Vk/jgrXslJUxEdrnNbFw6YmYzGbmLVzGo3f/jvj0OMtPPR+D3kjPrq2EQwFyRR01dS0SdPv276GzqYHm1oWyL6RwG1htFkIzk4yPDsiu5DVN7Rjs9cTC08yMD5LJivWbiwyPj5DLxKlzeTGaHXJxMX0hTzKZkuWaXd2LuOqaig/yjf14V67+WGfguADya5dfhEkLDouJeCZPXmeR9cR1XiYGs7MAACAASURBVC82q51sqat2IhrEbhCr90FRZyQhzOlUguqaRnIFHRqjGYtWQ2DsIL7ADIvXnEaVs5pIOCCb7QYnBzCb7bI5hDZTYHR6EJPRzuSMj3g6LyPlHq8Xk9GEzebEmBMmehqDp41czC+Trc1mHU3dKzi47WmS8bhsZmuy21iw/gKGdtxLMjDJzPSk9E82da9hbLwPNFbmL1oko881TfMYmxjBd+h5kvEY3raVhESC+cQwhkIBi9WA1eaQ8Bd5ke0tLbLcMK8t0Nq6gMjMCL2Heommk7isVrQmK8FIhNGJCay6AvNau4il8+ztPYDbrMOsL2K1VWG227HpteitDgLTkzJgdd1v/3Ks90dl/8oMvKFn4LgA8htXXEoyGcZkssq0G7PdRY23Rpq1IiDjdDdgqfIwNTlILh7BXFXD5MQohkIONMKvZsVir5ELUaWSUcb6evAn4zLK7DLmaZq3CL3VSTIaI+wbx6hJyMoWe9N83A3tDB7cK0sGHXanrLrxNjTj8taREfmNgz2461vIiSqcZEjmSFZ7atn/+D0kYykKejuOxi4Wrnsz47u3sOeZLSQSURw2M20LNtHocXBgdJyGpgXMzAzR0N6NngL+8X4KmSw5rUmqVrPDi06vxy3ruL3ce8/NeMwmuUB9MBaW69aICHVwehqv20sgEqaICbu3muDoABO+CWpcHjQiPzMSZmpqmoYqM9lUmmQ+T+O8LvLpJA5jAV0xg7exm6t++Os39M1dufjKDBzrDBwXQH78krfS1lAjy+L0+hyxeJy6+g6sZj35dJ7J8V50JjtGsQ6N0UpOZ8RmEOu9JMiiob25lmTYz+j4FKFoHGtVDXVNHeRzSXTZtIxY2931zOtYwL5dT2PSm3BWuWTCt0arI5FO4puYIBYP4xY1zs46cvksVWJZhFgIg82Bt20JiZifVatWsmfH0/Tte5xwNEuxoMfm8LD+ze8lOHqAQ89tIZcIY7ZZaF64UXYCEr0fzY564uEZ6jrmk0km0IqR5wr0H9wp8xtr61qx2BxodEaKuSj3bHkIfyLNxqWLWbp0jUzRySVCBGMJZvx+xibHsJmNeN0uzEYDQ6Pj5LUGrGYzqQIYsjHsZgPBaJgqkw5v62oKRguB4W10trSTN1r4/HdvONb7o7J/ZQbe0DNwXAB5yeazOW3tCqxWHQvWbGDnU49i1AiT14XOWMPY5CiabAKLXsvE1DjRTJr5bfPRWQxYDTbqLBHGfTMEUyasVfVks1Gmh/upra3HbncxNjlCOJHG5qrBZbNQ663nwMFdtHq9WN01dC4/Va4qONm7F9EPQ6OzgcEhG03oSONtaMS7YD1DffuoqnYTi2cY3v0YXpuFvFbDjj07Oev8D6Irpjjw9F/QFxK4quvJmrzkAhPE81p8gRBdnd10LlrJyFi/VMmaZIThwT5c3hamg5MsXHwixVyMeY1N7Ozdxc5tOyXMjDoNvqkpUuFxCuZqesZnCEYjrOyYx6rlq8jnswz27yWaLWA1G+noXk4mkSafTnNwfIiobwyLo5qaWjfpdAFjKkzBXs2Pb7n3DX1zVy6+MgPHOgPHBZCffs+51NhFRLqB2sZ26ZMLhvxSTU36pnE7reSLWoZHRnE77ZgNGuwejwzORCNRau0msLoZ7tuH0+nGpIdcKorL28zo0B4S8SyG6hYmxwdxVFWTSsSY8k2zYc0q9BYb9qoa9BrYv/MpahrasBsgkMjJtmOL2zwEwnFql55KMDiDU58jXzCR8E0wOrybak8LUyE/jbW1ZHMZEjODpGM+HM56zHXtjB3cS8rkxDc+xuK2VjK5FG0LVxJNJElOD5ExWFmy5nQSkRB7dz6NPxigtdlFFh179vbJzkA6k0XEaGisq6OQT5HMGxgcHSQR8dHV2MrA5BQOh53G+i6GJ/tYNH8V9Y0tovc62USEXduflipVRLo1BjMzPh/d8+Zx/R8qpYbH+oBU9n9jz8BxAeTnLjmL+Z0L8NRWE5sZ54H9PjSarFjGkFp3A6euXcfOZx5gOpKUnXfMZgNLVqynY8FqguFJkiO96CxOmc8YTaQYOriT1to6NFUuLGYjI74QGpMDfSHLug2b6N/7LL7pCTzmIuM+P8uXr0dbPY99u7cy4fPRWeNkfGaKgkbLphPWUVXlxN62EqPDxXN/+R8Gh6cwmKz4fGO4PLWcdNrZDD3/MAWtWPcmTzo8Q23rAqhq5VDfQeq8dWR9Q0xmC5gMNozFGFaTiURkHHv9Evb29NDucWBxuphOJ5kaHCWLkbFQnGqXgWZPIxMzQWx2M2970/mkgn2ysmdb/xDzF53Agw/eI81oEcm3OBzUt7QxdHAHepMJp9FCy8o1hIIptj22BbPZhN6kx2Gx8pNb7nlj392Vq6/MwDHOwHEB5Nc/eIbskagrpEnqLURzFlmLvHjVCezb8QSDk5PEZkIEUjna29ppbGgkHpihmM1jrarG5XWzb+9zaNFRzGepMeVIpHMUzQ5q6hrpGw5AIY3XW0swHKbR48LidDM6sIfhyRkaRfsyrY4qTxUGvZmRoT6Zf5mKRjhj0wnoinpcizfJrjrxoW3s7umjvmU+Q4f2Mjp+iAsu/CD3/+6H2Kq81HirSfpGaOleSsTSynOPbyEY9BMT/Rj1Furqmmisr4PwEMVsGItXqL4IbocOr8tJZ3sXA/29TIQSjATiLOxeyN4dT5At5mRfSJ3JidOkkxHr8ZkADbV1su1bIZ2UqU1Gq4k3v+ViCvEY/aNDaAoRDPZaopEQ+w70UFddjTYXo66xla//9NZjvD0qu1dm4I09A8cFkA/e8DUODg6TjQRYtPF8auoX8uxTf6TB4cFqLfDg009R46zh5DM3s2vb46TicXQeD8Zskom4jlPedDGDPduYObSDWDLDCZvOY/LAwzz49HZOO+t8BibH8E8G0GaDaC02ub9BpyOeynD66hN5/sAuOhpbSJIhn89hsDhkUwx/KMCGBe00dy/B3rmaHc8/x3TPQVxVWnyhAE6rg8lwkjdvfit//uX/Y8GKtRRzeQyJKbkGdtjaxu6H/0IsEeLATIZ4NoceLRefdTpaYkQm+ihY60lpqhkb3kk8nWVNVydLl53A9MQoDz63lda2hRTiYdZ31zIVmmHLnmmqLRY0Wj3pdJSspih7ZKYLWprrW+kf7WVN9wI0+iINncupt+aIxLUYDBoO9jxPKlUgFJ6ke/EJfOW/f/bGvrsrV1+ZgWOcgeMCyFu+eTlZUzWZeIxwQfRzdBKaHMAXTbJxzUr279mDNhunpq6WYCCBL5Wh3u0lLta5zmuwVXtYumQl/t7n2L5vP/rqRnLJEP0jkyxs76CppR1fbAa73cnuHbvpbm0k5R9HY/ewqLubbDqO1mik1WHn4EyKvoM7aPJ4MdtteC165i1ehcZRx8FDB9nxxH2s2XAKmmSU+PQQ48EEK5d0s2PbUyze8BYMBj3Bg1tlOzG9q52925/AUTcPXyDAoaERbI4qVne14fHYCY/sB4OLHQODLG1tYyoex2vWkElnqXdaCGHiwFgAh6cdpyZCe1MraZ2RB596AodeR6qQx6DXc9Kms/CNHGR4dIh4XkdbjWhiMcKJa89gdGgfZouZKocXd5WFx7c9i7fKhae5iy9/twLIY3w+Kru/wWfguADy/RecSUethel4EaO+SCoVpr6mCVdNC45ijFgmyfq1J1M/bwk7DxzEhI6RnqcxOat5ctvTWB01jE9O8c51q4jNjLI1bGJv3wE665vwBX1ojFa+8KnPsnTtyTx0728JjoxBMsxAKMZ5b7mQrU88hs7gJhCexBCdYOehPnQOLx0dnXTX22loX0pBZ8YXifLU/X+mc8FCahrb8e26j5GZDEs76/CF4oz4M5x9xmkkQ700dG5gevAQf7nzDlq6l2OqcjE0Moo2lySQTLBpzQnoo4NMhvOsWrWGp/f2sGr5Bnr2P89I317qrBq0Ri+aajfnvuPD3P37GxkcGWb1iRtpm7+Q6Pgof7z3TvQ6Mxe87WL+8Jeb0Oc1WC0OOhvcmCKiy08Yb818th3qIZGPkUiLRhg28tkc9Y31/OHeJ47t9o7H4bnn4NRTj+04/9d7i/bzYiU4sQbSy9nEfmLxOL3+hfc6cABqa8HtfjlHfeHPyrXblbWV/mYTlROl1ToP+566NPALfe/YR1Q5AnBcAHnlJecQDEcxWwy01rhlfXOVLcGJaxYz3u9n/1CQiWk/NVVW2rsXMxkIMq+2gajoTlMokkiKbuAOSPrR6e2ERTuy0DRT01FyIk+yqZXNp52OP+YnmEgTjWfw9W7H6Wmkqb6WsbFBDvUP0N7UxtDUKBvXnYq9rhp3lZsiBoIjBzB52+k9sEu2VQtF4kxHQpjzaUw2K+0uA1XzVhGankJTzNC5eCUFrY5wOMIdd9xOJhlhXm0V9U2dHBqboKPGSfOC5RAcwKjRySqXfRNR0gUj4/0HyObzLFi0jKmZKVqq9cxrX8Zz23cwODrE6WduJuwfwjcpcj5jcumJ7o42/OkCToeTkH8GbF4s2hSGeIB4aIbmBifzV59BGgu7Hr+P8ZkgVVVufnHXY8d2k09Nwbp1MDj40scRD7CARWMjlNbJObYT/4P33r1bgfzoKFitR3/wkRHl+sW1OZ1/u99//zesWAFnnnn0xzzykwLczz4LP/whXH45nHTS3CfSafj97+Hmm+EHPwDRCEXdfD74yU9gYgK+/e0XHt8rH1Vlz9IMHBdAvuNNa+lqrOetG1bzy/sewulw4K2u4uRz38zPf/YLBmeinHfCOg5OHcJjddHR2szOgwOy9Vm2oGXpooVUW2xkkwGiGjPP79zBuWeeT2x0L9t7h5iORFnW5CVWzKEtaHmuf5zNa1cxOTXEfI+FiZiGVCLKxlWrsC04GVt2hnQiRHvXQkJaM73bH0dT1cgf/vhnAsEgy5cv5bQz3sLPb7qezWuWUwiN4GpdzoHnn2dodISL3nkxrtpmgpODPL5tB6evXENzxyKy2Ni35zFykXH07nno0wFCvjF8wRiD0RR9I+N0eKtZM38he4f6cdV3EpyZZHp6kmqbHU0+havGRZW9jt09u1i37gzqmxvxz/h4/ImHWNHZSioWxmUxMxDMYLE7OWnNagzRXjS189nbP8bWxx7DoU+j87Twh/ufObYb/WgBmcnABRfAVVcpQHm1bUJpyU7Kupc/MqEgX2y/fwQgf/ELCAahvx82b4bzzlPGmEzCJz4Bp50GX/wi3HsvLFmifE98/l/+Bd71Lvi3f4MHH/zHqNiXPzuv+z2OCyC/eOUHSUf9FDNJUpiJxlJks2IVPzNFsU6MTk+11YTDasRfMNPT04PLWKRQ1KMz21i2aBnW/LSEnMFoYGQywPyVGzHHJjkw0E9K7+S09acw0H+AaCLMTDqDPitalSUxFDUs7u6kmM+RigXxizVrEllM9mrOO+cc7AYd2XyG/c/vYMLvw2TzsHz9SWjSIcK+GUz5MKl4hIO+OCF/iHg2y4c/cjl6kxGd1c3WLX8mOLYPZ8MShkf78NrtZJNh2pdtwFWMsvfAHprnryOWyrJrx1N4qjwUUhHMZgutLc2MhZMc7O2ls8nLlD/CsoVd7N2zE6fZTHVrBy6Xm2RwjH19w0QSCTRaCw6nF6vDgt2YQ5sX7d50GPMhLN75HBrulas0RjNaHnjk2Zd/Az//PPzyl8qqaOeeCx/7GAglJbZt2+CppxRgiPc++1moroa774YrroCTT1ZU5NVXQySiKJz6ekUhCYCeffYLj6e3F8R5+/oUtXrKKXDOOfDTnyrnEdBQwSHMfjG+vXuVcZx/vgIRATIBmw9/WC5dIcd/662wdCl4vcqxvvIV5fx+P3zvezB/PuzapYCovf1vxxYOK8pOAEoF049/DMPDcPrpcPCgoviOVJACxrHY3x7vhVRoKARVVfCFLyjHUq9TXM/MDNjtyjXcddccIMUvJHH8bFaZpwogX/59fpR7HBdAXvb2Dayqb2Fgagpv4zxalq7Ans+yZPla/vj7G2VE1xcIUuO0EtJb8AeTuC06vNUOUlqbbPdltujIpIqsrreyc2yGZd1dHJyYwO7w0t3cSMpQhV1XYLh/H3UNLuzVTkYPTmLWadk/PsHa1StZsWIVT+3az0R/v+wstOCETXgsBkyuBp756x3sGBzAbdARySZYsXwxTlsD2eAwBYONyViGju5FaJMR8noLC1ethWyBZ3/zdQKxPKa6dkITh0gX9YRzRua1eljSMZ9UdIoRXxaTKAMMT+OqayYyPY7H7WCy9wDrL3gbvbv3MTg8KXtLmjUpsqIOu5Cncf4yNp58KrZkgO//6tc0d8xnJhyVS1bIemtvK0WDlnRojPFxH9FUmA1rNjHuG6N/fIrHnthxlLdB6WPj43DCCcrDuGAB/Pu/K4AQD7zYHn1UeVhtNvj+9xUIfuMbIKD1T/+kPOQnnqh8f/9+SCRg2TIQEPj0p+Gmm154PI88ApddBr/7nQKztWsVUPzrv86BWoC5oQGuuw7EOIVyEucVY/zgB2HDBnjb2xRQC2gI8/Qd71CgKRSXgI8AjrgWYcqKfVatUo4lwCmge6RSFOaruB5hmovtm98EhwM+9CFlLgT077nnbwEpTPI1a/72WsV4X2wT11EOSPVzYp8jAal+Tyj8CiBf3j3+Mj99XAB53ulrMeq0eN1VrFiwFLPDztDBfbL6o66ljXTMT2Daz2ggTqPLAoUsGp2JhQsX8/CzW2n01rKkq4P9hw5yoG9YrjrY6hSV1lncrStxZKbIuTogFSAcTygdcCaG+cin/4ODux6kf8xPs7uGob3P4Y/nGZsaZ8n8peScbpbO85IqWhnb9ySBUIRQMMxMNEI8VeDUbi85nRZHfQdNbasY7NlKYmaKtNbMmRd9WPaA3HbfbTy+9XmW1ZrkioOrl69hz8FeuWrjgjWrMeWieBoXcs+Wu6irbcPTWM9wfx8LVp5IR+dipnq34zAb6JuOcPeDD+I1wTyXiSXNNQQ0VfSOTzE9KbrzuFjc0UJsOgIGLclingywsLOVYCjBw09ulfmXbqeNSDRB0WDid39++OXdDnfeqShEAQKxCaUkHlpVQYr3BPSiUdi+XYHj44+LNSQUJfcf/3G4iS1UnICTAKQAl1CawucmwKNuIsjx9NNw221w7bVKkOJb34LubgVw4vPLlyvwFLAVIBafa25WjiCOKcbypS8pSkqYvXfcoZxD+O2++13o6ZkDpDBd//mflbGrm1CIQmEKqIprE5tQe+JaywEpTFpxfKGSxfbVrypq94UUpDiO+otFfFbA94UUpDqGCiBf3r16nD59XAD5u9//msEDPYz07sJqstFa18LOg3sZnA6wpL2NCbHOi8FEfWOtNLu7G73c+/BW3vyms3ly1w7sbg/VmRQ7D/ZS43QQRo+1ys7J69cRmpoiMDZM75SfxQ1uwtEYw6E0DpOBhYsWsLirCw0GBsbHaXAYuH3LFqaCCWptZjZu2sSmk09mIpjkxl//gDq7W64PU1vtwt3QRv/+XdQ6NFR1rOWRRx5h4bw6oiktGze/h0a3Xva1fORP/8P4+Bg17jr6RgbpqPPirXIwFRhj3annERndQ3XNPOl/XLryRB66/x6y6RjnXPhhHn/oTpKJFH1TQTZtWIPXqmdm2k9d6hChnJWHh+Nc+aGPcvNtN3HeaScTi80QToUxVnUx3HsfHiKsX3UeBwcO4LCbeeD5KZobani+d1gqz2/94GU2qxDmozBPhboS25E+yGeegQ98QFFgApoCpi8GSAGIz31OUXkrV8KvfgU7dihf//znc7f3e96jmMt/+pMCH7EJWLW1KepIbEJBiUCFAKTwcd53n2KWiu3JJ+HGG+H66xWzc9Ei5T0RfR8bU8BcDkhx/rPOUvx36iYg/MlPKqAWsBWbMKFrag4HpFCpQjGqgagX80EKsAp3RPkmIujr17/4Y10B5HFC3ss7zf8qIDOZjCwd/Nj7NtNc4yUaz7Oz5yDLu+rxhdIE4wlOWLKcydEhbBaDrM9eumg5RptJVqY4zHaqrEZ69x9i2D/NwvYWOjs7ZHpNz1QCT+t8tKkg2USc+vYFTM1MU93QwgNb7sFqMbBp9Qm0tM1n+4E9TO7fRl1tE+2di9i2axstXictyzYAWrlOdTI4yeTwKMm4n3nNrTQ2zScRGWDv7m285f2f497bfsGqzmbu39lH2uDkvW8/j6yphl2P3kW/qMfOFjjh9DM51DeAO59isG8vmy96L73PPcShMJyxZjljQ8P0jwzT0NqN3zfGyJRPLjVR29xMtbeZZ3fvw6pJsr7NgqFxJXv29aLV5tDqirS3dPD8vn2EYiI4o8fjqsaYS3HGpvlUG12M9Oxh32ScusZ29vX2kdJZeejx517e3SBUnDAdhUIT28AAbNo0Z2IKRSdUmVBQwq8ozGYBSAEYYd5++ctzClKoQJH+ItSaUJgCSELZvdAmTOyjBaRQa8Icbm1VjiT8jMJM/tSnlK8FfIXf7vbbFSUslOiRClL4KX/7278/N0ea2MInK46vqlfhUhDjOVJBiv3+8z8PP76YM6FyX2yrAPLv/zz+Dz4xPj6OwWDAbDZjNBrR6/VoNBq50uiRm6YoFo5+iU2uK10oyL/ZrFg4SqxEmOQ77zuFQykj8UyKmMbCv332K+RDE9zwsx8SLxiornGT9U+wboGXgamkVHRNtV5qHXYOjU6woLuLff3DnNioxbvgLHbvfAJ3UzdV+gJ7R/uorqmnUa+T59vy1HaqPDV0NDezbfcefMkc82ucuCxF8hgo6rXkMkqZ4rsu+ZBcg3vPtsdoN06yff8gq89+O/OqG2Wz3ifvv5lsJsOSjRfx51t/JnMca2q9hDQuzn3TWZhsTTx07+1MDA+w+sw3U19bz+7HH6TJ20LP+D5OOeVsDm27j46VJ3HXLb+musqGtqqRg/1DpLJZ1jTV0R8O8vZ3f4DJsSn80wk0hjTnbr6A3Y8/wIhvkI6uJRTyWnbu2kpPIIvboMFZjBLOpHHWdNBoTdE/MCbLMCfjWRnIWb64m+ULu/j3b9/48m4poRiF70yoPRG0EOap+L/wNYrt7W9X/HXz5immrggSCECKTZjXIl/w4osVKP3XfynmqnjwH3oILrxQicweKyB/9CMl7eYzn1GCLZdeqpjnCxcqRxaBHuGfFEEfEfwRN3I5IIXZ+/GPK9f5lrco+4jjCJV65E1/JCDFNQnYv+99CoAF8IWZfSxpPmKOxPyKwJYw58WxhK9VjGVyUpnDM85Qfg4iqNTUpIxZqGPhU333u5VfEsJVIRRvZfuHzsA/HJACkmJx+3JA/vDfP4o/GqFnPMTSxYvYv28HNdW1hOJR6dNb0dVOU1c7BZuLkG+arVu3YTYYWdbVTjyeoG9slHULGwhltQz5IyQjWcxWGzUNTZy0fg333Xsvhw72sKy7m60HD3H2WW9m2eL53H33nUxHYrz11FPYsXM7LoeB0bCPppoWYrEMbz17M7mqOnZuuYOVSxdw/U23cNb6jXib6rHXNTC8/TEm/X4K1k4mBvdw3ruvpGfXYxQTATxeD53L1rNj5x4CA9tYtHoT07E08WiIZ599Hl/Ix6XvuojUeA92Zy2P7N7HAqeW3pk0/oyOOqeRfDSB3mZGZyiQTGtZ1rWQqYkhJuIZ9EYNDqOOs894E0899iDJdIKCwYyhoGN69CBuj5fW1la61pzJrt3PsGLFGh6978/MTPhp7V5IW7Ob/+/rZabs0d42wtwVD6vwmQkIiQfzO99R9hb5hEJdCoUmTO2//EUJzIhNPKwiqNLSoqgnYe6KKLYwq9/5TkXliYj4C20CYMK0veQS5bsPPwwej2JSi00oU6FEhXJLpZTcQBFIMpkUGC5ePHdUAWFh+oqIuQj2iE2ARqhJoX7FJqLTf/yjYi4Ll4IIuogI/JFJ2sJ3+rWvzZn+Yj+hjIVv9r3vVeZIXG/5+Y92ntXPCbiJFJ7y7ZprlGv7/OcV/235dsMNipviyisPf1/kSL6UQn2546p8Xs6AAKRQjiaRbVNSkEI9ChV55HZUCrIckKqJffsN1/LTX/6SVC6PUa/DpTVQMBnQWew062Kgy5K2NHD6KRt58MHHSZHhggsXUMiFSUftTAYTBLN91HpF0wYX7fUr2PrgHkLBECvWnMT+3c+Rt3iJ+UZZtHI5i9aeAsFJHnryOUYnx9GQYsGSeVjMGrQxLUNjIU7csAm3KYe1fhF/+ONv+NK3/ouAf5g7r/8J9UvXsXLVSRx69Hamokl0lkb+eMfNrDzhVJadcgoP3no9S+d5WNi1lEe392ErTDMdjTEVTss1af7p7e/nL3/6DRe8+yNo/AO425fQ8/QDrGlq5Lf3/Ja0qZXBsRAWq4mktogxHSeSTKDLazj7hGXoE0NENFVMBSY4/91X8vBdf6L7lDO489bbZAfzmUCKk9eu4KndO6hvW8zo0F4Wt89jtKeHBkOEpZs/QEd7J2+66KOv7DYXKkvcAC9W1SGO+mKVHeJ75fu9WBXIKxvZ3F4iDUaM4YXGeLTHFq6BF6uSealjvFRu5NGeu/K5V/0MCJZNTExIOIq/wtQWJvY/BJC5XA4VkL/55U/41Q0/weioYfXypfTu3YnHrOXQTBiKWtmde1GTl+a2EK6mOnqHBtm/B5LpGE02MzF9jLP+6QyCgVpM2IjNxKivr+HRu++kZzRMS10908EpHBYbOm2CrtZm9vT309LQydjEJO6aGgYHBjj35HXc9cTT1NnNfOwD7yUdi+DoWM4N115NoVhgWVcnsXiA9WdejKaQJRb2MzY2zsOPPkI0k8OgN8n+jdFcmnXtbha1tWFdvJ6f/vI66oAFy9cSiYU4efkS6YN0LzuXaocFR7WHvbu2EX/2j4wEU3SvWMPMVB9aSzORsf0cCmbp6mglmdPJcyxur2Fkys/ChSfzzCO/Bb2JtUT3CAAAIABJREFUE0/dzI7nn2Vyxq9U4Hi8eJ12pqNx8qkMNTVOcskMyWiS+gYndkOB79z2CvIgX/W3bWWAlRk4PjMg+OX3+w8DpE6nO3ZACh+kCkjhFwz6Z/jK5z/BRy7/F3793a9wcHKMTatPJirWiNbkGRweweu2obX4Gdg/TTimB4NZ5jiacn5yhSSnrDqBFes3oy3mZJfwq7/xRWq1ETTZIrHutWxc0sWBLXczpnNz0roTGZmcxGIy8PTjT7B6zYn07trOxpUL2TM0idVh5h1v2kgwlMHYvor7/3Arw2OjnLu6kx0HhhkMR9i8cR2etvk8cve9HBod5dQlDXhaumXgxGPPU++pxWmB2hVnE/IHGdr9AHt6RvGFM6Q1RewWI9XeebznAx9mcmAvYzk9T97xGyzaHJ2tjXKhsfFIhhUbT5N12X99aCteh4loqsjS1Wvp2fYwLpdYOqKWZV1tmN0eBnoOcrD/IF3zF2LQaNixey+rV6/CVdPA7p17sFusNM5fgddhYcmqFZx0Wqkq4/jcT5WzVGbgdTUDkUiERCIxG6ARClIAUpjXr8jEFrMj4CikqQCk6odMpVJsf+ZRbr3hWorxEG9996XM+IPcff+9TM/4qfI0srKzCb9vmqHpMMFghDq3i7xBj82kwWk0UiBP39AEDU4HA9N+LFodDZ3tvOOCD3DXPXeRiPqYmhgko7VQbzbhrvUwFknjcBhIzgTxZwp0tjYxOBXgXaetoM7rIhLN4OhexzXf+RoubY5MPEEgnSdT1NLa3ECqoMWkLRKKJ/BaNHR5zYyOjuI22+hYswGyM9i9LTz29C4mRseo61jK+NgALouBQKZAIJ7lU5/+PAQP4azv4o47fkdocoxIukAyGeEz772Y/v4+TCY7h2biHDiwnRqrlk1nXUhDSzcko/gnRrn7iUfpbGtk675e2uq8bDz1bHKRGf685VE8Ni1vPnkDRVcdzz31CJmcES1xrBYn19/+0Ovqhq1cTGUGjtcMCHbNzMxIIJb7H48ZkEdGsoVMFSoyFApy3Y+/J1NgHn78MSIFPbpika4mL+PTM2CyMBOJsWT+AkYH+rG7bLJaLBZLYjbZKVDAadAw7fezqLmOpvkrOBiI4zHkyIZDnHbOGTz/8APU1ThJJiIciFpIZXIsbG1h946t9I35aPNU0Vzvoau7i/ldzYxNjFPdvJIfXvtf6MlTZbUyFYgRp0Cru4apZIaZWIbLLnoLjd4q7nvwAZwmLXHfFEuWryYcHKKheykF9yK23P5L3NYqDo2PYLGYyaTiJDVWFi1eSToRwOau48xVXdx+1xacrmp8Qz0YC1mWrFqNxZvj0Xt3MuqP091Uw9p1p1PUG0mEJ5jsO4DOU0vfwCix8AzVVdVMBaJ87PKPs/f5Zzh54yp2PLufdNqPxlLNzt4hljZUsfbUs3nv5aUSueN1V1XOU5mB18EMCGb5fL7D4KiqRwFIxc3+CoI0YkcBSBWSQkWWm9oClId2baPaYeUH1/+Qgf5+FnV1EElpmNfawLbnthOLRdBoFAe83uqi2mbGIuqS61rZs/0ZqrRZ6iw6jEYDRpuVoUiGancj55x9EqP7tuFy2GXz2v6+cfT6PBvXr+PZx7Zw1vp1TE35KBhNLFl7Otmkn6LRwsMPPUwwFGTlgg7GhvuZGu9nQfdyatq7eeCJbdg1cQpFI+i0nHPmm2hZehJPbrkHh91AeLIXT1Mb/miWR++9h3guj8vjYmomRJW+yIL5HSSLBgaGx2lubmN/zy7eddHFJDM5Du7ajstkJOQf4aJLT+auXz9Crw/qa+xoCznGgxHyOR0ut532BQt47LEn5cqH7romfBODcgnbFHk2r12DLjTA0z0TBBJpzj3nbHLpFKF4ip/fcv/r4HatXEJlBv73Z0C1ekVaojCtBQDV6HV5cObFAjQSmn8vD1IFpGpqq75IIVfFX0Fm8RqPhonHorJLjVajJ53LYbXbyedyJOKlIn8NGE0W2U1bQFZUA2uKRfRauZSNTCUS0jen0ZHJZvC63SQiAVLpnFy4S0BPVOXYrRaioSAWq5mCWOnFZMJiMqFB9KVMEQ4FcVV7CAT86DVFTPoCBY2VoqZIMpXFbtaS15nJJeNoi0UsVqtsPGGx29AUcnKM2VyeZCRAoQgOp5NILEEuk6GlqYGRkRFlmVaDAS0aqlwujLIvYUH6NqanJrE4bIRn/BjNdkxGLdp8hkA0iUanp4joAWkmKkooNVpcbjf+aZ/8JWQym7BZ7KSjAYy6IumCBo/XSygcl9H0lvau//07q3KGygy8BmegXAGqPkU1zVtEqgUcxTOrwlFNEH8x/+NRA/JIFSkgqeZFqopSvIr31KTycrC+Bue6MuTKDFRm4DU6AyrwhDIU5rP4Ww5FAUbV7/hS6vFlAfLFICmgqP5V4aia5H+nSOc1Ov2VYVdmoDIDr9YZUFWkWjpYDkkVluVwfDHfo3p9R2Vil09GuT+yPHhzNHCsAPPVeltVxlWZgdfmDLxQYEWFnqoOxWv53/K66xfb/xUD8kifZLlafCHlWIHia/PGq4y6MgOvtRk4EnblIFRhWe5v/HtwfNkm9pFKstzsVkFYAeJr7baqjLcyA6/PGSg3t18uGI9JQR45nUfCsQLJ1+cNV7mqygy8lmagHJB/z9f4Ytf1sn2QL3SgCiBfS7dNZayVGXhjzMD/KSBfDIoV9fjGuPkqV1mZgdfCDBxpZr9cJfmKFKQKQRG5Flv5a8UX+Vq4bSpjrMzA63sGVJ/ji70eLShfNiDLI9Vqao/azKL89aVM8df3j6ZydZUZqMzA8ZqBl0rzUaPY4rW8pdn/WprPkTmQaoJ4MplmZGSa/v4JpqdDs9U0Yi0HOTCNRpYXyv+LV9m9VykOL18HYvb4xQKUFoJQ1ocvUBD14KXXQl4oV+UD5Wo2VyxQyIvu50r3oXJzX+ZsFgsUC8XDitLF+2IcL5XcLr4vq4fk+ZXlJ9RqIiUXVFuqVc+j0RYp5JTj5Qt5OczyH6KqtuXYRG28uAxxfIroNdpZNV7UauTXaMRcFOS8VVU5+eqX//l43XuV81Rm4DU9A+XLxJQnjJfnR/49JXnUCvJIOKolhsPDPnbtGiASmVsfuLzccDZBUyN6VWjQl0p/FDgqPdgkI8qaYijw0FAQXZ5lhbWAkALIXD6vwEyCDgWc4o8omtaIGm+l3FHAWwWkCjjVHaDCSeyrKeok1MQfhbhKQ2v5lfintGSPAlgFsvLYBY3yKj5SUOrIxQo5xaKoLFIW/5HnKV2LOJgArPhS/MKQjUNKFy7fl3Xp4q3SOMRvPfnTE58HrU6Dy+XkK1+qAPI1/dRWBn/cZ0A8h2oHMrXssBySL5UPeVSALFdparMKAUgBx0cf3SWfYgG7ckVXruAUepdkrnjwS+s/qJAsnzGhukQDhyNNeVVJKiquSFFViaUORQokFaVXDsgjVaQ4l4CZhKVsG2GgUMwdthqBqijl+DRa5fNSEYo9FGWaz2mkQhTf01A6bzFXAqSGooCgOIfYVxJXAaz4I44p/ipvK4uiiWOr86dR50fCWYxBsL9ItbuKr1YAedwfsMoJXx8zIDqPiWY2al12eR/IFzXVj7abz+yDXLZ41933bCcUiqPVFCUA1a1cuanvaXXiUS8pyFLpjyrZVDNbNXelKVxSiYrqU6CkmNAKIIUpLT8jFVcBobdUH6gEmKo0S6Z2uRldKCgSURw3r/QUQqMpotXOmd/iqELpKSQtSpgq0IZ8TjH7s/mcBJvoSCTxVlK58vxS9YpxlTZxLnFdJbeDFIcl014FsGJtH96TToW0mN5qt72iIF8fz2rlKv6PZiAWi8nn8oUg+UJDOmoFqSoztRfkgQOjPPX0gVk/onzYNTlF/QllVnKxzcIP0OtETaRG+tOkxJUrWCu2pvC5lQNWQlaAqaS8xGcUM7tILp9DuvdK6ksc60jFqSpF6a0sFsr8jKAt6uRxpRpVlRtFdILicu0qYQcr5rU0zyWQhfmshaJiWqumtgS2OIZOK1u7KSa3AkIJ/JLpLOEtXAJ5BZpqk07RNFh4B8SmE0pUjlUrX8XciPWzdTrl+qqrq/jyF1/hol3/Rzdk5bSVGXg1zYAwtePxuASkaH+m+iZVwXLkWI8KkC+05MLd92xjejqsgE74EsUfbVFCcFZBlp1NCbcLMGglINUAjWDRrM+vZPZKx9tsk95Ss96SepTgE2DLKwpNVZ1ShZX8eoebrSp0SiCWfkf9rFlbboKL/eV1SFYrhBdQLlnIEs6KW1E1i/Pkc4qvUyjGWUirKwiWVKgApjxi6ZeG8n8VvgpMBYSlb1L+UdyT4mvBbAXwSEB+6QuXvZrut8pYKjPwmpoBwYxAIDDbG7K89dkLmdl/F5DqQ6/6HkVzXGHH/+rXDykPuVCEwqdWWjJUp1XUmuoELQeQBKNQl2If4ZcUpraI1FIovSJBIwMzJQhJKJXMVdXsVtTs3Fo5qrotV5Iy2izNdC35Yg6ddi4YhIw6l/Yvi4SL44tjKFFzZUzl7gIVlkLBKrCcg3S2oASHDgNuKfgkQCfUo6YofJX52bmaPYYYq7juolDZQkfO+XOFghSqWxy3qspRUZCvqcexMthX4wyIpReEelQb6B7TmjQqIIVCU81rFZBzimsOiMI8FSpSobHyoCv/LZmbQiWVotezwQpBBjXIUwKFGkWezbUs+SUV5agovNm8y1L6jhID1kgTV4RhZIBEmMXC3p+NUitmtNhU87ocbOVRdQnY2WOXPl+Sd3IfMQZx3DI1q/gZBZiVqL0UouIXwpw3UoGo+FYJsurX6mcVFatE7xX1qpjdVVXWCiBfjU9cZUyvqRmYnJw8bOmFf8iyr2oHcXVd7F//5uHZpRLVYINep581C/ViHQVVnUlFqZinQjWqrFAiuSW4SjBqJM8EcGbDLyU1p8JEyXFUItDCeSciyUqARPj2FCBLtVsQoFSce+JrqS4lPpXos+orPQyWZWk28prKVKJ6LWpgSFGZZcmagpNCWYpXeZ6SGa3YyopaFmOQflXF5J7L9ZzL2RQwnf1eWa6ogH2VqwLI19STWBnsq3IGxsfHD1sXW5jZL9ZZ/KhNbBWQIlQuFsH51U0PSxiKwIbqT5vLLVLMQgEFxWxVZKQUkmreo8yLFAt2l1RmKd9RKk5VCZb8kAKKsz7JWbNWyZMsdwGIY+clXCUv50CkxKlnf1iqv1KqXAk2xexVr0OBoOI0VHMsBVTFMcrNavmeCKiU/I8lByX50hhVn4biWxScnAsmzToaxdjEBKlqtfQ5dbDKWARQC7hcFRP7VfnEVQb1mpoBAUh18S7xesyAVM1cdU1sAchf/s8WdHo9Bp1eTo7qg5SvAoo6JblZNS1lJLakrCQ4SqpOQFJ+WUrYER446YcsiTM15UdEf9UcRKkKlVTGueUeSpHzWbMbnQygqG4A9Sd4ZNVMuY/xMECWwXE2Eb10PgnJUrWPmoRe0CgKedb0zgsfpgJUMU/kC/IHUe6jnFW2asBG/NIoBagOA2Tp+w6Hla98+SOvqZuxMtjKDLzaZkAAUkSxxQJ7KiBVS/bIsR6VglQBKcxr1cT+1W8eQitM6pIqnJOoJVNXKzNfSlFhEY2V4VjFFykUVSkgoqb7zHoJyytPSpUoCvRKy89Ks1fAUlVdpcRt8V4p5UZJFFfK91TQHqkQVdNb9QXOAqlsn8NzJ+cac6i+S/UYMoqt5m7KgZZcAGqQppTSNBchL/kY1TLHkumvVhSp5rz6qvxigCqXja98sQLIV9sDVxnPa2sG/lcBOWti//YRdOKPTnnY53yJOSViK6Ag8wCVCK6u5G9U1aZIzJb/F2k/JbUopKRI4dGVapOFC1FRXKJypSyNppSYraQqzgFS5k3K6hYR5daSK4iSwBKQ1YBJSdWp0erZ1JyyhPLyH7eqFGeVn1ieVihTJXuz5OdUAKZGtyU4S0EYNSAl50ea6Ep0XJ0zVYGq5rjq41Src+SxSoq1qsrOVV+upPm8th7HymhfbTMwNjYmlaNQkOoysP8wBakCUgRp1CTLWfNaVwo+lGZEzesTX6oAmANDyU8p/HIleJWb0CUCzfoRpYotJYerCY9HmqtSyamrLBaUdB3pTVQBXDaOI/2NMrm7pF7VAIsCwZIvUg3IqNHvI6LQ8twlP+Ws8ivtowZeBKzLncFq/me5f3RWlZY8j3IssjkHCBP7qq8efaJ44K9f5i1XbZH7Lj7tg1zznx/FLj0iGX76yVO58VnA1cl//eRaTmqrPg73cZ6x5x/gvud7ueDdn8BtfulTTvfczScu/U9427f49b+dhuk4jLByitf/DBwXQEoTu5T/KPyLIlghQaARgQuhluYCI1JRlnxrKih1+lJHH8VJqAB0VjHONW2YTYURwCgBUkJLFjrPkU/1Pc5CUihIUdlSBjZVNaoAK08MVQMzIvBTnk85C7sjTG/VNyoVYFn3oCOresScqLmc8pdDKdAjb0N1XkqpQ6qaVM+pAl4oVnGcKqf9FQNS372JW3/0DRocBgg9wWVv/Vf25I4vIDPjO/jIJz5DpuUkfvztr/1dQOazSUKBCFhduB2msjDb6/8hrlzh/94MHBdA/uamR2ZVobrerASAVunAIxKzZV5fKZ9PTbkRl62oKBHIKWF0trWNalKrVS8i6DEXqZZpQCVBqPgBhflcij6XzG3F/5gnl1fSeVR4SZU7WylT1t6s5P8rh5L6o1HhqprhiqJUBqD6Jw8D6KzknDP9Z3/MZRAsh3Y5pFVz/jBAqm3bNOCwW/iPqz521HfOrIJccypLJid4//eu5ZQWJ5P3fJ5/vm6/TPiPaGsOU5CxqR6e3tZHRpylbgGb13Qq5ytk2LX9GcaDGVZvOI1au46kbz8PPTdIfedKVi9oYKZ3N1t7R2hbvgbd3h30yaYg8zht8xKsZNj+p5/xhWt/h6F2Pu9/54VsOHMzzfYM+5/YwkBYOY2rYzUbF9bL/6fCozzzxC5oXc2mpfVE+p/hyQN+utedRfLQE4z6k9gbuzllZfdRz0nlg5UZOC6A/O3Nj82qM6XHo0jZ0YJW5BgqcFTTfMqDHeWAFGBVcxNVeSAAJ96fC8wotc4qVGQVX6l7jgiMSEUm89DnKluUz+tk4ESqyJIfUkaURbCoBDpVzf1N9FptglGuaEvHn4VmGVhVoB156wlQq9dSrl7LoVi+j5pCpL4nq4FK0XvBV1e17WU1q5gD5OWcq/0pkZN/zncvbuL3H7mULbr1+AMPMxqrngVk7Pnf8r4v34jPH1VySy1VrF55OVf/9/k4MmG+/vnLuX9PhKt/dhsb5pmZeOz7XPi533P6+7/GNz9+Os/8/Ft8+hd3Yqv2oAkHiEqFb+ddX/0hV55by7feu5m7+uau+Ms330/xx//O9595jpgkMhgdHjb9y0/4+rktHGli9/76E1z24+04axrJRaZIpPMYrE4+9uO/8u4FlQe/MgNHNwPHBZA3/e5xNGoARO3Yq8mXKmJKOY8v0J1GhZHqixP12wow5mqlyy+z3HRWU3vKcxGl6ioFXuSryH8UwqXUjEJtWquCWD2/eg71a9kkomT+ytrpUled8nMd5vMsS/M58ljlgFMAXpK9JVeCbFgxW78uYF6q1S4oOaXq54tkFfEmkuA1WpzOVwjIUz7PF7uf5OqdJ3LvVxdz2Uc+RfNbPknqgZ/yXLhKAnKdO8LVV17Bg+FWrr72W6ytg59/+//jFw/N8Omrr+PiFfajBmT9pg9yy7cuY/TBX/GR/7ie7jM+yve/+gG0489yyT9/DmPXJmliO1PD/PQXvwb3Bi59/xlE9v6ZK674FpaFn+En17+D1BE+SBWQ7Rs+yTVXX0L+me/ygc/9nsw7fsCWz5yo9M+sbJUZ+DszcFwAefOtTygVfCWTWQBPqyul+JT5/Y4cq+qjU5PHpdosmdizfshSWovilFSaU0iXYykGJLvplHXiEfsJk1qWH6omaakqRgJW1nMrXXZUP58078tMZRVK5Sk8qtJTqmaULudqFY7anVwAbdbvqJrgs+WVpWh1qexRKt+S8pSXLW1+4bNVe1SWTH/Z5agUJZ9VrqJZhYMvfeEVBGku/A4/m7+TT139Jy676kp++52r2fzln5P42Re41W+TgGwPPcqVV16N463/yXWfPQuzBrI9t3HKpd9n2cX/zvWf2HTUgLzw337GZ962lHT/o5z/kS9Sf+L5/Pjrn8UweTggy4M0Qr1+5Ju3Mj4+ReuSlwbkB697nI+u0JEKP83Hz/00g6d+mbuv3oylgobKDBzFDBwXQP7utidn64zFg6509VGqTcqjwKrfr1y5SfCIpQRKClOoI8WfqABCVV0KZ0tleDIJe863p5rgAliK6iq1Iiul9khfZAmIspa5FAySACyBXRmHUhMtz1SWl1heF63CeDYJvdTGrLxkUElGmj2wkuJUauAhlae6woIM1ChNc2WFjFTApd6RZUs/lKf9qGN7uc0qZk3sC7/DX9+W5H2fuIrGxSdw8Bkd37/7s2y58vJZQLbObOHKK/8b97v/i59eeRIGcdLBv7Dhkq8z/22f5X8+feZRA/IdX7qBT79l0d8FpDM/yU1f/zjXPeyndckKGs1xdu3aT8PfUZCX/eIpPrRY+CgrgDwKHlQ+csQMHBdA3nrbU4qqEsqxBEWdvijzHdUejLMALEuzUd8TDcLmADlXBqg4FEsrHZQBS3QLV8zdEopkSo9AjWxNq/gpCyXfpcybzCM67Cj+UAVQs516SlK0PHlcMWNLgFbPXxbUUVWkOK7IcRTuBbX6R+RxztZfl34YsiePavqLChxEfqdSNaRG64XiVgNAc79AlFxJZSvlTWq1cqkJ18vs5qMCctHHf8EvNhd4x6WfYtwfh/kf5J4bL+bOSz/Kj31GqSCXFvdxxRX/Srb9I/zoex/GY4DJh77BP31hC+dc8S2uumiRBOTdu0J84dqbOG9RFQfu+jYf/Madf+ODPFpARrffwhX/dg01mz/HN67YjGHySa648gvoW19aQVYAWWHesczAcQHk7X94UgJJbCpchIIUgDwyTUYF4ayMKktMVJtGqIBQzWxFO6oKUhFaqpKSoJTlKqVmFWqpXl5ZHmEu1afUcUeYwWXV2Or+s/nppXVijsyZVNWlmucpjqasKyMWoTkicV0RoyrfpftBDQgJeAqIzgWDhGos1UrO9p9Umg4p3SHLr3VORb9SBXnCJ3/FtW938qPLPsRvDgZY/8mf8b1LWrnl0su4ZsqgBGnq8lzzzc9zyxNTvO/jn2B1Ldxw/Y84GGnh29d9h7UNOu789mf55p92c8ZFH+O8tfXc9vPv8FRP+KgBaZrezjsv+1fy3kVc8eH34cmPcNVX/xtb1zv52EfXc+DO73Pjg0O0L72Cn/z0PWR6D8+DVH2QFUAeCx4q+x4XQP7xz1sVNTdblyyAIfyQiolcpgnLlFmpGW2phdccOOfgoUBwFhGHw6KkIlVQzi7YpXYfl7XSQj3OKTO1L6SqIlUfpMjNVE+jJHCL8sfDAaV0r1T8mrJUsux6y1uVqUsplINNgl4EscT1yJSnUru3EhA12rkmumq/x9nrKjXpVedCUZSaVxykkYC8pJPdP7uIj96Q4NLv3cA/r7cdDsi2avLRCR65/3a+952bmAFaT3s/V136DroX1KCnSHy6h5989oPc3gMm64lcdomTH/7i4aMGpF2T4Nlb/oNP/uhROVUf//4dNG39FF/67bD8+tyPfwXuu55ncs1c8+Pv4Zq+77BE8QogK3D7R8zAcQHkn+7cOts6TDV9tRq9VEZqg4o5xTQbFC7r7nP4paoR4iNTYKQJWgqyiPTzw+qgS6V+SgBF8QAqJYnqioPKvuUrHyrBHiWKrLyvbOoSEaWWGEqae4nU0uovRbWFQpbQlGvjKOASgCzJ29kWaIovVTmu2m1cqSxSejyKPNBZP+McWcsS2+e6l6tz46xyVBbt+kc8IZVjvKFn4LgBUoCwtGDp3LovQo2V+d6O/ElIcMhWkXOtGWbdhGWpMwqUSkseyLzHI9a5VotpSjmSou5aEEm2OxMR7ZKEVdaPUYAm4zRq04vSioJKgEf5uNyltAa2hFIJiocNt8ynqfog1aR1VfEpRT5zSzWIr9WVFLWi47oK5VJ6k4Cl4lqda6QrtKzig1ST58HprCza9YZ+sisX/w+ZgeMESFHIW1JBaq/HkhxTleP/z957gElyVlfDp7qrOsfJs7uzaXY2S0ICoYgEkowxYIlgwCQjES0LjBNGgEz4sI2NwZ8/GQM26TcCZLJQFkJgQCisVnmDNs2GmdnJsXNXV9X/3Hvft7tn4f/Ylcb9g6baFrs73f1W1TvVp++959xzNSgoklp94Akgm1ibJqMK0R8qEkNJfShqbCYy6n9XRIoAG0VxuvaoOJkmYbeW/oigXNhmBjUFdo1+axVNqmOzZ5C6Ns0ccYrOUa2cK3k/6pGu+rena5GMt02oKe2WNTmuUP0q8KR9bNQ068J6nvUtMifqIsqk4/ib665ekpvEX8TfgeW6Ay0ByFtvf0RFRcotR9UdVdBV1yRye6BirJuCxkXmtHXauqlwKWy1eggGyfFU6yI9T+NbGSAp7TWoY0Ys0Pi5+ogGmiZI5IoCc5X61qU3TdGuBk0tU5JoVyqqdes0RRDVBd2cikuUx8fUg7qa0mb6gqDRuJLPN0CR3tjsSNQovZ4IllIWIKG4D5DL9WPtX/dS7UBLAPKWW6kGKfNWtIRGGN4GEKmcta5l1H3TdZDQIxFUOspA1DSOQKe/ooWkZRp1Q7Y1q4mUhsBDd+Y0R5v1LhoNXgScZEqrRys06yF1L7eS8DTrEHlNHfSpc2ZZD2szm8wtVCpNIvTGNAY5twBVIvXecGgpqK/ri/UaLAvapW6qWXThe2hoVwLXffDke7GX6oby1/F34Nm0Ay0ByNun/qDVAAAgAElEQVRue0jAUaW4mu4QckL6o/U86sbo1IYY/MTWwvr7tJN3U/rZAA/pr2bw4EhRapQ62lwkEWpKseute031RonltJ+j/F0AWoWr9eC1MX6hIdBsEoXXa5qqpfCEYWC0Qywx4m8TbbChjn5Cx5FEtRo0ZT0N+ISnqQx10rzr2XSv+tfi70DLd6AlAHn7HTt/5YURWHHdTrv48Ae+QUA0Ms9GqqkBUMp1wkITSdEcUQp4EIPcmDUjzj3y+hPdgrRVmI4wm23GFkVyCtB0XVILlHQkyww6Ze41EZKrhpx6PVX3cMu4Wo2qAqrStaPlPfQWsYKT2q20Puqku9591DQ4rB4Nq/IF6SA/dAqthi2/8/wD+jvwW7ADLQHI225/qKlTREVIGgeFDq7X2/Se6UhPAKrBzi5KM5uIngYTLPU7AU4196WZhWbSRIwe9PP/XzZizQDdnI43n6Pq3BYe+ZdGs5Jmkp6x6gO8+JjqfET/KO2MzJ7zKk59Bo8GR71D8qWgYbLxdyHR1ZeL2knqpPngB06+F/u34F71T9HfgZbvQOsAsqm/WZhXRdBqY9gTukJ0dNacjnPkp8FS620YXLSQuonUUPU5AcLGFELaYVuNXNX1SgE/WoOa/sQLsrnnuh6tKkabz79O7jRHd4rxPuHXuMilR0e+jOIElvQFQFZl1JsuQMmRpPLB5L/zXB5ZtOHeI/MLdQGzWWxP6yZTCVz3IT/Fbvknyj/gs2oHWgKQt95OMh+DxwGIa7arDHAVq8xi7OaumF/eY5bnaA8zFUQtAk/GlQZQCjAKbOh6XV0rqGQzrJdUEh6p4SkZEHfBaJMMDboKnlgnqVJ1NTqhLv1hkboSq6sI9ZfE7CBr7oa8SMC9QVY1zppjzfroW7HoaETS9etq2iq5LNFESortA+Sz6tPqX0zLd6AlAHnzrQ9yFEe91FIvbLiHL5LzkLxGkTkaAJoBRo8jkIiP5DCKnNDA1JQ2651cXLMUdlvKlgJKddcdHYKptVkGZGgwa9QMRaIjPpIsJ1IOQfRDnYbLuWvtZCPqk7/Jmiwy5/ELql6pTljXPOXPpg6aJpKm+TX1feIRulLHpEcqlcR1H/JZ7JZ/ovwDPqt2oCUA+f0fPFCvQZpBUyl6ZDyrFmBrM9u6UUMTUHJcx+GROCTWgYgiPmoDVHW8Zia3DhyqR1qiSEntQWufYFumXYXqTLASeTc1e9ejUQ4w1ZgGyZSb2gk1Uw0iWX5ZmtMMbifKdprvLH5OtRtKKUCAry4M14CpBOwqVpbnXRfpDEWQz1wo7k0Owjn2KLypI0A590u14mfFpyEYgpHqhNG7FcH+82h85rPisvyLeOY70CKAfFCJolWKSIO6OHrTk/u0ZEXGnDJI1WfILI6wNCA1awebpULNoFMHo6bapUSASnKkGfQmmZCOKvXWakF43a2cTTA0g96oP3IroTLc5fEOFP2RZPxXSZBOcCA/EfhOZM51NKlBnx2QeAqjnIeOsjW7TcemVsPrPvQnT+8OoS+i/BTsmz4CZ+89ynb96S312/YuI5qG9fLrEDz9pYD1a0Yp/rZdnH++p7wDLQHIm25+sE7K1Fv2FHDUZ800sdWawGlOj/WVNQxy66zFIuLiRLZ5MVstRrmaNNd2YXUzXCUx0rIf7cVI58NRo5YnqtomD/piB3Ft1KvSbCZVGqYYwtE3xiU0p/9yflJ5bFyvrLOovFD3fVxchxTQVCJ8baMOD9lsGh/8wNOrQdo/+Rycn30BXklNxzrl2+q3/A00M2nt82C99IMIrNr+W34x/uk/kx1oGUDSSTYPo6qnwKp2RkGVHuDVLMTWJhQybkFFbioi1Gs0osqGo7hOt5vBiEGIS4PK7DZAxI9EeQFOq4SFbgZmAUACSMWEK7fveu2yeXQDvVdFh+wSruqMkhvTutrXUc5KvDFFktQwvuVn5Hk1okH3bzfKpIvZeh2BNvq1yTA3heuuO8UI0nNR/f6H4ey48ZncU8+a9xrZVQj/8X/BSPc+a67pWX0hTfLiRR6Kz+CiWwKQQtJorWNDB8nnrSOzhqlOQyy+yOlG9yc3dabUxeKy0InRY8OfTKRAOjVmsGXpj4RfdQsydY6chutojCYeEgHTpKVsALNq82Ng1XXChh5Rrk9z7aJxZN/IOuEi72t2E5fnGqLwZpOKZrBvtDeqTeSUviH7SRNAfujUapC1n38J9p2fJB+4Z3BLPbveanRvRPgt/wGjre/ZdWHPpqspHAd+fDdQUOMuJSIBMpuAy14AmE//YlsCkLfetoM/8lJ3lA+/HvMqUZ243Wg3bk4vm8iYZu2f1kLqS272fFzMImvklVc2P9cMSBJBqnZH3a3SXDcEicobEhttV9bgSBpMOB9HpdysXSRIVGvqSJiYceoibBh1qGiRSSPpClKQt6j/uvGz+t8W/dY9tnCjWeNsG4RUOoG/OZUIspJH+e/Og1ctntLdZJz2PoT/4BWwv/JGOEeO1N8buPhjCJ+7GpV/vArBd++FuSrUtK4H+wfvQu3+e07+WKFemFf8PbDnKtR2n/zbluKV5vP+ANarP0F1jKVYzl9jSXegDHz+fcDOA80fKv2hB176b8Cr1Lz2p3HclgDkzbc8wPNotLRGDBpUxCOq7ObmuyZAE00fPRbPgWlEYZSaNgibRneM3ot6z7SKMOti7CbBNjn9NB40v6Yxc6YOnvz6xuvqUaCKEDUwNiLGRjQnjLSOMKlTRucCUn8U8Fa/U+bpf7lzSJ/fiXXZum5S952rHctQL/YpkDTVr78HzpO3n9otlDodoau+iGCbjWozQAbSMF/7DZjmf6L8tYMI/81/AQe/DefofrW+B3fwx3DHhk/6eMbaSxC+6tNwvnUm7BYDpJHsQvia78DIrDzp8/Vf2KIdmNwLfOo6YMVrgbe/kno95GEvAF/8MDDWCVz3YSD59JQJLQHIm25+gM9ZpvcpkCEmW3XX1M1umyJMAVCpRmpHH20B2VxfEIBU7YV0kHpnTUNyzQ4+TbIdTYs0OmmaROrc/deYZshLKtaIxkTUyRQCvKaXkb0ag6+uYSq5jZBKBPRSb6SOGQ2FdXCUrwTVIqlAvtnp6ETA1Ea8Sm+pZkM25nOTzIeGdp1kBOlNH0P5+pcDlcIp3dXBy78Ha/tKIFxbHEHGexG6+pvw7roY9tybELn6WtS+dSVqj1HDwNN7/P8JkHTG1uUfgXn+Hz29k/fftXQ7cGgHcO8jGhKA2X3A7r3AwEuB7uYsBcDIDuDoDLDlIiAbk3MIhICLXgmszZ7UObUEIH9AEaSIHuUcdRtdc2WyaTohAxjLWMSFh8GVQUE76ShX7Xrc+cvg0gChhnRPJD4acpUuUm1TnYnWgZ+aUtgc3QmMSfRLgCdyIZErCcbpWdsN5BTfx5rM3qmn7mJXUZchKaTlHeKlGl8MujOmHmWr7wttfEGv5C8azaQrAiqTTuBDJxlBOnt/jOrX/gRw7JO6afj3seW9CL/qFag9vAvmeWctAkgj8zKE33klqp98Dbyz/gyRV78Dzv2fgbtQA2pFeIdvhjNKmsoTH1thvelvEVzdDlA5KRGF+8j/gX3HBKxrPoJgVxe82T1wvvYXqKUvROhl74IRrACeBSOegPvYv6By038C53wA0Ze/Ft7stPx+Hvs8HFwI8/lnw6jkgXgHMPcAqt+8Fu7kwkldc2DgQoTf9p8n9Vr/Rf+DO3Dfl4EbbwPKhQZInuzhDAuIpIA3fBQ4b+Ck3tUSgLz5lvsVGNCoVfFE1NGTaUoFVUd4uqbYXFsU7GnIXnSUxnU+jsqkqKe9Hk+sS9L7aT4Md72obRHgaxA3LDdq+reOFAUMxdpMmO5G+ityoCBHuXJOylVIaRTFm7FWZ6j5/FhD2WCzmUHXM64FG1VPtma4G4y1JmZO3Bt9Ts2ASyz2B0/SD7L24Ddg3/Th/3uvZ/PtlN6M0NtugHHselSe6kXkNVcsBshLv4nQ2u+h8qVvInjJ/0LoxW+AN7cf7rHjCPQ/H4Y1h+oXXg5n6ARwev5nELlsBSqffQe8QhHGBf8bkQtWoPzZtwHtz0X4zZ+A893zYD9ZgXX1DgQL/4Tyjbfw7yew+RMIve5MOB+6CDYB5BVvQu27fwr7ifuAyMsRufZ/wbnlvbAf/jnQ9fuIXPP3cG+5GtX77z6pD4oRyyDy4YdP6rX+i/4Hd4C+xO1x4Lq3A3OneJzVVwB/fSVghYkEOak3twQg77j9AVVjU50sakqgEBW6niiJr8x0Easynh2jokeO1ThQdGR0gTQsarhjEJJIjiI1MZyV51WTN8lstHSmKXmnBerrNZExi9P+BtWup9Kwt6Ritrk+yjZqqo2RzCe4F1EBu9Z4asq+qTNGEHextEin/truTLPvcrEC7DoabQZsVdHkfaIU+9oPnByLXbv3y7Bv/buTumH4y+biL8I6ax7Vz/0l3P73IfLaZpImA+vdP4Lx0F+h+uAvENj8hwj2t8G59/Nw5yswVvwOwu/6PLxHP4rKTTcsPua6jyBy5e/DffQLcI4egzf2CNzRcbkHflUNMt6FQOdGGMk0jO6tMF94BZzrLhSAfPkrUf3qa+AcOAqELkb4A/8OY+Ie1B7+CbypvXAGT7GQaQQQ/cSBk94j/4X/kzswBbzvTcAs1T5SwFnnA+VB4PH9wHMuB+xdwN7jwOkXAJEc8NAONsnC2lcD173jlE6sJQD5w7seFEeappEFkkYvFj1LZ428joiSen1Rp9i/go0+MaKTHueGc7eOKuV1uvdZ7M50qiw6xKbEVj0n4xlUYMXpNMl9pOLHEaOMf2mS+ATUDBqSySjzC+XpKJmzjFpYDG5UcqAIlH6D5DwuwF7v5dZfAWzo0ZjUqM9BX//iFkQa+5rA+689OaF47YGvw/7BR04ughx4LyJv/EPUvvoW1Ab3A9tOAMj4qxH56/fDvuG1cA42WO3GXRmE+a6HYYa+jPJnrj8hTYogeOHHYf3O5TAsD7CLcA9+E9VvfxrouWgRSWNsohT/TTCicSDgwiuMwIjHUdMA+dIXo/qVS+EcUS5NmVfBeuv7EexMA7USvPwB2N/+MziDQyf1gTEiSUQ++thJvdZ/0f/0DjQBZGoAeN8ngIW7gH/6AvBXdwILXwS+/N/Auz8J9IwDH/0AUP4NBsjb73gAASOIAA/gkjZDHT02HL81Gy2pLNfumrSFzeBK299wHte/jF+hg2w8JS5CmvhhWU/DZ1K8ahuMcsNqTX9+6XxFN0nApWdTq9HX9VGx5PKjgbh+vvW6pI7vyNq8qUumaZQCA6RqT2/oMOtxYx04pZSpI2QB4gbgyzkkkwn89ftPDiCd3Xej+o33nFQNMnDJPyJ01tlNeJeAkU7BWxiD++jfwV44D5GLt6Dy2dfDzYcR2PgaBPtKqN39XVXeaIP15/cjmPsXlL/0uUUAafS/GIHoFJy9jyCw7nIEB16D4AXb4Fz/CtRiG5oA8iyEr/s6jKPfgP3Tr8EZOQyj8xqE3/36RgTJAPkiOITR7Vthrt0CZ/BuwNqM4OYXwbzkncCBv0f5G186qVpWYN3zEX6XL6D/n4a+k1u/GSA3CkDmfgh88t+B990JzDcD5ATwsWuB0m8wQH7vB/eyzyKRwFQLpH5rmlZo0Z/sWKNAoC6g/lXtdEpQrYkdBSwCJLqmuThVrdctCZBIWkR/cr4mnwkNQpql1vOu9S+Jph8SWGswZ5BUc7fpNTXSPDKIK52kmndTq9UaTkF1XSQNEiNwleM2JiAuviVcVZ/UDuK6JskGG00s+YmmFRogOd0PBJBMxPBX7zs5gHQnB1H51yuAk9FAhhIwTKtx0puuQfgVL4V94x/DGRyF+bJ/h5n5b5S/cj1gxGC+7P+B9fwVqH75D+AcGYOx+S2I/NHfwLnjGlR/ftfii3/RfyL6gg5U//kP4eRzQOqdiLzvarifuQJ2VAHkt8+Evev1iPzth+Hd/SZUfkp1wTZYb7kZ5hYLtX89B/aqDyDaDJC9r0PkTz8G9653o/rfP6JPCkLX3oPA8U+gfMMXTwogrZdeC/OiU0vPTu7D7r/q1HfgWQaQt9z6AKemAljCSNN/QR7ipQxhSTbTNPeluStkUU+yMuNhYbmS0uiUVA+w0lrBxZpBFXE1gTBFgnx8Am91fMFPPQFRseeMqIaqOUpkS7jMFVI95IsDN6mdciovw6tRIwJJzeHWYm7dmN7Qgqp1dM1V8dhyJvrzq+bgEODW5Zhi3MvrqBKB9I2LWcWf/8XbTvreq375Kjj7f3bSr6+/sDnFnnQQevuNwEMvR/U+VUHvvgihV/0NAtkwvNlZGO1d8I5+F/ZNn4L7S0T2Rlhv/T8wVyXhTk7BaO+DN3wrqt/6B3jxrQhf+UUYxmE4N/8lvE3/APPMDcDkUSCagVc4AqP7eXDvvhjV2h8vBkjEEbzs07DOPQuYPQYv0g0jMIHa9z6I2qF9v/aajXgW4Wu+73fT/NqdatULnmUAedvtJBRv1CDZjUY5iqt+PwVUjcixLpZWLXTiJdlwIWf2V63JIKXyXUnZidUm0JDaoh7HwBBGNUrVrSJRnKT8yk9NojR1cnxMbUahSCF+TtVCtYydozdW9tDxiCBS9UoWb7vwyGCXe7YFOLUWVABS6o3MxNPzivjReyTHIkZbrr+RSqvNUOm2Nv9VPkhIJeN4z3vfetJ3rDc/ivKnLgNsKtacwiOUhZFMcIpNHTxGpgfIDcNrVgxF2mHEk7LHbgVYOM4jv3/lo/m1tEh+Cl6lDBgWjFQPYAWB0ii8ShhGuq2xZnEWiHUBlTF4ThxGPAZvYRjQ52FEYGS6gGBQ7o/qLLzcyUl8gs/5fYRe8ykg+Ax61k5hS/2X/rodeJYB5B137eC0r/mh018JhpQoXEVdjQBJueKoiFMP+OLIT71PoYa0+HE0RX+StEZsH1kfKFMUFAgT0yznQusxCCrNY11Gw9pFimwDjciM3Xjow0VxI4GaAK3U/+hHlH6r5/jnCvg42pTUX1h2XVJQ7P2ivm/2/FmU8umou0lGWu+8qducNRn/aqF8IhHDNe+56tfdaYuet+/+F9R+8tllZW/26zaIumdCV30Jge6T0839uvX855diB55lAHnXjx6qt+k1+y3y31ViKt3QNId6cR2x0Xgjr6C0nIXmLDgXkNHO3Dz4impw9VY+9cuoO4PLexRW1v/ONdFGc3ST5lJHgoudvSVoCzKYaYE5SXzUq+vMt65xUpdNs3ZxEeFUH0XbMLuQ89OKzfrXhdi6KRd1Lehs1kbqdkd6byIew9XvvvLU7sZqEdXvfhDO46Qt9B8UsYau/AICK7b6m/EbtQPPMoC840c7GSAcTllF61gXNSvto2S5lBYr+zHlpi24JeMEuOZItUudbhMrzsyxgImAFcloGvmblvLQ8xJF6roiBX0UPQrgBlh7KYJziR7FGk1brzXXNYURl9RXHnTyJggIm1Ng3bWzKIJUeMcyHU7Nde1Vpc9qJIVO5QV2AxJZniB3ki+IZuE6AbGQRslkDO+6+um1xtm3/C1qD33z5Eib36gPzhKdDH1hdvXDuvyjCPafu0SL+sss3Q482wDynp2oUc2QulWoZ1nXzTxitQUxVIWNLcEYFJQkR7cYShouQmz5GXWgNGnFWUgunouiJhLw0ZFp01hAwTPt28jjHEiCtBhsFJY2tX2TLZqO6gQUicXWwEtRKP1HdUYWkfOfMn+nxopyGecqvTyiw9Tmv9L7vbh9sgHIAuTU1lgvSzDhJQ5IshcqkuYap8zTpgjynX/85qd3T9YqcEf3wr7rn+Eeul9qdsvkYUQSMF90DYJnvQJkUuE/fhN3oAkgIyuBqz8GTH0fuOE2gNpBc18DvvMg8MaPAF2Hges/I7Xo31Sh+F0/2Smwp8eXMjhInY/BTEdGMk1LwjzdM02RY53LVaa5dVwUkKzjFn+QtRBbgVc9UxWJj7T1KW5YR3OGdvrQdULFH+uFdVquXq87djRAUtovgCepOom+WUbE7DIBH7VY2gxefDqGKb3m9S8K3Utep32kvVFpHUVGpAqpiq2mn9RF8HWhe6M9kQHyXW96xne3e3wPs9ve2FPwinMnJyZ/xkdt7QKGGYaRXcku4sFtv+uTMa3d/qdxtBngr98AzJziW9f9AfCht5/Sm1rSSfPjn+9QvdKKyWZgFLShmdAsnNaWX0GZAc3RH4OBLZESpeYe+R2K5lG9m526GZT0WAQCSXbqliiL0mZah+uM9S4WRRhRBwutzWGpNBFyikx6xabUlVDY04y5kgGRLMjg1kIBbZvbDQXKCaQbpIzuFVf1UYoyOTxVsh1td6Y0mnr8LPV46yhWfqPS1cMdRvRFw+m/AkTljSFst7w6TgD5zjee0s3gv9jfgd+OHXCA668Cnpg4hdMNABe9B/ij3zuF9wAtAchf3Lez3pfMYKM+xMw0czbcYG4JMCVzVYjHzzfMHcQiTVJXU3fkUGuiR6mseDlqXaBUEAWwmh+cwtejR2pNFPKGzCwCmnEmyYpK4VlSRGYXCld1ek7dQcxoq+PoemXD1UdJgkjCo0XeXD/Vkxkbc7x1a6I+T2GtpUDAYM+6T7PeEinSIu1OJISRrrHSWrFYFG99++tP6WbwX+zvwG/NDhzbAXyL6uTNZa//y9mHO4DX/SmwKnFKl9gSgHzgF/eL27WKtrT2kMXUlDkqqYyw2mzPI9ETARb55ah5MezOrXSOVLskV/KgSSktB42osKuP9CuLHlFl6zTqoCmVdymaVMDGOKwiTupioUiV/hPWWaW8KizTKS+dW531Vi7efFpMIBmwKDKVH6BK/o9KC8RptZpBQ5fJYF438pUoWLp8COwU6Kkpj8z2N0mlNBMu3T0STTLwKiehZDKON735dad0M/gv9nfgt2oH+LN1kmdMGHJyBj6LFmwNQP74Hv7gE0mjBdDRUIhBxrSCMFwXkUgENc+F7Rio2VWp17kEjlJkJDChCI+AQ6eSwSDV/Oh6hByxawItTJAoEoMPrDaSWHIGoADN5hZxOIGu1kjS+tCCbXYVZyjU1Le8VhNDHh3T4SiWHNJZb4kAgkEBySDN/+b1lXSbCHenJtIglSZTlw1FviwS50MFOAoWql26ckRUrl2Q5DoFFCVm5GfVF4+0TEr6nkgk8IY3vvYk7x7/Zf4O+Dvwq3agJQD50E/uUV6JYkTBdIYZQJD+VA41RJ6QJ2MgaKJWsxk0NHgRSDiOEDIG0T3cH03vVTVNpXuk0QkEdw79LwebEr1xf7NSixOWsKyHz0PAijGUI1aV6hP4qMFVWqDNKa3aQfk7NygyYHJkp5hzNuUIBmGaQZjBIJ8rkTZOTbSQ7Dyurln+7cLmMqweAKaiT6b6KcXW9Qg9jVH3AQnZxMfmw9M1yWvpnOOxGF73htf4d72/A/4OPIMdaAlA7vzxD/kUhXUlwGiQCQJ0wv4yaLHprAqolMKRQUVFc4GAmNLS/3PqrVhsjt9UTZCmFFKExRCmxrZqzSK9h4CYok+u8XF9MwDbIZZZQJDATM+NUVkvA5tCQQE5pZfUZhbSCqlMdQ3AMi2EwiEGyVrNYdC37VodlOkc6Nxrdo3lQhRNMn/P5yBsvp6BQ+IgEqZr9COAlekPBMBk/CEdPxJIinkvAeQrX++n2M/gs+G/1d+B1pA0O++5fZEXpCTFKtrh1FKiQf2QFkAlC2LZjCI7WEvZlFY2RXSyjIxD0BpCLdyWIVzyPEepdUCWqIsAReqWIv5msbWSGmk7Nt0N05BCCnQy0DbVJOU6BOyj0QivJVGyA9u2OVIkAKbX0WtsipZdcjunaLImWku6DurfVjN8CPBlZIMM1lNzIev97Wz8QdEqg3uNyxLRSAyXv9Fnsf3PuL8Dz2QHWhJBPvyjW+ulvOaTpQ81AQ9/uJvMdFkvqcgPU/swKocbDvz0XBhRnDNBUzecoLqfLbU+tgzjuddKM2gEYDKgMSVcdxXiY3OE2Oivlp9J3ZOrgtwuqEBL1yYNF8GAWR/FoMFRG2nQOAmunZKBbzDAEW+920Yx35p1p/fwc2pUrESs5K0gonICUdFYCjyybCkY4HTeUXVHQk7+YvFcRGNxXP6mp9dJ80xuKP+9/g48m3agRQB5s7j3sFGt1PwkGaQqnkRYnBIr2U4dIInE4bpkwwGcI6+6447yYlQcR3ONsBEVNox09brNv0AZQasILjX5UHsx6tk5dKYU/ekZ1zpipKuhKLDhGamkOcoXkiNHSp05zReWmWqTlBJTtEiptzbrrQuSSKrkOfw+ulJ+n5L8aHKm7gbUdCGMkVq6BAOJRAqXv/nUzCqeTTe2fy3+DizFDrQEIB+66/v1ThOuMTLbQpGOTqsJxJTLuLI3IxDhaCgQgGVZighpsLTCGuuWGknDpZtF9zgLycMRZFPNU9Jd7SauOmvYBINqeZL2kuHt4rY+iu5qHA2KoFPa/5rrpxp86yYTBLp0nQR4PK9W2HXVHKNMcwMKJAlA5XrqkiOd8it7tIZ5RZNHpRpRy9Gzqss2DHOTuOItvsHrUnxI/DWW7w60BCAfvP07ym9RUaxN82n0B58BRtMgqgbJtciARF11MkQxxlo/2Ozwzb9Gj0xqSQNJAKkNIDgRrxvhavDT4mzdh03RpGakdS1TapEEXKKr1CCs7du4ptkk6JZT0CbAGsG1gF2+EChtJ9DU6bI2sxDxt67NKrDXsp+6sr0h/WI1p5p5wxG5ckonoI3HE3jFVX+8fO9s/8r9HViCHWgJQN5367dUtEVaQN0Vo8kN3YKnpxsGEFSmsZYlnSMMlCSbMRuGEHUgUpsgUaFEaSQJ0k7bGoC1nOjEPdNptP45ASuPolXnIA09DTCT1xGJRKCtan5NJI2upTZAWN5BLHVjPKxoHSnF5vpifbKjngfeVLJVQnZ9PlTH1F8OFPXSSkw60euUCxEBbiyRxCuv+pMluEX8JfaFtCwAACAASURBVPwdWL470BKA/Ml3b2C2t9kxh4CP2Fax9VL2YuztKNEeAYe8h1LZAEeRLBpnkkZGDTBINtuA1WWMKpXVz+s+bxXQiYu3vF+nyQ2/xob3oxZg12+P+uRDGeIllYIG467X4yhRfRFoYkXiQTlBEodTnVOYa0ftQf3pRs2RywVSv2QjDBWdaoKpHkHWQ+96CI5IPO4D5PL9XPtXvkQ70BKAvPubX2GXb67bqa4QAiTqOtGSmwaoEGkiOkMdjdFrKZq0mO1Wcp6maIlAh4kebYnGmkj5t440hSXSA7m16LrRp6T1g81dKSyfIVF63a2nkd4SJtHVsJ6xqQ2QI96AwXXM5ge7k3NTD831VtIix+FygH5w5w0L4qW/u16vZMMNkTBpgot1oMroV3/xyJ6KzjSSSOBVb71miW4Tfxl/B5bnDrQEIG+74d8ZnKq2LSBHIMkTDhX1quQ6JxIj9Tpgkwia6oQiOBexOLuHE/AoFlzLYggQpYdbgaECy0Xu4Q2OqP7bl2hNIsw6i81RLPnr6PEMokVkYkdHkIpU0lpKhl4FytoGTYM1rU0ASgJxAkSxLmuSEOm+dT23h5dSLkaLZtYIwPOcHTbUEHCkRyyZwqvf8Z7leVf7V+3vwBLtQEsA8q4bvyRuOMrMlXDJrtU4quR+ZAY3ibAsK4igIR01WjOoP/QcQZF+UekAm8kN26EIVYiK+jAuBVp6r/QMmqBJXSzKZFaZOzDI1KVGjeiVjXl5HernI9sfNSNbRWvcTqhaJrWZRHMdsn5s6htXRAuBIUWOdM4iGjfhqkiSIkeOShVTzqCqRrmy/EiDp/o5X4caLEYlCV2LjcYTeN3Vf7lEt4m/jL8Dy3MHWgKQN33lMwhZIZTLFbbuIXE1UROhkMUfaOr+4F5kJjIcmE3T4xpRpJA53GnC0VKj84YYZgIcMXKQzNRkfWIjwtPtgfRr1t00Ir1hFqTetUK1TXpfkIgaZpXVjBw2niCzDHm/7gUPmRZHkqTVlCC1UU+ViLHJdZylRAT+FPFKxCi1SpU+i4yyPsGw6RLl7lS1Rs34c4eRclfXIxrYZ9IwEE2m8Po/+avleVf7V+3vwBLtQEsA8sbP/RNgkDuPREoEPuLcJWlwyLJY69jcJkhgyK159YmAyoRWhI71fm3pPpHnuOtFmT7oNavVKqygWV+Hj8Fcj2gsda2PQE5Hqs3tiPqcdDSra6MCvh73XOtUW6fzi4Z0eU69d5uet6wwzJDFqm4RjDv1HnKdLmvXW/LG1MfTrZAMwLR52tpNz9hROkqRKXmcYr/+mvct0W3iL+PvwPLcgZYA5Nf/7e/lQ+0ReSF9yM1AQ9EegRLJa/T8ZwICu2qjSiYSqr9ajyggA0QdP9raIFf5KMr4VxFeazMLei3V/LR2kUCJUmMtrpaoi6I46cfm7h0dvqkecY5QHRkny+QNFVDVADGWBamUl15Xoy4Z1+Gaq+6moecp0qVjZpMZhMNh8bNUzkRSHlBjaE+4F+m7hKzg+Boonae2RTVtR5ueUfQs4CglgEQqjTe+5/3L8672r9rfgSXagZYA5Fev/7jyLCT3bjW1kHuYtdCZgNNGOp3myI5BhYXeMi6BgIGjMqJGlOlsveOEtISqdZG6XeihpTPCQktkyOloAKhWbT6XWCTCAKajSGaAqVe6VuOIVtcRNRBSJMp8CrHQroNIOMwZNU9YVMcnYKzWarDtKq9dKpcZ+MOhCCp2leuu0XAE2XQakaDFHpjSAENieBMWp/Xym5V6ogA9/Vmj9SrVuvRJM+h6H3Q5QVL/IJLpLN783g8s0W3iL+PvwPLcgZYA5Jf/+aPKfKKh5aNIjNJTSq1Dyjy33k2jNIrceqcAiQBCPBPFhZuBQRXmOMLU3o5UxSRwrZEJhqSb2uWWgLNak57qkGlKLVEZ8pKrjkRf4tDDOkdRZErtk+qcNRo92zCo5QhVeBOOGIvFEhtHMFBWbRRLJZYnUU1VuGoPESuEZCyBVCzOoEhEDUW98UiE/01+mNo6jb4dqL2RviBoPWlHFAacgFmPlSWQJ8Cm4xABRc8RQF71lx9enne1f9X+DizRDrQEIL/wTx/h06UUk6KkaCSKMEVPinfQ0Rr/W7HJXA+ktJlrkJL6ahsyAslqtVJnbCWwE79GBiIe+arGx0ryqyzTDLYXIzALW+Jorjv1KtWqMNSatSYRu+PBDIVRKhUlKnU9BnTuy2aQtdjPMRqJMNDm8wWUyb7Mc1G2q8jl8hzBRiMh/jIgAORyAkWolMpbVIsUoE/GYvyasBniqJYiVwLlcqWCKnlG2g6L5VlH6bockTKjDSBkhtlajYT09H9hy0I624GrP/h3S3Sb+Mv4O7A8d6AlAPmNz35S2gUpMlM1POk7lm4ZjoqobscgRKSF7ln2EOVUVnk8uip9NjwmcAQ0BbhqigxptAY6DGYiviajWnHWrVTKzIQTUIvrN1mSKbfveuQpgnTqiy5Taq3kSVJn9Jhkop8R+UPnRu8XuRJJlzwUioX6aAaKgOkciMWn40WsMErVKgMbpdg0noGuNxGPSxmCIuugyREhgbbtOCiUShzFUsRK9VExBzb456FwGHbN4f/Iyo0i0QSl8e2d+POPfXp53tX+Vfs7sEQ70BKA/Pq//aPqgmlIcySidDG/MM8msOToTaBDPyMPSB5LwDU+qUnSf/MLc6hVPfT09ogWEgZHgxRl1RybQYIArFKzJf32PAFAGsLQZA5BaS1FkBRxEVBSWsqECoE1gSKvV+OxrkSOsGWZJwBFgCwsfICjR3pPuVxGlfuqxduSrcwcmwGL1q2UK0zKEKgnEkkmnaTTxkAkFGIgJ+Cj2ieTVYEgIpEoyqUKypWyED41OmcL4XCEU386LwJvWpOuk45P9c1YNIpUNIrO7l789cf/ZYluE38ZfweW5w60BCBv/Nwnxf9RG0AwOpLi0cVCbgF2rcqgQg/LCjERw62DBpBbmMPM9DSOjIygassohf61a7Ft0waZgAiRyjCR4dSYCKnaFFHV5HhKEC6aQzqG6BxDQZOPRTVFivzIfJYkizQWQUezdI4sCQoEFkWsnC5bFHlq93IPxVJR6p0U3xkUqdpcP6zaVdTsipjxuh4i0QiDOLH5XHMMGBxJCnMeQCQSYvCm99LgL1qXroX+TgBJ76HBXlRLpQfVWvmo9GXAddUAktE4VvSswEc+9R/L8672r9rfgSXagZYA5A3/+vfcpkcfXiJQ5nPzLKwmZliAS/SOYl6rPR+BWDiEJ5/ciVg0htz8LIoVBwWbhOIBvPDicxAwKPIyxTmcoknHQb5QlA4VZU3WrKPkVFjZlgUCHsIUvZmkvxS9oSZEdOremGAoaTTXSlVbYzwSV4w7melWOYUXoqaISlVFw2y7Riy8zaBLAB2ywsqijJhqE0ZAhN0yKyfAkTZHiTINDHa1ygQNATJHxKbJUSlYPxpSWlFK+2kvlHcmDLR3dOFfPn/jEt0m/jL+DizPHWgJQH7p0x9lYCyW8tJySIa0iqEhIoSE3pqVpnSXo0fPwbGjB3FsZByBQIjZXwKaPHXjwERnVxrbNm3klJKXMijKq6FQFIAkfaTS30hU53pM0DCLTW7dAdE7EsHChhFsttvUfqjm32hHcMIrku1QpEnAFA0TsIqrEAFctUoSHxuVaoWjQyaGeP4M1SVpJC3VTF1YZpiZba6h8nlRrZSIGUMAW42L1VGh6OLp/TWRARGJpSVPXKYQoKcvDTouRaN0fpm2Dnzuy99bnne1f9X+DizRDrQEIP/hg1fztCnyc2RXbgYfAkIhJdhAllNFPRbWRaVUxMzsBI4MzXLTCGXH4ZCJUrUMzwsik47iec/ZAtMkIkba/yitpdpexRamWvs2Oq6IzXUqTtIdFl3X51dLPVPGcHHxclFUqefKmCECNiJtXETDlAZLHzQ9qC5JIMgss5pDw2k/y4pqdbkRGUqIA5BIdnR/NUWyUuekKFJmakdjMY4gS9UKd+1QxB0OhfkcWR7EYnjpE6d16T3EjNNzbdkOfPWbP1qi28Rfxt+B5bkDLQHIj1/7DiYgWENIAECRkMvTadQoAyI3VDsgddHZLubmpjC/MIOJiTLmS8RsAyYbUZAW0UQ8HsKZZ2zhaIxlQIYYQHCXDAuuA0xsVCqUolaVc46AMIExpbsyh5t8JmVONiEPceqU6lKEJ+NlRWxOsiIy1KEoTUYviBORrv0RONFzrImkdJx9H6ldssLnVK2QLEf7R8qXhe6eafam1H3eFBFTpEhlB/0l0pA+NcZLEDBz6k895MEAotEoDy3LZjtww7d/sjzvav+q/R1Yoh1oCUD+7QfewRIX6RkBwpEwXE5Dhclmc4lgsD43mkev2jaKCzN4fN8QyjZ1nVCEKF0zFO0l4yGcccaAAjSRvrABBBEtHLWJJIjqdRShalmQNo/Qo2RliFajm4UiNToX1lVqm7WgDO2qVgkcpedbIjY5f9dzOLLTgnKpV0opgWqP9OChXwSg5ELOjehSTzQt8ZQk0CW2m5x9dGRLjDmTMrUav6dSoefFiZ1rp7QG+z96sELSy84yINdDe0c3bvjWj5foNvGX8Xdgee5ASwDyw391JX/QeWYzyVlCFkwFBAQCmgBhwPGA6ZkJVAtlHDw8RqaLCvjofUGUbEorge72JDZs6EOIyAvx0BEmu6ZlP1LX1MSM/rueg63HrVLkSKJsK2SCemfCYXIYknZI6gVnploNAiO2XU3l5mNSxEYdPiqc5NSbgV5dZ6lUUo5CSuTO82mpn1rSbHFNp/bHGoKmTEA0GHhlXY5ugzJETL9egLKsSgvS+SMgSe5IITkvGOjs7sF//pcPkMvzY+1f9VLtQEsA8tr3voE/4Lq+xoJnitwM6RiR6E4iyZm5eYwMDSNfIOlNCKZXgu0EkGcckrrlxjVtSKQSSCYTzPaKDVmAU1tOp+lP1fNNNT4ZryrptW4/FGKlyim/AIsrrj8EgXokghKB0xp0/gR81NGiB4nxcDA1dZAAjZ4nQOYpjMyKO2zvRg9tkBEwJcWnBwOfGYTLg60p8q0oZyCr/vsVwqrJGZ3t1AjAhcziXaFSAUukxD4uHA6hs6MDX77RT7GX6oPir7M8d6AlAPn+976eIx4CGpGiUL+xwa16OtVlsAHp+ypAzcaevYf5uWLJhg0xhiBpTjJsY+2aXqTb2uFQNEkRlgJD6johMKlUhTmWFkUX1UoNpkUej5L2kicjmfVq0obrjzQjh3qZuQ+bWhKJxJFebjGEEK0h90PrsgCt51YZMCn6s22uqjLLrtsnAwHu5la1S9FmBo0IC+MpnWfw5CychoVRrt9g0uFJtO16NgJGCJ5DciEx2OCuJEUpsScltSHWpBWSjH3bO3tww7d+tjzvav+q/R1Yoh1oCUB+8C/eqOp55FAjERh9qOkhEhUyexDpD9Umjw0dxdh4gYmToi2C6fVr21GtzCEZi3Iankik4EE6UFj24hGzS5ZkUqckHaRdKWN0ZBbxRAjxRFTJh8Rdgthoei8Juc0ggZDU74SUaUwO1ASINsTQM19koiF1+5DZBBlZ1NS6FOoKscMpN4EexaUGUCgUxDsDQkgJyNFDZtCIN6QAJKX8BHhUr2W7Nu41FwWAaD6VyS+l2HQISs0hLY20oR2dPfj6d+5dotvEX8bfgeW5Ay0ByPe9+zXKwozIGOXWrbplWKJCH21uy6siYlrY9dQ+VCsBzBYotHIRsgKIRQLY2p9GOBRFNGrBMoM4fHwamUSWa5RVJmWoc4X0gkG0Ry2Mjk1i8PgCeldmWHTNXTSG1PR40BXrJ/UkRWFk6rZhikBiNpkkQ7rlUXVL8oAwjjSJpSbJjXT/iN+l1BApdefuHruKaDTMJAs5ApFpLkWGxLDTWXDNkqNaOgfp9GFncSob0HpUh61RFCwlBnFhlxqrTHsMsDhdyhjiq7liZR9u+KYfQS7Pj7V/1Uu1Ay0ByD995+XSNaLcZ0iawoxrQPwPWR/pedi0thfdiQi+f899mF4oIl+o0uwEGC4Qi4aQSgbQ15lF2XHYdHbX4FGce/pGuOUKd9hMzpdZevM7Z25C1PJww50/xZoVq/DQniFkslEmeYIBIWGk75rSZxnXoOt8BE6UphKIUlrOJ8gSGhNWSEgREqRbZoSlOx6kQ0bPwyHLMz2TmyLCcCQEImuoLshTDake6tExRNguJIzNbjylEqXrpBWtcUmCvjyov5wNPbwaC8pFUB+AQbVbskDj8bcEziZHmiJzstC3ao0fQS7Vp8RfZ9nuQEsA8s+veTW30OnBXYpzkFSSRdMuMjETzz19K/Y+tQ8P7T6C/rXd2H1gCIWCi7AVQ8AqY8PqLoRDFqyAhwNHptDbHce67hSKFaBaKWO2GsSWrg5sXduFm3/+KO7fN43OdBQTs2Ukoza6ejpgKaaXiCEhhyQS1HVGFrBz1ku2YUG4cNgxh3SQJqWxQRKEV+WGYQcfj6VEJNAmwqlYKAm7Td1CBMCekDZiz+awTjGXI7cfaZFMpWPUes6GF5lMBnNzc8L4O+RGTkQWjXQgaZSJcpnOuaokUwSa4i7EdVHH4a4ikjhRjbWzswffufmhZXtj+xfu78BS7EBLAPLPrnkFDC/IH2KKfFgizpZj4odIGLmmI4WxyTHk5/IYX3BAT41NeUgmTGQzYUxO5pBKmVjb24bxmRJGx4vYvjGDx3aPYd2KDKZKJbzsvLOwqTuLoFHDTx4/iCePTWNqcg6mFUFbexqGQZFZGAhI6yGBH41RYDzk2ddS12NRe5CcdsIMXASq1ELIrYjK8bymJD8UWdKjWpGBZDSYjCLFUChcF4dTLZGuMRKj7hsbuYUKPJeIFgPxeFgZWchkR4oqCUg5GuQUmtanczSZQacoNhSWemOpJEQTaTCJkeeI07bZ8KJ3xWr81/ceWIp7xF/D34FluwMtAcg/eftLOO0TU1t6iB8jj1xglriGVCiAkFHG6rUDePDRXRifcTE/b6N/XQZj4zMMPs/d0ouFQgWP7c8hnXS4LjkzH0B3NoxE0sOF27dhdSbOxrd7j83igb2HMDk3j7WrehALxTCwZi0ePnIM1WIBDii9lXSWbMs4ICQzCRZcy+QDcdWxmXWn+qZL9UGehEgAzypxrp1S1FYpk/EGjU4IoFopMWkUCod4bUqDqX7Ix6oSEFKaDxCfQudALDu/RonCuSZJr6HsnnWYBNokaPcQikh9k8bjEkDGYmEZ++pIbZPZd3jo6u7Ft3/w8LK9sf0L93dgKXagZQDJdT+l2+O0lvR7KmoLm8DWvg5Mzi6gVLGRq7jYtW+e2eGV3RYmZqsY6EtiRXcXfvbwMdi2gfZ2kdXkczW0pZJIJaoolAI4Z8sazC3kUa452HNkHiu6o0jG0whFLUQDYQxNLsAL2HA8ir7EIo3OhYd28chZGWVAD0rnKVIkpxzyZqRebEf5RhLgU2mAaquUThOZwr3SZPCrhOYBopc9D/PzCyzfJhCjPynKS2diCJoGyiXqH5dUmdJ1M2BJJ1CNqWk+D9M0EDCF9CFSiWqQVthEtUyGFzUYHmlBxZyDaqy0v53d3fjeLY8sxT3ir+HvwLLdgZYA5NvfckldwMwdKkxOBBhs4tEIauU8ztnSh+Pj0xhbqGI+V8TEjIntWwbwxK69SMQNXHD2Rvz4vgMolKljxEB3p4m5eWr/s5BMVBBEAulsAAMrezAxOY2RqQVMzrnY2t/LWsWxyVl0dWa4PmeaIRRKRY4UqStF6o/UGy2dMIRL7DZuivic0llinEkOJGNiZRwE4T1dC3e3lCvs9VgqlRnIeO0yDeoqc92xUJDaIWX0BGrEaltmiA1xiXmm45B1W4ncilyKUmVCIQ8qRBWmxUpQPj86Dp0A1TVtuwwraAEBk6NMqlGWSh46u3pw612PLdsb279wfweWYgdaApBvffML69pAmbpHkh5inKl7JYiAW8FATwZ9XSk8edTGEweOwHXDKJVLeP4Z/ThyfArTs2XY3B5Ng6+AWMxCpexyD/LpW1egWlzg7pHNvW3YN3gE9+45gnyBxOnAQH8Hp55ahM0QRf3e7PjTmOtFQMjmudRdY4aYYNF6RsNzEYpEWVspc8A81l2yMJvAqlzl+irrMMnD3BELNBmjoN3HSbNJDLr0cQeDytGHI2oCWXIop3SeaqXUikg1R5pdE0St4iCTTXAkS6/jls2IyVErRY3livR5V8sUqRsCkD98dCnuEX8NfweW7Q60BCCvefvvca2uXKaoTVhjklh7rmj3LK+GgBnG2f2d2Decw0NPHsPlv3seHtl1CCNjJdQMqhFaIDyzAiLJ0XpFkresWmkh6NGoBukkGZsqwvEcZDNZjuzS2SS7cFM6Tf+m1Fan/CSsDgSlB3ohVxIQVW2JYmwhom+2HuMeaNEhUiRac4TBps6VRCyKYrEMl2Z/U9pu0PUSYWPAsUnUKPIcx6H/qN5If9qwwiQ3EsPeWo1qnFSrpZol1TkDsCJVhFRqT9pQAlX20jVIEG4jaEWQy1W5JMqmFzaNZgiio6sLN9/pR5DL9pPtX/iS7EBLAPLtb3kRM9ZUW2MHG9b+VWAFqF/ZxtlnbMVdP92LYrHAHSSpaAwT0znUXNFAUpxXI58HAwiT55lybqRojCYExuMVZFIxBGEhHjYwPFHBfI5qh2RuG0DviqTU7owAR6U0VZHYaU6jLQ1Q9BxJa0iiI0YR5OStHX3o31ZQUm1q66PZNeQ5Sek0tyyyKzp1voQYKLnmSIjOabxifchQg8ZzB4TscVwiqaSLRjmrKQ9Lci6X+TZBUyzUCIRDQQJPl+ucDNLUx2OTlZrNs214IK4aeJbKduAHdzy+JDeJv4i/A8t1B1oCkFe96SIGRTaVpTELrocEtf6RdyKZS1SKWChHYXgVzM5RJwoRxMpMl4gUrsWRLAYIBUVbSOmwXTXgBoBM0kMqEUYo6OJFz9+CwZEC7t8xCJrOEAhY2LalAwulHGsVxcqMzGeJ9JDOFJr7QqBDXS4EqDxNsEamumq0K5tOGHBrFYQjlpQIKsRgy5RBGvJFg7ZoyqAezdqwKTNQrch8aya/CToNku7Q+uw7Li2EbDqhwDrgIhYyWftIYFzM24hGqP1RjHkJwKkrh5yMCOgRjCMVNhBLxlCqVFEqlJDMtOGmO3ct1/vav25/B5ZkB1oCkG/7oxcyKOm0VlywadwptR4aMGplDA4VkM1GMDlJ2r+GlMYmptiTeTYUebGxGQEoTfKzxbChLWuwycVAXyeGJ/JMwlSL8+jp6YZTriIaiyIQAios6bFRrlBrIBExJDUiVx2ZWEgRIbUiUl2v3tfNykfpoCFgZmkSeT064uZNARtFbwSSNOaBxOJkmUZRJZUCSiXSPFK0SEGg9FFTfZJrk0YNkRBNKqRBXDVm0IWlFmf1mk17ISYZXF+s2GoWdgAB04TFtVwyBTYQiVoIWwYKFRueW0Uq3YZbf7h3SW4SfxF/B5brDrQEIK984/lAIIpSpYywEUAoFoFNEVDQghFwkIya2LN/ViYdOtTSR4JtSlFF/kKRI3eVBKRvWrSBNPpU7L7CFgFJjYFpIe8h4NawYWANjo8OcQrbnY3BTEbgOS7PmybTCFqUwC6XK7JUh9BaBmwRsEntkVhi6hRnqzMSZLO5LZ0XnaeAXCwWEsLJDTLBw5MFSZYTCDKgVWx6LYm45ZyJTAkaQcRiQtjQ8ZJJGvFaRjQSx/z8HLKZFKffFB2SVKhYpLGxUTi1Ku+FUwsiniDG2uE6p10N4nnb+3HgyFGWN9GjvaMTP7jDjyCX6wfbv+6l2YGWAOQ7rroUlmGgNJ9Dti0Fu+ZivkhmsjT/2YRLYwm8MMbGKiysjsZJCkQpLbe4KFkNAZLoE9nL0XbheDLbJRhwYVFDSo3kP1Hk82Xkih6vXSlVsHljG4qVKg/oIhWP69HCEn0R2VIuyTgEFrBbBKClumluJBzgThoiXiiNptd5no1YLIaFuUI9oiOWPJ6I8/lTrZXn7lCEx67iLmLhMA8ti4ZCCFkR5ItFjoK5jhokgblErqS5rFSIcaf52LSM+F1ygs0GG1RLJXAXrXrQC8HxqrAM4s5V900whBWrVuHr335wae4SfxV/B5bpDrQEIP/5Y1eiqz2NW3/4YwStENLRMOYKZVim+BrSKFSKkqbniIW1EY6SwS2JskUOQ/pEthsjUoPTbAITj+SCat62ElQHaVSDi3A0iGrZQThKs1scnLF9JSp2jYHG86jjxUQkFGGDDCJtyHcxEg1hYX6Bo0dirAm4uD5o0CgEMpEIIp8rIJNNw6mVAcOCRWl/ELDJf5ISY4oiHRrvQB0uEV6bXHio+JhNpTmFJyClNsNcIc+RKYEudcVQjZI0lGGe0kjRZxmxeASVsg24Njav7sOTg8NcrSRATcZCCAVDyFcr/L5UMsrmFRTBUqrf0d6D79zqy3yW6efav+wl2oGWAOR73vo7KJXy6OzsQsgExqenUKm4KJTKDDzUuhcxAyhXgygUybVG0t0qB3bKUYemz7B2UeYPOm4ApDikSDAV93goV4nIY3q9QS2DJpIRlychtnckETIDPO2PojYx7JU2QyJk6ChkF0aSIUqTqbYYZK9HqSFSCk4CbDKWIHKH+7VpRAJJh2jUqmXhvNO3Y9XKbgyPHsbeQ6MYGZ8VYwvSPao6phUK8mt7OttQLFVxeGSKZTtSWpB0m2qLJEgncTu3D4aIFa8iGqYUnuZfy8wZimQTYQtlmnXDHTrSFRQnOZLtoKu3D//1vR1LdJv4y/g7sDx3oCUA+dl/fAvue+hJ9jCkyIukNaV8lXuwqaMkGbKxem0/Dg9PYGyC0kuSz5goF4WU0XNhSC/oGDL8S9uT0a8tZJJBQwClCrXxSTRJBFB3u4kXnPtcPLH3SW7Fo5ZASo25ZsgWYUFUqjSiwEKEpgF6FVTIAIJmUAcDFRXfWAAAIABJREFUqPDr4yjnFhAE/T2JHI9pMEVoRIDluXj/296KQnkBE7PDGBo6BhsO5mbzOHP7FkSCHqYLBorFIjas24Tr/+PLOOeMfmzZ1g8rEEHRnkE2uxq33v1z7Bueh8OdMUQeSY82RcAE8pRyeyAzXoqkSZzuIRalzh4XhVyVo01K7blX3A2gvYvcfHYuz7vav2p/B5ZoB1oCkK+7YjvsGrXuAYloDHO5AmKRKBIJoD3TjYNHjyAeDSFohjE5ZSMUpsjMQClPMZwwxdraiwBSj2mgSNIyaWgV0Ja2UKhWkc+Tia30VndS6+HaHkzMTolMx/NQLpUQpLa8sIw3IA9Gikx7MwkMrO7FeK6K42MjLAkKBYPYvrkfhbk5bFy/GgcOHkB7WwcSyQSqDvnrVNDdvRLbN27FL3b8ApOTU4hEY1g/0IFKMYBifh6VYgWhSAaZtjR+8cDDaM+GsKG/H/l8DsfHj6F/3QBGR6eQjMXQ09OJnbuP8P7kigV2IRofm0ZbNsPs9NDYBBceyZWI0nJKzynqpDPRw8+IX7LCISRSKdx85+4luk38ZfwdWJ470BKA/P3LTsfq7jguPu88fOeun8EIWlRlgxuoIB7thFktYPOWrXjwiV3wDAulAmWdDtf2qLNEtILC1dSIrtBmEmYAqQT1Y4fgOiU4xGoHHZTKYSY3utrDiARLoAohKWwoPSW3cYpIqUZI5rY8A5uiQhh4wekbkepcidGjT+L4UA4XnPdcHBh8ErGoiRdd9gJUih7m5itIJxKYn59BgtzMHQeHj+zH8ckxXHrJhRg5NogVK9rx5N4hdHWtxC/u34VipYB1q1ZifGwe559/Onp7q5ibJmE6eUyGkcvVsHZ9F9yKjV379yCeSKMtm4VdLaBUEnlRW7ILD+/ehd61a3Dnj3/BUTgx+uFwBPl8gdsNw5Ege026bhDZ9k7c9iOfxV6eH2v/qpdqB1oCkO9960tRKM4DHhEwZNxgY9vGFUjEatja34dEZh3u/NE9mCs42HtgVlJq9oQQj0b2aiT9IP2Mc1uPHcMzaQunbx7Az3bsRQcZz6LCDHChKAz3toFV6EyH0N5mIxqKwanZGB2fhhskd/IUBtauwMTENEanxvCczVkMrNuOn997N0amPFxwwbk4cmQamSxQyhdxdHQaTi2C07efht27Huf3R+I5lEuzOO/C83D4YBERq4rBoxMsQF+/thfzc3OYm11ALNrGwDU7V8BZz9mMSDyDSmUa+w6No68nCwNFxGMdXFcdGjmMTDoBFy56OzsxNjYJIxChq0fQMBFPpTC/kMfOXQcwtVBiYqbiuoiGoygVyxxZVuwSurpW49u+m89SfU78dZbpDrQEIP/winMQiwI9qRgyiSTWr+5HKBLDueefj69+45vo6rDRP3AW7rnvYTy26wjsaoDJEHHWpvhR/uPpBy5pER2komRYEcGKnh48dXAEAa/MZEomm2RXbtIRdna0o2zn8LrLnovdux5DLZBGT28Ehpch80e4ZhWnb+zBT3ccRm+nweMZ9jw1hkg2hrZkGds3no1bbrsNA5vX4O7/fgTr+8/G3PQUCgtlxJMh9G9IY/eTk+ju7UB7exe624MoF6aRr9Swcd02jIzMst7x8PFhuFUgnba4g8gy45iZn0JbykChHAWcPGLhBDyvCFK0hy0PXiCIfbtHsHnrWhhGFUcOD8GMpDA1lcOGgR5EzBSGxqaw/8hxHJ2eRYAIHiPATj+zs/Po7O3D92/ze7GX6efav+wl2oGWAORdX3g/tmw7E1//9hewqi+JkDWAzrZ2wCX/xxA6e9OYmJjBQ4/txuP7hxgEyRaMPRo9l3uySZJDAnEiaLLpICJBkvOEkV8oIRhJopDPI50Ic3seteFZIZHZEOf9/O0bMDc7D1hFdHf1YmxslJnqTDqKvpWrcWRwhGdwE8HR1dWBuakRbNpmobtnNfbvOY6R8eMYnfIAp4RkMsUpLZ1KJBZAuZDkeTMb+vvww58/iC39UcxMhBEIeUhnQgi4BlLJGGKxDEzDQVt7BvkcCcBpdkwEQ8Oj8Nwy1qzqweEjw+hujyOTauf6KDmHc7+24bImskxMu2Hh+GQBHe2dGJuYQKU4h4pj48jxeeSKZe7NpqpkMtONW+56YoluE38ZfweW5w60BCB/+LV/wKEDj6FYOo41/Wux/0AJ61asw/q1azF49D7kZgOYLS7g0NgYRoYXaAoMYEQYHNgQzJUuFHl4yCSBzev7MDY1gdm5MopFFwEzgliUQswqrCCwqm81pmdmUa6WOfWMxwmkooinXExPLACuiXQ8hhdffBbmpgsIRV3sfOwp9LX1It2VRbW8gMsu3Yaf/ex2uIEMznveizE4NohDhwcRMbtguAs08BVF8nkktqkaw70P78EZmxJ4fPcxvPJ3n4ddT40hGk5h/eooojGXJyCGzTTaMzHsfHICh4Yncen527Dv0CFkkp2IRmxUK2J80beqD5lMGk/s2o3Va3sxPDICt2ajp7sPpdwcQtEY8guziMey6F7VjZnx40xGPfz4CIowsLJ3Nb76HZ/FXp4fa/+ql2oHWgKQ9930SQweGsbE5FGks+2w7SICbhSbN27B8PGj2Lx1G26/41YeVVouB3D/k3swOV1iNlqm/IlFGpEzFPl1Z02cvrkfuw8ewPRcCa5DwnGKuFwk4uR0U0N7RwYLCzkmUUiE3tPTgUqlhGiMhm55cMoFrFy1FrX5HHpWtWPLujb0rV6JvfueQKVqoi2VQSTajmphAnOlgzC8fvR2d+ChvbsQqJXhGibmcyG+lrn8HNoyYWwd6MDOR+cwOT2Kc5/zHOwenOQOn0puGn29XajWgLOftwXlwgSPlPjpjkG86pKNKJYryBUqOG37BoyNjmL7tjMxNjKBmlGGXXFgV6oolspsbpHtiCKZSGL8+Dji0RjLlyq2jYViEW3pKJyqg7GZAsKJdnzis3ct1X3ir+PvwLLcgZYA5KF7v44HH9iJ884/l3V9kVAMN/3g+0i1p/DU/icwsLkfyWACs/N5LCzM4tBoAaF4gnumj42Mw66RLtBkNjcVi6C7I464FcTw5DRm50XyYldJAE4uPQay2RCqVRq/KtpBxw0imQij5lbR0ZFFIZdDIhFEmd4Dh8XcZ21di1UdWZTs48ikVyFopNGRTWHHjkewsj+BRx85ji2bN+PQ4MO46OLn4+EHD+D4fBUHDoygvSeLs09biUzCxuERossLcIsWz88JBaKoVhawsm8NwqEQensrOHjoCew6ZKCYq+HVv3s2wtE0piamsW59Pw4ePYb5uRw2D/RhPp/D/qcOY9vWzcgkYpjNz2B4eArxTAK1UgUlu4w13StRcQzEQgB5W+49cAz5MgnkQ7j+G/cty5vav2h/B5ZqB1oCkN/6329GW8cWeLaLPYcewUte8ofYv/tR3PfEvdi09rmoVI9jVXcHJmYnEQ/0wrNyGJrOYXiERi/McdcNmUOQR2J7mrwdXbSnMphamMPkJDl8SzcJDdwiUuPggUOo1sTYduvAajx1aJhny8Ri1KVi8OvikSoQSHA3Ckl8zn3uKuSnXbQlOxCIjGN2xsbK3gFM58dQyM+it6eNLdms4Dza21M4NngYu57KwQxHYSOHtlgM6Sz5O3bh2PFpbFi7ArOFGhLRKmpGBHv2HkIi0QXPLuLxp46yYL1SzOElF21DpVBAui2N0dHjuOgF5+DQwRFY0SiPYUhGpTd8dm4Bp23fjB0PPIjO7i7kuLsmgbncDLKJCGZmbBjhMC678BzYTh7Hx2bwno9/d6nuE38dfweW5Q60BCAfu+3zMMwQKqXHcWx0EsWFDqxb14cDR/aju70PY8OH4Bo2ZmeK2LZ5Mw4fexynn3ERjg6P4N5HH4XtRZDPFXm0ajqdxopsBgdHRhANm4hE0xg+PoWKHUA4SDOsXVSr1DIYQFeHiVQ6i0ODYywMj0TYxAcR00HUjOKs7VvQ01HD6OQotm0+A5VSgZ1yrBDVFvNwvBgWFgaRza5FoTKFZNzD3Cxw2tYLse/Agzh2bBTt3Z2YmZxHX18nZosV7H1qCJs29GJyYgSnbz8b99//AIxoBuPjE+hffyZMq4SdjxwEzDDMgItLn78VQ4eP4IWXnod9+w4g2xaDW7NQrJawoiuLihPA1PQMu41nMxlet1TMY/3afpQqFQwePIJEqg25Ygkd7XGsWrEGqUQWvT0deOEbPr4sb2r/ov0dWKodaAlAHn/o+9izdyfy8xVMLyzwWNRsZy/mc7Nwa0UcPLQfl13yCnSmPOw5sg+zc1PIFz10p/q4fe7xQ0eQSLYhn8shFAmhPZnikQ37jg7zbOnp2Sqn0W0pk5nvXKGIeCKKeCyKyekcWety1EmscMwM4MzTViEciWFubgih8By62s7B8JH9iMQ6sHF1HLsOTmHNyi6USguwrBiOHD2Ec84bwKGDk0gm45iddeEFKsjl59HbtQKJRABWMI09+w7ANYLY1B/Hxg3n49jQEHYdGsVTg9OoFIs4a1sb4uEQpmeA8fmjGByp4o0vvRAuDS9LxrB37x7E4xEk4ilYJhBOxTFy7DjWr1uDpw4eh2m4WNm3go2FV6/sxc6dT6BilxGORFEt2Uhk4ljftwa7Dg4hGsvgbz9z+1LdJ/46/g4syx1oCUA++qPPYvDAg+hqT+HxPSNIxELo7I5h974yNvWtQHs2i8npaQS9GnYd3I0Dx/LYtmE9zty6GcVqBbFEChMzU9hzYAhBz0GxOovpKRudnW2YJA2gYWB0KodMMox0PI7ZYpFNHiYmyAzDQSBI5A4ZTABrVnQilaSfZZFOGLCdCRw+PI5N/ZsxsD6BbMrF0GgCgWAF1XIY45OziCcmkctRF04W8CoIxbKYm5rEhg1tGBkaxvhsCYl4mlP9aCiFgQ29GBo6jsPHhrnzJxJKINuTgluJoFxcwHy+ikPH8ixsP2PTSphuDdu3b8L46BAc18bWbRuQmy8hnoxgZmIBNkwcH5vF5vWrONX2zCB27T+KXL7EbuzpuIkUkVMwkIpFEctkEImn8aFP3rwsb2r/ov0dWKodaAlAvved52P96m5s3XAB7r7nTgSjLgyviGo1iIF169jlOxXJIBgPsUZwfraC/YeP4CUXXYBynphoF2tWtyFfqCGTbudIa3ohhz3DEzAdDyu62zG2UESuUEAiHMTMfBGzeZpMGEQwSHVAC8lYBNXqAs46bQ0/5zkVjI5PIRVzcdFFXSjnIwgGQohF5zE9246e7jR27R1E94oscrOzCHjkGAQMjxaxtX89O/tM52aRTbdhYWaWJUWRhInx0XnkFkoc9YWDNmZzRSwUZlCuxVGrldHb1Y5aLYgHdo2wYe+bX30JDu3di4GBASzkhuA6ZLhLBhUpzM/PIpPKYNOmbdi1h5j0EpvwZro6MTU5gbZUGsVSAUbQQTKVwdCxIdQ8cvtx0N7Th2s/4dcgl+qD4q+zPHegJQB55evO42Fcx44VkUm7CBoOaiBjWDWd0KvgOZs2ojMdZwkLmT8MT01geHySwSeVIK9GMrktIbsijYlj09iweg06V67Cys4u3H7PPXBqDqxIjKO2VCaFex8dYgAilrqzLYKAZaI7m8KBI0PozDjYunUj9u4ZRK0SxosvPQ1WIM/mGU/u2Q8P7Uinupg1n58dxIpVA6h5FRwfzyMWDWBqysGWDV0oVGJY3duBybFBjM3M4NyzT8Ojj+xEzg6hO93JddOtmzuQK4xg194anhwcRF9vNyLxJPYfGUOlBLzhlRciZoXYBai9PYl8IY9QKMYmb8eOHsUZZ52FkSOD2LLlNBw7fhSxSBo5KlNUy8iXyujIZlAsLABkbDF5HBsH1mD4+DQy6Q585Po7l+dd7V+1vwNLtAMtAcgrfvc8WGEDudkcBrb0Yv9TE7CiIXiODYKwAIIIRQ145Wm84ZW/hyNHxpHLF5FIxVjDeHB4AgNr25CIxtEWNzE+M4t8KY8LnnMRzjx9O0aGjqJcruLnj+3G0YkJxCJxHDg4xG7kPZ0ZFMoFnlhIALlQLGH1yhg2bMgiGaygmLOwam03Upl27N+zC5u2nobDR0hqY2NggOZtV/Dw3j0IBjJwvQrXEOcLBWQyHew6ND56FO2pKHpXZmAXg2jLpjFfoFkzEUSiSTy+Zzce23cM0zMxbFyfgG1XMFOIIWKVUfMcnHPaCgwPjaOrow2RMH1pkJt5CGc/7xxMjY9wkyU5sAe8GnLFGbSlu9lkeH6uwKMZdjz8JF50yQuw4+GHWN+5enUv931biTZ89FM3LdFt4i/j78Dy3IGWACTNuHZofkoNMC1y6XERsYI8kZBHVNEs50gYLzqnE2dsORc7HrgVASQRQAibBlbCDCVx787H0bdiDeLpMI6NjLDxBBlXvPVVr2UyZufORzA8PYNwOM5SnrHRCTy4ey/iZE1mOzIKwfHQtzKDVDiMgdVx/N7LX437778ThRLNdbHg2kVQG06xXEJvxwq0tbVhdGwCrlvE6HgO1VoBK1d04ecPPo7VK7egpz2IyZlZBC0DXdkEs83HJ6u46Nz1ODo8je6ONnzvh/swkxNLspdcsgbTo+O45IWX4XNf+Q53w1z6vFVYWKggGU9gdGoSXZ1Zrp9OTc5jdV8PCuTUY5molA1upYyn09h/YC/S0TZkUmFMTM8jlojS4AmMj43jtDNWoFiNo1J18f5PfGd53tX+Vfs7sEQ70BKAfM3vX4ByhXSIKYRC5JNYRjzioGx7qMFglxpq2bv4rA6s6O5ENOphZsrG6vVJPPH4owhH+zG7MIG+vl42wp2cKePI0ChqVQtve/XLEA0BE9NzqDpVzExO4YUXXwrHjOCWO+7Gg489xX3P69asRMwiFrwDcSuMTDaC9kwKnlnE4cFxFIvz2LB+I5yyCQQXcODwCIJmErn8NDas68TkZA7r+1cjn5vExLyJcMjAwoKLZIyGgs1icNjjPvO5WRrT6uHg8DiGJ+a5pmjbNPLVwzmnpbH/6BTOOmMAE1N57N4/i9dd/hzU8kUUqgXuqe5IZzE1NYvOngzakt3Yu38ftm7ZiONDx7B962l46tAg7FIBuXwNPT1d6MjG8cQTTyKbCaNYi6E9k0TAcuG4Fq799G1LdJv4y/g7sDx3oCUA+YGrX4bJ8TEkU21oS6fR1WMgG+vEgUMj3BWSSHZgfHQ/j3/dtHkA8zMVJJJxNtANWyE8uW8QdmUa2zdtYHZ2aupBdHX1YsdDBYRNE+lUAOv7N2F4YhhzU1VceOH5+MqNtyIRqWLT+rX4xSNP4jlnnAEYMzCMEtxSFCtWxhGJVzA3F2ItZaXs4NCBIVhRC1sHOrGfzi2WRShmY3zUYfInX64hlXTR3h7Dwmwe7T0pOJUc8sUC9v2/7H0HnF11nf259dWZN72k90ZooRfpCCiWtSsWcEHsf1dXd0Vs6Cq2FVkLYkPdZV0LigLSRHqAUBMSUid9Mr3PK7f+P+f7u3fmMQZJAgxJfHd3zDDz3i2/ufe88/1+z/d8N/Rh8aIGGd0aGM247a/rMTzCIlGIquoUursHcc7xdejoD5FKaGidMhW337cOxy5txva2dhx/4pHo7+8XQ4vQtOA6eXhBCblMM9raNmH6jCaYsFGTa4JmuBju64SrJbCzawhTqlKAZWHhksXIl/oROHQ2yuDSz/3fP+ZdXbnqygq8SCswKQC549FfYvnd98FL1SJwNHR3tqFr2EP7zq1orG+GEwzjyMWt6OkcxkBeQ9piv3FWDdoC0D88gpOPmAMECZxw8lI8/thv0Tc4A/09g9jQ2Y2qjCXtiCcffQwcZwSr127GyMgganI5TJ0KbNz8FHQ9iaOWtaCruxOr1yZxxJI0LKMGLY3DuOPeTsyaeSRmTG1ER08/nMERPPb04/jkv16Ie/+yAr6RQTZdxM5dBTiOh2kzbXT0FZAINGSzNvoHOZXRQGOdhe07+nDEoVNw2z0d2LStCOgekom0aD8N3cOxR0yTmTw9vSFG8h6Saeo9a5GrTmFqtY/hvId5ixdiw8YObO/oxozmasxZOBvbtrSjoa4aXsmHF7hIpwxMbZyKZ9Zv4cRZ1GRMOJqBxiobbbt6kco04ItX3/Qi3SaV3VRW4B9zBSYFIL/6b6/B4rmLcc3Pb8Drzz0F2VwNtm1aj9aGJkyf3YT16x9Hy5QWbN2yGS0zToYdOvAcoGegH7lcFru6hrB0YTWq003YuGUbCv4gGnLTsXrNEzj62OlImvPwwBNrwDGHSb8AO6HhnLOOxNPrtqJ9VxfW79yJ9190NLa2jcB3pmBoaAfSOcXk9KAJA8MbsbNDh53IorO7gAXzkjD1AXh+CzraN6C6ZgZ2dndiRussbNu+C0ccOR1OsQMrHi9h2pQcOrtHUJU28cyW7Qi1DAKvBDcIMTxoIJEMUVVVhWIpj+GhUdTlNMxfvAC7dmzB9nbAtn3U1FqwkMTRhy2CpQ2jUBhEoNWIBVx9TseUhnpksjUwDAtVuRo4zgCK+SLqa5vQ2dONdZvaJIdppKrhjnRhSuscZOsa8d5Pfe8f866uXHVlBV6kFZgUgHzw9x/F8kfW49Vnvx493Y9g0/b12N4+Fa8755XYunk1trV3ywgG9hc7JR25mgRmTKsVmU51dRPuW/EI6qpaMWvGdDzxzHq8481n4YH7lqNQHMCM1mPQO7AdTfVTcec9d2HmjJlw/GHMm2mgtrkaP77uLxj1k5g/g4UZ6hvnYG1bH9asXY+k3YjewSEUnCGpeKczOjo6gVQ6ialT0xgezKOpKYdZzVmEfh7VuRrs3NmNEcdES0MDevpHsWP70/C0FDp7LNimpfrCPQ2JpIVCPkBVNR1/QpRKLqZPT0rRJVNVh61bh9HYmEJfbwE1tTqcQl4A8PhlS2FbI+jvGkTe4aiFFBbOm4ne/k1Yt7UXTY1LUXK6sGTeTDEf7uvuRzEsYaQ/j3wQoqt7AK1NTQjMJL52zZ9f2G0SBECxSGfiF7afg/XdnIjJQev82tdtZASiLztYN65RqQRUVR2QVzgpAPndL74RpuFIe9xjK9cgl9Zw8kknQdPqELrVSGXTWPHgfUhmM8hVmyj5WQTuEAqFYRlhsGD+XCQMD0WnD529wKknN0HD4diyrU3CV0MvIF90sOrpjcg1NKCxKoF0yoETughMA7+75VGZ31KVSsIJQwz0lUR87nsmp9UgnTGQSlkydZFTDovFEktHsGxgwZwMNrRRv5mQsbKe76C6KotCwcXISF56u30Y8EsuTAvIZFIys9tnYYaTEw2g6AbwXc70dsULsrqqDtt39kAzNTilAC3NJkLPhecamNFoYPG8hbCMENt3dcIyTdTV25gyZSr+ev8TWLKwFXNnLsA9Dz2B4w5fhs07t8J3S5gxsxnHLD0Sdz/wgMzfbtvSj2t++/ALuyl7e4EPfxj43/99Yft5ud+9bRvw5S8D3/0uKfuenw2v/3OfA775TUDmlU/YfvUrYOFC4Mgj93yf5a+kDOMLXwA++1nIRLvOTmDlSjXvmPucMmX81e3t6nfcDjkEmD5dfc8PsdWrAV4jQejYYyGmA9x6eoCnnlIfcjNmAIceOr6/0VHg4YeBQgGYNUvtM97WrAG2bFHAfcIJkt+WzffVOfBcqqvVsRKJZ1/7pk3qvccdp96/di1w+eXAbw9MRcWkAOSGuz6Dzs5qrNrwDFav34Tq6mocf8h0LDnyNNz/19swb/YSaHaIwYFBJFM+HnviEUyfMh8zZ01FT6+DprpmHHnUUXjiwTtR0gz0DuzAtNYGJBIprN/swHNZ1d6JluZm1OWAww4/FHfd/jvkapN4eOUAdvSwXTCJ3h5P5twUikWZWshJgPSX1DSOdvBhmDKiGo4boCqjiWHv6EgoukOa8HIMayJFl3Mfvm+gpiaF/IiLUacA3ddhWhw5q8FO+lLJzuUyGBkpwfFpu+YDHCpGYZN4W6r7yiD7CAtYPK8eJx61ANu3bkNSMzCYL4hoft68mbj/8TWYOaUB23Z24ISjFmLzFjqiW9je3oHXn3eqmF3ced+TOO7Y+VJwyuf70dR0ND7w+e/v24Mbv4sPLG903vB/b+OD84tfAKecAsyd+8KO+VK8e9064G1vA5YvHwePPTnOrl3AP/0TcMcdu2dA//mfAIt/Z565J3v729fwJrjoIuBHPwK2bwfOPRf46EcVsN1yC3DzzUBjowKkj38ceO97gXxefc9z4lrfeCNw993Am94E/PnPQFcX8IMfKNZ28cXAG96gAPLTnwZ++UvgtNOA/n7grW8F3v1uYM4c4POfB77yFeCYY4Dbbwe+9z3g/PPV/mpq1PnxPv2f/wGefBJ43evUcbl97Ws0bVXf89y434YGdbwFCwCC7atfDWzevG9r9DK/a1IAcvuDPxRWtW7zFmzc3oUnV69BbcrCUUtnoq5uHjSzAD3IIyjlsKW3C1ZYwKzpC7Bl23poQQbHHH8i3NIAQm8UT2/sRn2tjpOOPQt3P3I3Wuo03PvAViycU4fW1rm4/9FHMLW1FqbejW3tfVi1aRSB4SFtV6G33xf2mM4Co6MjMA0Lup6GbdtwPGolSwgMF4fOaUQy5SKR0NHezcFcGXR0DEInkBLiQs7NtuHR8Tzg2FggYSVgpzyUihwy5iH0LTHLzRdo+EuCoMNnRGYDgefLCFqOtOVm6hqmNqeQsUMcd/Qh0H0HW7dtR1V1k4CdBgezZk7hC+E4vaiprsXIqI/RooVslYG+zmH09o5i9uwWtDRU48EVz6DoJnHdHx/at9uLbIQXRSYyESD7+oDubqC5WT083PjA8QH9938Hli0D6uvHGcfWrTI+QhgPWdLuNrIYHo+vI1DwoeVrBwbUschwYhbD9/Ph5+v4Gv6OGxd5aAiorR0/AsNXbmQ5/L78d3xtR4diQi0tuz+v3e2TrJJrQEZGIHmhAPnVrwKf+pRijWSDcbgk11FSAAAgAElEQVT9z/+sgOi1rwWuvx7405/GmTxBad48BWLnnQf87GfAzJkKCN/yFuDrXwfmz1frFKdHCHL8wCObe/BB4Oyz+RCo6yYQkoX+678qcCYT5Zpt3Agcf7ximqx2vvGNwM9/rgCQf7N3vQv49rfH2SyBmu/n3/w1rxkHSH6Q/PjH+3YvvszvmhSA7FvzB/zpz3fj5ONOxBNPPIDWhmps3LoV06bOgGWnsHD+EbjxT7/Ctp39mL9oAYpDo2hszKGzaxcCL8CsGVPRtmk7ps2cgu27urBofiPatmzH2rYuzJvfiMMXzUXH9i5U1Rj40x0bcPwxS1Ec6UKypg7X//5JzJ6dwUBfPwaHNbglA4ZpQjd81DfkUCoMYzQfQtNHUVeVgaUnsXhRFtt20SKtUXqr+0cAtxTKh6gb+DAtE7YRoFAKYLAPSCcDdZDMOgKMnksg05DLpTCUL0IPXTGzdV0Pjh/CK7ow7aTMteGmw0NtDkgnbSQtDQ2ZPObPm4oHHmvH6ScfjzvuWY6Tlh2CzsFOJJMZEGlZCJo2fQFu+stKNKYttLa2YmC0D295w8no3LEduboGvOlDv9i724uAwJuZISUBiQzjpz9VQMLt2msVs1m0CLjmGuCeexRA8IFlqMgHiyHsjh3qISGj5IP+wx8qBvetb+3+fLif738fePxx9dAybL3ySsWA+MCRWfEB4x+A+yUr4sNOUH3964ErrlDn+6pXqVCOgMdr4QP8vvcBra3ASSepfXFbsUI9wJ/4BHDVVQrouJ+JGxkkWRWvhxvDS14HwZVMjGD25jf/LYMkUMXhcPk+GZJO3Hg9BFt+OJRvZJIEx7POAh57TIXhZOlkawRGAl5Tk/r9X/8K1NWpdxNs+aFGMOP6EHS5FmSIfP0HP6jYHM/lgQfUB8xll6n1OPXUZ58DP4SOOgp44gn1YUR2eNNN4yDOfb397cArXqHA+F/+RaUyCNgxQA4Pq/uHgH0AbpMCkG0P/jceXH4XqrMtMqIgV5PGQE8JqRoKx1OY2tyCm27+LXqH2V6YRVNdE1K2i9qaNB5b8QzmLZgC3WpE545ODOSHcejCQ9iSg9pcBsNDvZgzu1HmSP/l7lsw1G9h6qwkkpnpWLv2Sdz1aDca6hIYGOhDEGZQLFmA5sC0Ab9koDqrwy0V0NqsYc6cFuzsHMSMZo5dDZHJWNjQ5uCpNb1ImgkUfRcIDcGA0AuQq0lJLlLXQiTTgO/pKOR9ceQJkZDWP4bUHDzGrbaKTucllDwbVWkftbU5bN/RgyAwkU77sHQHi+a2on+gHzXpAInsNNRV2zB1Ay1NdXh0VZvkF0O/iCXzWrG5vRcnHnM65s6ciq9d/RPMnZ5EJl2F+XMWoKO7E5d95469uyXJIggazDmSbf3+9yoEJJPjRsBgyMeHheEfHwQCEtkPH+YvflE9nNzIKuWiaxWzIdj++te7Px8C5De+oQCAjIcPHR9g5j85Z+Loo4Fbb1UP2Wc+ox5IgqbrAt/5jmKz73ynejjJfAgSBLGPfUwBL0EoBkjujw8yAZ1Ml0zo3/5NgXc5S42vtxwgyb543JNPVqDJtSFrnhhik2XywyTOo3BfBDa+dk82sub3vEetL6+NGz+omPMke/vQh9T1cOO6M/TmhxGPyw8rskoCJMNhXhfZM/fD3+Vy6n0Exy99iUlzxVT5YTIRpK+7Drj/fvVhyL85QY9rd8QRKpTnB9MHPqDylFxzAvcZZ6hjxgC5J9e7H79mUgCy/cmb8cOf/givWLYIpmags2sQU6ZPwZatKzFv3gI8vGIllh22BEV3J7bsCDDYP4JzzzoDa9dvQE22Gk9v2AwbJqbPnIoLL3o/nnzqCTy9aiXmzGzBhvWPS/U5m52G0XwbZs09EV2da7FuQxtcXccf71yHdCohnSehV0SoZWXyn2ElkEkZmN6UQMHrx+KF8zA80oNkwoGfL2C4pKGz10V7RyjFnETCQpGhsevCSlpwShqSli9DxRiqa7ov1Wtaq9lmGoMjJfhMaEpIrv6V3KMewNY9vPnV85BJZLFy1VY47jB2dYcIdA9nn3AM7nlsJRZMqcf8mbOAbAIdW1fDCy1UZTO495FNWDp3Ct75jvPFGGOwYKK1TsdNd92DBbNmCyt/5OHHcOJJr8DFn7l+7249ggkBgyDJbWIOkuDCJDxDTLIKhn58gHYHkLxmghRfz/2Qwdx3nwLLe+8dPy8CIQsJzGmRvXIj4ySzOecc9d9LlyrQZpGBITzzZAQKbgwX//AHFVYyJCSAkXHxuL/5DcAQljnIGCDJUPnwloPVf/yHYsYx8+V+md8jWJcD5MRjP1cOktfOtSrfCD7PlWIofx0Z16WXKsAnI+ZGdkZAJ8MjMPF6+bciU+baMk+6fr16D4/Ba+XP+LckaA4OKjBjLpAfVPxgYZTA9ALX9L/+S/19ylnezp0qN8lr5Ou4MRfNteMHJc+R+yaw8kOT58QQnRvfQ7BkJDARdPfujnzZXz0pAPmxC8/EIfOno7mWgukSXN9F2/btGBoOYSYyOPn4RUgYZFq6zKGpr2FxZhCG6aCjvR+HLl2GnV1rhFGOcMyqmcKU6VN55+C++x5AdVUtzjn/DCy//w/oHRpEQ00jVq3fBAbAmztHELhpCZXrGjR094ZI2EB1RsOU5iQGhkvwSyFy9Tl4xV7k3RLSdhJDoy6G8zqGBy0YhgbDcpGrtdHS0IxVqzug6wES7CcPCaB8lnQUiyFSaR2jI0UUnPJ8G8MnskgNM6ZYeOOrDsPyFevEhXxnuwOv2I2W+jps625HLjsNVekEVj6zRUTmS+Y2IT/ch8b6WpRKHqbPWYC2rf1I2XnkqtMoFhNorM+gb6gTm9p6ccqxiwX8H1m5Bj+4ftXe3WB86AhgLALsDiDJ1piIf+UrFejw9c8FkGQo//d/6rV8gBjG/eUv6uEsDz+XLAEeeWTvAJIFijjPybwX2SVDcu6brI4PKkGYIEdQmAiQBA8CZ7wxdD/sMFUMIeBwY06P+ysHSIabt902Ds7PBZAEWrLX8m3aNBXOP9929dUqVXHBBSpdwXMgCDGU53lzu+EGBUhkeBNBlwyPaQ1+qJRvGzaov0Vbm2Ld3C/PkayZ68/j8e/Caj0ZN9kmAZfs8LlAjh+kH/mIiiYYbcT54KefVmkDfvAcoKF1vHQvKUA6joNCoYDrv/kO1NTXQddKeHD5TixdsgS7dm2E5wMnnXw8Fs5fhEeWL4dla2jvG8HhhxyO22+9CbNmzMeiRYdgzbq7Re83Wiph/tw5OOmEs7GG0wW1DvzxtnWAkcSFbzsJyx9ZhVWrH8fsmXNQ35RCbX0d/vsPK2FqaQwN5pGrs9DRFSKbCNBc70Mnm9RHZUZN0q7CcJ4zaUbR05eX6YE72020by8im3PRWJuDkciIq86mzT2oyqbBTnLOizFNUww4WJGm1Ke+sQFbtvRJeM2NrJI6o9NPmoaFM1N4YPlKLFp0KLwgKTKmwaFBHDZ/tvSn87y7u3zopRA9xWE8s3UY3T2DWDo3LX3fvpdA36iDZCqLIw+Zhkw1sOqJHcgXejFaCHHsoQtw4gln4cZbb8fXfvLX53scn/175uZ4U//ud+qhIEskI2PIx40PCxP6DNMYFjPkJEByY5GGwMqkPsNJPqQMExn6kcnw93yQdrdxX3vKIJmXZH4uBgCCDotFDDO5cT8MLX/yE8VMGeKXAyTZLnNnrPTG4ELGF1diy89vYg6SgPL+9ytmRIZIMObXvlaxy4/FXCFZIj9MeAyeD/8GPF+CN9MPcfrioYdUTpLrSYDj63gNq1ap8+GHE39ermFlNZn7J6smqDEUZt6V7yXbZi6ZrJF5VYbw/JBhsYwbX8Pz4TnGx2K+mJVq5iQnSn0OohC7vb0dlmUhmUzKv/xiJMhpqxM3LYxjxed47PjrIAjky3VdlEolAchfXvlu1NbVom+oBz0DQH9HO5paamGaKdTVNqO/qxtFaFiycC4GetrR3FKH5pYlWLlqFXZ27IBtFDDqjGDB7NkyK6YqY8M0mzF/wSys2/gYbDMHPxhBfjSPY445G//962tQX5tGaDXg5r9uRUNdFlWZJLr7+rBk0Vxs2LQZM6fVY8OmHTA1Hb2D/Zhan8Os2S0YGBnB9vYhcRAn6LVMySGV1DB7WiseeWITCoVAyKBhBvC8AGHISraSAiWSHD9LhsyijUq6839Tlo7DD6tCU1Mjnnj8GeSyNbASHmqrsmhoqMdwfwcWz6eBhYN00sAJJ5yGP995Kx56fK0Y5s6aOQ2NdTaGR7fBtuqxfn0X+kbymD51ChpTGcyYOQXTpkxFR/cujAz246gjj8PcxUeg6bBX7h1AEsiYS2IYR2Dhpz9D15hVkVWwws18FkNVPogxQPJhJStjdZShGUGPhRWGgWRyBCQC1gsFSFZUmY/jDUo2SyZJrWJcUSeYM4dJiQkZLrdygCSQMG9K8GfoyY05O4azE2/6iQB5112KBZINsirPkJNV4xcDILmWBC2eR6y5JMixasw1JluN85EM/cn4GPJTukP5EsGeoB0DG8+duk+GwQQ2/p6AGLN/sj8Wr8hSCXoMnZnS4N+QKY5y5nj66cAll6i/J9eN58WwnwBJpjhxO0gBkmoXkqEXHSCv/MhrcfwJy5CrLuG/b1iBs888F7feeQfM0MW82a3QPGBgtAhliVvE4mlTxXJssD+PZUcfhoTlYMParUik8jj6mNdj3ZonsXDRIbjxxj9g4dwWNLfORX++Aw/etwJViZlYevgi3Lv8Nniahk0drBoXMH9eHdZtHEBjbR7dg/w0tFWucLiEY5a1oDi4E0aqGeu27JBRra5riBAcwSgOP3wx+vp60d1bgkYjCVdHEDowQwJhKMxX0zx5vqh5pKRpfOM0xhG88uQmbN0ygN6BAK2tjRjq34VEqhqHHbIMptGBHVsGUV9jI5GowurVO3DIIbPxtgvfjv/52a8wu3UKhkYLeGjVA8JkTz9hEUaHNSxceCJSqbSYWWzZsgVzF8zAbXfcLH3np59xBt70oe/sHUDGryb4kRXsLmfG4gsfKib3J24M2/gVS0v4YLLAE1dY9+1sdv8uVkYJirEoel/2zZC6XIy9p/sgCJPpTfZG0CM4xfnX+Pj8QOPPy2VM8e/49yJw7u58+bdhzjMWne/J9fAc+PeNiz178p4D+DVkkATGRCIh/75ggCSLpOg6ZpDFYhHXXvFeNNTr6Ol2JDfYly/irBNPxuhoO5LJrFR7N7XtQDZXhdpsLZrqM9i+YxdMhr7JFJpqQ1RXt0ooun3HFtQ2ZFCTs0Q+U8iz35lyoQL6egri4fjwIyvgoIThIIkNG7qRSiaQyQRIJGyM5kvwPB1eYCCbtLBooY3hARdDJR/OaID5C2dhxWNbpDWQ9M9OAumMjdEhHyOjiilyHCtHxXLODQvUiST9Gj2R7fDTxTBMeFGSXoOHadNcLJ43H/PmzsOGp1egbcsAli2bibYtHubMSKHgGKhOZdA7PIrGKs7/ZhGoX7SZDY11qK9N4cGHNmBouAAr6YuRx4K5c5Ay0iiOuKita8LWXVsx6jrwSwM4ZNFiWIl6vOeT/3UA35qVU6+swMu7AsSyXbt2CTDGITYBkuE1n/OJ2x6F2DFAEiDiHOTaB2/ESM82PPjwPejvHcXGnmGUPB9TGqsxr7kBRyydBdf10dHRiXS6Bh27+nHUstm4895HkGuowcIZc7F6/UYZ3FWVKqK+vgEtLTVo69iMnl0h6utr0d89gNNPPR4PL1+D0cIodKMKz+zaib5uD9W11A4GyFS56OgYwPw5jdCChMyjNu0QQ/kSOvt8HLJkJja37UShYCKVopO3idYpHNnaj2KespsEhoc4IZELRO0kK9fsw6V8nK2EKtyON65FTY7GF4NorjbRP9SLZUfMw6zpNXhkRTuWLWvFrXduRnN1El1DgzjnzMPFNOOcE49Be28/DL0f2RzQ37NSPnCC4DjcfPtyVNcayJdc1FZRqF3EIQsXA54GzykiWx3CK6Xx4Ko2/PrWqDXt5b3PKkevrMABuQJ85rq7u4U9xgySdYYXDJDMQcYASQa5a9sG3P3bb6O7uwehlYARuigFJg6ZN12cxgPPQSKRRL7YD802sHPHEIqOAzuRRljaJe18ufqpGBrOI0CA2roMGqoz6OweFLBwi0OYMW0e+kccbO8YwYb166EZaezo7sRovohcdS0sy0QqaYodWU29DYP2GBR/RwnowUFOQkzLeAPOogncQFoH2QHD6jq7YziK1tZtMdHw3ACepvSNu9sEHNMuZs9uQHGwB8cdswxmSsOunSvx1CoP9fUWXnfOXNx293ZU5abDKQ2iqTGDVCKNzW3bMGfmQgwOd+PEo5rR2NCKHbuewK4u6jILMqlxVVsPCM3HHTZFjH+HB4Gm+gaRN3WPjODEY4/DR6746QF5Y1ZOurIC+8MKUFEzNDQk7JEASfb4ggCSF0VwJDgQfQmSBEh+3X3Dd/Dow3fB8XQ01TQjWwW4BQ+ZKgujoyHmz1uI3pHV6Ov1sGXLAFpbmrF92xakDF+cccy0L6Lut735E7j8C5/DhRdehL6+ARTyw+jqasfWLTvQOoOgV497H30agc7RCyUMDjoIYeHwpfMwMjqMHTs7MTgA6BaQSnoIw4zMzObEQdMKUXQSCFhg0TRYmifXkLANpDI2evufGxB13ZDebrWFmDurAY22DyRCbN+xE3UNOdRW12DT9j44hRKOOnSJjEwowUGhexfqp85CTc6GV9oB36tHdc7FIQsXolBycPe9O1CXDVHfGmJzWzfatoxg3pKluO++h2FmMnAKAU45vg5Zsw73PLoVjU01OOfsV+Gt7/vi/nCfVc6hsgIH5Ap0RsVJAmScfyRAMrzepxBboCGqZDMPSXBhJZtf3Tu34sb//gaGurdCt2qRsnWcePLx2L55G44+5kjc8Ic/4cwzzsU99/4ZI/mSDJ5KZVIYGOpF0khhuFjC6885A519Q+gf6IHn5QEji9GBLWhumYnRkT5Mn57Gz363GqMFA7ZlQdc8EdpoeoIN0BICa7qOwSEHJdeBFtBEwoImfTPsjA6hW+yd9mHRnSL0pCCTtAGHIWzAhWGl/tl/77iNOAbH2loN05tqUJW0UF0DlJwSbF3HkYc24aEnezB76lwYuoHBoU7s6NyF6U0t6BlwsXRJHQyNo11NmEY1qqrS2NnejqIDrF63Ga877zCsXrMNM2bMRMLy0dHr4bd/fgqGEaCpuRrzm3x09Ps4duky9A0M4UvX3nlA3piVk66swMu5Anz++/r6JEUYgyMBspw9viCAjEGSAEkmyQMRJEeGh/CXG65Fa52HtvWdOPvMc9Db24YdnY9jgKMIzEa4nodFS4/BfctvQ2dfHlObq7F+/WYsnLcQRy49HKueWYVEqihM6pAFs/HQIzdjzrxj4ZY64Ok2QtPEnfd0iPaQc65HRoaRq02jKptDZ2e3zMUZGB5BvqDADqFii9TuGJJ3LUJHEomkjUIhDx908jHh+IGE1ry2kNPGIo3jxD+kZfiYNS1EyfHhuzoyWQszpzcjcBxxBJ/RbKM5mcP967dj5epO+MYQWjIWjjr6UFiJLBpq6nDHvQ/ilGMXoKUphaee7kEY9CCZPgphcQg1tTbWrN+BWVPrYKcT+NWfHkQxSKK2Podd7Tsxf/p01FhDeO8l78dRr446G17Ou61y7MoKHEArQMzq6uoSkhTnHmP9I3OPz5V/5CU+b5EmZpBxqB2zSIJkDJQEy4Hu7ehu34yO7RthJw20behApsoWyQpCHw11TXhs1WpMmdKMYr6AmTNnwSsVMJLPY/qUFmRzJtat2yEej41NIfKFNKqqShgcKiDQEli3sQ+O64oBbcCKs6aqz+zZp37RdUIUSgogtVCP+GMggvHA9QQvyTQ5IIzTAcc7CeLKVbmMZ/yvTyaZSQWorc7AsjRUVVehfecOzJ5dj6pMA7p2dWDWrGZ09XZi4ZwlWLNxE9JGFiPFbmQzCazb0IWpU6bCNH3U1qSwdkM3PC/E/Fmz0VAfon9Iw/DQLpkxPrW1AU+s3ISRIidE5tAzNCyYTcxvqLVl7vj7PvLZA+jWrJxqZQUmfwViJsjUIEkc04ExIJI1xt8/H3vcY4CMQbJcNB4zyTgvyf8mePJLGFn0NfnLUzliZQUqK/CPugIxOMasMC7CEBT5ffxvDI5/jz3uFUCW5yLLw+0YFAmQROwYIMuZ5z/qH6ty3ZUVqKzA5K9AXHCJw2dpF46q1fx+InPcXe4xPus9CrHjF8ddiXFVO25BJCiW/+y52OPzdDVO/kpWjlhZgcoKHNAr8FzgFjPD+N9yxhj/7Lkq1+ULslcAWc4Ky8PoGBxjZllhjwf0PVc5+coKHPArEINf3GNdzioldH4OWc/EC99rgJzIJifmGyu5xwP+3qpcQGUFDvgViJllORDGbj1/L6R+0QByIkuMw+dKGH3A31uVC6iswEGzAuVAGTPHvbm4fWaQ5QeZCI4VkNybP0HltZUVqKzAi70C5SxxIkjuzbFeEECWA2OFQe7NsldeW1mBygq81CuwuzB7b1nkPgHkRGAsz0NOZI8VNvlS3waV/VdWoLICuwO+3eUf9zYPudcAOREMJ8p74v/e3Z+sApaVG7myApUVeDFX4LkKLhOr2BNlPy9JFXuitCcWhlMHuW0gRFu3g76RACWKxumlqAGWHsLivAeazuoBTGgwOTCLJhOxQaUWQKdZLX3ZNM7tCMd+F/h0ElKGGWyxDgJ26YwvMa0a+TM6l3NcghvwtTShAAJNg61z9jX7rTX4fgBL12DqqgdbjHB3Z5KJ8eNz/Kvaxs00NZp3iBWGOHnIvtW3PFEZCgs5L/md6mrkK+Sadai1iGQG6vCavIffxq9X18yjcDaJOoOEpeO0Q2tfzPursq/KChyUKyDTRsNQzHXY7VcuEC/vv36+ivZeMchythj3ZA8VfDy4ycHWXkeebgKU64fixM2H2zQAW1eAYGicE63D1AkWHBdCSFD90/J7nbZD7JmOEEVQR/39ZF466GyuJgnG25h4nQBIoPRVmyMBUuY2RfjiR2BFhLL0IAIrXfwXJ25iJxn5XdDCQhYxOiT3TcwUgIzaKTV6BsWAFh1HzoWdRQHgCYBqSFs02wBM+SAIx5rkx7rBue/oDxsDLl2G+AHAtc+mTLzjtCkH5Q1duajKCrxUK8Bnh3O0+G+5/2O5YPy5jr3HABmDQXlrYdeQi7vXljBcjFxxAvZihwIKDlmRuOoQ/AgKiiGZGuS/w4hFiR0Z7c5B8OAMag4+UICkRJ7qkyBGqHKdZQwmAmAxixP/SkjLI99DOFUAo1gduZ8CYrLaCHzHmCDpHsGbAKaAm2cmiLgbp5+/SRlwdLLvIQw0ORZBmWa9JV8Tt/WMbcASRyJ+SJAxjwNxPA4sHjBHxI3XUsbQBqEM/3rvWdNeqvuost/KChy0K8BnlSBJRsl+7HJGKTHcc4zB3SOAjIGgHBxLjoN7N3jYOaCGqcfAJWG3sCZCirIQU0yOYTSgE4P4P2UnxSmEPD+GwgRKDsoSGhwBJL/nfuPjKGCMICW6MHHxidiX2ksU2xKsovdGAatAnWKk5H4KQAlAMajG+QnTVKkBxfZiJlvO8ngegEEg1rg3haU8HFeF+yv5IRxXrQk/HGRVmGKIPiDIKOXco/8TJhq9TrVyAp4APFCVMnDxK6cftDdx5cIqK/BSr8AwB5qB89CUecXzscg9Bsi47zqO6dsHPNy7wYHPEaljzj0q/JTQkiEvQ0YOG/QJGp5iZREXY2ir/ouAOY7gAqIyslcxPPVvGRiOhaAqxxnjIMNy02CoS4ZG01wCmQKe8TA9UCDKsDU6Z54jz0+dM1lmRCuDEJpB30hdGK8CyJhJPpvVqtMIJH+qgE7lKJkOYF7U4fWHak2YVxQgjdZCXh99P5aEjI/kR/sRv0ogmzLw/nN3M5Lzpb6rKvuvrMBBsgLx2OrdWZ7t7hL3CCDj3GP5ZMO7N/lo73OkAhE/5Hz4yaYUQ2MeMkAg+KQh4MMeKIDiewwypWgYVswoBSyjIgd0Q14XcVAFrgTLUP1M3iO+jyzGhEgYDFsZ6qvpZGOvH2OqEaDy3OS4Cqw8AcoALAYpJhl7kTOXCnEkZzgs0BcBdVyiEUtefggIsqmhXwR0AioBUopHPhPF6h0uAdPnB4cCSIvWvWX5zTjgj3OSZOFeqICX1522gQ++atZBcqtWLqOyApO/AsSwgYEBYZDxyIW/xyKfFyDLQ+eYPdKA8v+e9KQYY0rZVYXEwuaiKu0Y34qLI1FYy5hUJgXuxjNyLM/JnZCREccksiY4SvZwjIGOLa2wxABJ04RtstBDh2AV9ko+U0a2qiKKCuvH85lxyM7jSnWcuUvQmYhMMqqWq8K0hPTxPpgbJONU4TBBmyCmAJxFKJ6rfED4DK1VwcjzAxQDoOBqKPlA0gSSwpz5oRHCiJgrz1VSDNEHDc9DgXmIqqSOSyoh9uQ/VZUjHlQrwKmGBMjyoV3PJfvZK4CMXcSZ7Lz+CRrjiiW5MER+qXyakrEwb6e+j5J3ZUtcXmghGJVvcb7TFTlPlEeUY8T8imAXj0kguKhcpUVwNAKYLIBoSkoUh+gMvVXRJXYcf3ZSNo6qJStJiRDZZFlVmtlTlcfU4Hm+5BN95gdZiAk41iGqxrNCTYCUPKTKmfJXbuCj6IUo+kDJU27nLFolNQjzlbykvJdf44Aey34YnpOlVqdMvO2U1oPqZq1cTGUFJnsFOLiL7DF2F39BUw3Lq9fxiIUYIKEZEi4q7Z8CJAWVcYU2FGAivKnZMAxJowJKxAyfVQkWAFP786PiTqQwjHSCKq+pJDUqlJawXY/DXJXfM3UDBvWXOpAwCZaGGu4VhexxEYjnGec3FQDzfAlfqogjhZyo+h1Lbfgq0ViKOTDzlycFNAkAACAASURBVCqVoMbgqBykyrWqYg7xzw98lDxVCJKxD5Q/RXIm+SCJkJTgqDIQ4zImxZ+VtjJjm3jDCY2TfT9VjldZgYNqBXbt2iXgSAY5sVgz8UL3mEGW5x8ZYv/vUyr0Y5gdb1IA0VShRGM+MtI6kiPFAMmnnUARhpwwGFebx8NIAogUUUT2w1BTaRaZC4wrz3w/Y3nJRcIXrWWcj3Q8HwG1jghhk6ElYlE25TssuKjQW2GSAs2Q4XL03wLyUbqAuco4l6g+KGItJoGRoXhUARdRuAIxgqWpWzBZtefxeJlSZFFzcFRBJp6kGIX7saRprBilCkMC2bFIHqEUaf7p2ApAHlRPa+ViJn0F2tvbxwByYh5ynwAyrmCTQcZVoN+sUeUY3zdUuMlwmqGnpkJUpdAmI1OFDoKTQGn84EdjViVHp1pSBDyUFEa9nSBBUbdlGs8SdPPlfJ+AXVzpjpWKcUVY9qcYbRxexxXxcoKmSkoxYJYtTyxQl2JLDOrMTcadPeXyIPUzyb9GoviYCcbnwNA97r6ZqOUs/6OMOSBLZkJDGAnf+R4Kxd94QtOk31CVA1ZW4GBagd0BpNJc/206cI8Y5O4A8tdrDAmXGWbKAx+zHehwok4WkfkwzJQqTtwtoyrYLE6wwMFwlVpBKfAASJkMjY1IJwjYUV7RiFr+xkJ+vp44LFRLVZoV44o0lgy7iVgC0kp4rgTpz95EVkTwjvKdSlo+HuaKDpHDyKKcaBzWE/Zdl4kAdcxY1K5OY7yarhiqL7lNfohISkC0l0wNqPOL2atkMqMq/Nis7qhzh2ifSZp4UyXEPpie1cq1vAwrQIBkaB3Px6Ye8kUByHgWNnOQv1xpq57jqHwiIBq13BHvPBY0JEQdhyQJcSVcprxFgmYlrQljgbiGBKJ+aemjZv6QEh4lORdwEq2i6n8eK4QIsAjsKI3hmPxG5QVV3/P4X4K4JJKhqIgy3qUzrk+UCnjEIl0Jp6OikciEgKLnC7iNaTlZieY+o1xnuXA9Bu5Y4M5T4WvHAV2B+VhfNg9QloeNq+eZhIG3nNj8MtxSlUNWVuDgWYGdO3dKiE2AjPWQLzpA/vQpSw3qkkiaEhdjTCAeagr0RN4ihQ6CiSpxS3is+UrPKMyOBRUgE4Eg2ZjFnm32cIOyGcA0IXIiggohkEzM9xjWKrCU9kCFKYrNRQAkIbgYRERFE1aDRY7Drh2lW6QgKJb5xO2KOk01hJny4nQpssRSG/5bcny4YQCblfLoAyLOZ6oCkGLAIvUJfHWOZaxUcpOaqoxT7qnE7nHuQVFxEa1LblRX7w+BlG3grSftRYjdcysueM0X0babe/vff3EvXjPPkhRF228vwQXf2o4LvvxdfPjMeQfPk1C5ksoK7GYFJgUgv/cEyyCqZq3C2hB+1OInbjpSmFCMj2YNzFPGnTQuAFcYIMEwRNbShS0quUsoeUhLJDCAHTEzQzpVxo0jJNSWCjL3Ewmzxf1G8UFLQDIquAjMlMl+YrCKeqxFaBMVWlQlW3X5CMscS0soAJN2RIJ7pPeUNkgyvihUVwrOcWcelbOMauSC5ZE2M2qnFCnUWB+jOhHFkmPhuqp+8xrTCQPveEXLnt/0fwcgUT0bX/jOd3HOojr0P3Mzbnx4GEtPOwdHz6q4Be35AldeeSCuwKQA5NdXmCpbJ3Ibxcj80Ac0U0BE00150Pkz6SaRXhP1JbSJwBEEApAmWaQKOEWew3wjATNpsRpNNsnfq64TJUdUoMz+Z9JJ8jiPUhpfhxv6AoZKX6lYnhVrIlXwHUlxmBZVuUP+VBWSVEsh2d0Y5eYxVJIQnueqyrRoO0NY7OWUPGqUt4zA2fW98b5wKSSpdAJt38bcigRgzYidRm2XkSZUWHboSyjPNIUIzikut3W869S90EHGAPmGb2D5J0+O7uUS7v76u/Hp32/DuZddh8+/ZqESEZWx2PF8bPSWsjxp/ECUy7PKZUljOWBVo4s6rQ7Ex6hyzgfrCkwKQH7lEVsZUkTFDU8gQMcoNPRrBno9wGFhQdOQ9n2YkZmETVgNQyTCECnqFAUgI/0kjR9E+O3Lv+yMUQAawJYOFdWKKOL0uNqtgl85l1EvFOecuKASIZuUly0tQJrmExG7oy5HARFlRDoSeoiUoQwzGNYrtksRkXKfUIwyFsFHTj9SUInkRnEb4hhbpA9l1BUjekgNhqluuVhjqUL7qJwfY1GgxEuql1t17Ig4PQLId56yDwzyWQDpY+sfr8Dbvno7TvroNfjm2w9/Voh9rnEHPvjpX+DIj/0cX3nrAhjeMH582b/g50904bNXX4ez56dx/+++g09d9Qc5Y8Ocjfd/+d/xzlMPA0bX4ZPnvBf318/D+a1tuOmpJN749f/Bv75iL9ICB+tTWbmu/WYFJgUg/+XhlPQ0K48eVZEeCYCtto0R38AIc3xBiGQQIBW6yPnK1sxXHYlIh0A1AuRCF0myQ7FCI6AYoqFUNQwG7Uo6Y0WxM/+xCVR0CKKuKAImL9BRDNjvzLA8MsVl1TgMUXJDpCwdCZOhN9mp0iySZToEVZEMASlDky9WzsV4IjLbkM4gyV+GMER0qVoBpdgTMVAeh4yStI/K/HJWJWE0S/cE57gLKHJRi1+nClCGyjsKcLIX3BOAVGYfGjIJHe94xV4UaWIGqZvCosfYn+x3Kj7zs+/h/EVNzwLIixaP4mMffj96sm/DD370/1A7uhmf+tAF2Oy+D9f95kIY636Fi957NZZc/nt8/uwEfv+J83DVY0fixw98H0tigPQDvOlbt+Gjx6Sgm+ZuTYn3m6elciL/cCswKQB54cMZ6CH5mNIA0v+xqGsY1U04BDgCWJSbNAlKEaywuu2QFVLSgxDJ0BfwI8MjsLE2niAXJSBF4mwv1DHMnBw0eU0ypDaSZg8qFOc5kBHSaIK5Tws6LFMZ9eoS9vN7JQVKkLWKyznZIBma6pVW0a3KD9IFXbkKkb1GRZ+ohVK5nVMArlILqq1SFZ9iezYp75QZ38ZdOApQI7mRmG2oQpAKS5WHZCxIZ1hNsHc8GlyoHGY2aeDC0/aBQT7rEajGSeefjWMOOw2ve/XR0g/+rCLNaS34w5f/H769YhRfufpazOn/Pf75w9fgsCv+iCvPrsEtl5+CL/1lOt7y4deBvNDrX4X//Z97cMo378JlR2xTDHLmqbj5ui+hjpW2ylZZgf1sBSYFIC99pEp8zFiaYVHGgQmHJg2BhlDXkUeAQNfhCTOisCcqQGg6HCb7qE8M2e0SIvQ8Sf4RAMns7ADIIEAiDET2Q+ArACgGPrp1G44GNPoh6vUAqcBHNYs6cAU8iTtJ8judYbqGpAEkDR4nQEJ8GGPjXhUmCxuUCrnKkBoGIZwhsak6bCIfS9FKSVVbvScgux0bBaHcdkSIXlbZls4aoq9sbL8scwRi5V92oMBVWhej9kaG1iXfQ5HX7bIwpLPYj/q0gQ+euQ8M8jVfwh0fPR4bf/VufOAnnUimX4df/uVTiK13J1axB5Zfg/M+8Tu85bKrcOjT78dnbzwKP33gKizWR3D9h8/Gfz32t3d84j0/wd3vMhRALjoHd/3gcmHtla2yAvvbCkwKQF70aBVshpMCIgRIHa6mi/4x0MnkNLi0+AJzkSJUlNjaZUpPNyIbNIKkAkXCiKtmGUhYTG7qi8sNYPmBhOulMEDBMAV4630POd9HlRYiHXjIkpEKCyU7VRXxpKkhY5J1BkhQuqMZ0HVfASkLS3zVmF2kYoJkl4pJEgsZ4qtq9njxQekjCW4R6Rwzz1DyIjU2gqYVaqQEma0ytuD7YlG6yqGq38fGuARkKWhRGsTCEz94AqUA4HnkUgYuPWMfGORYDrKA6z9/MX5wexvmn/8RXPXJt6Ha1v9W5lPYgisvejseqj0CDU8+ib7z/wU3fOYtAEr446dPw1fvPhRX33UtjklNuPXjELsCkPsbJlTOp2wFJgUg3/lkPTTPl9BYAYaGUgiUtCjPKPKXUNikFDoi6Y8fu4MrwSBY3BG3HBZEiBd00mFnDH9Gs11CiBcidEqS23M9H8XAE2BLaDpqggDVWohUADSGDnK6j6SMSmDuK+rVZrtiJDxn6yJznAqfdNA1qEDWK2xW5TdVkYbzatT12aYhBSOVD1U5V+YSTeYjCZQUZo4N5ioLvWmzFlWmVQeNkj2NhdlRGB534oj5hWgnldc5r5HdOgy3HT+UHOSFp72wKvbolodw4YcuQ/tgFS799g/w7mOm7FYHufqGz+Dib9wFpOrxsSu/h7ceO1NusV13XoE3fPZ2tLz2S/jfT5+Odde+GpfdOA0f+/kPcXYqKtJUALICSPvxCkwKQL51Vf2Y8a1iSKEwO2mdY5HEtiLbMFVIMQxT8oMEQcpXVBEm8lXUWC3WESjrG8aUkQ2FykPC84VBkoZRoE0mSG9FOn6Tf9oENx2odz00w0OS4XbE/OT9UhxRhRUxkSCASnGFeT5dtTpGfM7gzBju09CQZDHJDJC1DWTsyOxCjqkAVLmcRYWXaNaN6pBRgBvnIR3XUwxSdJ6q55MWbHQZUqsQVax9zrBRPpuqWBPZqokLkCk5yHftTUV4tzIfD+tu/DI+duVtGFh6Pn71n5+Bf9vfCsX7N9+H/3fJp9BZdRS+8+OrsKheleD90jBuvPYz+Mb1K1R6wjBx/IWX41sXnzNexa4A5H4MD5VTmxSAvGhjq7L5IiBQEM7OFubfGBMHdPlh1VfpHilT0SNfNIaRgW5FRrjKDVzE5IQJw4ApoxqUrUPoBciENOUNkHDdsX0xi+iYhEBV8bUtoBAwJAUCU0fK94SB2oGH6rAEOzK2IIs0zAB2qIZm0X+RxyV0sYJuSrePD0qRUqxk66oizlDd5tCxyBijXCfJnCN7xzVW1KNJh76n2iD5JUO7COye2h+LQ7ZpIZOxhRHSmo2seLjgoT9fhOsApYCsOxKfy+waVTCqS9t7B5B+AT3dg/DStWipTow/GUERvV0Dkv7INbTAcnrRM+QjU1OHKjr58kp8F/19vfCQRn1D9bgbk6BkER3dA9H+NNQ1NsOWfIWL/s5elKwUmutzf9P3Xnk0KyuwP6zApADkxetbBFoYouri2O1LYSOeQiiskszPD2Cw+UQ6aZTPIzN7cY5OulBKHhK+B4OvlxwlCzlklYqpmQFBi7DoS0shCyoOwUcccmiOEaBI6zXTgGMYyFL0HQSoo7Dbd5XrTzQ2gexQicKjPKOmpD01Fos4OnQxlmA/OKveHBEbGQFLDK16z2Npj5KoE/Co2SQ7NOCUAuSlMKPyjoNFYDRQDYm8NgJt1gxRmzJQnbEFeApugB2DLrYNA3lfmf7SdZwtm7WWgTqLOlINNSkNl56+FznI/eFurJxDZQX2sxWYFIC8ZHWdyF3YNaObhkwIi3uOOd+FG//VOJaBABcAFkE06nCJjSWIIrFphGr3I5vU4OgaSroJ37Rg+h6yvgv27pgSqlJsLnVkKZCQcfqhoebHUKYTzYSxqXtkKB1Vihn6W5qnquUyXIz+lUqek9RZIKE8KbZoU3Zr7Mlm4Ucyj6LlUb3nnjBfFmNCNNkBshZF5pbkDHflyQL5Uh09TohBh/lEpgF81LFwZAA5U0NNWpl6DBUD7CxqGHGZ9VSuR6oJReVFMyZQbWhoyoa4dG9ykPvZjVk5ncoK7A8rMCkA+fHHMvAsE5ptwqBAmu1wUeXWK7nitC15Pg7rTmgwfR2GU4DheTJ/hSGjSvxp0KWrReUKJbwThx9WtVlBZheMyvMRFJlTVK45cde1AhMxeIi9hSK5jBqtqubGsDosPc3ivBYZ10oLHcNpHSkzQELAMhZFsoUwCpVlxrUq6pAZSzog6jOnEQeZZ4pdOtF5rRsxMAgDBd0QbejOUEOj6wuYpiMwbtIDqcCTbIrTeDQLMXY4FzMLYbJst1RzxZvTGv7tnL0o0uwPd2PlHCorsJ+twKQA5L89XSfAZDAklfAxhEcmGSiWyEmB0kIYsE0wFO9G5vyUiFqZR0hfMtlfJAGSrhKpyfhwNf5L556o7zpyDCIMkiVKn3KU85MZ2ZFchzlJ6T6JzCd8FocoP2IelD3dXlHAnM7nmmmJhMjWfCR0DdUm+75VoYnnQZBKGQzvNQSRMzjBkASZo1yLrid5z4IXYNTXUHACeAyZvRBDRgLdGjCQMDAcGrBCHV7ShOU6qA0CTHEDVAdeBP4sdrDuHoXvMpbBg81BZLqGlGXCgIvmtI5PnlFp29vPnrfK6RxgKzApAHnZ1hboaqq9fBG04LkwaFQRsTxl48WqsJpHKO7fsXktQ8mINUnKLrL/EmQSOSQ1gIBDsKXYXETnulTBSR55HAnjyb6i8ajKBUdapyU+lg4f+jZOmGrI10tekhEzAT3ymaSonTpG0SZKqd1EtamjSveQoRReN6UDyNCV9pP5z5KnzDiYDy0FGophCEeMhFmgCVFwfZRsG5bnP6sXXCrczJ+yiBUN+ooHLnKN2MGTFAasdJ00Em7OmrjszPoD7HasnG5lBfavFZgUgLx8Q71Uh3XHU7pCMZII5GEmxKh5MhxtqswmSPFkLrQwQtUeSB0jiztFYXzR5EDuiClGhsVhKHIehqAc5aDxNQzrDQNh4EnlnDlCg+Gz7ynvx6hdkPlKhuXiJiSTCpX7t8aWlDE7MQ8I6WMZIjANDHMsq24gtGx5vWlZkt9MaUAy9JAi8wx8BZJaiIKZQIEAG7KTxpPzFEehaPRsVkBY9Xlrkn/15VyjWRAC5qXQwFDClrxpNmDN2EfKMNAkFW4PBU9Dj6OjK5HAVDvENWdV7193W+VsKitwgK3ApADkl5/OShFCWvdE4aJGmbLCrOY8q35s6SyBCz1UPdoEI5HPjA3lUnlBEr14hjSlQ2LCK1VyNZqArJQMsehFforSyRINwxJApt2acudR41xUzpLZPVqgUfYj3JAjIqKZN/y9GFaw44cdLL4GJ+ord3k8w2LyTzqDCHopl+NbXfiWjUKCIxDSCEaKMB0HBgXdcReOHyA/pnHU5fp4OpZhgmIbrkMohS1D2jUNP0BK5+8oh2Jvuof6hIasqYo2IyVgUNcwp0rDFWdWhnYdYM9j5XT3sxWYFID86vo6uWwxlYgGDxCAgpDOjyzQUFDDfxkim6Jx0UXwrezOyOrEUVuAjLVc1Yoo42MJDAQojjqIzCHEmJZw4TP/yH2SrRJoIf8qE4nI8IGhudiYacjo5KoebMqF2F4YqsKNOhjBWVW58wyNZT4OVUchHN9HiYxVmK8K+cXgQrIBgeQeWfGmfpIslca9LOCo+TzKSJj/Lf3V4mrO3KUKv3lMsl0WdqQwJOCv1oNVa+ZqKT1So2PVhENatc2oNvGhUxv2s9utcjqVFTiwVmByAHJNlRRaQoa28WQWSmRMJZ0hYHBWgp224RQZDjsi0WFVVnKUwiTJ4BiiUuGoAEUUhJJTVKDBjbZfrBpTlC0gzF7lyI5M5et08ZWMRzoQ/CjMFgCKWgeZ0xPuKNVuisqjtj6pFpOJEtA1uIEHPwr3HZ9VZDLgSLjObh+Z4KiMbmOrMmXeG83I4fdRjzV/rmRDCiB5nkw5MP1A8TlBsMpiRw3zl8ocV82+UYDPHCXPk+zWB7t5dHz27EoO8sB6HCtnu7+twKQA5PfXZdRQq8iSTAQzDHHZNig4pMM3TZgJC67jqoiXL+cIV+bo6AQk8hYliKY4ml0lBFLJUYp7twItisxlLkzsjCNtg9F8mYjVSfugHk9ZVNpIaS00lBaSB1KzcRi2Gxj2QxTFQo3HjJifXIsa2yDnGIGbjHuQ/Kb6OdsaVX95JFWSvGvk9CNieCVVYjsh86wmPwhkVJka/MWf8/XMS4qhhfQsRsWmaOY3GTV70UV4HwSSWsglNVx+hmLula2yApUV2LcVmBSAvGZtVgosDF3jFjuGzaXI25DFGD74SsQtU7KkAVu3TNgpEx5tfcT8gb8K4LjkS7p039CUlt/n8wWErmKexCPLoOhcCbnZKqggKx47q1Tc7LCh6QNzib7GHJ6qZrOIQ8ZH8ErYNjihUXKWUhBSMhvpriHYiUktOZuqIpPxxYUnVrzpDsSwXvVaKxfyWGYkYEcBevR/qrKuXM59XRODXuI8O5BkBaJ5NARej6AezRPnJEUe1bBMaeHkOdUmdXzj9Jp9uyvK3hUWR4DRPoSlEU4/G9OfvuAd7087YIRhJYF0Dlq2ccxYeX86xcq5vDwrMCkA+eMNVbA480UKKlHnjMIrCTGLfmRtFgEVH/6Q4appQbN0eFHV2bZNKe4URl24LqvK4+YSNnWL7H7hHqXFMIAlOUTF1qTxL3LLUQUa1YkThJwkyO4VHQVWr01L+rxLJQ8lIiL/X0JkGl6o+TVidiucU+Ycqjk7LKSAoxgoZmcvuCoe8foMjoUwTDG1kNfSbs02kHc8DGk2ip4y1mCfNQs+hmnBcVwJ75ljpdEG9UiGqUuxRpiifECocF5CeKmBq1ZO6jNrbQ1XHqush/dp80rwHvgF/GfuQNi3E2G+H/BK+7Sr/f5NvNcSGaCqCXrrYpgnvgv6jGUVoNzv/3Av/QlOCkD+cFOVElNHI1YFcKRfOeJ11AYyrxiND5AcI7ttJDepw0iaahwrjSMMAiYdJRU+sgIunopcq5CyF7bpschhokQOGLncKLNZlbMTrTjdwT2KvnXJVxIoGer3+RYydUmpsHAujBRJIm1ksag6bAhQpaIjzJbdNPF4r2QyBd0vIesWkKEEx2JwbwhDzRo60ponxyOjle4gzURHwcXmkgG/Oi3nlSYD1OmdqYpQFJjTnUeNQVCu5kI8WViSnKiqwpN5qoFo0totoysuP6zMdGIv7iV/00Nwf/sphP079+JdB9FLTRvmie+BefoHoKVyB9GFVS5lb1dgUgDyexurRdytyYwW5gg5i0VZeFm2oZic78EioNARm1IeDp8iSFBPyEKMlIfVrJrYHkyGVTGXKJVqNQmQxQ2yVJlXk6BbOAHOR9KyFAuUyYIcA0stJH9vKB2l60sFmjF50eM5qgIQvR3TaQueE6BAHScNf4slaHThMUyk0jZCjeduqcFZjo8gX8KCtIepKQOjroa2wTyqTAtVJnOHzCtqYFGns6ihp+ij39UQcB6LoaMhpWOWFaDaUlX2QdfDsOOzJwh55kINWwCT1fwwoI6S9S1l5SbskZ00eoAcAnzqyL0HSG/Fr+Hd9k2EI717ey8ddK/XF58B+63fgpas6EkPuj/uHl7QpADk99tqJDfGYVKkW8wtUv/I0aSpJJAwQ3HCIZiNFgIUHTXhzzJ8KT5ooSmVZsdT5hO2pSNt68g7LopFZURL8Cs5RdhJE5kEJ9UQMBgWcz8UfwfwPXolGhgacqUn3PM8McmwbAsjhaIy4qVQ3FNuO4mkjlq6P4hMUoXjjmvAKxTFqo3XkclYAnhKCqTBcQIMjJRQxQ8Dn6/34WsmipohZhxJS+UqyZJLDMo1FfqPDudFByoCcTmgDyNByzVbPiSEcNOeLZmUdIFJwwuyXI6WlZBbsXEh0l6IKkvDB+eMD9/ak/vBf+YuONd/BHCLe/Lyf4jX6IvPROIdVwPMUVa2/XMF/BLQ3QWMFmKLBjWVIFsPNNWqnuV93CYFIP8w0igTCkUbrTqso4wZQ9a46AHYBA8ioxjwBBL6ErAYTsbuPexuUZIeNWWQXSyOq8v3DMtFD8lRsZaNBI1r2QzDEJRtfEUZ2gIjNOS4EhpTqsMBAdQd0idSxpNSmB2iJkfrB0OKNknbkDyimGDQOcei/pJ/kwD5vCM501RGx/CQJ6VpLQE01yQiw10pvwvLlRQsWXA0V6EM1hTzjaZ+02vS8XToBQdWQAapoxDqyLscQsZaObU+TCdYUmyy0oZU4SV14AC1aQ0fXLAXg7C8EopXvwZh16a9u5WmvQrWsUfBv/cHCHp6xt6rL3oDjLn18G7+EfSzr4RRG82xVRAO//Hr4G9cvefHMmtgLHszsPNH8Cc58rde+XGYp3+wkpPc87/WJL7SBf78feDG28aVK/HRk63Au74GHLfvngSTApC/3FUPx2BOkeGlBZYzfN2FEXjQQwPphBoRkLYt0INVia1VOGxI6w1zeWqwqybvUTgr/clkfPylxzA8QInFDdqZiQYxWjM/EIsyExyxYMDkqAXJO2ooeB4cX0OXa4o/ZCqtw7R8JCxLwC6TZdHDkMIMLcg8aiDF/oy90/zgyquCDnOVlo6G+jSGRh1Mb0zLtEQCVuxpIfIhceodF4gTbJ3AR8nxhbk6vo6QOc9iCM91ZKBYOpEU7WPGNmAlDQROCUs4YtAJ0OnpcOEhz0KPzoo/c5NAg63hksP3nPW4t34T3t0/2LsbOzEd1rt+DnN6As7PLoC/ZYt6v5aF+dqfwmx8EMUf3wL707dAd9YiHOyPKG4I/8FvwXvmqT0+njbrDCQu+hb8Xx8Jdy9wdY8P8HdeqDXMQeLS66FVVTqTXoz1fFH3MbgV+OangcRxwPsvhrSfcSv0AT/6HJA/CvjCh5T79D5skwKQD4RTkc97SLCLRNMxRDpJowrTRFVKtfSVRh1MybBvGhgoBtLSV2Qt2FRFFNPSJUQm82K4rGxmWYHhjGw1G9q2LXGrLpB1GRzrYMCwTQwOlZQFmkupkWKmdOsh00xmTYwUfRi2Lbk8Th9luMqcZInMtOjBDT04RRcp08CoD2QSbPsLMOz6kjZgi6OE5hR325oAqm0rGRLbAbWEgUQqgULehVd0xK9xtOgjX9JgmZ5YoElnD0fQUsJjWOJ87hZd6fKxE6YY7UpV3AnE89IyQ2Q15hwMmYZIP8uUbQrQsqJflTRw/qKJk7J2f4cw31i66ry9zjvqJ3wV9pnnAlYebjlAppphX/wb4PE3wHnmVCQ//iX4N1wC9/EH9uEWjTD3ZQRIhmv2Bd+FsfScfT7/yhtfpBXoagM2V3a9UAAAIABJREFUbB0PpbufBm67BVjybmBZuUG0DzxyA7CxB3jlhUBD9CywU2/hUUBDeo9OaFIA8ifba5G2dNTYam6KZiclHPQDXQoflDm6pSKyBicLstNEyW5CK0BtVUIGYklBJQrMpeCDEKP5ksoVEow4I9vQMFIKMFIKkU6STbnIO+yPJrP0UZVIwnFKKImukqDK4V+cWcNuGmVxxu4eymTYscMcZa6KYbaDhKtL3rIYekinLJEs0ThjcLSAluoUCkGIHd00oXCRzVbBTkJcdUhjLY3VdIrGabQRoHswD1NPClNm1F9wS8ikkygVSmhK8mca9LQNM8nCD0A8Zh4yZSshOM+vQH2k60vHDJkwUwlDwy4szZJKepUR4q2L9uwm8Dc8AOfnF0Ni8z3d6t+A5Ac/A3/lKhjL5j8LILXcQiQ+cBXcK8+Df9iHkHrrpXB/8274G3eoIUPOIEKpiE3ckjDOvBLWKa8USRXcTrh//gS8FdOR+OyV0NMm4A3Av/ZdcEZ0WG+8Cub0aWpokdsL/88fh/PIw8Bxn0bqvNcg6B6B3jIFweOXw3myFvabPgQ9lwYCF8Ez34fzmx8jZGP/Hmz6oechccF39+CVlZe8pCtw19XAr26NbLj29kgsgCSBd3wJOG3pHr15UgDyXrdZ8mUMGVllpcsNG1VSqaQ85HmXOkPlOG7LwBJdOmqoJqR4nGCXtHQUiwQJHY7rSkGHxRoRmEPHcNFHIkFPRjXWgIJs3vteyZN5KuzrJvtkpZgidY49GMmXkEww8JauadUTzamHlinPXOC7Ek6z2s4WPobiMiiL+UuOcii6kpusz1KGxMIL8wCqPbHgasg7AQyLrJiTEgMMFFz4no9s2kbWVkYdnhcgX3SRSdrCUIVHMg9LX0rOy2E+VEw9okngkf8k5UcRt4om5agikVJncopjgPNay/N+z30/+I/+Bs7vLlPgtSdbqgXW26+DgftQeipA4rXnPxsgj/ghEiesRfEH34Zxyudgn/dOhP2bEeZ9aHUtwK6b4PzuKwj6JhSDZn8eyXeeBu/WbyEcKkJb9hFYM/IoXnMZ9CXnwzrvEgR/vRTe8pXQ3/wnmHUPw73jdiCwoC34AKwjDThffC18AuTr34Pg4R/BW/MEwuEmWJd8HuHqn8Jf+TDQejas894O/3cXwH304T25Ymg1rUj++/179NrKi17CFejZBKxfBfzqGiC/l8dpOBp47VnAgqOBBg5/fv5tUgDyppEmNBDkjBCWrcMtjGDUSaI+x6oyrcoMZXzrhSiySuyWYCeAnM3wmoURGlYAo64rdmGFkodcLgXTd8XoggDCkJf7Ut0y7IyR8nfcmSegpQwdVCVcdIYCriy6KOlQ1A2pICbah+rJ5inErubRVMPIcEKOKVp0vshUphpSGFLzu/lzmU0WpQTKe7J5GEt8Kxmyq1ENcpaRuJ3npTbVAfR8m3JeV0YcSQM4rWHPijTe/T+Fe9N/PN/ux36vz/sc7AtOgPft8+BN/ySSb3l9GUDqMN/3AIy1n0Pp3vthnPFtWMfPgPuzt8DfNQJtybuRfNfnENz5GZT+8n/PPuax30Xy1YfC//UFcDf2KWF65OW52xwk140uStSyNh8C+5Jvw//cyXAJkOe/Ec4v3w5//QYg/U9IXv41hE98E6U/Xg8EDmTi2d5sNET+6oa9eUfltS/ZCvQAn3wnwJQ2nxGGa6ELOC5AwX/o0NwVSCTVcKdi9EE8643A5Zfs1VlNCkCusZqFvTFPKuOsOeaUJg9RL3Z10hBzW5/5Pt9Fiheme2qKH40npAgcSIcK9YB0vBFnoEDHYMnDxs2daMhVo6ohjeqMBY2LM+b2bUgnDPOOFIKzZ5pVDBrXDo6WkE0qvQz1iQxd6VNJ0wdClRKWqx5whZ5KbC7hufg2RvO5Y2ATLI1mWitYi8CTO4hE8bHFo4y15XREep1rIoMiWDIPual7FH6hCNdKojBSRG0ygaokNZsu2vtcjDguEpK/tVGXsTDisrXQQDJliq60r2sIdtHBm45q3qObwXvwF3D/eMWetRE2sVjyVQT3fhju8hXAIRMAMnE6Ep/6FvzfvBPe2jW7OX41rI8uh+F+H8VrvjeeS5JXLoH1titgLD0cmtONoH0F/Kdvgf/YncDUU59VpNFazoB54vnQpyyBVlXNjgFo6RDeZRFAvuo8ONedC38zaUYOxvGXwTzzVdCTIcKep+GvvQf+Y79G0BMVjp5vpawkUl+a5OrQ853TP+zvywCyah7wya8CA7cA//kz4BO3AkPXAj+7B/jw14GmduCKzwLEyP0VIL945yByKSCXzsAtDiNM1iBIpLCrq1/CSWd4AOlsFvPqsvDgYGpdHfoHBuCaKWwqlHDLM10YSlRjcKSI/8/ee0DZcZfn/5+ZO7e3vdv7rrTaoi5bkiXLXWAbNzAYQi92gBBDKCbUAKETICEQCImNbSAYbAdjDC6yDbJl3GVVq3ftrrbX2+vM/M/7nbuOfzm//z84Omf/Cbr3HHnXuzP33nk199Fbnvd5zokF8HstxlMFuqI+oq6C0m+Ukn1wZJT6liZG85DXdZKZAg1ene6IQUw3qYkEiXiFJJ4nUBtlNK2jRWMcPXaS1QtamEyVGE7MEA5XsThqUVctVCEng1XSaWXwU5srCuxFocgpiR1tW+F6lhx9SsfYUIlOON7YZVqR4+WlWgcln4eRtM3PH9mFaXpobOnmxNAw3Q0xTh07REddmLa6KppcHoYTeY7aIaamxglaeSx/mFAgRF/YZDKe56Rt0OOBnbt2cyJZYPWiJu754No/6iNk7r6fwt0fV3qT/9XD9dof4zn3/JcdVhbQEDGPbZ8if6IL/1UXULj5tZjjstrThqs7hPkSWGq4P7gPl/av5P75n/5PgBQCvAqaiWvD5zHOexN6rEDpu6+nFOh+GUA24vnEFlyuFyk+/G3MfS9A9dvwfuhGzM/PAeRlFH58CaYM1iXTVFVGCa3rz3Bf/G5cXb3Yu75C7t9/8p9A+v8eAb15Md4PP/Bfhafy+3mJwMsAMtLjAGTyUfjWzfCJhyF+K9y+xQHIxnH40qch+z8YIFfefBQrm2FVXRVdwSw9DbXMuNz88EAS0y7RFQgSMHSq/AbxeJIlbfUk4zOMpA3yhs3IdJympgZy2SzjswVlSNVaHWE6ZzGYSrMuWGJZZzP9E7OUqhp49ugQ0XCQoZzJYr+HGr9NrpCh3uumOeyiNuBR5lvpokUgGmMgUaJk5dg6U1SDmxWeAkubYswkLNxhD0PTKfZM5WhureXwoWG6ag1ITtLd1UXQY7BlYJLWpnoCJdnOgZTtJucq0uo1mHJ58dkpavxBQl6P2hPf1h/n8eMpRuIW/pBX0XIyqQxet5/c1LRan1zbF+XS7kay8XFm03nWNEWYTeSZKFl0RKJ4vDq7h2eYyXk5NDBAyM5RGw2xdmEVT2w/SXV9LXf8xao/6na1hvaS/9e3QFHuov/vh9awCr3mZbyy5qtwX3gu5ubvYB5+Dn31FzFajpO/+cvYrjDGG+/E3WNS+OE7MacSaI1X4b3xe1jPfILCw7/+P15Mv+ouvMsy5L9/I1YmB7734Pubj2D94FqK/q6XAeTb8X3tc9gPvIP8s9uBIK6NP8ZzaRulb55Lsfcz+K98GUAufDe+Gz6Fef97KD6/FWjC88mn0Me+Se7fbvmjANK48P24r/zUfxWeyu/nJQJ/YgB5w90HaKpp4efbB7m6L8YFrTFc5PmbfRZ+n59aO8VYKktSiNoFyb6kaWeK96tS0LYFyAJuXF4Ps/2zLO+MEvNqFD0wPJkj6nWrjZv9xyf50IWdhDUZvtj0z9o8MAG9Xqh16+zMwmDK5MJaN5d3RWmtCjBt+rj72CTE6nl27wDntwZ5du8oXk+G8zsaaS7M0NrawMmih6dHTY4OpXBV+RWP832d9azpdNMSCjAyO0vOX8O+kTjjmRTbS34m8jn63Db1NSEeHozjdQVosIv0jxTV2qUu1yaTbek9zBRUpioD79qYpJgmE0ln4+eCRo1QKcklXY1kwwEmxqdJTswQNDROjoxR19LGz+68j9q2HkUPmhwaYuWKlTz9jcv+6Ns1//cbsSb7/+jjXzrw5SX2aAH3Db9CP/EG8ptG1CFa9w14//yzMHsI68Qgeu+FaO6TFP7pSsyJ//xy5+P93G3oHMc8egJ94UVoHCL3w/dAeBXeG26Gqcco3fk1tLc/glGTwjq8DerXoNdF1XTavHclBfd/AkiqMT7wGO6WHNaBZ7GjS3F1LKT06+spPv/kf33NhgffRx5Aq+v6r4+tHDEPEfgTA8g1//widtFDRtNY2+hlcdSgyudl26FjbC61qMlyoZBRvcBo0KvKWalJZcfaJzQZn8HMWEqVsS21HjqqfBwYmFXs8I4qg4b6GvaOJqi38nTXh2mK+jk0MIGnyk+VrpM2/AzmDF6YyFDImUQDJm9d1UUuMU5+doJSXQePDsTJpXWKiUIZvNJc0OzhmqV1jE8kCAsNx2XT747xy/0z5DNZfIEAje4SV7cF6Q6LxUORk3YVDV6TcXc1D0zlSOcK5LxeUpNxdM1NcVY2bZxpsfBAdZnIi8xbTkQpnGFNMOAlncmoHqYoEjV1VKl1ydZSnuf3HsPUTLpD0NsQ4/DgNLPpAss7gtR4A5zYd5hgXYjuhQv4wQ3L/+ib1Tr8JPmfvg9Mmfm/gkf9BRjLl2DuuBs7C651b4QXb8V8WWtPa9mIq2cFmkfHzo5i7foFVuL//hpayyW4+lYp/ivFWcyDm7CGh8EVQz/rOlw1YeyTd2ION+NacwGasATyo1jHn0Fb+FoY/SVmpgd3zyLM7bdhyW0iD1cLrnXXood9YBawR5+ktHfXH3Whru7z8bzjh84AoPL4HxCBPzGAPO+7O1jS24UnPo2hmbQ3NODxWkRDAQZSLnZPxfFnZX/ZZtpXze7BQbRcjrweoEARK23SVFfP5PQ0ZryAEfRjWdMsbqrGaxlU+XU0f4SByRG0ohvdinNhXye1eopMJoOnronBiRKjtotj00l0j0HQH2BgdIqknmN9bTVv6qziSy/GSQ6k8QTdFIsJmlqquKrWZMGCVoaPHSflr1XDkqF4kV8fzRGorcJXFcA1OsalS5uJjw+hub2c2x5iqAQ3j/ko5DXIldR+tKz86ErZViZSymEMS0jtHjH8cib6Il2mi0akXcSQSbvbRSmdQ7ML2IkkRi6NV0Q9ihq5sRnIpjHCIQI1BulUlpUXrODgzgOsW9TB5i+c+4pu5sJdH8Xcdf8rOudMONjz3p/hWrThTLjU/yXX+CcGkNf9ZD+RSJh8MklXLMS+gTFq62pJ6B6mJseY9ceUBWrEZVCtlxicydHV0MTh8QmSORsrLWW2qVbr9KBBW4MX3cwyNJqmrbuFQibH8Mgk3R11DA/NsKDaw4p6P631EToiOq11UfYeOsHmTIgXZwoEPD4iLi92KYfl0qgPhhiamiDr9jA0XFIZpM8n/EsXHREvXkNDz+YIhwIs62pjX/8Qh9IlhhK28qQhFMRv28pJsDEWwh8ycOeyPJZwk84IC74MiDLIEeUiuRaRMSvIlo2h9sdlQi5jINlPlPclD0PzYEtfM5fDTCSwJdtMTeCWUOTER8eglMriCviw3ShCfENTLe0dDcTcOR751PpXdMPb04MUfvFhrFMvvqLz/mQP9oVxX/kZjHPe/Cd7if87L+xPDCDP/fsnSHuriXjACAXoHxqho6aZ8dkMHjNPMJzBCMbIeGIkEmmyUubaLizZK5bd5EwBsyTUHYg1VKFbeXL5PPlknFBNPfGpCUW+aY64mMoYNLY3Ujy2j6vObufNl61kdmSIld2tbD0xy/VPThN2uZgdz4PhEUY1fjPLlWu7OXjyFHsmiop6c3VnkFIuQ01dDLOkMWb52TsxydWrF9PuivOtneO0eT0czljg9uDR8+SSHrVrHYiWeF9PM9/dO4EWq8GjuSnNZjBzRTRRB1ayac7AVvauZSVR+q5C6RIqkuJWyhqj6kkWlBOilUxgJ2cxiiWsQlGtW8qOj9KDFNKo24XlcykOZsjvI2JnGfjpm175/V/Mkb/tPVgnX3jl5/6JneF+/dcccHyJlP8ndoH/ay/nTwwgr/673xNramTfZIai20OiIBmSqFKIoIRNjcdH3jYJN1YRz+fJZCy8hpdivigKFFg5Ey2VxzD8KlMSqa/CTIqW1mpO9U8QDEVI55NYbserxcgWWdJVzyULIrgys7Q2VHHB8haSMwn+ZvMpnps2lH5jTVVEvZd0QjZzhFdqEPW6aPQVqAt4GZpN0Nm5gJmJOAPTCeKGScHto9pw4w54GJzOoeGlJ+ZlJJEk76vm6s4wR0dnWLmokd8N55h2e7EmU4hptyWqP0Vhm5jqfWpet8oQlUKQAkqZgss/DCaaaeGyi+ilLPbMJGZCLCWK6ufSqxWlcStfUjQjVyCI7TNwx4L4bJ1U/zidPdUc+Zcr/1sfAdnNNp/5KaXdD2BPD7zMT+e/9XT/u04yvLgWnYfrgutxdVXK6v+Zf3kvA8hgJ3z4qzDzAPzrXfCheyDxE/j5U/DnX4OGU/Ctb4CI4f9P5UFu/N4TRIoFDk3ECVc1MJm1VB/RtgrUVEcYmc2gi8JNCUJNdSSKGYyShpnMY87mlB+DsmEN+9ECBoV0GjtVQpMlCq8bsiaBsItM3lT9uosu6CY0O8qiai8zs1nOaosRa2xnY6+He7aO8uXdkxSTJqVAhFIihS8aIZszCUUCdLVUs2/nATx+HzkKnNPTwp6jE6TSSsUXd0OAoqYpr5q8rOZlNarrIqTDMUXkbvVLOZ7k4sV97EnlyCZzmJkkh+IWhRlbAaSWyTvgKHefcCw1E71gKQsFWVm08wWaQhrTIwOUZDsgmVcT/KKQ5QsmgViErABmKqdaD4YngKuzjsLYtHoezTJpaA4w8OPX//fvb3lfuSTWkaco7b4fe2AndmryTxMs3T70uoXovRdjrH8bWrAajFcuNvzfD3blzFcWgf+0SRMIy5YJ5PIgCvC2fF8Afwh0E9LlncT/qQD5l997WG17nLd2BdsPHCWesUm6grijUXylGYoFi5DXy1g8S20sStHrJTM9Q8TwM5YscGJGJMzEvlXafX4lZlGYTSmRBo+Voqh5MAIBta1TXRPmiu4a2r15hsanqQ4U6I97+PiVi3m6P01TTS3vfOgFtYXTU1+NbZocmBY7Wh1rJo+WL+INGpSEsp7Oq76gETRYuqKXkyOTxAJhkrk0PQub1CqcCG+M6EHchQK1WpHO2iq6GgJkbcFtG4/hIuTTmMyanEiW2HN0llODKUSIx5aeqohziCiPKSuPFtp0HDs+iZZIoLndWPkCht+NJXvnomokQGkWMFMmel4I7CJ77sYu5B1rWcPCCPhojno5+dM3vLL7rnJ0JQL/KyKQha+/A46nX8G71eDsG+DGV9Z2mpdVw+9v2sOeF/fRvqCbGp+O4fEwnUzjCoUJ6LBz6zOce+4GUokZ6poayUxMEG1opJCYpmPRUv76nj0MzWaxZJo7Z53gMTCLBXTZ1/UHHH8WUSF3u/BHPPRoNue2Rwi4S8zEM7znDRv52aYX6FlUz3eePsKEy6OEKsQcK5PU8Xu8WBMm2ckJfAtjFDJZTFH9MS0Mj9hxmbTWhehtr6NfizKZzmJHIuj+IOF8ig1BH61NfryhANGQW+2NS5+wWDRIGhq5XJaw28t4xmI8rzObN0m4dY48fkyWzPGIgMfIAFY2rXifWkEYN5Il69ghL3ahgHjIeoJByIrbjqUUzc14TpXaLsmkLQujKkA+kaS1ysvg3W97BTdQ5dBKBP4XRWDXvXDLj1CGT3/Mw1sLN34Hlr4y8dx5AcjP/nQbW57fx9ndDTQ3RYm4g9TUhvnxr35PV2uYKzaeT3xygpjfy55TcToawsRiIdLpPJGQl19vO8FQwU+4torkeIadwyk0t2hDmgQkm5Rpbjaj1Lhtr0EoYPD67hhVQY0T42nCvgBTWYuklmEqbzOru5gpGRSLeXSfi4g3jGFrTO8exWz0KzEDn+EmWzTVfrQt/D0MtKyFvzaGUR0i6fJR5fUQdetc0RjDV+1D87tIlcT8S8Mv4rxujbBbJxjW8YrSjmVzMq/xsxNpZjMWhTwUD43D0AT61KijTFTIErA9ZBMZ1WeUv37La0AmjyvoUwMcyaSl3BdptqJeQLwcReZO+KNaroSlWbQ1Rxm47TRK7D/mpqscU4nA/58RkDJahGD/mIfhg/+Gyee8AOSGv7iFouVS637nLW5hz8HD9PUs4Jl9I3z+hss5fPQY4aoI0WCQ+57czTmrl1PtVYaGZOOTRCIRqqqr8PpDRAIBvvXgMfYMJZTkmJJJs0tK8Vu0Jm2PC000GyPQXhujXi9wOGfQU9VKXdRCtwtMecM8feIEUa+X8WMpNfShzoM/pZNMZtEtF4ZbrAwK2AEDl9+DVszS3dSELxYj2txAqmDjN3Qlz1bn8xP0atREfUTKfw8ipqF8spXDhKPKIyWwiOsOZDQGkgV2TOaY2nEU/fA4qWwGK5/HMAUkZYov02zRehS7CUsNlYpuCy1bRPd5KEkfU4nZSHltYSlxDvGq0SgG3LSGPQz++Lo/5tapHFOJQCUC/y8RmBeAfNfXH6E+CqdmC8SnxrlwzXL29A+gF3TCYTdNVQEGTxxRCjV53YvLrbN6WTe11WGmxsYJBYM01EQ5fOQQa9esVtzIv7rzADMFG7dboyboIWDmmLAM0oWScvUTBVnZOGmKBYj6DCYKLjLZPEEspkSpJyN2gHnQDSzbQHNZXNQTYmVtmK0jWXadkIxUo7GljtHxJKbXxYL2Bs7paVPEblH+EfVv2XDxyL9MupThtrKMKNiOdJnjle3IqymOowJJcTq0yds223f3s+W2LehizCVOj5IN5/Po4s2tvGlBLkUyS9vl2MsKyErfVAkPl/17XF4fljgtCkh6HK3KlpiXk3e8sn5L5VNSiUAlAv9nBOYFIM9697dZv6RTqZ6Hgl4lJrutfxhPvkRHYw19HbVkUwlWr1/PybEZpidGWLNsMf1DQ8yMTrL8rGVs2ryFqlAUvxeWLV3MV3++mbb2RYTDQY6NzeCubyPTf4STVNHeWMvJ8ThmIYepJBE13F6votboIgVoFfAGwgT9PiaTMxgeF4FUHLOugSrNg542GUvmKEk5G60i2F7Lmo4YDeEgrbURla0KFgmlUc1FXDY5wyCA+NZARky9LEuG6/jcBl5K5Eom2WKRKn8ACkl++uOnGDg2ic90UxS+o2VRSmZxhWQIpTneNZINpwtle4iimiDLkEaUzhVQynnyXsShseyGaPvc2NkcLTV+Bu56S+V+r0SgEoHTiMC8AOTdmw+w58AhyBfJ4OF3O/axqK2Z2uogOgaRKi+9DdVKUvbxp5/h/NXLaWnrZDyV59FHHyPkMXnN5ZcznrKxsrN0NlbR1NxC/5FD7M+HSWfSNEereOJ4ghULW5kcT3CymMVt+BgdGmHE1jBETzNbUOATDvoxxIq1UKBhYQfpZJrzzl/GwpZqnh+Ic/jUBCUhXIvGpFunyeehJeihIepXupW66FFK9iaZougQOqmdI38mfxmqLBYVXcdrRh0jFmOaxsz0DNufPcYLWw6qFcqV63rZc3CYUj6PV3yvS1Jei0KXS4GmNBxFt0O9hFjNiqGXALehoUlpLdmpDHLyDloL7cnM5mlvCtH/i8oGyGl8NiqnViLAvADke7/8M5IlF+NjM4zOTBGqaWJJWy3N9SaZjIvBIwd42xvfrAyzfrflUVavXEdNYx0PPvw4SxYtZPe+XXQtWsAzuw4zM3yCD7/3XfR0dTA6NEzWV8Xe4SL1kTAuK8e6rmbufWoHPYsWsmPXPl4o+Dg5m4VEAT3kpxRPYuhFosE68u0NLF/RTUdVRDkWWiIeoURuxbnQIp0tKiMvn+GiyufYKshKoAJDQ1eOhQodVYtRfqekfZ3sTnneSKnt+H2LH83URI67v3sv6ZSsOEo57EYTIzIR+JXs1nSpp7Ap4QoGMIUoL2uJqtcqmaJ6d84wp1R0lNDLiujqe/HHNosYQTdN1X76b6+U2JXPeCUCpxOBeQHId/71P9JSF8X2+Nm8/Qi6ZdLYVEdTlZ8T/UOs3bCBseERvF4/569dgW6b7D9+krGRE2gFmyUrV7Jj63NKquzdr7+GkFEim5plugCXruxia3+KI/1jdLW2UtfYQsgcx9A9lPQQ39z8LCcyLmLuGNnZNOPjSfSWKurX9HF5ewv+oBxn4/F6FDiKorf0A2WYIgmcKJG7BZzkd0KeLjsQ6poYcIk/tZMZOurjzjBGTZ4dnwZcktXpLrKzCe74wl1Yuo07ElBgls/JJo6OR3NRkswwY2J7hRGvo8uWkVpBdFxmhONp26Yi2IughUzwPYaHQi6v3qOsYRpeN/lCHj0josNBBu599+ncG5VzKxE44yMwLwD5vk9/i3jRxhVpUmKwg2MFutvDjE1MqOyspiqGZRc5vG8fn/vMTTy1fS+lbI7z1yzjzvseZOGCBSzr7eLZF7azft1arPQMqVSCom2wcEEnwYCHiclZ3EY1Y7PT6P4o3bUBXjg1y292jzE6niKRzDnbK0E/PecuZWF9lPaGGjVcMYRPaFnkxCPbsvC4PUpUQuTWlBK4pikakIBiSamD64j/i5TRWbOkeo0lSyfkEYB1Bj6WZuCyTNwChPkcm773IPGpFFrexA6KhJuPUrHkZIeSKcqku2gp9R5bF1dFsYZwoZUEqG2sQgFdeeRKZiqrio4BmbxvyWDFZbGYyWMJ4dyClpifgQduOONv8EoAKhE4nQjMC0C+9aavUddQS1XQx4kJ6e1F8Ro6+/bspbenW8mO9XU20d1eh0+zGZtN8NDj27jy1RvYunMfGy++kMLMOG0tTdi+MKOnjhNPpThzJkzxAAAgAElEQVQyMEhbSyMe3cW5a1bwh52nmCq5OZKA3powfxjJMTk6ieYylI2sXhUi1tHA+T1tSuHHJTQaod6gkbc1CujkJEtTShLi3W2TEGEIbKIuDb9MmzHJlSxmrSKHxlKIWE+3ZK4ujcGpcaqCQQbiCZIyv9by9EaCPPW3t2F46tBMUwnkmlUetFQBTyxGbiaOyywpUy/dLpuHScrocqlptVE2LZMVbFkhVIMbl4aVLzqZo2Vj5guqXyn9SXnfdrFEc9jL4O/+4nTujcq5lQic8RGYF4D8+Dd/xIaLL0bPFXhh9z62bDvBOSvbqY+GqIpWs2dgUvUW3//WqxkdOsX9f9hKa3sfO17czaXnrydetFjW3kQymSCBh51bnyOLRWt9M9VhP/UhnSV9veQtk81H8zzSn0AzvMyKOIRYvbp1qgNeUUuja2Ezfd0LcdkmAa+beMkmLjatJYu4rZHTdXKWRr5kUiiaJPNZPC6bRZEQId0i7PEqD+2MaRN2i0+2S1mzCkAVZB1S9Bw9hsoqxSI26LIZPzDMkbuflioYoz6CEdQpTOcpZvNYxRIu0YMsOFa24oaoG447otTWWlFcbRxxXWzTEakoFvB4PBSyWQWiApIuMR8TQlEuj6FLDzJAfyWDPOM/4JUAnF4E5gUgb73vecnRCHgMAoEodz+4mQ1rVlBf24DHKqAHq9j64l5evXqB6kXe+/ud1LXUs25Zn+ot9k/Psqyjnf2DAzy3Yx9ddVHWLV2gqDpPPPU0nd0LWNRcz9krl/JvP/0J6VVvZutonkKxoGgxPl1jZcxPUXdT37uQWHW18s1OZQpMZfMUfV6KLrdyGRR9yJlUCo/hJhjwKVDTJcMTio2tU9CEr+hSu9O5YgG1DSplsrgi6rqi+Ri2rURthdcp56d0Fzvv305hyy7V5fTURMnPpMtO3BCORsmk0ypTFTEO2a8WwFWrk8IGF4h02RSzMuEuuyzKT81yiS5TbCmtlVOFDHw0Nek/cd97Tu/uqJxdicAZHoF5Achf3P8EPk8Yn99LPJOjPqgRCEeYnMrw/K591Ld2cPjwQd5z3aW8ePAEf9i6i66Welb0dbHj8Cle2H+cRCrFNa86nwd+v42gV6wJ8rQ01RLPpHnNqy4mpJcIB72MDg9SUxvj088b5AwncwxpNqsaq8h5g7jFXMvnVdlaNl9kKlvA8PnJ6jopEfl2u5VHt/LMtiEjgCP2rGp24iJZKCBr0apnmcuqibLXbeA2JAs1iXjcNMnOtNtNSHxnsJkpFBhLlJh4dDsMjKjBt5kSPUqXyhBf4jQK0Ho9aqMmUh8jlUqqabqSQ5OJuQJAcR6UHXHZ0zYc323DUFJoAp2SeUq/tKkxxMB9f36G396Vy69E4PQiMC8A+eSzu9EDMXKpabbtOcyGNcuxNDfP7NjD+MwMl65fRzqXZ2xyUtFiEvEEXe2tPLl1GwnTzdDgSdafs55FTdV88Z/uomNhJ2sXN9Pa1sCTLxziotWLWdnXyjPbXuSs3oU0NcSguou3/vQFmqIBAl4XS+qjFEIRrHBMcEkNWgqmScbSyVgWs6alMj0pt1OlIgj52paZtgxnHH6jTLeVIm2Z8aikyGyLoNuDoYsypE3M0Am6UN/PDXgEYI+mi4xOJLAnUpDJwGQCYyJBYXoWW6bV8kdoj3KevJhkrR4pt10OMIpykMuFy2UowVzJWmVTR5X0oq+bLShuplpPxKa1MVIByNP7bFTOrkRgfniQX//2zUTr62mpraeqOqZ6gV6fj4cef5rVy3ppqW+k/+RRtjy5i8svWcuzu/Yxm7PZd/QUfYsX0d3RxM4duzl/w3q+e/Mv6VnawS1fv4lbfvkw+3Yd4+INK6iOBjgwcIol7c30tjfw4sG9PKsv4VhRI+IJ0h4LUfAFyHn9ZZ9qQR3ISiboMpgomcyYkBPBWuVn7ch1y7zkPxSlhQBe5jnKlFmRwwWrnKm2V9MIWRZVBkS9htqNFxqPHDOezTOQzFAq6RRyRYhnYDqFPTaDNjatSvFifFbJsAmFRwY6yrhKWovCjRRlH8kQiyUMj1sJVsgzl0oFBfZSlsuQRmTRNFtTYhUn76nQfCqf8UoETicC85JB7j8+RS4ZZ+DUKMlUmlC0loMnBuhsa2JpVyN1kQhj0xNMjI3zw3s209vewZ7DJ0hmobo2wLlrVzF+6jgPP79PAczSvgWctbyXVCJFMBajs7EBv55DD0TwY+E3IBIyeGY0zwvZNmbdHmJ+HzOGQcZllHmFpgKcAjazRYukrSPbfVJaO4/yV8X9lmmxpHdyjjBtTOzy8whnUTiQ8jtdQMosohdUsYvb5aI66sewLCYLRfIFQUELw7IpujSKojc5NIMu9grJDO6JGYqzcYeqIwebFrpPLdM4yuOqH2rj8ovaeh6X36eELcTCQX5my+53OfNtrwtx4t/fdTr3RuXcSgTO+AjMC0De/ov7OWvJYtUrGxsf5WcP/oHaUIilfR20NTWSSyfZdegkXS3N7Nh/nMmZFIdOnMJ0edUq3RUbz8NlZchYNr9++Gk6OztY2dtB2LDYdihFW2eMJc1+JQxRXROjoSbC9376Ez71wY9SFa3irw64lW9M2uUmX876pAwVJ0HBvZz8J5uj6A6oVcKXwFGNj52Wn/Njh2OokcHSA1iyclgWkJDvPS6NsPpjEdQMDN2lMlGpko2ipTJKGaJYHi8ThRLD6SKFsQQMT+EenaQ0Mo7tD6C53FjjE+iFPKZZZEFfF0MnBijkc8pQTEp2WXdUQk/yBmSo43Wrabj8TJLblipPpcQ+4z/elQCcbgTmBSCv/PObWLX0LJ7ftZMPvPlN3PrzX7CkZyGLlvTw+ye34nX5mC3keeurL8HI5/jNpsdpXbyCJ3cfYUXfIly5YS676EK27h+gq7OZXz/0ByJ+gxV9fTz4+FZu+uDbGDx8gGgkSCjo47Fnn2fF8j4W1kbp7evjtlwHm0fS5DVdEb1VRihfShlcdlJZNsz4apB6VsDFKaydY+b+q7LEuZ8omuR/CHU6vUndcUN06xhmkRq3QcTjYjZn4jLctHnKWFaCZCnHcA4SWQszW6CUkHI7iT01g+H2UkqlYTaBlkrhyhUxizm0bAldyOs1AZVxql5jmcQumzWG18CUgY6sZJs2zbUBBjd94HTvj8r5lQic0RGYF4DceP0ncBsWk4lZAn6fEm9IpAsEvR5qY22MTU1SKuV5z1XXMpuYoikc4MjQNA++8CLN1bVcum4ZsWiEp3cfojZWRaGYZ8/O5+loWcRMIkP7gjbW9cTYfXSA3SeHuHrDBnrbG6mJBQhHQtw/4+PfhtxKk1KM5oWyI66I3nAYyyqSKcmus3jDGKovqWDxZdnjS3dIuepW1gZC2JFsVFYAhcDt86j1QY8LaqR3aNm4NQiIwIRhkC2U8GETNHwcSWVI5G3UODwn9q8ltY8tVB09nXdWDMv8RtUHzebQZmfQppNYosTu1hwb3IDb6UsqcQzJhi1cMvT2GDQ3Bhi87/1n9M1dufhKBE43AvMCkB/6/Dc42H+KVC6DPxBSNBp5mFZRGU7NziaU0GtVuIp0Js+5Z60kHy/w+Is7qI/V8apzL2JmYpht+4+xqKWW6y67mLvu+w3N7V0sWryA2378K/7uk+/k27dv4sjYKdZ3NnDNpRcwOx3nnDXLqe3q5ZK7T6J5Qkr+TAAF3auGLCUlu+iIUMjes4CnS7ZYpBwWcCoPY4RuI2CkVL6dNFNlm4rcrTI3G83vxmVoRINuQiJ9JtNsXTQhXYzkCySLRWJ+g2bdYKwIg8k0VloEKUp4/T7l1GiLrmPJQi/ZitKjeI+yaqj6j0X0fInS2BRMTeEumixYt5Jje/Y6K4zCnZQ2QNBHk89m8NEPn+79UTm/EoEzOgLzApA333G3AoCH//AEqVwB260r72u3bmOKXYJVwrIMCvmCrEaTM12019UrCpBpWiQSWaprqynEM7z3jddy8vhRDo9OE/V7qaquYf/R4xjeMPFMid5W8bnJ8Y43vpatu/Zw8blrsXWDxwdz/P0hsU8QxXGhxwjYORsrMvWdU+aRibRZMhX6if/NXCKpgFAllzI+lo0XR0BCqZrrjsCF9ANlDVB6iGLG5fF78epQE/ChW7Ln7WLCtMnks87qot9DLm8zPRXHZUt2a2DnxAM7K8vdznsSlfRiUZXXYgcrA55SIokux4hXdjaHnc45Way8WNhN2O2ne1kT279fsVw4oz/dlYs/7QjMC0De+dsH6F24SHEFv/id7xCOetXqXCmTJpstkC7pBAMBZXKVzpUwAlW4Sln+8W8/wbe+8g0++dd/hScc5V/+7Vc8vec4GTOvMq1AwK+GFY11TUxPpjB8YdZ2xLj44nM5fuQw56w/j9nJYVatWMX41Bhv/vUAk3qNUvW2pdwWAqH8Udmg0HfKcmKqQSnbK0LfcaTG5Di1MS1ltUu4ibYqqeW5HOsH+bn4xYhumSOJJsITSlnX8OJxlVhTJeuPJkdzzlqi7FY3RcJkCiUyUtYXTPKZrOpnelIFtWOtwFooPqUSdr6EVixhpzNqa0YNj8ySUiIvzQrHcgJPVRitSqcVjaP3Vojip/0JqTzBGR2BeQHIscG9TAwcpr2jj8mJAQrBGpZ0L2Y2lSUSCVEqFUlNjuD2ukjMTDIzNoivrpvm1lZFdRk68gdiraspJGaINrZx32MvMDmdYu/hU0xNJYkEPeQKFrOFEl67SH1NhPbmFjaev5bdW58jGI6x5pyz+e2olx9sm1Z+LwJuTlktIOaam9uobFKBoxTeytbAATsBLQWKIhBRJo6riXIZSxVnsXyssj5QmaXmTLrL5G1pca4P+whqGv3ZEseTsqWjYbg05UqYLxVUSZ7PO1sxtqWpjNJVKCpwlA0bXQCyUFLlt3p12/HTRoA0mcGbTFJIpmkO6Qxu/uAZfXNXLr4SgdONwLwAZDw5xsjx3axc1MndDz7Mqy67hkB1Ix7Ng2UVCAYMDj37CImjjzCZ1Gk++2JmJ+JsuPy1DB3rJ+r38Pvf/Ig1l11PtKmFbEYcA6GmroeBsZO85frPUttQg9vw8pm//hh3//vdHOk/whWXbGTD2Ut46MGHWLnqbHqX9rH6X49iiU2s7lYgJnQfzTYUuAngSHdUMkKROlOl80teMnOuMs5k21ATcRnsOMfL+QKMqgwXzUilrCMVsoXHr9HpDVJjwFi+QMTrxy2qQLaLfZksVrak6ENKvSfoIxwMULSL5PIWZsnCXbQoiGujy0BP5SCdxUxl1EaO7vc4quOqSSnOiZaSRmsLaPTf+rrTvT8q51cicEZHYF4AcmTrbcwM7iSVD6FV97Lhyj/j4KHt+HQXQ0e3MnH0OeLTM+SzXpqbQ2T8LeQzKbqX9DExOkpD6xrymVO0Ll7Ho4/8Bo/Hj+H2s+fAC7zuijcTL3ohWySZMdG9MTZveYoVy3tYvriHnp4uEok02VwWtyfEozNevvnUNHiENekQwy1VJqudGKeclpJbBklScivLhHKmqBR2JOt0BHLVyo3qRzo/m8sgZXFbCd2qAY6t3AejHjeNbjeDhSJZWyPmdTZeErZNXgY1AsgizOt2KQD2eAwKpghWOP1RU1TH5fUyOZUpEk+j5fNqEi6grns8WPKaoiFp27RFPJz8ziVn9M1dufhKBE43AvMCkNqeHzI1MaSm1panmlO5ZjqW9dHYsYJ7bv4UpZnjeGs68NW1YdsBNj9yO7VVnTRXt7FsURvf/ckD3PiRt3N8/0kmxvdhl2zS+SBdbVXiikXDoo288OSjfPLzf8fE2Ch33f0oF7/qYo6d6GfN2SsoFjUy2RTZbIZMzmRzupFbjzmTdKF6y+Ra/FkdRXAH2JyHrPCpnLKstSiUGgE8R7dRqJBzrCDlSCOWCGULBrVD/bKHpQiK5TJcERgdhwbD7XP2wmcSjseN7uhA2lL5B3xKVagkICiCvQLLsmGTK2Gm05DPOVShkonX8FIy3CpjlbXEjio/J7994eneH5XzKxE4oyMwLwC5456bEJzJ6AZrXvV2Th47TqS2lZqaKEd3PMLMqcP49Cyav4mh2TzH926jpr6eBS1dTA7uJ2V6ScWnGUjbRKvrWb32PCK+AC5Xgee27aN36dm0NtWrabg/2qqm450L2tl9cABbCzEyNMDK5cv51QMP09nYgr+5gb/cFkBpTaiiWHeGKTJJVhnkf5DC5fdqeKMArexvrYQanT1sJS5RtmFQ4CgZqS7iteW+ptrTLvcxy1miqocFLMXTW02+XWq9UJ7HkONtHOfC8tuwC0XMVFYBqsvtwRRepHjRKMK70I8sZYhmFZxz7JxFW9hD/3cuPqNv7srFVyJwuhGYF4B85Na/oGXNm2ms9XJw2xY2XvEWJmaT7Nu5jfraEGMHn6PoD7H+ynez6ec/IjO4lVUbLiM+PczM9DDpVJYXdk/gru5A92qcs/Z8dj75EDXtnSxYspzBgy/S0nE2Hm0YM9DDoqZmqsJ+pmbGefHoKLW1LVx+5Wu58u0f4PWvupDXX/Ma3nTzMxz2t2PbhlOaCniJgZbSoCj3G9UE2uP8TMBKOJAypCnv1zhzHofyo5YOpRxWdCDJMuV7SQOdlUClCKQyxHKfco5HqUjnTr9SlHoKpSKusoyZSmSFcO5y4XEZpLMZ9ZxiRyFqP2Lo5VZcTJ1CNochtKRcAfIlmoI6A9+66HTvj8r5lQic0RGYF4Dc/dit6MUk2/adYNWqVXSf/SqKBYv9m77H2MigsjxtXn8VBc1NPpFgaU8P8Vya4X3PsH3XPupCEQ6MjiHOps1dG3jdNZey/fHfcnz8CDX1fZy16jw6u8/C69ZIxhMcOLifd7/zXRQsm+d//yvaF59LwB/E4w+yZ89x8rkkLQt6uOLmbYxTqyblCotUhqdsBR2DQpUpijaa7ih5z02zVc9Rx1aWr1JuyyHljFFK9blp9twEXDkoOMfJQ/qK6nv1R4ZETu9TEc4V4JZVguQcKZnLkOzyGJhCHpfeZKGgJtluAUz5mUyxy4riWtGiJWgw+I3zz+ibu3LxlQicbgTmBSDvuv1zvOFtN/Kdb3yJs1YvZeMVb2fm8BPEDz7CwOAUhs9LyqihqWMlC1efw/5nf89ENs3h3Zs5a/FK4vE0jz65kxs++Lds3nQnXjuJO9pBe1s9Te3rWL7yLGZTccLBMPlcnqqqMInpNCUrS219HU898QiXXroR26gnm80yOjLGZz79FXrOu4BfzKwgmRFXGqfkddR5nIfyMpTZi5TLqkdpoylfGmdirekWtgConCfZ5ctWEQUkZSPHlPyxXJqrPFOoPzKxludX4CgY6XhqCyYr5Z7yZNxZaZRksaj2ua1iHtzidaPj0ix0W+TOSup1lEWD0JKKFmaxRFvUR/9nzjrd+6NyfiUCZ3QE5gUgh4cPEZ8ZJxYy2fTrO1h1/pWURo6QOroJ213L5PQETT3reWbPXq57xyfUwOHYzoc5sGcHEzNx4iUPr7nyzdhWmhefeoCa5gWYtpvuVReSTJusX78Bt9vN7OwIqdQ0dfXtPPyrr9BY38bRgQJ9y88iOZvn7PPOpaWxU03AR4bG+c5tP0ev7+GO/kZVQyuYmiOLq4GKM4xx6D4OQVwyyzlaj+o5iip4mXCuSms5VjiQArRlwFRdTmWd4JTSai1ReI4CjiURvJXXscrZqJNFOqAqgx8BxHLmKXJrZTqRyjyV97aT/arMV1nPiriuRWvYzcBfrzijb+7KxVcicLoRmBeAvP+hf2VqaB96LoOnmMd2BWiJ+om7wjS09ZI68RwdVTqRxRfirl3LLT/6Dl2+cYYmYdWaJfx802PUN23ktedHGdz+AGvf+CXCoRolFmsbPpKZHNn0FI88egvtDTHqaxdz56/vom1hH7bexSc/8gFVAh8+eYj46CA5M8L6dYv53j9+l3e950Nc/A8vkvHWzKVuTkFb7jUqms8cUJZ3tIUgroY7c2AoYPYymo8IYsj5zrTbKZcdRXJbZYm26YjoCsdxbk3R+Ylkk5YCTDUEMlxKfs0uD8CVHmVZSVycGi1bmJgO11KR0cVm1uulVDRpDroY/HgFIE/3A1I5/8yOwLwA5Fe/8E7OXr2BwuwRjECYprZ15Kf2cOrYQZacfRmRpg7yqRn81XU0tXSz677PY+k1NCy7hi2bbmHv3mdoWHg2qYSX97z/U/i9FoGojxd3Pcb4yeOU8gGaF7bxk1t/yvXXv57DO59hdBxmcsMYtpt1Z62jkD7GkvOvZfWaqzk1Ok1VxM+WTXcxnfdS37Wah4YiHByYZf9Ejly+LJyrUj/pDzoDGFX6KgK4M6hRmaKApMok1ZTF6V0qwHSELJyUUyp33ekfiiBGOYNUU2hThCicjNIZqDtQ+RJBXfxmFHI6ICggqyhJMvVWHtpK9UPtlYvcmTM91x0e5EeWnNl3d+XqKxE4zQjMC0B+40tvobVhEct6Za0wzORYXPEhtx/8HRvPfxevufIKhscnefyhbxMJt7O0r5Obf3gHHZ0+pib70UxD8QXHEjaBcJT1q1ezcOUFfP3LN3HuksU0ti5h34GnGDmRZjZn0d6UwkoUWLvxz4iX8nj1KvbsuJfatkYu6lnMb7fsIJWv5kvf+BIFK0TRzNDU3ktyZpqk7eV1X/gNJ7Um1RB0aD7l8lqgSgnWCkYKOMnqoeFkb2XwVOBWnmAr4JPjpQwuU4UUHVIGMXONSOH5zKkJid3DXDZYHtjIZNsUu1e1llMu4UXeTAY/bpdSJ5LfiRujbjr2DyVdoyVsMHhTJYM8zc9H5fQzPALzApCf/fgaUsks6xav5LI3fpxMPk9t4wIO7X+SoZM7iEZ7OXliJz7D4tE/bOd9f3kD5Hzsfv4JauvDWIU49fUdPLu9n6LHQ03UZHRoLzU1i4kFYyxfWM+zWx7DcNu8eDDFVdddTWHiCNGO5bQu6EZzh6hp6+DYwac5uPNFipPHyQW6uPq661nSt5xDx/YyMTFGOFLFkr7F7D48wnW39jOTd0Qp5jxp1N62DFkEjFR5Xab1qN1DZ13RWTOULK48EVdDGekTOtPxch3t9CDL8t+OY6FDVFcAK5Obl6wfykIYZcfCuU0e5+lsdKEElfudc6IZAtZqSPOxZWf47V25/EoETi8C8wKQH3l/LytWXc1b3v5RJcCAVuS5p5/lrDXrMFMnuOMn36V9QS8meULhGKHqBnY99xjHjh2nOtjJ4vVdBF1+mkMlTk5AqK6J4ReforqhgcP7dtPZ0YnLFaA6EsMdqkFL7WXfkSF0T5iFa96O6dK59PIr+czH383WndO86twFvOqqa+npOZtw2Me25x6mb9livv2tr/KOt1/P4lUX8vkf3cJth9ehq2xNhjdO1ji3Wjj3VZW0UnALSCmRCim9y4Oc8kRaqELOds6ckrlDyXH8r23na7lP6azYqPxQlexq0i2vUeaWS59Rfi+cR1PxLZ2MVl57bndcstXmiJvBT1am2Kf38aicfaZHYF4A8lN/tZ6lKy6hreNs5SG9sK+FQ9uepyHq555f/oS6zlYWLmzjnrvv55KL1vLC9u201gVwEUaPtNLS9WomT26itr6BRSsuJV8qsut3t5CXAW8qy8ZL38qRg3tJ5Kow3Gm2PLaZWFM7wVgre48kueHdl5EafASP2cBzz21hbDzBWz7wl3QsvoDWjm7Sk9O4g0EmJkeprqpVauXpQp5vP+vhcEasGBwajlIQf2n32gXu8nS7PHVWWaMA1ssAUgliKN6kgKYz3FH2rsK9VHuKMkB3gNMpr50VRSU+ge70FGX1UN5BmYTuHOCQ0dXUR3qeIs0mFKAy0LZW+ej/5Nln+v1duf5KBE4rAvMCkF/8y3Wsveh8Rg4/h784y+rFS3h2Tz8rNr6J7sVrePCXX6OxaQHVHotIpIaHt2yhbeFaVq/ZwCNPP8XBQehsa8BrymbNJCeODZFM51i9pA2/Ns2C9l68mSEOHx3jxWQz17zujTx29w+waxsI17YR8OYZPriLYCRE9cIOdjw5zD//+Mc8tuV5+pYuZ9GCTlKZBD5flKNH9zAzMcGRw89xcjLC7nw326bCahBjlqk/ApYu2YwuD2XmsjdlxapKcGefWwFaGbwcMQqHjiODFiW2K+hmlldqykDp7HaXNSfLwhlq9VCyTM1RO1fDHlvI63K62MO61B/FoZTc0zBojfk4+ck1p3VzVE6uROBMj8C8AOSPvn0VrT4IW7M0NbWxfd8ASxZ3MTl0Are/BsOrq9J5dHKGq659A+NJA7emE6xr5cChXezZ8wBHBmapMww8JejsaqOtdSEhf5CEaZIrFenf+iDNzctZ1LeIuBZlfHyUbCbO6177RvbseIyZ5HHue+gk06bOsp6VfPlr3yORnCabzjA7O8zxkTE2P3Qzn/jY16luXExbcz1bfr+Zcy+6nCf2jPC+2w8wnc6j644KuWPL4GSLYreqps9KMFcm2mWAVGuG5S2ZsvuhKrTLAGkXBQ4FSGWy7djQChFIgHWOtqO7xRhbMk7l/VrmT4rPjRDWTZU8ymvaIpQhZxuGej4psQf+5twz/f6uXH8lAqcVgXkByE997C28913XoQ88zrEDB8jkg9RWF0nGJ2jrWoVVtYiRkRm27n2B2oYONl75ZiZGjnHnz++gvaONDRdu4Hd3/4xIez1WSceV0uhe2MlsQkBQQ3PnOHh8gIa+1Vy47g3c9bMfcs3b38/vHr6Vvu4+hkf6iadmOHfdtfQsWYfPr1Fd1YxPnADzcX7/xFN8/Ttf4sYbriXgbuC1b/owwYAft6Hxk599nyV95/G5h7LsGsw4q4dqfdoR21UUn3LGKF8le1TCFy/pRJYJ45IVlktp5XNjOzxIpQikskNHCGNuQi6Tbul+SjZYEs9tJe5b3uaRgXa5mFZCGaqMt53XVps/Om2xACcrAHlaH47KyZUIzAtA7lz9C8sAACAASURBVNr6PGNHttG6sI6OniUYPh9b7/0pyzdezaHtT1Pb3kLR9KAFg4yfGmT7Mw9QVx1mzbprOTU8RtTrItTWy21f/QhNnW0sqvfS1tjEs88/xXTwbG762Ed5/qF/Rqs/h2BVB488fC+F7BDL+tbwzJM70V1JQpEg5116PevXr+Pnt/8L17//Rm6/7R9Y0Fji/sf2UsoM8aEP/z0f/9QnuO83m4lWxRR9xvBq3HvvrURre/nWfbvZPbVI9RIVICmwLGeAL5XFqHJ3bh9bVhE1l0ylxezLKcGdNUPZeCk5lg2muBKW0bHca5Qs1e1xK08eBYzChzQlgyyvJioie5nTbhgUERK5MwySp2qJ+Rn84gWVO7wSgUoETiMC8wKQD//qlzz97HO8+R2vZVH3ItweHyMjp3ji0Z/T5bfJ6h6Ovvgs7Qt7GRo+RqDpLNy+elacdT7h2lqisTBavsC9N3+IlhWXMrHrYXQjhlHXS9dZlxCO+mhuacMkzLe++gGGThxRfthXv+H9PP/8Lvx+H+FIDS7Dy4oVy5kZP0VTWzv7D23l1ts/xSXrr2XJ0gtpaO1javwU9U2txGLVGKLFWLIYHzvFL3/xA1p7l/PjXYvYcyrleGerFUMHJJWorsomHXBUu9vl4Y0CxTJdyOFAznEhZRdb/t8x51J0SFWul1cT5wR3pW8pQFlWOHf45M7OuEt6j0K1lP9TsmsOgLYKQH65ouZzGp+NyqmVCDAvADl+9EkSxRK19R0YLpcSXvD4fMycGuXpJ+5Fy02TTxynqzHKUNZDx8qr8YdqcftDdC5cxMTISR67+3OsvuQ9/OqXv2BJW5CmnmvoWLoMw+WlWMwzcGwHd935XRprLBb0Xos/uoAFCxax5YknaG/rJBgMUihYCqBzuQS1tY385rf3kZzawY0f+rawrhXgeL1epqfGGRzaTzHnZ/XadcQTcYaGT/H9736G9/3lF/ncLwY4MO0VdHpJTVxAUfqFLyn+lGk9KpOUnmR5+OLsUDvWsWpQM+eBI9ml4KQm+pIijuFwMAVcBTHFK1uBbPl5dFFEL+9lCy9T9ULVFEh5RiBT7IEvVQCy8hmvROB0IjAvALnpt7eye/c+rv/z91JTU6cmsm63IavFDBw7QnVtmN/f8w28tsU5r/8oQ6emSaSy1NY20N7awI++/V7aW1bjaVrMwq5uQtEYfl+AYDDMkQMv4LZN7rrjO0Tqw4xP5LjxQ58nkYTZyUF+/dC/8JrL/gKfN4qme7jo4gv53SObWL3mLP7lh/+giOaved3bSKSSZLIZZmbivPrVlygF8ly2QDaTJl/IE6upYd+eF2hq7KSxvYfrv/kHdo055a8SrxAe5NzEWoYtikzuwppzPJQ+oQhSSOZXXjmUTE9A0CUmYgKYcwCopt/l55XsVCbohbk+pGwvOsrmSjdyDhwle5TVQ7kbdAFILwNfrlgunM6Ho3JuJQLzApA3XX8dl1+6nvOufD2hSA2pVBqvz4dLdzFweCe2Oc6Pf/JNpkbdvP0t76Cj9xyeefY3nHX2OnY9+SADw4Osuehd9C6/QKn1pJMJmhpreWzTXTTV19HWs5qdj9/OlNZMS9sqMLMqs8zlk0Sqqjh2/CAtsXaSmQJLV6zg2aeeob2+ltt/9Bu+dcsXSKdtamoibH9hG+FoLa3tzTQ01PG5z32Sj9z0GaojQY72H+Hpxx/mHe/+KNMzM7Q0t3LFFzdzeCjr2DbIeqH0CSWJUz1IZ0dbLFmFxaj0JJW1rMNzVDmlyiIdHUg1lFEuig7ZXI7XdNF/lP6kqIcLdbzstIjmyKhpOrrH7exjK5Ffyynx3bqi+Qx+9dWVO7wSgUoETiMC8wKQB7f8ipGpSQYGjtO1rJfLrnkX+VyO9PgI3lgd//Ktt2Hl4dI3/AVNC9bSf3Ivv/z5F2jp7CYxMUSsfjGap4lQKMbw4BY8Hg9TYymaOxtJJDy8euN1zMZzxGrr+Lu/+x5f/9rH+O2vvs+p4VNcuOFy1l34JkjHOTw4yGObHqehpo7b/u0+lUX2nLOGt15zCbt2vUgwFCSeSKl+ZrFgcuzoHkYmTvL+93+Uf/yHv+eyK66lo6NVTZynpmdI6A286atbnAGM7GUrUCvvapcl0uZI3M48Zc5CVkpsR7VHifSWy2aVQYo4r+g7zkmnCSVIeYPpIPaustmjgLbc4yxv7yjcLds4iJhFc9TD4Ldfcxq3RuXUSgQqEZgXgDyy52HWrruQUhEmh/Yzm9e56+5H+OINbyERrsI2J9n63C5ae87m8MFdRBvdpBLPcO+DDzNxqkTAUyQvdgi5EHnbR9Rfz/LuBfxm02N87LNfoLmulapYjMnJKX7wgx9w440f5O++8mE++9mvU9e6gLGxOLaZYrEW5qpP3MgH/vzjlLxRNq5pJdgQJaZrJPIl9u4/QiKRIRyOkEzmSKZmCITraawNMjQ8SnNbB3V11SQTGfyhIB/6zKc57r2Yol2jKDYqayx70cyp/Kis7yU1IEf6TNlvKTfFsi5k2ZJBbkcRv3BI5k5JrvqUgn4CikIqF4VxySZdOqYS8C3TjpRur6HKblEYb6vxcfKbl1fu8EoEKhE4jQjMC0AeeO4XnLVqA4bPz50/vZuB4eNs2z7KD276KHpfFbYnypEDhxXh+5knvkcpXSBc08yiJR38+z13EItUMTuTpybcSFP7Blo6FnP8xCGG+/vpWXK26hkODQ6qzOqJJ59iYWcH1dVeli9fS034GZ54MEesvYX47CxPbR3hC3/zbqam4vzwltu5/PIrSB/exaKLLkbXAzz62wfo7V6BK+pjcnIS3fDTUB+jpBfZf3AbAaOJVDrLeedfiGUW+eFDT7Nprw9N95bFKtzlTZpyP7Bs2DUnpisDGgE+yQidLNCZOs9NpR1zMMfIS6mZS0YqouQyyRZjLuWyKOc4A5u56bmjcO7430hfsq02RP/fVzLI0/hsVE6tRGB+pthP3fdDTk3keOObruI3t/2SltXnEk/q3H3PHfzjpz+Ip8bPkaFTHNy7Wwnh+iJuYlXtNNWHueWfPk6qVOCcVZeyZOVl7DsySDqdJDE1zu69O+jqWcWV69eSfXQT/54p8cbXX0axkKamKsj9D27l4kvWEdAyxNMZnt++n3fecD21YTcfu+kTfPWr3+ATn/4Kf9a3iKs+9Vm2PLWFf/7nO7njZ//I/iODPPTbh5lJpVi5aik79v6WTDbN2SuuwyxY9C7uo721lbt//X22D9exezRASq9C1zzYHqHqGI5YbnkP2/pPIChZ5JwEmtLvKAvzKlfE8nbNnE+NXbLKspI6FKUfKYIVTrmuHBMl25ROpxoSOXSjFulBfu+ayi1eiUAlAqcRgXnJILOjOzkxOMXzTz5PR7iKE9NuqhZ1s3JhiRpXLcFmPxnLw9T0LG99z0d419texcToKV7zmisomf9Pe+cBZkV5tv/f6b3vnu2FpXdEFBRsQQQURVATY4ktiYklaqImaoxJLFFjyWdiibH3hkZFFBQQQUSQ3payy/ZeTu/lf73v7MYNMYlKwsf398x17bWw58ycd56Zuc/9tPtRxGG7/UmGDB7K3fc8yLRjJrNy+TJmn3IKy1euxp5SMWvKKDY1VjNkyHDyS4q493eP4ssksRw7nVu/NZKnX3qDSFjLjy85nYzaitaoZdvO7Sx4dSWnzjqaK66+nO7uDhIZNZ11NbKD5cFHnmTBO+9z6vTpNHT1MGr0SOacPpeOllbpCh82bjQPPHgnja3VOEvG8l7r4ag0BrI6PULxW5EfUwQk0nLUqzLSQdZPypChADaFBQowFAkZ0QWjcESlFlLGG/v+L1R/xPxcOWFRVpsrZT1Kz7fS0SM2kQwSDLIhB5AH8Gjkds1ZgIPDIO16H4veXMgxR4zl6cdfpTcc5le/vJqIKksqlabb78PpKuVnP7uJ7dVN9HY38PqCZ7HYrPxhtQb39qfZWdfDlZecgbe8ihtuuIVYpJe7brmObCyE0e5k965dDB08mOKqciIZsAeNtFnTaEOt/PmRZ7jwkvOJJyJ4K0bzyP88z5xTpvKbB17g4lnfZtPOD7jq6kukMM5pZ1xMEhvDho1Eo+riB5f8iNrGJlav3sGNV1/E9n317KrexlPPv8rll12G1+tm4etPc8EFP+DRV97lzeZhREUupQ/V1Bq90KmQwCdVvyXyKdqQsitGtixKEUhlMmI2Q1pONRRv0CqZbrGLrJnMyoFcYv6O+P03nJSZb6TCuOzyyWYoFoXiD8zN3eM5C+QscAAWOCgM0q7uombrOp57aimTRtuwWi3onHnsrO3E4TYwY9bJ+OIZLGotrz73CtmMlT1tqzn32xfx9KpmjvWmeXPJGh6+5wpaOgKSaTmcRjJZAx8t/4hZs07ioQcf5qRZM9GqNfiaerEXOTBaTHT0+Hhv9Q5mHzsWjS6Pu2+7hzmTx7G+ZRdz5pxG3Y4uxljymXD+caQjfu575CVqd+1g3vxTcFsM1LfUccK0Odz74ANcfM452FxF7KlvZN2mzUw6cgqZdILWlt1o9HraGmrYmRzPknqFGSqat6LTRbjCoiayTxeyr9xHEaRQ1MalXqQs1ckqbFB23gipMyGLpiiJC+aYSqZkcbnUiezrzZZZbllG1FdnqVJR6jbR8PD8A7g1crvmLJCzwEEByFefvB+tpYA/PvI8S169E61ax+IFb1Fc6mbajBmksjruuvNRRowqY/O2PcQyWs6Zeyy/uftu/nzfXby/fA1bd3Vz6TknsnHdSlZ9tp1b77iNeDJFU9M+Wf6TTMV4e8kypk46nl0NQYbnR9i8uwGNNZ9MWsNF559Ee2cnZ86cx9GTZzF0sptP1rRK4Ys5589m9oxjSIZ9xKIBmpvb6W1rxaBX48x38sQLH7B54zY0mjTNHR3MP/tCSgoKefT5N7ntlqswqk1cecPlHDZkCH5jFSuTE6RrLMcl9M+LkSMZNKgyoje7r2i8T+JMZqNVarTS5VYmFcoaRzn0S9RKZtBk+3UiMzJRI8D1byK7fckZQVU1opsnlVaSNI/kADL3iOcscCAWOCgAadX0sm9vHRqDgV07q5k0cQQ9nX721Pupq2vnB6OivLBbS3mlC18gRkdPL2arg3S0m2POv4jP3ljBoCEuhlaWkIzHFUFaFfjDGeKBHvyhJJGIDxVOXnh9ESNH2JgyaSLVW6tp6Gjl7G+fhdmgpXZPDz+85X7+eMt1jB7npbsnyEWX3cuvrr+YFGqOmzyaeLCbpqYmnHYHzV09fPzxp1SUF9Lb28upp5xGJhnjw5pWxpaWsWHTVmZNPx5/LMVvbrsFdTrMtONPplUzmKfWtJLRu8hmUn0tgEpSRpTsSHYp4oZyFIMo4embfSPrd5QyHzmFQWS7+2sn+9oSBXgqWpJKYkfWm/ePd+ibhij+JgCy7sF5B3Jv5PbNWeAbb4GDApCtTbu44IKrefaFZ6neuQKr1UPl4FI6W7tw5+Vj1KjweGzoDFZU6STz557DkFHjuP339/DuK6/zxguLuefB69iybSs7a3bx+msLeOnlBXT1NuIymulu6aTYZOXlhe/QjIETph7G0CGlNG3aTcXRR7D4zUVYzDY+XbuGu2/7FTXNLdiddvZWb+W8c67hykc+4OLJGv549+85ef5cvHYLra3NFJSWEkulaGpsZ2t1Nd/7znms+ugjWovGYm3ZxawZR+FyeVi87FOGDh3Kvb+7kwt+9BNqa/bw3Fuvsyk1kaixCJWQK+sTl5B6j/1JmVQKrd4o45FilIKIQaal6q5S9C3da1G+0xevFPOuhWst/q6UnStF5Mr7P5/pLYCz2Gmi8Ymzv/E3eM4AOQsciAUOCkB+tuYttu2sliUoE8eNo6PTR0VlBXqtXnEtdUY6O/zY8wu56+bfEuhI8cufXkyvv4HHn15CMBnlpEsuxauKMP+UI/hk/VpeX7gcgymfaYeXULOnGW+BjdJyB5s2+jn+W0fQtHcnE0Yex+76rSxetkLqSkZiSc475wxeffNdzjhpOqvWr8WgTnD4kVPp6ujijt/cxVU33c6KDxZicdRz4pRTcOeV89c33+eMs8/FZDZJ5pZJx1BrdATCUdkT/szLL4JOz/jhEwmEIxSXV3DbPTdQWFzIytbRdKasZLV66TJLZqikoJUaRtGmKFxmkcAR8mdqXd9Mmj5NSRlnFJNeVaSTacXtTmdkplqU+MiYpZi3LWd3f67yUyJikE+ccyD3Rm7fnAW+8RY4KAC54OWHCAf9jBk3Di16LGY98ViSI4+dTndHA73+GBa7g0xGhU6j5oG7/0JLykCwtY5Jp55H1/a1XPuzWaxctoEX73qBtDFGkignzPwWm/fs5UeXzGPrlu089Pir3PKL6xgzeowE2//5w3NYBw+nkN1MmnIcTqeDPJeHrs5WCgvLsdpt1DfUsWXLHkYMq2TVx8s5/rjj+HjZImbNnInJXYzDZKWrsxd/OEsg0EU2m6SsYhAmo466xnaMZgOnz5sHmihPP7aQUDLGfQ/cxbjxY1i4+E0Ky12sCM0BtQW1yiBnV4sstOh20Wj1UjRXJmVE3FGtQqPRSbdbjFUQW7+IhSzt6evDUbpplC6cv8Up+5I2yj5Qnm+j7vEcg/zGP+E5AxyQBQ4KQN5+4yWccspZfPrpeoZPGM7gSg8vvfQKJ8yYy9HTZpOJqNixdw1GsxWnxUEk4adxdwOrP93JmfOO5q9vL+bss05Gp9dKANm3p1G261Xv2cGUqcdRV7OLUaOHU7u3VsqWvfvBh8yYPRe71cLQwVUyPtnZ2UlxSTEtLa2EQlEKvQX4g0GpBNTuj+FxW9GqBGCFCUcTFHjzCPqDmIwG7FY91bUduD0u7A4bRpMJq8VIKp4lrcqyfftunnjycc678AoKizy8sWABzR2NrN+6jvISEwnbEDZHRxBOFSnlO6JLRkqZyZYZmcxJplKfz6KRgKkRxZNKDaQsf1TGLUigzCiJHGXAV5/WpHifzIQrsckSt4WGJ3MM8oCejtzO33gLHBSA/OD9V5ky7WQSgQ7CoTCdPW3s3LSFSy6/jqeeeJazzjubRHcjaquNXbt24nbryXMUo0knefWNBbjsdlo6epg9ZwaJWJxsMovL4eDuB59BnYT7772D+oZt0gW2WK2sWfMpoyccQTwWQqM3E/D1EI2G8RYU8eGSJQwaMYIxw0fx7pLFTBo3Bl8ogd8fxGYxUlJeRGtLK8loXI66LigqwWS2oNWb6enulgzQ6bDjtNvo6vXJZI4QuFi3pYaPP/qYOfNPI5bIsm79ezz0yJMMG5xHRhfD4Kjks+TpqDUqWTQuNDFlckWOdxWpGJUyv0tq7opMt5KNzogGdvF1kFVqIsXfFJ1I4Wor7rUc5CUVxYWbrRSkl7otND79vW/8DZ4zQM4CB2KBgwKQixZ9xGsvPsrzLz7JNSedzvhzTmbYmPFodRpcDi9aFXjz8vEHemltayWrSmN3uPnZ9Xdz4QXnsmb5G9x0/bWsXvMJNXv3UFVZTllpKYs/WIXd5eTiH15AQ1MLGqmEo8ZoNLNj+3by8vMpKiomFAzQ09MjRXPbWlvR6DVUVQymvaMTl9mIymBh1aoPGTliFHv2VnPUUVPobm0n3+vGbHdJXUiLzUksFpPsMRKO4HHbpYssPkuw0mdeeplIMM2W3Zv47jlns+L9t/hsyzoqyodw7jmn8+RzT9NrHMe2yGiyKiG2K2fDKm40KnR6MYRLAc++8YeyVVHEHuWI2H7lceE/i0TO3wR0FTELWZgu6s/7lH9kDDIHkAfybOT2zVng4HTSrF79MYFwJ6pskkD7XuaccjIPPvUWh02YxPy532X9uhW8+fZrfP/7P8QfitPauBej2URefgk/vOjHnHvWccyZ/130ejV1NXUUFJdIILE681CTIhhO4HE52LRlowRE0d5nsRgIRyIYDWYioRCpVEICUmtbG263S6ZJkvEUqmQUR14R9fuqKS8dyspPlnL0UVPQpfXU1G9h8rTptLd143S5CYUi2G1OfD4/pWVFsvSnqKiELTu28YeH7uL4qfNYvHIRR088kkGlVdxz/2+JhDMsXPg+1998GemEn2omsTdRJVmh7LmW4xqUtkThIovzEsxQut+iZVG40yklCy4VfbIiWZNFLdhkJtk35VCtqPsI7cg+mbTSPAsNT+UYZO4Zz1ngQCxwUBikv7OBvXW1ku1t37EDTSrAkIpSnnjpTa679ibWrF6Jt9BJaUkF+2pbGTN+Au8ufJ2qqiosFhNvPfYLvv/zP+LMK5EAEAqFiEYiMg7oD0SJRGJkM2kCvT6ZDX7r7SXMO/MU3nxzEfPPmEV+fomsOYzGolLFPJtNS3k0cRyL2Y5epyLo68DlKiKeDJAIdsoZ2T3d7XS1tDHhqGOlMvi2nbVUDRmGxaDFYrbKDHwqkyWVSXL5NZeRTAXJZnV4nZUUl1eyYcNavjP/HCZOPoKtWzbw1qLX6MnaWRcbQyIjFICEGJqISvb3UQuZs35hXaVIvL9PW+hT9McjpaudTClq5OL9op5SZLYVYUlZVF7ssVD//IUHcm/k9s1Z4BtvgYMCkK+8+jh6vZHVq7ZwxWVncf1VlzH1mOPQOT2cNWc+WzetxWRxkMgaGTx8BAaTkWWLFzKoYhgWh50lf/0T0088lxEjK9i5cw/+YESK25rMBpn5lpngVIpEMonFZqO1o5dFi17nx5deSTDciVpjJBAIMHzEcLQaHcFQEF9Pj5xx3dXdQ2VFGdpsHLXRSiwWx+sW0xXrKS0txu8PYbSaMGggmshisBUTCofQazVYrWZa2zoZPGQIDz96H0s/XMmsk0/i5ef/itGWR9WQYq7+8U10d3aw9JOPmTZ5HDfceAu2ykFsSQwnmnGLBmq0ej2pVEp2wciEjEjA9E9MFEyzb6iX7MCR/wZV38jY/m6a/rnasndbZrGd1L140Tf+Bs8ZIGeBA7HAQQHIxx6+g9KKMsmuiksL8XV2sHbVCtZu3cXMWTOYdNh4jFaPZIIFRWXsrd1HRUkJ69d/xuzZp9K2bxuxUBsprVWyKJPZKUHO7XYQj6cka+rt6ZHgoTMa8AVCVJR4aG7txJNnQ601M3TIUMLhMPFYBq0uQ2t7Ox6XR8YmzSYDRq0atAYyJIlHw9gtFkq9+dQ3N6I3utBqkzgcFtR6L6s+WoHD7qawuJia2homTJjAu++/w4rVzzKkcjhm62Gs37AKm83KhDHHSNf5gT8/QnGpmVgki88XoPKwQWxKHU93tyjv0ctEi1QXFyAo5mTLFpk+PUhZBZSV7rYsCBevSaCU7TbKVETRmZNMKbWVWSh2W2l4+QcHcm/k9s1Z4BtvgYMCkMv/8gg+K4SDaeLpGIOrynHYbNz0m18yYXgBN9//FJ99spChVcfR2dlBfX0dI0ePJpVMS7aY7a7DnOehsKySYKCHcCiJwSBc1P6ZLirC4ZAslTGazLzy6uuce/Y81GoDam0GjU5PNBYjmYij0RjR60WPdFLWGorZOOqsml5fJ5WVVTicNnp7OyktrECvS1O3bx96kxuTWYxVSKBSu1GHu8BSQCqVJRIJ09LSzv1/eZSJk9xsWbeQNOI1JxPGHsHevdvRmF18smoNLoeFVDbM1MnTKR/mYdnGzewKTqIr4ZZutkywSMaYUfq4hdSFiD2KxI1QIe8rMpc1kKLHu29kgwgvKDNu+oV0VZTm22h4+dJv/A2eM0DOAgdigYMCkB8+t5gFrZ3MHeXGqkvKhIlKl+LV1xagppWSigoae/0MG3QkgwaNx6RTy1GrLnc+TlceVn2aSEzUKtoIBsJYLVYaGxsxGW1EU3Hy8vLl6Fd/IIzL7eTxJ5/iysuupKW1noKCYuKpOKFgFKvVRGFhsYztBYJBgn4fsXgMi8ksx6uKka+9fh/FxcX0dHUxfNhgEvE4bW3doElht9vJptVYTFrUeg+hSFyOsd20aTO33PlLrE4NRZ4YFouIlVrQGnppa4JYPEpTa0qK2jqtKpIpFSfNnMHHa9+jsDifZYGTiScELzRI11pIwMmkTL+o7sCyHlkQLuoiRWa7v+VQyYbLgdt9bYnFog5yweUHcm/k9s1Z4BtvgYMCkBVHz8OZzbJ9/Udce+Fs0Fo5ctwoVqx5F51ZxfU33sQNt1+DyZbi/LPuQJ3Wo85qaGhuZtrRx5BRxeluaSYY9kmmJOAgjQpRWy3KbmRvs1C3kb3MabwFedx7952MGD2BY6YdI+e0JBIJ8r156LRG/L4ezGYxZ6YJn6+XQeVlqLVKi59ghMJdtZr0eBxOzDYbPb1h0tkETocY6hVEp7VjNNuJxRISVGv37eXnt16JXp1l4mgvkXCcxrYOysrs1DdEaG5US0XzUChGabEFvVXH9793PS++9icMOjVp55G0R6wENUV0RbSyGFyW9ghlHimiq1VGxSp4qCR2RJWQYIySXfbNw/4bA81S7DbRuODKb/wNnjNAzgIHYoGDApCr/vo2C1bXsGLdh/zg6ut55rGH+OX3T6PI5SShyhCKh0AVZ+euZditZQwZMpkN6zYweNBwJh42QWo6ajIhMqkEGnVa1gGarHZi8bhklKJN0WwxScBKp5JoNRm0Bg3Pv/g25517Hp3dXRhNBmxWM3keLy3NLVL0wWSxULuvllGjRxEI+EkmxBzsCN4CL3abGdIqEskQao2ZaDxOfp5HAqTV4iaZzqLVamltbSGRinPz7TeBqgeLQehUahFjGp2OrJyzo9ZY2bGlm9KyQsiGGTpqBPn20axZuwJUEUpdJmp6fIT046mOjUSlNctsu9JvrZaZ6lRatCiKfu20IofWF49UmsOV2KWioKvEL4uEYO7rPzmQeyO3b84C33gLHBSA3LTyQ3xhP888/SiawkmMsccoLhtC1bhRlA+qlALbLS117P74Q8ZNP5FEOC4HX8XCaUaOGk8qGaa9uUbGB5PxwtMyUwAAIABJREFUGA6rjV5fLz2+EIl4mvxCL1lVhkwqi1bOp9bQ1t3Lm2+8zU03/VIZ0Rrswd/by6DKIcTjUTkRUFCw9vYWiovK0Go1RCNhKT6RySaJxZJ4nB4Cvd14irxygJfOYJC94qIECLWR+ro9lJaWyuPfcNsVGE0ZmhqCmC16THoLWrUBm6MDo0gKNRuIJ5JSUEOrcXLSCeezfcc6tu1ah1a4/KkIdpOHetMM6vwORWFcTCyUMmdqRZRCetEyEKlIqPUN7pKzt7NiFENfqyEqhUG+cfU3/gbPGSBngQOxwEEByDXvv0Nj7V7ue+QFphwxnLPPvwCdJkMym5aTDhPRDiqrRpGIZait3cfY8Ydjs9pY88lHzJg9n4a6rWzcuJIhZUPQqLVoVQlMJie+YFCyQFU6RiwJNpuDWELUImpJq/R88N4S5p99Nl1dnRQUFJCIBuju9bOvvoFp06ZSvWM7DpcLu80uEza93b04HHZCoaAc7yo6ZoQLXl5ehVavJpEUyt4ZDDor+2ob8OR5CEfCrN+8jZcXPYbFLKV+8AWTaDIGgr4A+V4Vo8ZW8umq3ZzwrSrWrGskETMybvxRjB02itfeeB1VGsyuNMlYPkceMZXXdplp7IrLkEH/9EKpAymVxJUZNlLEQghaKLLlchSi1JHsE9MtzbdT//p/wMWOxSCRALv9QO6z/z/3FUze5wO3+//P88ud1cHppLn/+stYsGw9VoOWqUeOYeqMmQyuKmZvUzOHH34UWzavwWlUEVLnoUmFKCrxotV4aG1uIa+wEF02xI03/oTLLrsat9OFw6ghJuZkq3Sy6Ntk1BKOpOQkw1DEh8vhJBBXS6GJy6++meuuvQqXRwE8l8vF4sWLGDZ0OEVFpRJgg0Gf7PxrbGzBYXdQVJJPLBahp6NbZr5LKwfT0twkY5jptJpkMo1BZ5IMT9RjTp97Gh63Br1BjbdQg6g8amrupatTzcTRVorcWnbsbeOYqYOpb0rRE2hHny3l3DOv4Y03X6a4ws6kI6bz/luLMLs9DJ50FL9+tl6yRJHNVlTFlXij6OEWrFIkcvpFc0X/tRwGJmKTwjcXvdgii/3Xaw78Ft+4EZ54Av74xwM/1v/mEd57T0xggksu+WqrWLcOXnkF7rxTmRg5cPP74YIL4K9//WrH3P/dDQ2wZo3yRXTssVBe/vk7hP137gSrFWbMAJNJeU18ca1cCe3tUFYGxx13YGvI7f2FFjgoDPJHZ5yJSpvG4HIzf84M2praWPzxp1x29aWUl1Xh721nyYrVTD92KnqDnu7eVgaVjKG81EVHb4RwsIOAz0ciJloH9Vh1WUQjSUpkfJMpHHYziUSGdCoii7f1OpFlNlJb38mqNRuYfNRkmRU2GU2ytW/Hji3U19Yx65STJYPs7uqWoNrV2UU0Fkevz2K1WTAZrIRDAYpKythXV4u3sAC9Tk97WxcajVD0MWMy2/jeFecR6vVhMIC3WI/OmKWnM4VZ40SlCTDvtG/z8F+e5MQTqujojBJPBPE4ptIb0HD8cVPZuPV9TLYySgsriUcTvPDC/TiPuJR1e5VSHkkQ+6XO+pTEFaEK0RakJG36wVKcn7BJqddO49s/O/Db/tNP4e67YcGCf32sYBBuvx1+8QtwOg/8c//TR1i+HFpb4ZyvqHC0aRO8/TbceOM/AmRvL0yfDhs2fP3V1tTAD38I3/8+9PTAiy8qti4ogBUr4LnnYOZM5d+NjfDyy8gb7eGHIRSC0lJ49FGYNg1+/et/XOPXX1luTw7SVMPm+u1kMhq8xXk01tWzasXHbPxsNd/+7rdp7wlTWVmEzZHP5k0bsFuc1NXuZfioUURDSYpLbDhcTpG2JuBrxqg1YjWJvuMs8YyORDSGzWFBlRGZ4h4qygejIkpSZea22+/jFzfeQI/PL0EjS5r8PDchX5D3lrzDhAmH09jWQmF+CTpdltKSMgL+MPFkCKPRgNORL0fBut0eurs6ZKwzHI6RSaux292I2vJnX3iRlWvW09lej8trwOnW0tkRQq2NMaiyislj51IxeATX3/hDqioNeOxOKclWWD6BsqJR5Nm9ODwlPP7i72nctY17fv8cW7etJWw6jNtfWquMVBDCFKItUYJlX4G4EKgQLYZ9nTNSPLcvoy0YZanXQePb1369mzwchj17oKgI6ur+ESDFQx2JwJAhCqMRn7t3L5x4IixaBIWFkJenfLYAkX37lGOJn3+2ifc5HAqIiX+PGaO8U+ybTMKwYX+/Z1eXAhj5+QpIiE2sWzArj+fz93Z0KMcVxxDBbrOIg/RtgrmJ4wwerLznizZxnmLfga+L8xclFF7vgQOkGCEiNgF6YhMMV+iLzpmjAKDRiJSVamqCqVNBMOGRI5VzFbYX57RqFfzoRwqjdLm+3jXP7fWFFjgoDDKbDrNhy1ZGDh1KQ1MjkUiQBS89xZxTTsNgy5edLPFYim3bqxk1YggBfy/LP17N1CnHMGxIGdFIgFCwlzyriUA4hFGTweXOIxhKIaSA1Jkk8XAHKks50XhEutoGu5t7f/8QF19yPlEhSpHNYrObyc/Po7O9jZXLlzNoSCkVQ8YRj8Xo7uyScUpRHynqJUVMUqzJbjURDYcpKXHi62gmqrYRCiXRas2UlhTy8usvsuqTbdQ27JH1nSXFZgq8FfhCm0gn7Nxxywu8s/gDlix/grJCh7yn6+tD2NxezJYsU6bNZvW2ddTt3ctpU09k5NBjWPDauwydPJk/vNcuXWuNVoAhUrRCSpv1AaEs9xFq4n+bbthXYJ5KU5Jvo/Ht6776bS/cRvGQdnYq4DNoENTWKqxGvCbYzoQJsH27OBF47TXlIb7qKoXdTJwIlZXw/PPwwQfwzDMKiAgWetddyoP/Rdvll8OUKfDnPyuu5tFHw+GHw1/+onzuhRcqnyHO/dln4YEHFKYqYrBnnKEAxK5dcNppINxSm02JDw4dCps3w9q1Cthec41y/HvuUQD2iCPg9dfh8ccV1rb/9sknSnjhhRcUoBTnIVxq4fJOnqwwPmGH/TfhMgsAHrjp9XD66f/6mgjbCzZ51FF//75+gFy9GkpK/v41AZBXXqkApcXy1a95bo9/aoGDApBbt24ilUzQ2d5O1bBK2Z3Sum+nLLnJK64imU4RDgRp7+hi/lnfZueWrbz8xgJOPXkeyVgnNrsVizqE2+Wit8eP0ZDG6sjHF4iTSKWoLNAT9scIqfJkUbZGm8XjLeLhRx5nzqknS9dap9OgNxqx2V34e7toaWyipWkHQ4ZNJaNKkecW7Yu92JxuOru70WZVOF0eyISIBbsw6LWYtRl0zhJMJjv7mnyUluRxzx/vYXt1NTavmn3Vbag0FqZNmkDDvvWccMKZHHv8OTzz3AKWfvQ0Y8c4Cfgy1NelKCyx4M4zY3V62LRjF2NGVRHtCTD/lMvEbFeWbNrNaxuUOKvYRIJGTvuSzrbouvnbTEMpnKuMj1XqJ0WxeWmenfqFX4NBCndNANLPfqYAyb33Ki6kAEgBENHo5wmbO+5QQEIAoADUI49UYmn9QCOYoAAS0WMujiGATIDUPwNI4UrOnq18rgDEn/8cDjtMAZqLLoKFC6GtDX71K3jwQYUtCbf0O99RXE4B5uJ9AiwE8L3/vgLUIob61lufA6Rwt598Eh57DARovfOOAqC/+c2/BkjBkm+5BR55RAFgEZ8U57Q/EIqjiOOJ9w/chC0EgP+zraUFLr1UWfP+SbGnn4YtWxSAHhgLFQz0vPMUu4lz70/a5UDvP2KBgwKQTz7zBEMqK9lbu5vDJ0zE4zTz8kvPU1ExCG9JFVabCb+/l0gwwMzZ8+lob+L9pcsYXDmc7p4WJkwYT1fLDoZWlNDY0sPQQfk01NQQzVjwWNS4rKILxsyOlgRGkwW9SYfRYOKZF17ltLmnydil6LLOmuyYTEZiYR++nhDVu9YwY8Z3CSdiqFVpwgEfkZi4/4TkWEYK2uY50lSUlhJNpNCG2nGXDSeptlDXFsLjMPOr39zP0lUrMVszDB6aTzQUQx9Lc87FV1BaMozt1XVMPHIoV13xXYYML8Lf0YvOoGf7rihmWwCdyYK3rJx4wM/Rh0/CpBmOXZdlwUfLaW1NEPYMR6ctpjuYIJ0xKMricm7231//NGIcmLpvUqJI0tipX/SLr36TCHYikhLCnRPbwBikKCsSD7GIywnXTjApwYjEw/lFACnc3c8+E20/UF0N114LIlYpgFOwHbEJlipA9oor4Le//dw9FsAs2FR/PFMkLwSQCTdSfL6ICfZvp5wCP/6xwk7feEP5rOuvV4BD/BYgK9bazyDFvuJcBEsVm2CAgpFu3QoCPMUXgdgEixOhhn4GKY4t2KiI9YntX8UgxRdJ/3H61ymA7Z8xPGG/yy6Dn/wEjjnm76+bYMbCHiJRtH/G/M03lTWJL43c9h+3wEEByNdfeYPCcjfF3lI2bV7P6NEjCXW3oDPoaO0KUFJcTl3NdjZu2Mjsud8l5OuSUmQFBV56fN04nG6M9FBRUsSWnTWMGz2MdCxGQ2svxU41LrcLm1HHxl0dUkcyv9CNRmfnsWcXMH/OHCKxMPv21TD+sLFSNScWjdDRHWbpu88y98xL+1r3othtDilm29vbQZ7HJeOe+c6UVADKoCMRasFs85LKWohkzOi1SX53z8N8tHoZ5aVaTCoPRx57PJ0tvUw97iRUejXPPv8S1TtWMWKUh3Agg80UR0iHd0fcqNSd1DekyGQNVA3TU+Q1M3rwXCYMH8av7/4DoViSUDRESckgDJ4SNrYWkswKGBRAqNwLUhJNCO0KZtnnaguGWeKx0rj4l1/9hhEAKRjM8cf/I0AKgBFgceqpUFEBgtUIt/ifAeTvf68AwqxZSixz7lwFIAXrERllsYnXBeMULvaXBUjBzvpBSrjcJ5+ssM0TTlBidb/7HQh2K0BDAIuI4e0PkCJOKWJ9/Zt4jzh34XbLEAbK/wXzHQiQgjWKY/87gBRMc8mSv7e/YNq33fbF1+TWW2HSJCVTLdbSv4l4pwhNCPuMG/f3DHHxYoUlX3fdF4cHvvrVz+2xnwUOCkBu2riagsIK1q9bx9BhQ2ls3IfdIMiCg5WfbKWwuEAytngsTmd3D42125ky7Vj+8vgzHHfsZM6Y/10+XPYWR00aK+XN8pwiw6yXbm6JK0tGrcWsStAb0aI36aksL2RHfRennnEpf/nTHzE7jFJZx+4wS1XwRCpJY0MrqbgPt6dYqoUHA11EIwk8Hi+pdJREIoLZYMZtFd6OC7XoYknG6fBFSSS1OD3FROM+brzlLnSxEJFkDH8gw423/JbqHVtoba0lpe2ibl8vazbspKrMzKiRJXS29mK16fh4TQ1HTvGyrylAS7OaskEW8j16hpcfxvjhx3HNz3/NoNIyyWItbhujxgzjiEmn8YtHVxFLiTpIhUXK2kcxhkGMXlCL5FVatl4We200Lr75q9/wwn0UiQ0BOIIBCld2/XrFxRYPvGArP/2p4gbfcIOSYRUAKbZRoz5P0oi4pHB5xQMskiBLlyqAJADyi7YvC5DCxRbuv3CbhRsqgFa4liIWKJJAYl2COQowEgxPZNXFNhAgBXu9+WYQ7EusUwCiYJT9JTQD1zcwBinYpGDBIq4q9hPgefbZXxyD/LKWF0kgYU8RbxXHkrPOVcoXh1i/OFcRMhCxVLGJcIVI6Ih1iWslvgz63XGx/v1Lkb7sOnLv+0IL/NcBUgBSZ3sNvb4IbW3tmM1mJh4+hleeeQKnWY0/piOWzDBi5Ciqd22ntLCA9vYGOrpD5HlEcbKWKVOPJ5vowmXR4+vuxe3S0tTQQ0JlxGY1YdYlGFRgZUedn3y7jtKqoWxv6OU7Z1/Effc9hMOllPfke8y4XHm88dbbeNyFFBTYSCXFCFWVdLHNeoMUnY1G4xTnWQnFoMCtl5lktSZLKBKlqzNAZeUIMnonGzat48prfs6Zc+YzdPRI3nlrIUdPPZ6/vvuyLIiPxptoaU0RCAXo6ghRWWHi+KNnct8fH8fu0uPxOlHrU2xd30XVEaUYsxkmj5rIuwu3yxkzZYUFWE0WKipK8Pn91NS3cvq5V3Lnc5+SVhn7Jh5KXXLZbSNjkBlRH6mmtNBJ/ddhkIGA4u4KkBT1dYLVCGAUAClq7gTLEyxNPNDC3RassB8g//AH5X3ibwJIBGgJd12AiXi/iPEdKEAKEHjpJSUeKdYqNgEwIoPev4myHPE3wXD73eiBACkYrGCF27YpoQFxngKgx479x4dk/yTNQw8pySiR1RaAf//9Sp3i193EF8dJJynxWxEPFZsAuWXLFOYoWLjIWkvxEpR6R3ENRNxVhBpExYDYxMUX7xfhitz2H7PAfw0gk8kk8XicaDRKY8MeOTq1sqqSffsasZsNNDdUk/S1YskrwR9MEI0myGQTlBXqeO3VJcw8eSZFFcNoa2okSZLyylKMsV4pXVZgUXPrn57hlJlzKcq3kGfJ4C3yUtsUoLTAQk/MQHc4xYcrVjB37nyam9qwWKwYTSp0Oj3btm3F5S7AatbLMqFgLCbLfzJZ0U0TkOK7hcV2khmjLPIWReTiNZVKTyQhiJVKJoE++GA1t/z2bq6+6lI2bd/JUVMn8vKCt2ltq8Ft0VJZ5mVbTS3RVIKq0kI6W3o47eTz+MlVV3HYlPGYXDqcVgu+cJZwNohNo6PEa2bTmhhWh40TTvoOpS4Db77xEgXFLhwOI2eeeSn3P7+Czc1a2RIpQVHcDmm1VBaSKj/CO/TaafigL1b2dW4XAZCijOWLNsFsBGv5IrYiXhtYaiLKUQQ7EwmK/+Qm4nvd3Z8DxNc5togTikz3vyo/+qLjCoAVhu8HtK/z2bl9/k9YoKWlRY5pNhqFTKJe6i/IMSn9X1gDzkKV7e97+yenJl4W2VTx83cAWV/H2s/WyaTMlm2bcDnyqSq1Eg+3olJ7iCQyON0edu3eQ2Whg8amZow2Cza76H4J8c6iRVx7/ZXY0gFi0TglhW6WrPiIYcOPxGxWUeTQo9HraGwLYdNnWb25hmHjJkp3PBwMSqGHspJyktkYwUCA2poGCoqK0KrTcnohBiNWiwmNRoW/pxuDRovZqqe9w8/YEUXo9CYee/RRvjV9BoOHDiODWiqLDx12NEWlJZx3/lksXfY+RmuW5uYmujp8eL16ero7MNitVAzzcuSI2bz16uvccef/4LI7Of2i+QQDMSorHVisNgqLtdRs6qSkysqWT2MkjDrsBhdleXZcHi/1dTVUlRejstqkwvmmFj217ULLUgzsEm2HotVQXBjlGpQWOGlceuv/iZswt8icBQ5VCwiAFMAoVLv+IwApQFLEwfoBUrjYjzz8KGWlhRw15XDee285R0yeSGt7K8UFHvSZBDV7mwhGInIk6rRpR7F902r21jYwYcqxMqFSX7sHm8XA6EItwWiSqqGD+cWtD3Hnzb8gqtaRjIcxmvR0dfZg0av4bGct4yYcTjyewajX0tHZI39bHQ56erolq7XanBj0KvzdPWhMFqkWvuGzdRx+2ASSQrTCoMJqs1HgsKMzG0gmYuhMNqKi1TAN7Z0RvnPh9zn3u9+T7HLdthXsrd4nQTcV9eMtzKNhX5yKIWbKvRUE/SnyCyqYO3ceHR0tXP/Ab1HFfZi0dooLxMgIPf5gFz889zIWvLGGOp+fQLMfq9nIt8+Yx5sL30Kn1vHQw/fxzItPobMY2NZUyda6HrIqNeqUiqwQExcutkpFcb6dxuV9yYRD9e7LrStngUPcAl8EkII9imds/+1LMciBACk0GAUYLV68mLQo5o7H0ekMHDZuDE8+/zzzTpuDzeogFQ3y6SdrKSxwceRR0+jqqCERS6I22NiybQsjRwxCnUlTZE3j7/Xh8TjZtreR4UNH0tTei6e4GL0YlZDIUldfS/WuOmbNmU1PT0Civpg+qNVopZiuyI5HIiFC4YQUpAiH/CQyapk5F1ny/LwC4gk/6lSUfLcNs15LRmcRvAydRkNEaFUaxf9tzDrtVLzeQQSDMZyeFLUN1WLKNZPHTmLpx5/h8doxGdJMHHkMBWUVzDhhNhs3bOW5F15ln383xaUQaOthUKWDloYgeq2TmTOPRWUcxIP/8zQajYETTziB6h0tBMMNHD5lPPm2fDZt+QRnYSGt4TFsb+4iK+KPMgwlxjUIVR8oEQzywzsP8dsvt7ycBQ5dC4iKl46ODskexY9wtYWLfcAA2e9iCxYpGGRNTQ2frfuUoBi2ZTZz8803M3PmdH5+/Y1SDUf0X0ejfprr93HEMUex/ZMVDBl2GHFVEovRQFNrA7oYBNs38tGatfz0J5fz4ccbKCkbhNPtpdsXoNSWIaR1SRapNVuwmgy88c77nDHvdFobG6S7rtVrpDqHQa+honIoDfW7yWo0LHl/JZMmjGDMyGEUFpTQ3dmCWZvG6rTKsQ6CmqmzKUwWG+GEjmg6SzCqZf7ZZ+HwuPH7I4wZVUhLcwehnh6S8QxqS4auljQjRpRw660P8aeH72bOifNZ+M5iVn22nkSil9JBDkyGJNOOGM3qtXWYHXoymV6cjjx0mYksevs9vnPeRbzz3juSSbrzNBwzaRoZjYq1G7fRpRpOfUekb9SCAEih5iPqJLWUl+ZTtyTnYh+6j19uZYe6BQS58/l8Mv4oAFKAo+hk+9oAKU64PwYp0HdgHPKjpUtJZ1PsrN7FQw8/wfXX/wyvx0UsFuWIo6YQ7G0l0FNPXoETVdaGw+mhs9cnM8p6k4byfCsFqgaqa1swZTXUhUwMHjac1uYmnG4bQ/IttMfV7K1pQ2MyMLjUw96mMKVFLqKhOJmsmtbmemwuJ6pMCrPVwbatmyksK5PM02FW43RYSaQ1FOY7yMT8Uvoslc0SjoRE6SJOi4WWDj8Zg41tW/fx0+t+RSypZtBgD3kuK3urG9CodEyccjTVNZ+Qjuo48YSptLaFmXXSdELRCBs3bWb37l209NRhs+goKLBTku/FZvPSGW4nHO1kUNEQxoz/Nnfc/nti8SSDhxfRuLuNisFlpOMRxg8bhz8VZ/XeKN1hi1K2p1LGxPaXiZQVuWlY+rtD/R7MrS9ngUPWAkIDVs6t6mOQ/QApiMjXcrH7AXL/OKRwrVsaG9i2fj33P/c0mVCEiy86l1nfOon3li5Fp4Jho0agCnTQk/DR5svidRjo6QlSUTkEh1VHUYEddbSeSDSNVmWkJ5TAHw4ydvxkdu/ZSzKTIptxkIi14w9FqaoYxIcrVzJv7iyaGtrZXb2HEaOHyYyqGA+rURl4b9lyOntaOefs7+Fy6RBNfSmMmPRpHDYT2UQSvUGoifcQjGXwOlw0dQbYsb0RZ34BF170UxIpKCjM48JLzmTxwrdp7Q3S4w/jcsVwO51UekaQQs2cU+fS2rqXBR+8Te2WPQyfkC/bGU8/9UzeeHkZXf4gg8aBSWdm3oyf0hoP8OTDjxELZghrA9LtH1k4gWBvNxNGj6SurY22mIbmcKXsoRHutVAVV6TRMlSU5FOXA8hD9uHLLezQtYCcWRUIEAwG/8YeRahuIHv82gA5MJM9kEUKkNy2dROL3n0Xr7eEsaOH0tnWjNGgIUsCt7eQxQsXYnXaSGV1WPQmBlVVoNdmGTFyBJos+Jo2YDQ58AUD2N0lbNlew5Bho9DrVQSDIVQaLYGeTuxODxablZUrljD9xNOob6hFq9XjslnQqFJkNTpU6LHYTHQ015I155Nn15CIJ0mkdeR7LNgsZhKxEA6rlab2VjQGC3qtGMRlob1xHxi8/OrWe9m4YQcWiw53kYsxw4ayadtafD0BSgs9dIWCzD5pHsuXruLi732P5WuXUlu3m46OAKUlGvbt9nPFVdewZfN6PvtkHeWDLXjyTMyfczWvv72clR9/ismRwd8bprTcSZ6jgFOnzuL9j5Yh0Pyi83/AxXcsFbxd6dEWArsykZ2hvNhL/bJcDPLQfQxzKzsULSAYo9/vl7mKgbFHEX/8V+61OJd/m6SRz2bfGADxQQNjkSJh0/+zp6YGf08zs2fOprZmM59+so4en0+OOMiiw6aLobYXoUFFZ+tu9u2r48qf/ZTGrWuJpuwkk70YrTYeffwlfvCDCzAazTS1tMiyvEw0xbjJR+Lr8pGI9hLPIpXALUY9OlUCrU4DGgMffvQpJ834FmtXLSaUNjJ6cCl2twetyYFBncWg06BVZdAZdXJ2NmqDLBly6PVkbR527W0mg4lf3vR7PF4zap0YxRqmuKCK226/hVlzZ6PXGfjR9y9lzYpPOfe8i7n6hkspLHOTCGvo7GkiEs1SVlpGOBJEp4kzqLKUpB/OufgyLr/2RllfnVSnyYTTuETBut7IyUfOJpOIEk0m0TutPLs8IFsipXSFqPOR9F9NUb6TPe/nstiH4kOYW9P/rgX2Z38CswSZE4xRxBwFGArG2P8jXOuByZkvYo9fGiD7QbLfze4HyX42KeKS4t8CQMWPdAn7fv53zZb79JwFchb4plmgv+hbJF4EQxQ/AiD7fwaCY39x+AED5MBY5MCkjQBEAY7iR/x9IEAOvDD/ph79m3YNc+ebs0DOAv9BCwwEuP5/97vP/YmYgb/7QfSfJWf6l/alXOz+Nw9khv0g2e929wOjMohKYZD7bzmQ/A/eEblD5SyQs8AXZp6FWfrLdsTvfibZ//vLguNXcrH3B8n9GWV/IifnWufu2pwFchb437ZAPzMcCIb9oDnwtX+3zq/EIAeC5MC45EBQzAHkvzN57vWcBXIW+G9boN/NHgiGA93pfxZz3H9dXwsgvwgo+wHzv33iuePnLJCzQM4CX9YCA4Gyf58vC45fy8X+ooXtH1vMxRq/7OXLvS9ngZwF/hsW2B8EvwooDlzPATHI/8aJ5Y6Zs0DOAjkLHCoWyAHkoXIlcuvIWSBngUPOAjmAPOQuSW5BOQvkLHCoWCAHkIfKlcitI2eBnAVvC0AKAAAAd0lEQVQOOQvkAPKQuyS5BeUskLPAoWKBHEAeKlcit46cBXIWOOQskAPIQ+6S5BaUs0DOAoeKBXIAeahcidw6chbIWeCQs0AOIA+5S5JbUM4COQscKhbIAeShciVy68hZIGeBQ84COYA85C5JbkE5C+QscKhY4P8BCh4gwGoW3WcAAAAASUVORK5CYII=;" vertex="1" parent="1">
                    <mxGeometry x="1210" y="-190" width="328" height="520" as="geometry"/>
                </mxCell>
                <mxCell id="51" style="edgeStyle=orthogonalEdgeStyle;html=1;entryX=0.25;entryY=0;entryDx=0;entryDy=0;" edge="1" parent="1" source="41" target="42">
                    <mxGeometry relative="1" as="geometry"/>
                </mxCell>
                <mxCell id="41" value="&lt;div style=&quot;line-height: 22px&quot;&gt;Suveikia event listeneris uzdetas ant ikoneles&lt;/div&gt;" style="rounded=0;whiteSpace=wrap;html=1;" vertex="1" parent="1">
                    <mxGeometry x="1020" y="280" width="160" height="50" as="geometry"/>
                </mxCell>
                <mxCell id="42" value="&lt;div style=&quot;line-height: 22px&quot;&gt;&lt;div style=&quot;color: rgb(255 , 255 , 255) ; background-color: rgb(25 , 53 , 73) ; font-family: &amp;#34;cascadia code&amp;#34; , &amp;#34;menlo&amp;#34; , &amp;#34;monaco&amp;#34; , &amp;#34;courier new&amp;#34; , monospace , &amp;#34;consolas&amp;#34; , &amp;#34;courier new&amp;#34; , monospace ; font-size: 16px ; line-height: 22px&quot;&gt;&lt;span style=&quot;color: #fb94ff&quot;&gt;function&lt;/span&gt;&lt;span style=&quot;color: #9effff&quot;&gt; &lt;/span&gt;&lt;span style=&quot;color: #ffc600&quot;&gt;movieDeleteHandler&lt;/span&gt;&lt;span style=&quot;color: #ffee80&quot;&gt;(&lt;/span&gt;&lt;span style=&quot;color: #e1efff&quot;&gt;event&lt;/span&gt;&lt;span style=&quot;color: #ffee80&quot;&gt;)&lt;/span&gt;&lt;/div&gt;&lt;/div&gt;" style="rounded=0;whiteSpace=wrap;html=1;" vertex="1" parent="1">
                    <mxGeometry x="1010" y="365" width="340" height="50" as="geometry"/>
                </mxCell>
                <mxCell id="46" style="edgeStyle=orthogonalEdgeStyle;html=1;" edge="1" parent="1" source="44" target="45">
                    <mxGeometry relative="1" as="geometry"/>
                </mxCell>
                <mxCell id="52" style="edgeStyle=orthogonalEdgeStyle;html=1;entryX=0;entryY=0.5;entryDx=0;entryDy=0;" edge="1" parent="1" source="43" target="44">
                    <mxGeometry relative="1" as="geometry"/>
                </mxCell>
                <mxCell id="43" value="&lt;div style=&quot;line-height: 22px&quot;&gt;pagal event.target surandamas Li elementas nt kurio buvo paspausta&lt;/div&gt;" style="rounded=0;whiteSpace=wrap;html=1;" vertex="1" parent="1">
                    <mxGeometry x="1010" y="415" width="160" height="95" as="geometry"/>
                </mxCell>
                <mxCell id="44" value="&lt;div style=&quot;line-height: 22px&quot;&gt;pasiimam movieId&lt;/div&gt;" style="rounded=0;whiteSpace=wrap;html=1;" vertex="1" parent="1">
                    <mxGeometry x="1200" y="415" width="160" height="95" as="geometry"/>
                </mxCell>
                <mxCell id="53" style="edgeStyle=orthogonalEdgeStyle;html=1;" edge="1" parent="1" source="45" target="47">
                    <mxGeometry relative="1" as="geometry"/>
                </mxCell>
                <mxCell id="45" value="&lt;div style=&quot;line-height: 22px&quot;&gt;Su movieId isfiltruojam pagrindini masyva&lt;/div&gt;" style="rounded=0;whiteSpace=wrap;html=1;" vertex="1" parent="1">
                    <mxGeometry x="1050" y="587.5" width="160" height="95" as="geometry"/>
                </mxCell>
                <mxCell id="54" style="edgeStyle=orthogonalEdgeStyle;html=1;entryX=0.5;entryY=0;entryDx=0;entryDy=0;" edge="1" parent="1" source="47" target="48">
                    <mxGeometry relative="1" as="geometry"/>
                </mxCell>
                <mxCell id="47" value="&lt;div style=&quot;line-height: 22px&quot;&gt;&lt;div style=&quot;color: rgb(255 , 255 , 255) ; background-color: rgb(25 , 53 , 73) ; font-family: &amp;#34;cascadia code&amp;#34; , &amp;#34;menlo&amp;#34; , &amp;#34;monaco&amp;#34; , &amp;#34;courier new&amp;#34; , monospace , &amp;#34;consolas&amp;#34; , &amp;#34;courier new&amp;#34; , monospace ; font-size: 16px ; line-height: 22px&quot;&gt;&lt;span style=&quot;color: #ffc600&quot;&gt;renderMovies&lt;/span&gt;&lt;span style=&quot;color: #e1efff&quot;&gt;()&lt;/span&gt;&lt;/div&gt;&lt;/div&gt;" style="rounded=0;whiteSpace=wrap;html=1;" vertex="1" parent="1">
                    <mxGeometry x="1040" y="727.5" width="160" height="95" as="geometry"/>
                </mxCell>
                <mxCell id="48" value="END" style="ellipse;whiteSpace=wrap;html=1;" vertex="1" parent="1">
                    <mxGeometry x="1060" y="920" width="120" height="80" as="geometry"/>
                </mxCell>
            </root>
        </mxGraphModel>
    </diagram>
</mxfile>